G04 #@! TF.GenerationSoftware,KiCad,Pcbnew,8.0.4*
G04 #@! TF.CreationDate,2024-09-28T14:18:14+10:00*
G04 #@! TF.ProjectId,Amiga_4000_4IDE,416d6967-615f-4343-9030-305f34494445,rev?*
G04 #@! TF.SameCoordinates,Original*
G04 #@! TF.FileFunction,Copper,L2,Bot*
G04 #@! TF.FilePolarity,Positive*
%FSLAX46Y46*%
G04 Gerber Fmt 4.6, Leading zero omitted, Abs format (unit mm)*
G04 Created by KiCad (PCBNEW 8.0.4) date 2024-09-28 14:18:14*
%MOMM*%
%LPD*%
G01*
G04 APERTURE LIST*
G04 Aperture macros list*
%AMRoundRect*
0 Rectangle with rounded corners*
0 $1 Rounding radius*
0 $2 $3 $4 $5 $6 $7 $8 $9 X,Y pos of 4 corners*
0 Add a 4 corners polygon primitive as box body*
4,1,4,$2,$3,$4,$5,$6,$7,$8,$9,$2,$3,0*
0 Add four circle primitives for the rounded corners*
1,1,$1+$1,$2,$3*
1,1,$1+$1,$4,$5*
1,1,$1+$1,$6,$7*
1,1,$1+$1,$8,$9*
0 Add four rect primitives between the rounded corners*
20,1,$1+$1,$2,$3,$4,$5,0*
20,1,$1+$1,$4,$5,$6,$7,0*
20,1,$1+$1,$6,$7,$8,$9,0*
20,1,$1+$1,$8,$9,$2,$3,0*%
G04 Aperture macros list end*
G04 #@! TA.AperFunction,ComponentPad*
%ADD10R,2.000000X2.000000*%
G04 #@! TD*
G04 #@! TA.AperFunction,ComponentPad*
%ADD11O,2.000000X2.000000*%
G04 #@! TD*
G04 #@! TA.AperFunction,ComponentPad*
%ADD12RoundRect,0.250000X-0.600000X0.600000X-0.600000X-0.600000X0.600000X-0.600000X0.600000X0.600000X0*%
G04 #@! TD*
G04 #@! TA.AperFunction,ComponentPad*
%ADD13C,1.700000*%
G04 #@! TD*
G04 #@! TA.AperFunction,Conductor*
%ADD14C,0.250000*%
G04 #@! TD*
G04 #@! TA.AperFunction,Profile*
%ADD15C,0.050000*%
G04 #@! TD*
G04 APERTURE END LIST*
D10*
X106934000Y-86750000D03*
D11*
X106934000Y-91830000D03*
D10*
X103632000Y-86750000D03*
D11*
X103632000Y-91830000D03*
D10*
X117602000Y-91830000D03*
D11*
X117602000Y-86750000D03*
D12*
X153162000Y-78876000D03*
D13*
X153162000Y-81416000D03*
X150622000Y-78876000D03*
X150622000Y-81416000D03*
X148082000Y-78876000D03*
X148082000Y-81416000D03*
X145542000Y-78876000D03*
X145542000Y-81416000D03*
X143002000Y-78876000D03*
X143002000Y-81416000D03*
X140462000Y-78876000D03*
X140462000Y-81416000D03*
X137922000Y-78876000D03*
X137922000Y-81416000D03*
X135382000Y-78876000D03*
X135382000Y-81416000D03*
X132842000Y-78876000D03*
X132842000Y-81416000D03*
X130302000Y-78876000D03*
X130302000Y-81416000D03*
X127762000Y-78876000D03*
X127762000Y-81416000D03*
X125222000Y-78876000D03*
X125222000Y-81416000D03*
X122682000Y-78876000D03*
X122682000Y-81416000D03*
X120142000Y-78876000D03*
X120142000Y-81416000D03*
X117602000Y-78876000D03*
X117602000Y-81416000D03*
X115062000Y-78876000D03*
X115062000Y-81416000D03*
X112522000Y-78876000D03*
X112522000Y-81416000D03*
X109982000Y-78876000D03*
X109982000Y-81416000D03*
X107442000Y-78876000D03*
X107442000Y-81416000D03*
X104902000Y-78876000D03*
X104902000Y-81416000D03*
D12*
X153162000Y-97070000D03*
D13*
X153162000Y-99610000D03*
X150622000Y-97070000D03*
X150622000Y-99610000D03*
X148082000Y-97070000D03*
X148082000Y-99610000D03*
X145542000Y-97070000D03*
X145542000Y-99610000D03*
X143002000Y-97070000D03*
X143002000Y-99610000D03*
X140462000Y-97070000D03*
X140462000Y-99610000D03*
X137922000Y-97070000D03*
X137922000Y-99610000D03*
X135382000Y-97070000D03*
X135382000Y-99610000D03*
X132842000Y-97070000D03*
X132842000Y-99610000D03*
X130302000Y-97070000D03*
X130302000Y-99610000D03*
X127762000Y-97070000D03*
X127762000Y-99610000D03*
X125222000Y-97070000D03*
X125222000Y-99610000D03*
X122682000Y-97070000D03*
X122682000Y-99610000D03*
X120142000Y-97070000D03*
X120142000Y-99610000D03*
X117602000Y-97070000D03*
X117602000Y-99610000D03*
X115062000Y-97070000D03*
X115062000Y-99610000D03*
X112522000Y-97070000D03*
X112522000Y-99610000D03*
X109982000Y-97070000D03*
X109982000Y-99610000D03*
X107442000Y-97070000D03*
X107442000Y-99610000D03*
X104902000Y-97070000D03*
X104902000Y-99610000D03*
D12*
X153162000Y-67192000D03*
D13*
X153162000Y-69732000D03*
X150622000Y-67192000D03*
X150622000Y-69732000D03*
X148082000Y-67192000D03*
X148082000Y-69732000D03*
X145542000Y-67192000D03*
X145542000Y-69732000D03*
X143002000Y-67192000D03*
X143002000Y-69732000D03*
X140462000Y-67192000D03*
X140462000Y-69732000D03*
X137922000Y-67192000D03*
X137922000Y-69732000D03*
X135382000Y-67192000D03*
X135382000Y-69732000D03*
X132842000Y-67192000D03*
X132842000Y-69732000D03*
X130302000Y-67192000D03*
X130302000Y-69732000D03*
X127762000Y-67192000D03*
X127762000Y-69732000D03*
X125222000Y-67192000D03*
X125222000Y-69732000D03*
X122682000Y-67192000D03*
X122682000Y-69732000D03*
X120142000Y-67192000D03*
X120142000Y-69732000D03*
X117602000Y-67192000D03*
X117602000Y-69732000D03*
X115062000Y-67192000D03*
X115062000Y-69732000D03*
X112522000Y-67192000D03*
X112522000Y-69732000D03*
X109982000Y-67192000D03*
X109982000Y-69732000D03*
X107442000Y-67192000D03*
X107442000Y-69732000D03*
X104902000Y-67192000D03*
X104902000Y-69732000D03*
D10*
X114300000Y-91830000D03*
D11*
X114300000Y-86750000D03*
D14*
X114300000Y-83910412D02*
X116287000Y-81923412D01*
X114554588Y-80101000D02*
X113792000Y-79338412D01*
X116287000Y-80908588D02*
X115479412Y-80101000D01*
X116287000Y-81923412D02*
X116287000Y-80908588D01*
X113792000Y-79338412D02*
X113792000Y-68462000D01*
X115479412Y-80101000D02*
X114554588Y-80101000D01*
X114300000Y-86750000D02*
X114300000Y-83910412D01*
X113792000Y-68462000D02*
X115062000Y-67192000D01*
X136697000Y-80191000D02*
X136697000Y-70957000D01*
X137922000Y-99610000D02*
X136697000Y-98385000D01*
X136697000Y-98385000D02*
X136697000Y-82641000D01*
X136697000Y-82641000D02*
X137922000Y-81416000D01*
X136697000Y-70957000D02*
X137922000Y-69732000D01*
X137922000Y-81416000D02*
X136697000Y-80191000D01*
X123997000Y-82641000D02*
X125222000Y-81416000D01*
X116377000Y-94938000D02*
X116227000Y-94788000D01*
X116227000Y-94788000D02*
X116227000Y-82791000D01*
X117602000Y-99610000D02*
X116377000Y-98385000D01*
X121457000Y-80191000D02*
X121457000Y-70957000D01*
X153162000Y-99610000D02*
X151937000Y-98385000D01*
X151937000Y-80191000D02*
X151937000Y-70957000D01*
X122682000Y-99610000D02*
X121457000Y-98385000D01*
X121457000Y-98385000D02*
X121457000Y-82641000D01*
X126537000Y-70957000D02*
X127762000Y-69732000D01*
X123997000Y-98385000D02*
X123997000Y-82641000D01*
X117602000Y-81416000D02*
X116377000Y-80191000D01*
X123907000Y-80101000D02*
X123907000Y-71047000D01*
X122682000Y-81416000D02*
X121457000Y-80191000D01*
X125222000Y-81416000D02*
X123907000Y-80101000D01*
X151937000Y-70957000D02*
X153162000Y-69732000D01*
X127762000Y-81416000D02*
X126537000Y-80191000D01*
X102257000Y-96965000D02*
X102257000Y-84061000D01*
X126537000Y-82641000D02*
X127762000Y-81416000D01*
X126537000Y-80191000D02*
X126537000Y-70957000D01*
X151937000Y-82641000D02*
X153162000Y-81416000D01*
X104902000Y-81416000D02*
X103677000Y-80191000D01*
X116377000Y-98385000D02*
X116377000Y-94938000D01*
X151937000Y-98385000D02*
X151937000Y-82641000D01*
X153162000Y-81416000D02*
X151937000Y-80191000D01*
X102257000Y-84061000D02*
X104902000Y-81416000D01*
X103677000Y-80191000D02*
X103677000Y-70957000D01*
X103677000Y-70957000D02*
X104902000Y-69732000D01*
X126537000Y-98385000D02*
X126537000Y-82641000D01*
X116377000Y-80191000D02*
X116377000Y-70957000D01*
X127762000Y-99610000D02*
X126537000Y-98385000D01*
X123907000Y-71047000D02*
X125222000Y-69732000D01*
X121457000Y-82641000D02*
X122682000Y-81416000D01*
X121457000Y-70957000D02*
X122682000Y-69732000D01*
X116377000Y-70957000D02*
X117602000Y-69732000D01*
X116227000Y-82791000D02*
X117602000Y-81416000D01*
X125222000Y-99610000D02*
X123997000Y-98385000D01*
X104902000Y-99610000D02*
X102257000Y-96965000D01*
X139237000Y-70957000D02*
X140462000Y-69732000D01*
X139237000Y-98385000D02*
X139237000Y-82641000D01*
X139237000Y-80191000D02*
X139237000Y-70957000D01*
X140462000Y-81416000D02*
X139237000Y-80191000D01*
X139237000Y-82641000D02*
X140462000Y-81416000D01*
X140462000Y-99610000D02*
X139237000Y-98385000D01*
X108667000Y-70957000D02*
X108667000Y-80191000D01*
X107442000Y-69732000D02*
X108667000Y-70957000D01*
X108667000Y-80191000D02*
X107442000Y-81416000D01*
X120142000Y-99610000D02*
X118917000Y-98385000D01*
X118917000Y-93205000D02*
X120142000Y-91980000D01*
X118917000Y-98385000D02*
X118917000Y-93205000D01*
X120142000Y-91980000D02*
X120142000Y-81416000D01*
X144317000Y-82641000D02*
X145542000Y-81416000D01*
X144317000Y-70957000D02*
X145542000Y-69732000D01*
X145542000Y-99610000D02*
X144317000Y-98385000D01*
X144317000Y-80191000D02*
X144317000Y-70957000D01*
X144317000Y-98385000D02*
X144317000Y-82641000D01*
X145542000Y-81416000D02*
X144317000Y-80191000D01*
X130302000Y-99610000D02*
X129077000Y-98385000D01*
X129077000Y-98385000D02*
X129077000Y-82641000D01*
X130302000Y-81416000D02*
X129077000Y-80191000D01*
X129077000Y-80191000D02*
X129077000Y-70957000D01*
X129077000Y-82641000D02*
X130302000Y-81416000D01*
X129077000Y-70957000D02*
X130302000Y-69732000D01*
X109982000Y-69732000D02*
X111207000Y-70957000D01*
X111207000Y-70957000D02*
X111207000Y-80191000D01*
X108757000Y-82641000D02*
X109982000Y-81416000D01*
X109982000Y-99610000D02*
X108757000Y-98385000D01*
X108757000Y-98385000D02*
X108757000Y-82641000D01*
X111207000Y-80191000D02*
X109982000Y-81416000D01*
X146857000Y-80191000D02*
X146857000Y-70957000D01*
X146857000Y-98385000D02*
X146857000Y-82641000D01*
X148082000Y-99610000D02*
X146857000Y-98385000D01*
X146857000Y-82641000D02*
X148082000Y-81416000D01*
X146857000Y-70957000D02*
X148082000Y-69732000D01*
X148082000Y-81416000D02*
X146857000Y-80191000D01*
X106217000Y-94491544D02*
X105559000Y-93833544D01*
X106217000Y-82505000D02*
X106217000Y-68417000D01*
X106217000Y-98385000D02*
X106217000Y-94491544D01*
X106217000Y-68417000D02*
X107442000Y-67192000D01*
X105559000Y-93833544D02*
X105559000Y-83163000D01*
X107442000Y-99610000D02*
X106217000Y-98385000D01*
X105559000Y-83163000D02*
X106217000Y-82505000D01*
X134157000Y-98385000D02*
X134157000Y-82641000D01*
X134067000Y-80101000D02*
X134067000Y-71047000D01*
X135382000Y-99610000D02*
X134157000Y-98385000D01*
X135382000Y-81416000D02*
X134067000Y-80101000D01*
X134157000Y-82641000D02*
X135382000Y-81416000D01*
X134067000Y-71047000D02*
X135382000Y-69732000D01*
X111297000Y-82641000D02*
X112522000Y-81416000D01*
X111297000Y-98385000D02*
X111297000Y-82641000D01*
X112522000Y-99610000D02*
X111297000Y-98385000D01*
X132842000Y-99610000D02*
X131617000Y-98385000D01*
X132842000Y-81416000D02*
X131617000Y-80191000D01*
X131617000Y-80191000D02*
X131617000Y-70957000D01*
X131617000Y-82641000D02*
X132842000Y-81416000D01*
X131617000Y-70957000D02*
X132842000Y-69732000D01*
X131617000Y-98385000D02*
X131617000Y-82641000D01*
X141777000Y-82641000D02*
X143002000Y-81416000D01*
X143002000Y-81416000D02*
X141777000Y-80191000D01*
X141777000Y-80191000D02*
X141777000Y-70957000D01*
X141777000Y-98385000D02*
X141777000Y-82641000D01*
X143002000Y-99610000D02*
X141777000Y-98385000D01*
X141777000Y-70957000D02*
X143002000Y-69732000D01*
X113837000Y-98385000D02*
X113837000Y-94117000D01*
X113837000Y-94117000D02*
X112925000Y-93205000D01*
X112925000Y-83553000D02*
X115062000Y-81416000D01*
X115062000Y-99610000D02*
X113837000Y-98385000D01*
X112925000Y-93205000D02*
X112925000Y-83553000D01*
X150622000Y-81416000D02*
X149397000Y-80191000D01*
X149397000Y-98385000D02*
X149397000Y-82641000D01*
X149397000Y-82641000D02*
X150622000Y-81416000D01*
X149397000Y-80191000D02*
X149397000Y-70957000D01*
X150622000Y-99610000D02*
X149397000Y-98385000D01*
X149397000Y-70957000D02*
X150622000Y-69732000D01*
G04 #@! TA.AperFunction,Conductor*
G36*
X159963039Y-62249685D02*
G01*
X160008794Y-62302489D01*
X160020000Y-62354000D01*
X160020000Y-104016263D01*
X160000315Y-104083302D01*
X159947511Y-104129057D01*
X159896265Y-104140263D01*
X96390265Y-104275734D01*
X96323183Y-104256192D01*
X96277316Y-104203486D01*
X96266000Y-104151734D01*
X96266000Y-91829997D01*
X102376723Y-91829997D01*
X102376723Y-91830002D01*
X102395793Y-92047975D01*
X102395793Y-92047979D01*
X102452422Y-92259322D01*
X102452424Y-92259326D01*
X102452425Y-92259330D01*
X102498661Y-92358484D01*
X102544897Y-92457638D01*
X102544898Y-92457639D01*
X102670402Y-92636877D01*
X102825123Y-92791598D01*
X103004361Y-92917102D01*
X103202670Y-93009575D01*
X103414023Y-93066207D01*
X103596926Y-93082208D01*
X103631998Y-93085277D01*
X103632000Y-93085277D01*
X103632002Y-93085277D01*
X103660254Y-93082805D01*
X103849977Y-93066207D01*
X104061330Y-93009575D01*
X104259639Y-92917102D01*
X104438877Y-92791598D01*
X104593598Y-92636877D01*
X104719102Y-92457639D01*
X104811575Y-92259330D01*
X104868207Y-92047977D01*
X104887277Y-91830000D01*
X104868207Y-91612023D01*
X104833548Y-91482675D01*
X104811577Y-91400677D01*
X104811576Y-91400676D01*
X104811575Y-91400670D01*
X104719102Y-91202362D01*
X104719100Y-91202359D01*
X104719099Y-91202357D01*
X104593599Y-91023124D01*
X104593596Y-91023121D01*
X104438877Y-90868402D01*
X104300978Y-90771844D01*
X104259638Y-90742897D01*
X104160484Y-90696661D01*
X104061330Y-90650425D01*
X104061326Y-90650424D01*
X104061322Y-90650422D01*
X103849977Y-90593793D01*
X103632002Y-90574723D01*
X103631998Y-90574723D01*
X103486682Y-90587436D01*
X103414023Y-90593793D01*
X103414020Y-90593793D01*
X103202677Y-90650422D01*
X103202668Y-90650426D01*
X103004361Y-90742898D01*
X103004357Y-90742900D01*
X102825121Y-90868402D01*
X102670402Y-91023121D01*
X102544900Y-91202357D01*
X102544898Y-91202361D01*
X102452426Y-91400668D01*
X102452422Y-91400677D01*
X102395793Y-91612020D01*
X102395793Y-91612024D01*
X102376723Y-91829997D01*
X96266000Y-91829997D01*
X96266000Y-85725321D01*
X102381500Y-85725321D01*
X102381500Y-87774678D01*
X102396032Y-87847735D01*
X102396033Y-87847739D01*
X102396034Y-87847740D01*
X102451399Y-87930601D01*
X102534260Y-87985966D01*
X102534264Y-87985967D01*
X102607321Y-88000499D01*
X102607324Y-88000500D01*
X102607326Y-88000500D01*
X104656676Y-88000500D01*
X104656677Y-88000499D01*
X104729740Y-87985966D01*
X104812601Y-87930601D01*
X104867966Y-87847740D01*
X104882500Y-87774674D01*
X104882500Y-85725326D01*
X104882500Y-85725323D01*
X104882499Y-85725321D01*
X104867967Y-85652264D01*
X104867966Y-85652260D01*
X104812601Y-85569399D01*
X104729740Y-85514034D01*
X104729739Y-85514033D01*
X104729735Y-85514032D01*
X104656677Y-85499500D01*
X104656674Y-85499500D01*
X102607326Y-85499500D01*
X102607323Y-85499500D01*
X102534264Y-85514032D01*
X102534260Y-85514033D01*
X102451399Y-85569399D01*
X102396033Y-85652260D01*
X102396032Y-85652264D01*
X102381500Y-85725321D01*
X96266000Y-85725321D01*
X96266000Y-78875999D01*
X103796785Y-78875999D01*
X103796785Y-78876000D01*
X103815602Y-79079082D01*
X103871417Y-79275247D01*
X103871422Y-79275260D01*
X103962327Y-79457821D01*
X104085237Y-79620581D01*
X104235958Y-79757980D01*
X104235960Y-79757982D01*
X104331910Y-79817391D01*
X104409363Y-79865348D01*
X104599544Y-79939024D01*
X104800024Y-79976500D01*
X104800026Y-79976500D01*
X105003974Y-79976500D01*
X105003976Y-79976500D01*
X105204456Y-79939024D01*
X105394637Y-79865348D01*
X105568041Y-79757981D01*
X105633963Y-79697884D01*
X105696765Y-79667269D01*
X105766153Y-79675466D01*
X105820093Y-79719876D01*
X105841461Y-79786398D01*
X105841500Y-79789523D01*
X105841500Y-82298101D01*
X105821815Y-82365140D01*
X105805181Y-82385782D01*
X105258526Y-82932436D01*
X105209091Y-83018059D01*
X105209091Y-83018060D01*
X105209090Y-83018062D01*
X105183500Y-83113565D01*
X105183500Y-83113567D01*
X105183500Y-93882983D01*
X105184428Y-93886443D01*
X105184431Y-93886452D01*
X105209090Y-93978483D01*
X105209091Y-93978484D01*
X105258526Y-94064107D01*
X105805181Y-94610762D01*
X105838666Y-94672085D01*
X105841500Y-94698443D01*
X105841500Y-96156476D01*
X105821815Y-96223515D01*
X105769011Y-96269270D01*
X105699853Y-96279214D01*
X105636297Y-96250189D01*
X105633962Y-96248113D01*
X105568042Y-96188019D01*
X105568039Y-96188017D01*
X105394642Y-96080655D01*
X105394635Y-96080651D01*
X105299546Y-96043814D01*
X105204456Y-96006976D01*
X105003976Y-95969500D01*
X104800024Y-95969500D01*
X104599544Y-96006976D01*
X104599541Y-96006976D01*
X104599541Y-96006977D01*
X104409364Y-96080651D01*
X104409357Y-96080655D01*
X104235960Y-96188017D01*
X104235958Y-96188019D01*
X104085237Y-96325418D01*
X103962327Y-96488178D01*
X103871422Y-96670739D01*
X103871417Y-96670752D01*
X103815602Y-96866917D01*
X103796785Y-97069999D01*
X103796785Y-97070000D01*
X103815602Y-97273082D01*
X103871417Y-97469247D01*
X103871422Y-97469260D01*
X103962327Y-97651821D01*
X104085237Y-97814581D01*
X104235958Y-97951980D01*
X104235960Y-97951982D01*
X104235962Y-97951983D01*
X104409363Y-98059348D01*
X104599544Y-98133024D01*
X104800024Y-98170500D01*
X104800026Y-98170500D01*
X105003974Y-98170500D01*
X105003976Y-98170500D01*
X105204456Y-98133024D01*
X105394637Y-98059348D01*
X105568041Y-97951981D01*
X105633963Y-97891884D01*
X105696765Y-97861269D01*
X105766153Y-97869466D01*
X105820093Y-97913876D01*
X105841461Y-97980398D01*
X105841500Y-97983523D01*
X105841500Y-98434435D01*
X105861614Y-98509500D01*
X105867091Y-98529941D01*
X105876925Y-98546973D01*
X105876927Y-98546976D01*
X105916526Y-98615563D01*
X105916528Y-98615565D01*
X106382289Y-99081326D01*
X106415774Y-99142649D01*
X106411331Y-99204765D01*
X106412986Y-99205236D01*
X106355603Y-99406915D01*
X106355602Y-99406917D01*
X106336785Y-99609999D01*
X106336785Y-99610000D01*
X106355602Y-99813082D01*
X106411417Y-100009247D01*
X106411422Y-100009260D01*
X106502327Y-100191821D01*
X106625237Y-100354581D01*
X106775958Y-100491980D01*
X106775960Y-100491982D01*
X106875141Y-100553392D01*
X106949363Y-100599348D01*
X107139544Y-100673024D01*
X107340024Y-100710500D01*
X107340026Y-100710500D01*
X107543974Y-100710500D01*
X107543976Y-100710500D01*
X107744456Y-100673024D01*
X107934637Y-100599348D01*
X108108041Y-100491981D01*
X108258764Y-100354579D01*
X108381673Y-100191821D01*
X108472582Y-100009250D01*
X108528397Y-99813083D01*
X108547215Y-99610000D01*
X108528397Y-99406917D01*
X108472582Y-99210750D01*
X108469836Y-99205236D01*
X108408137Y-99081326D01*
X108381673Y-99028179D01*
X108258764Y-98865421D01*
X108258762Y-98865418D01*
X108108041Y-98728019D01*
X108108039Y-98728017D01*
X107934642Y-98620655D01*
X107934635Y-98620651D01*
X107834552Y-98581879D01*
X107744456Y-98546976D01*
X107543976Y-98509500D01*
X107340024Y-98509500D01*
X107253801Y-98525617D01*
X107139536Y-98546977D01*
X107049443Y-98581879D01*
X106979820Y-98587740D01*
X106918080Y-98555030D01*
X106916970Y-98553933D01*
X106628819Y-98265782D01*
X106595334Y-98204459D01*
X106592500Y-98178101D01*
X106592500Y-98061010D01*
X106612185Y-97993971D01*
X106664989Y-97948216D01*
X106734147Y-97938272D01*
X106781774Y-97955581D01*
X106949363Y-98059348D01*
X107139544Y-98133024D01*
X107340024Y-98170500D01*
X107340026Y-98170500D01*
X107543974Y-98170500D01*
X107543976Y-98170500D01*
X107744456Y-98133024D01*
X107934637Y-98059348D01*
X108108041Y-97951981D01*
X108173963Y-97891884D01*
X108236765Y-97861269D01*
X108306153Y-97869466D01*
X108360093Y-97913876D01*
X108381461Y-97980398D01*
X108381500Y-97983523D01*
X108381500Y-98434435D01*
X108401614Y-98509500D01*
X108407091Y-98529941D01*
X108416925Y-98546973D01*
X108416927Y-98546976D01*
X108456526Y-98615563D01*
X108456528Y-98615565D01*
X108922289Y-99081326D01*
X108955774Y-99142649D01*
X108951331Y-99204765D01*
X108952986Y-99205236D01*
X108895603Y-99406915D01*
X108895602Y-99406917D01*
X108876785Y-99609999D01*
X108876785Y-99610000D01*
X108895602Y-99813082D01*
X108951417Y-100009247D01*
X108951422Y-100009260D01*
X109042327Y-100191821D01*
X109165237Y-100354581D01*
X109315958Y-100491980D01*
X109315960Y-100491982D01*
X109415141Y-100553392D01*
X109489363Y-100599348D01*
X109679544Y-100673024D01*
X109880024Y-100710500D01*
X109880026Y-100710500D01*
X110083974Y-100710500D01*
X110083976Y-100710500D01*
X110284456Y-100673024D01*
X110474637Y-100599348D01*
X110648041Y-100491981D01*
X110798764Y-100354579D01*
X110921673Y-100191821D01*
X111012582Y-100009250D01*
X111068397Y-99813083D01*
X111087215Y-99610000D01*
X111068397Y-99406917D01*
X111012582Y-99210750D01*
X111009836Y-99205236D01*
X110948137Y-99081326D01*
X110921673Y-99028179D01*
X110798764Y-98865421D01*
X110798762Y-98865418D01*
X110648041Y-98728019D01*
X110648039Y-98728017D01*
X110474642Y-98620655D01*
X110474635Y-98620651D01*
X110374552Y-98581879D01*
X110284456Y-98546976D01*
X110083976Y-98509500D01*
X109880024Y-98509500D01*
X109793801Y-98525617D01*
X109679536Y-98546977D01*
X109589443Y-98581879D01*
X109519820Y-98587740D01*
X109458080Y-98555030D01*
X109456970Y-98553933D01*
X109168819Y-98265782D01*
X109135334Y-98204459D01*
X109132500Y-98178101D01*
X109132500Y-98061010D01*
X109152185Y-97993971D01*
X109204989Y-97948216D01*
X109274147Y-97938272D01*
X109321774Y-97955581D01*
X109489363Y-98059348D01*
X109679544Y-98133024D01*
X109880024Y-98170500D01*
X109880026Y-98170500D01*
X110083974Y-98170500D01*
X110083976Y-98170500D01*
X110284456Y-98133024D01*
X110474637Y-98059348D01*
X110648041Y-97951981D01*
X110713963Y-97891884D01*
X110776765Y-97861269D01*
X110846153Y-97869466D01*
X110900093Y-97913876D01*
X110921461Y-97980398D01*
X110921500Y-97983523D01*
X110921500Y-98434435D01*
X110941614Y-98509500D01*
X110947091Y-98529941D01*
X110956925Y-98546973D01*
X110956927Y-98546976D01*
X110996526Y-98615563D01*
X110996528Y-98615565D01*
X111462289Y-99081326D01*
X111495774Y-99142649D01*
X111491331Y-99204765D01*
X111492986Y-99205236D01*
X111435603Y-99406915D01*
X111435602Y-99406917D01*
X111416785Y-99609999D01*
X111416785Y-99610000D01*
X111435602Y-99813082D01*
X111491417Y-100009247D01*
X111491422Y-100009260D01*
X111582327Y-100191821D01*
X111705237Y-100354581D01*
X111855958Y-100491980D01*
X111855960Y-100491982D01*
X111955141Y-100553392D01*
X112029363Y-100599348D01*
X112219544Y-100673024D01*
X112420024Y-100710500D01*
X112420026Y-100710500D01*
X112623974Y-100710500D01*
X112623976Y-100710500D01*
X112824456Y-100673024D01*
X113014637Y-100599348D01*
X113188041Y-100491981D01*
X113338764Y-100354579D01*
X113461673Y-100191821D01*
X113552582Y-100009250D01*
X113608397Y-99813083D01*
X113627215Y-99610000D01*
X113608397Y-99406917D01*
X113552582Y-99210750D01*
X113549836Y-99205236D01*
X113488137Y-99081326D01*
X113461673Y-99028179D01*
X113338764Y-98865421D01*
X113338762Y-98865418D01*
X113188041Y-98728019D01*
X113188039Y-98728017D01*
X113014642Y-98620655D01*
X113014635Y-98620651D01*
X112914552Y-98581879D01*
X112824456Y-98546976D01*
X112623976Y-98509500D01*
X112420024Y-98509500D01*
X112333801Y-98525617D01*
X112219536Y-98546977D01*
X112129443Y-98581879D01*
X112059820Y-98587740D01*
X111998080Y-98555030D01*
X111996970Y-98553933D01*
X111708819Y-98265782D01*
X111675334Y-98204459D01*
X111672500Y-98178101D01*
X111672500Y-98061010D01*
X111692185Y-97993971D01*
X111744989Y-97948216D01*
X111814147Y-97938272D01*
X111861774Y-97955581D01*
X112029363Y-98059348D01*
X112219544Y-98133024D01*
X112420024Y-98170500D01*
X112420026Y-98170500D01*
X112623974Y-98170500D01*
X112623976Y-98170500D01*
X112824456Y-98133024D01*
X113014637Y-98059348D01*
X113188041Y-97951981D01*
X113253963Y-97891884D01*
X113316765Y-97861269D01*
X113386153Y-97869466D01*
X113440093Y-97913876D01*
X113461461Y-97980398D01*
X113461500Y-97983523D01*
X113461500Y-98434435D01*
X113481614Y-98509500D01*
X113487091Y-98529941D01*
X113496925Y-98546973D01*
X113496927Y-98546976D01*
X113536526Y-98615563D01*
X113536528Y-98615565D01*
X114002289Y-99081326D01*
X114035774Y-99142649D01*
X114031331Y-99204765D01*
X114032986Y-99205236D01*
X113975603Y-99406915D01*
X113975602Y-99406917D01*
X113956785Y-99609999D01*
X113956785Y-99610000D01*
X113975602Y-99813082D01*
X114031417Y-100009247D01*
X114031422Y-100009260D01*
X114122327Y-100191821D01*
X114245237Y-100354581D01*
X114395958Y-100491980D01*
X114395960Y-100491982D01*
X114495141Y-100553392D01*
X114569363Y-100599348D01*
X114759544Y-100673024D01*
X114960024Y-100710500D01*
X114960026Y-100710500D01*
X115163974Y-100710500D01*
X115163976Y-100710500D01*
X115364456Y-100673024D01*
X115554637Y-100599348D01*
X115728041Y-100491981D01*
X115878764Y-100354579D01*
X116001673Y-100191821D01*
X116092582Y-100009250D01*
X116148397Y-99813083D01*
X116167215Y-99610000D01*
X116148397Y-99406917D01*
X116092582Y-99210750D01*
X116089836Y-99205236D01*
X116028137Y-99081326D01*
X116001673Y-99028179D01*
X115878764Y-98865421D01*
X115878762Y-98865418D01*
X115728041Y-98728019D01*
X115728039Y-98728017D01*
X115554642Y-98620655D01*
X115554635Y-98620651D01*
X115454552Y-98581879D01*
X115364456Y-98546976D01*
X115163976Y-98509500D01*
X114960024Y-98509500D01*
X114873801Y-98525617D01*
X114759536Y-98546977D01*
X114669443Y-98581879D01*
X114599820Y-98587740D01*
X114538080Y-98555030D01*
X114536970Y-98553933D01*
X114248819Y-98265782D01*
X114215334Y-98204459D01*
X114212500Y-98178101D01*
X114212500Y-98061010D01*
X114232185Y-97993971D01*
X114284989Y-97948216D01*
X114354147Y-97938272D01*
X114401774Y-97955581D01*
X114569363Y-98059348D01*
X114759544Y-98133024D01*
X114960024Y-98170500D01*
X114960026Y-98170500D01*
X115163974Y-98170500D01*
X115163976Y-98170500D01*
X115364456Y-98133024D01*
X115554637Y-98059348D01*
X115728041Y-97951981D01*
X115878764Y-97814579D01*
X116001673Y-97651821D01*
X116092582Y-97469250D01*
X116148397Y-97273083D01*
X116167215Y-97070000D01*
X116148397Y-96866917D01*
X116092582Y-96670750D01*
X116001673Y-96488179D01*
X115878764Y-96325421D01*
X115878762Y-96325418D01*
X115728041Y-96188019D01*
X115728039Y-96188017D01*
X115554642Y-96080655D01*
X115554635Y-96080651D01*
X115459546Y-96043814D01*
X115364456Y-96006976D01*
X115163976Y-95969500D01*
X114960024Y-95969500D01*
X114759544Y-96006976D01*
X114759541Y-96006976D01*
X114759541Y-96006977D01*
X114569364Y-96080651D01*
X114569357Y-96080655D01*
X114401777Y-96184416D01*
X114334417Y-96202971D01*
X114267717Y-96182163D01*
X114222856Y-96128598D01*
X114212500Y-96078989D01*
X114212500Y-94067566D01*
X114212500Y-94067565D01*
X114212500Y-94067564D01*
X114186911Y-93972063D01*
X114137484Y-93886452D01*
X114137477Y-93886440D01*
X114137476Y-93886438D01*
X114137475Y-93886437D01*
X113543217Y-93292180D01*
X113509733Y-93230858D01*
X113514717Y-93161167D01*
X113556588Y-93105233D01*
X113622053Y-93080816D01*
X113630899Y-93080500D01*
X115324676Y-93080500D01*
X115324677Y-93080499D01*
X115397740Y-93065966D01*
X115480601Y-93010601D01*
X115535966Y-92927740D01*
X115550500Y-92854674D01*
X115550500Y-90805326D01*
X115550500Y-90805323D01*
X115550499Y-90805321D01*
X116351500Y-90805321D01*
X116351500Y-92854678D01*
X116366032Y-92927735D01*
X116366033Y-92927739D01*
X116366034Y-92927740D01*
X116421399Y-93010601D01*
X116504260Y-93065966D01*
X116504264Y-93065967D01*
X116577321Y-93080499D01*
X116577324Y-93080500D01*
X116577326Y-93080500D01*
X118417500Y-93080500D01*
X118484539Y-93100185D01*
X118530294Y-93152989D01*
X118541500Y-93204500D01*
X118541500Y-96156476D01*
X118521815Y-96223515D01*
X118469011Y-96269270D01*
X118399853Y-96279214D01*
X118336297Y-96250189D01*
X118333962Y-96248113D01*
X118268042Y-96188019D01*
X118268039Y-96188017D01*
X118094642Y-96080655D01*
X118094635Y-96080651D01*
X117999546Y-96043814D01*
X117904456Y-96006976D01*
X117703976Y-95969500D01*
X117500024Y-95969500D01*
X117299544Y-96006976D01*
X117299541Y-96006976D01*
X117299541Y-96006977D01*
X117109364Y-96080651D01*
X117109357Y-96080655D01*
X116935960Y-96188017D01*
X116935958Y-96188019D01*
X116785237Y-96325418D01*
X116662327Y-96488178D01*
X116571422Y-96670739D01*
X116571417Y-96670752D01*
X116515602Y-96866917D01*
X116496785Y-97069999D01*
X116496785Y-97070000D01*
X116515602Y-97273082D01*
X116571417Y-97469247D01*
X116571422Y-97469260D01*
X116662327Y-97651821D01*
X116785237Y-97814581D01*
X116935958Y-97951980D01*
X116935960Y-97951982D01*
X116935962Y-97951983D01*
X117109363Y-98059348D01*
X117299544Y-98133024D01*
X117500024Y-98170500D01*
X117500026Y-98170500D01*
X117703974Y-98170500D01*
X117703976Y-98170500D01*
X117904456Y-98133024D01*
X118094637Y-98059348D01*
X118268041Y-97951981D01*
X118333963Y-97891884D01*
X118396765Y-97861269D01*
X118466153Y-97869466D01*
X118520093Y-97913876D01*
X118541461Y-97980398D01*
X118541500Y-97983523D01*
X118541500Y-98434435D01*
X118561614Y-98509500D01*
X118567091Y-98529941D01*
X118576925Y-98546973D01*
X118576927Y-98546976D01*
X118616526Y-98615563D01*
X118616528Y-98615565D01*
X119082289Y-99081326D01*
X119115774Y-99142649D01*
X119111331Y-99204765D01*
X119112986Y-99205236D01*
X119055603Y-99406915D01*
X119055602Y-99406917D01*
X119036785Y-99609999D01*
X119036785Y-99610000D01*
X119055602Y-99813082D01*
X119111417Y-100009247D01*
X119111422Y-100009260D01*
X119202327Y-100191821D01*
X119325237Y-100354581D01*
X119475958Y-100491980D01*
X119475960Y-100491982D01*
X119575141Y-100553392D01*
X119649363Y-100599348D01*
X119839544Y-100673024D01*
X120040024Y-100710500D01*
X120040026Y-100710500D01*
X120243974Y-100710500D01*
X120243976Y-100710500D01*
X120444456Y-100673024D01*
X120634637Y-100599348D01*
X120808041Y-100491981D01*
X120958764Y-100354579D01*
X121081673Y-100191821D01*
X121172582Y-100009250D01*
X121228397Y-99813083D01*
X121247215Y-99610000D01*
X121228397Y-99406917D01*
X121172582Y-99210750D01*
X121169836Y-99205236D01*
X121108137Y-99081326D01*
X121081673Y-99028179D01*
X120958764Y-98865421D01*
X120958762Y-98865418D01*
X120808041Y-98728019D01*
X120808039Y-98728017D01*
X120634642Y-98620655D01*
X120634635Y-98620651D01*
X120534552Y-98581879D01*
X120444456Y-98546976D01*
X120243976Y-98509500D01*
X120040024Y-98509500D01*
X119953801Y-98525617D01*
X119839536Y-98546977D01*
X119749443Y-98581879D01*
X119679820Y-98587740D01*
X119618080Y-98555030D01*
X119616970Y-98553933D01*
X119328819Y-98265782D01*
X119295334Y-98204459D01*
X119292500Y-98178101D01*
X119292500Y-98061010D01*
X119312185Y-97993971D01*
X119364989Y-97948216D01*
X119434147Y-97938272D01*
X119481774Y-97955581D01*
X119649363Y-98059348D01*
X119839544Y-98133024D01*
X120040024Y-98170500D01*
X120040026Y-98170500D01*
X120243974Y-98170500D01*
X120243976Y-98170500D01*
X120444456Y-98133024D01*
X120634637Y-98059348D01*
X120808041Y-97951981D01*
X120958764Y-97814579D01*
X121081673Y-97651821D01*
X121172582Y-97469250D01*
X121228397Y-97273083D01*
X121247215Y-97070000D01*
X121247215Y-97069999D01*
X121576785Y-97069999D01*
X121576785Y-97070000D01*
X121595602Y-97273082D01*
X121651417Y-97469247D01*
X121651422Y-97469260D01*
X121742327Y-97651821D01*
X121865237Y-97814581D01*
X122015958Y-97951980D01*
X122015960Y-97951982D01*
X122015962Y-97951983D01*
X122189363Y-98059348D01*
X122379544Y-98133024D01*
X122580024Y-98170500D01*
X122580026Y-98170500D01*
X122783974Y-98170500D01*
X122783976Y-98170500D01*
X122984456Y-98133024D01*
X123174637Y-98059348D01*
X123348041Y-97951981D01*
X123498764Y-97814579D01*
X123621673Y-97651821D01*
X123712582Y-97469250D01*
X123768397Y-97273083D01*
X123787215Y-97070000D01*
X123787215Y-97069999D01*
X124116785Y-97069999D01*
X124116785Y-97070000D01*
X124135602Y-97273082D01*
X124191417Y-97469247D01*
X124191422Y-97469260D01*
X124282327Y-97651821D01*
X124405237Y-97814581D01*
X124555958Y-97951980D01*
X124555960Y-97951982D01*
X124555962Y-97951983D01*
X124729363Y-98059348D01*
X124919544Y-98133024D01*
X125120024Y-98170500D01*
X125120026Y-98170500D01*
X125323974Y-98170500D01*
X125323976Y-98170500D01*
X125524456Y-98133024D01*
X125714637Y-98059348D01*
X125888041Y-97951981D01*
X126038764Y-97814579D01*
X126161673Y-97651821D01*
X126252582Y-97469250D01*
X126308397Y-97273083D01*
X126327215Y-97070000D01*
X126308397Y-96866917D01*
X126252582Y-96670750D01*
X126161673Y-96488179D01*
X126038764Y-96325421D01*
X126038762Y-96325418D01*
X125888041Y-96188019D01*
X125888039Y-96188017D01*
X125714642Y-96080655D01*
X125714635Y-96080651D01*
X125619546Y-96043814D01*
X125524456Y-96006976D01*
X125323976Y-95969500D01*
X125120024Y-95969500D01*
X124919544Y-96006976D01*
X124919541Y-96006976D01*
X124919541Y-96006977D01*
X124729364Y-96080651D01*
X124729357Y-96080655D01*
X124555960Y-96188017D01*
X124555958Y-96188019D01*
X124405237Y-96325418D01*
X124282327Y-96488178D01*
X124191422Y-96670739D01*
X124191417Y-96670752D01*
X124135602Y-96866917D01*
X124116785Y-97069999D01*
X123787215Y-97069999D01*
X123768397Y-96866917D01*
X123712582Y-96670750D01*
X123621673Y-96488179D01*
X123498764Y-96325421D01*
X123498762Y-96325418D01*
X123348041Y-96188019D01*
X123348039Y-96188017D01*
X123174642Y-96080655D01*
X123174635Y-96080651D01*
X123079546Y-96043814D01*
X122984456Y-96006976D01*
X122783976Y-95969500D01*
X122580024Y-95969500D01*
X122379544Y-96006976D01*
X122379541Y-96006976D01*
X122379541Y-96006977D01*
X122189364Y-96080651D01*
X122189357Y-96080655D01*
X122015960Y-96188017D01*
X122015958Y-96188019D01*
X121865237Y-96325418D01*
X121742327Y-96488178D01*
X121651422Y-96670739D01*
X121651417Y-96670752D01*
X121595602Y-96866917D01*
X121576785Y-97069999D01*
X121247215Y-97069999D01*
X121228397Y-96866917D01*
X121172582Y-96670750D01*
X121081673Y-96488179D01*
X120958764Y-96325421D01*
X120958762Y-96325418D01*
X120808041Y-96188019D01*
X120808039Y-96188017D01*
X120634642Y-96080655D01*
X120634635Y-96080651D01*
X120539546Y-96043814D01*
X120444456Y-96006976D01*
X120243976Y-95969500D01*
X120040024Y-95969500D01*
X119839544Y-96006976D01*
X119839541Y-96006976D01*
X119839541Y-96006977D01*
X119649364Y-96080651D01*
X119649357Y-96080655D01*
X119481777Y-96184416D01*
X119414417Y-96202971D01*
X119347717Y-96182163D01*
X119302856Y-96128598D01*
X119292500Y-96078989D01*
X119292500Y-93411899D01*
X119312185Y-93344860D01*
X119328819Y-93324218D01*
X119880853Y-92772184D01*
X120442475Y-92210562D01*
X120491911Y-92124937D01*
X120517500Y-92029436D01*
X120517500Y-91930564D01*
X120517500Y-82535668D01*
X120537185Y-82468629D01*
X120589989Y-82422874D01*
X120596679Y-82420052D01*
X120634637Y-82405348D01*
X120808041Y-82297981D01*
X120958764Y-82160579D01*
X121081673Y-81997821D01*
X121172582Y-81815250D01*
X121228397Y-81619083D01*
X121247215Y-81416000D01*
X121228397Y-81212917D01*
X121172582Y-81016750D01*
X121169836Y-81011236D01*
X121094108Y-80859152D01*
X121081673Y-80834179D01*
X120958764Y-80671421D01*
X120958762Y-80671418D01*
X120808041Y-80534019D01*
X120808039Y-80534017D01*
X120634642Y-80426655D01*
X120634635Y-80426651D01*
X120534552Y-80387879D01*
X120444456Y-80352976D01*
X120243976Y-80315500D01*
X120040024Y-80315500D01*
X119839544Y-80352976D01*
X119839541Y-80352976D01*
X119839541Y-80352977D01*
X119649364Y-80426651D01*
X119649357Y-80426655D01*
X119475960Y-80534017D01*
X119475958Y-80534019D01*
X119325237Y-80671418D01*
X119202327Y-80834178D01*
X119111422Y-81016739D01*
X119111417Y-81016752D01*
X119055602Y-81212917D01*
X119036785Y-81415999D01*
X119036785Y-81416000D01*
X119055602Y-81619082D01*
X119111417Y-81815247D01*
X119111422Y-81815260D01*
X119202327Y-81997821D01*
X119325237Y-82160581D01*
X119475958Y-82297980D01*
X119475960Y-82297982D01*
X119481776Y-82301583D01*
X119649363Y-82405348D01*
X119687293Y-82420042D01*
X119742694Y-82462612D01*
X119766286Y-82528378D01*
X119766500Y-82535668D01*
X119766500Y-91773101D01*
X119746815Y-91840140D01*
X119730181Y-91860782D01*
X119064181Y-92526782D01*
X119002858Y-92560267D01*
X118933166Y-92555283D01*
X118877233Y-92513411D01*
X118852816Y-92447947D01*
X118852500Y-92439101D01*
X118852500Y-90805323D01*
X118852499Y-90805321D01*
X118837967Y-90732264D01*
X118837966Y-90732260D01*
X118782601Y-90649399D01*
X118699740Y-90594034D01*
X118699739Y-90594033D01*
X118699735Y-90594032D01*
X118626677Y-90579500D01*
X118626674Y-90579500D01*
X116577326Y-90579500D01*
X116577323Y-90579500D01*
X116504264Y-90594032D01*
X116504260Y-90594033D01*
X116421399Y-90649399D01*
X116366033Y-90732260D01*
X116366032Y-90732264D01*
X116351500Y-90805321D01*
X115550499Y-90805321D01*
X115535967Y-90732264D01*
X115535966Y-90732260D01*
X115480601Y-90649399D01*
X115397740Y-90594034D01*
X115397739Y-90594033D01*
X115397735Y-90594032D01*
X115324677Y-90579500D01*
X115324674Y-90579500D01*
X113424500Y-90579500D01*
X113357461Y-90559815D01*
X113311706Y-90507011D01*
X113300500Y-90455500D01*
X113300500Y-87814922D01*
X113320185Y-87747883D01*
X113372989Y-87702128D01*
X113442147Y-87692184D01*
X113495619Y-87713346D01*
X113672361Y-87837102D01*
X113870670Y-87929575D01*
X114082023Y-87986207D01*
X114264926Y-88002208D01*
X114299998Y-88005277D01*
X114300000Y-88005277D01*
X114300002Y-88005277D01*
X114328254Y-88002805D01*
X114517977Y-87986207D01*
X114729330Y-87929575D01*
X114927639Y-87837102D01*
X115106877Y-87711598D01*
X115261598Y-87556877D01*
X115387102Y-87377639D01*
X115479575Y-87179330D01*
X115536207Y-86967977D01*
X115555277Y-86750000D01*
X115555277Y-86749997D01*
X116346723Y-86749997D01*
X116346723Y-86750002D01*
X116365793Y-86967975D01*
X116365793Y-86967979D01*
X116422422Y-87179322D01*
X116422424Y-87179326D01*
X116422425Y-87179330D01*
X116468661Y-87278484D01*
X116514897Y-87377638D01*
X116514898Y-87377639D01*
X116640402Y-87556877D01*
X116795123Y-87711598D01*
X116974361Y-87837102D01*
X117172670Y-87929575D01*
X117384023Y-87986207D01*
X117566926Y-88002208D01*
X117601998Y-88005277D01*
X117602000Y-88005277D01*
X117602002Y-88005277D01*
X117630254Y-88002805D01*
X117819977Y-87986207D01*
X118031330Y-87929575D01*
X118229639Y-87837102D01*
X118408877Y-87711598D01*
X118563598Y-87556877D01*
X118689102Y-87377639D01*
X118781575Y-87179330D01*
X118838207Y-86967977D01*
X118857277Y-86750000D01*
X118838207Y-86532023D01*
X118781575Y-86320670D01*
X118689102Y-86122362D01*
X118689100Y-86122359D01*
X118689099Y-86122357D01*
X118563599Y-85943124D01*
X118563596Y-85943121D01*
X118408877Y-85788402D01*
X118270978Y-85691844D01*
X118229638Y-85662897D01*
X118130484Y-85616661D01*
X118031330Y-85570425D01*
X118031326Y-85570424D01*
X118031322Y-85570422D01*
X117819977Y-85513793D01*
X117602002Y-85494723D01*
X117601998Y-85494723D01*
X117456682Y-85507436D01*
X117384023Y-85513793D01*
X117384020Y-85513793D01*
X117172677Y-85570422D01*
X117172668Y-85570426D01*
X116974361Y-85662898D01*
X116974357Y-85662900D01*
X116795121Y-85788402D01*
X116640402Y-85943121D01*
X116514900Y-86122357D01*
X116514898Y-86122361D01*
X116422426Y-86320668D01*
X116422422Y-86320677D01*
X116365793Y-86532020D01*
X116365793Y-86532024D01*
X116346723Y-86749997D01*
X115555277Y-86749997D01*
X115536207Y-86532023D01*
X115479575Y-86320670D01*
X115387102Y-86122362D01*
X115387100Y-86122359D01*
X115387099Y-86122357D01*
X115261599Y-85943124D01*
X115261596Y-85943121D01*
X115106877Y-85788402D01*
X114968978Y-85691844D01*
X114927638Y-85662897D01*
X114747095Y-85578709D01*
X114694656Y-85532537D01*
X114675500Y-85466327D01*
X114675500Y-84117311D01*
X114695185Y-84050272D01*
X114711819Y-84029630D01*
X116587472Y-82153977D01*
X116587474Y-82153975D01*
X116601605Y-82129500D01*
X116636910Y-82068350D01*
X116649705Y-82020598D01*
X116662500Y-81972848D01*
X116662500Y-81873976D01*
X116662500Y-80859153D01*
X116655505Y-80833049D01*
X116636910Y-80763651D01*
X116636910Y-80763650D01*
X116587475Y-80678026D01*
X116517562Y-80608113D01*
X115788163Y-79878714D01*
X115754678Y-79817391D01*
X115759662Y-79747699D01*
X115792306Y-79699396D01*
X115878762Y-79620581D01*
X115881891Y-79616438D01*
X116001673Y-79457821D01*
X116092582Y-79275250D01*
X116148397Y-79079083D01*
X116167215Y-78876000D01*
X116167215Y-78875999D01*
X116496785Y-78875999D01*
X116496785Y-78876000D01*
X116515602Y-79079082D01*
X116571417Y-79275247D01*
X116571422Y-79275260D01*
X116662327Y-79457821D01*
X116785237Y-79620581D01*
X116935958Y-79757980D01*
X116935960Y-79757982D01*
X117031910Y-79817391D01*
X117109363Y-79865348D01*
X117299544Y-79939024D01*
X117500024Y-79976500D01*
X117500026Y-79976500D01*
X117703974Y-79976500D01*
X117703976Y-79976500D01*
X117904456Y-79939024D01*
X118094637Y-79865348D01*
X118268041Y-79757981D01*
X118418764Y-79620579D01*
X118541673Y-79457821D01*
X118632582Y-79275250D01*
X118688397Y-79079083D01*
X118707215Y-78876000D01*
X118707215Y-78875999D01*
X119036785Y-78875999D01*
X119036785Y-78876000D01*
X119055602Y-79079082D01*
X119111417Y-79275247D01*
X119111422Y-79275260D01*
X119202327Y-79457821D01*
X119325237Y-79620581D01*
X119475958Y-79757980D01*
X119475960Y-79757982D01*
X119571910Y-79817391D01*
X119649363Y-79865348D01*
X119839544Y-79939024D01*
X120040024Y-79976500D01*
X120040026Y-79976500D01*
X120243974Y-79976500D01*
X120243976Y-79976500D01*
X120444456Y-79939024D01*
X120634637Y-79865348D01*
X120808041Y-79757981D01*
X120958764Y-79620579D01*
X121081673Y-79457821D01*
X121172582Y-79275250D01*
X121228397Y-79079083D01*
X121247215Y-78876000D01*
X121247215Y-78875999D01*
X121576785Y-78875999D01*
X121576785Y-78876000D01*
X121595602Y-79079082D01*
X121651417Y-79275247D01*
X121651422Y-79275260D01*
X121742327Y-79457821D01*
X121865237Y-79620581D01*
X122015958Y-79757980D01*
X122015960Y-79757982D01*
X122111910Y-79817391D01*
X122189363Y-79865348D01*
X122379544Y-79939024D01*
X122580024Y-79976500D01*
X122580026Y-79976500D01*
X122783974Y-79976500D01*
X122783976Y-79976500D01*
X122984456Y-79939024D01*
X123174637Y-79865348D01*
X123348041Y-79757981D01*
X123498764Y-79620579D01*
X123621673Y-79457821D01*
X123712582Y-79275250D01*
X123768397Y-79079083D01*
X123787215Y-78876000D01*
X123787215Y-78875999D01*
X124116785Y-78875999D01*
X124116785Y-78876000D01*
X124135602Y-79079082D01*
X124191417Y-79275247D01*
X124191422Y-79275260D01*
X124282327Y-79457821D01*
X124405237Y-79620581D01*
X124555958Y-79757980D01*
X124555960Y-79757982D01*
X124651910Y-79817391D01*
X124729363Y-79865348D01*
X124919544Y-79939024D01*
X125120024Y-79976500D01*
X125120026Y-79976500D01*
X125323974Y-79976500D01*
X125323976Y-79976500D01*
X125524456Y-79939024D01*
X125714637Y-79865348D01*
X125888041Y-79757981D01*
X126038764Y-79620579D01*
X126161673Y-79457821D01*
X126252582Y-79275250D01*
X126308397Y-79079083D01*
X126327215Y-78876000D01*
X126327215Y-78875999D01*
X126656785Y-78875999D01*
X126656785Y-78876000D01*
X126675602Y-79079082D01*
X126731417Y-79275247D01*
X126731422Y-79275260D01*
X126822327Y-79457821D01*
X126945237Y-79620581D01*
X127095958Y-79757980D01*
X127095960Y-79757982D01*
X127191910Y-79817391D01*
X127269363Y-79865348D01*
X127459544Y-79939024D01*
X127660024Y-79976500D01*
X127660026Y-79976500D01*
X127863974Y-79976500D01*
X127863976Y-79976500D01*
X128064456Y-79939024D01*
X128254637Y-79865348D01*
X128428041Y-79757981D01*
X128493963Y-79697884D01*
X128556765Y-79667269D01*
X128626153Y-79675466D01*
X128680093Y-79719876D01*
X128701461Y-79786398D01*
X128701500Y-79789523D01*
X128701500Y-80240436D01*
X128714277Y-80288123D01*
X128714291Y-80288173D01*
X128714295Y-80288186D01*
X128727090Y-80335938D01*
X128764928Y-80401475D01*
X128776526Y-80421563D01*
X128776527Y-80421564D01*
X128776528Y-80421565D01*
X129242289Y-80887326D01*
X129275774Y-80948649D01*
X129271331Y-81010765D01*
X129272986Y-81011236D01*
X129215603Y-81212915D01*
X129215602Y-81212917D01*
X129196785Y-81415999D01*
X129196785Y-81416000D01*
X129215602Y-81619082D01*
X129252500Y-81748760D01*
X129271417Y-81815247D01*
X129272987Y-81820763D01*
X129271003Y-81821327D01*
X129276098Y-81881816D01*
X129243390Y-81943557D01*
X129242290Y-81944671D01*
X128846438Y-82340525D01*
X128776526Y-82410436D01*
X128727091Y-82496059D01*
X128727091Y-82496060D01*
X128727090Y-82496062D01*
X128701500Y-82591565D01*
X128701500Y-82591567D01*
X128701500Y-96156476D01*
X128681815Y-96223515D01*
X128629011Y-96269270D01*
X128559853Y-96279214D01*
X128496297Y-96250189D01*
X128493962Y-96248113D01*
X128428042Y-96188019D01*
X128428039Y-96188017D01*
X128254642Y-96080655D01*
X128254635Y-96080651D01*
X128159546Y-96043814D01*
X128064456Y-96006976D01*
X127863976Y-95969500D01*
X127660024Y-95969500D01*
X127459544Y-96006976D01*
X127459541Y-96006976D01*
X127459541Y-96006977D01*
X127269364Y-96080651D01*
X127269357Y-96080655D01*
X127095960Y-96188017D01*
X127095958Y-96188019D01*
X126945237Y-96325418D01*
X126822327Y-96488178D01*
X126731422Y-96670739D01*
X126731417Y-96670752D01*
X126675602Y-96866917D01*
X126656785Y-97069999D01*
X126656785Y-97070000D01*
X126675602Y-97273082D01*
X126731417Y-97469247D01*
X126731422Y-97469260D01*
X126822327Y-97651821D01*
X126945237Y-97814581D01*
X127095958Y-97951980D01*
X127095960Y-97951982D01*
X127095962Y-97951983D01*
X127269363Y-98059348D01*
X127459544Y-98133024D01*
X127660024Y-98170500D01*
X127660026Y-98170500D01*
X127863974Y-98170500D01*
X127863976Y-98170500D01*
X128064456Y-98133024D01*
X128254637Y-98059348D01*
X128428041Y-97951981D01*
X128493963Y-97891884D01*
X128556765Y-97861269D01*
X128626153Y-97869466D01*
X128680093Y-97913876D01*
X128701461Y-97980398D01*
X128701500Y-97983523D01*
X128701500Y-98434435D01*
X128721614Y-98509500D01*
X128727091Y-98529941D01*
X128736925Y-98546973D01*
X128736927Y-98546976D01*
X128776526Y-98615563D01*
X128776528Y-98615565D01*
X129242289Y-99081326D01*
X129275774Y-99142649D01*
X129271331Y-99204765D01*
X129272986Y-99205236D01*
X129215603Y-99406915D01*
X129215602Y-99406917D01*
X129196785Y-99609999D01*
X129196785Y-99610000D01*
X129215602Y-99813082D01*
X129271417Y-100009247D01*
X129271422Y-100009260D01*
X129362327Y-100191821D01*
X129485237Y-100354581D01*
X129635958Y-100491980D01*
X129635960Y-100491982D01*
X129735141Y-100553392D01*
X129809363Y-100599348D01*
X129999544Y-100673024D01*
X130200024Y-100710500D01*
X130200026Y-100710500D01*
X130403974Y-100710500D01*
X130403976Y-100710500D01*
X130604456Y-100673024D01*
X130794637Y-100599348D01*
X130968041Y-100491981D01*
X131118764Y-100354579D01*
X131241673Y-100191821D01*
X131332582Y-100009250D01*
X131388397Y-99813083D01*
X131407215Y-99610000D01*
X131388397Y-99406917D01*
X131332582Y-99210750D01*
X131329836Y-99205236D01*
X131268137Y-99081326D01*
X131241673Y-99028179D01*
X131118764Y-98865421D01*
X131118762Y-98865418D01*
X130968041Y-98728019D01*
X130968039Y-98728017D01*
X130794642Y-98620655D01*
X130794635Y-98620651D01*
X130694552Y-98581879D01*
X130604456Y-98546976D01*
X130403976Y-98509500D01*
X130200024Y-98509500D01*
X130113801Y-98525617D01*
X129999536Y-98546977D01*
X129909443Y-98581879D01*
X129839820Y-98587740D01*
X129778080Y-98555030D01*
X129776970Y-98553933D01*
X129488819Y-98265782D01*
X129455334Y-98204459D01*
X129452500Y-98178101D01*
X129452500Y-82847898D01*
X129472185Y-82780859D01*
X129488815Y-82760221D01*
X129776972Y-82472063D01*
X129838293Y-82438580D01*
X129907984Y-82443564D01*
X129909444Y-82444119D01*
X129999544Y-82479024D01*
X130200024Y-82516500D01*
X130200026Y-82516500D01*
X130403974Y-82516500D01*
X130403976Y-82516500D01*
X130604456Y-82479024D01*
X130794637Y-82405348D01*
X130968041Y-82297981D01*
X131118764Y-82160579D01*
X131241673Y-81997821D01*
X131332582Y-81815250D01*
X131388397Y-81619083D01*
X131407215Y-81416000D01*
X131388397Y-81212917D01*
X131332582Y-81016750D01*
X131329836Y-81011236D01*
X131254108Y-80859152D01*
X131241673Y-80834179D01*
X131118764Y-80671421D01*
X131118762Y-80671418D01*
X130968041Y-80534019D01*
X130968039Y-80534017D01*
X130794642Y-80426655D01*
X130794635Y-80426651D01*
X130694552Y-80387879D01*
X130604456Y-80352976D01*
X130403976Y-80315500D01*
X130200024Y-80315500D01*
X130114115Y-80331559D01*
X129999536Y-80352977D01*
X129909443Y-80387879D01*
X129839820Y-80393740D01*
X129778080Y-80361030D01*
X129776970Y-80359933D01*
X129488819Y-80071782D01*
X129455334Y-80010459D01*
X129452500Y-79984101D01*
X129452500Y-71163898D01*
X129472185Y-71096859D01*
X129488815Y-71076221D01*
X129657467Y-70907568D01*
X131241500Y-70907568D01*
X131241500Y-80240436D01*
X131254277Y-80288123D01*
X131254291Y-80288173D01*
X131254295Y-80288186D01*
X131267090Y-80335938D01*
X131304928Y-80401475D01*
X131316526Y-80421563D01*
X131316527Y-80421564D01*
X131316528Y-80421565D01*
X131782289Y-80887326D01*
X131815774Y-80948649D01*
X131811331Y-81010765D01*
X131812986Y-81011236D01*
X131755603Y-81212915D01*
X131755602Y-81212917D01*
X131736785Y-81415999D01*
X131736785Y-81416000D01*
X131755602Y-81619082D01*
X131792500Y-81748760D01*
X131811417Y-81815247D01*
X131812987Y-81820763D01*
X131811003Y-81821327D01*
X131816098Y-81881816D01*
X131783390Y-81943557D01*
X131782290Y-81944671D01*
X131386438Y-82340525D01*
X131316526Y-82410436D01*
X131267091Y-82496059D01*
X131267091Y-82496060D01*
X131267090Y-82496062D01*
X131241500Y-82591565D01*
X131241500Y-98434435D01*
X131261614Y-98509500D01*
X131267091Y-98529941D01*
X131276925Y-98546973D01*
X131276927Y-98546976D01*
X131316526Y-98615563D01*
X131316528Y-98615565D01*
X131782289Y-99081326D01*
X131815774Y-99142649D01*
X131811331Y-99204765D01*
X131812986Y-99205236D01*
X131755603Y-99406915D01*
X131755602Y-99406917D01*
X131736785Y-99609999D01*
X131736785Y-99610000D01*
X131755602Y-99813082D01*
X131811417Y-100009247D01*
X131811422Y-100009260D01*
X131902327Y-100191821D01*
X132025237Y-100354581D01*
X132175958Y-100491980D01*
X132175960Y-100491982D01*
X132275141Y-100553392D01*
X132349363Y-100599348D01*
X132539544Y-100673024D01*
X132740024Y-100710500D01*
X132740026Y-100710500D01*
X132943974Y-100710500D01*
X132943976Y-100710500D01*
X133144456Y-100673024D01*
X133334637Y-100599348D01*
X133508041Y-100491981D01*
X133658764Y-100354579D01*
X133781673Y-100191821D01*
X133872582Y-100009250D01*
X133928397Y-99813083D01*
X133947215Y-99610000D01*
X133928397Y-99406917D01*
X133872582Y-99210750D01*
X133869836Y-99205236D01*
X133808137Y-99081326D01*
X133781673Y-99028179D01*
X133658764Y-98865421D01*
X133658762Y-98865418D01*
X133508041Y-98728019D01*
X133508039Y-98728017D01*
X133334642Y-98620655D01*
X133334635Y-98620651D01*
X133234552Y-98581879D01*
X133144456Y-98546976D01*
X132943976Y-98509500D01*
X132740024Y-98509500D01*
X132653801Y-98525617D01*
X132539536Y-98546977D01*
X132449443Y-98581879D01*
X132379820Y-98587740D01*
X132318080Y-98555030D01*
X132316970Y-98553933D01*
X132028819Y-98265782D01*
X131995334Y-98204459D01*
X131992500Y-98178101D01*
X131992500Y-98061010D01*
X132012185Y-97993971D01*
X132064989Y-97948216D01*
X132134147Y-97938272D01*
X132181774Y-97955581D01*
X132349363Y-98059348D01*
X132539544Y-98133024D01*
X132740024Y-98170500D01*
X132740026Y-98170500D01*
X132943974Y-98170500D01*
X132943976Y-98170500D01*
X133144456Y-98133024D01*
X133334637Y-98059348D01*
X133508041Y-97951981D01*
X133573963Y-97891884D01*
X133636765Y-97861269D01*
X133706153Y-97869466D01*
X133760093Y-97913876D01*
X133781461Y-97980398D01*
X133781500Y-97983523D01*
X133781500Y-98434435D01*
X133801614Y-98509500D01*
X133807091Y-98529941D01*
X133816925Y-98546973D01*
X133816927Y-98546976D01*
X133856526Y-98615563D01*
X133856528Y-98615565D01*
X134322289Y-99081326D01*
X134355774Y-99142649D01*
X134351331Y-99204765D01*
X134352986Y-99205236D01*
X134295603Y-99406915D01*
X134295602Y-99406917D01*
X134276785Y-99609999D01*
X134276785Y-99610000D01*
X134295602Y-99813082D01*
X134351417Y-100009247D01*
X134351422Y-100009260D01*
X134442327Y-100191821D01*
X134565237Y-100354581D01*
X134715958Y-100491980D01*
X134715960Y-100491982D01*
X134815141Y-100553392D01*
X134889363Y-100599348D01*
X135079544Y-100673024D01*
X135280024Y-100710500D01*
X135280026Y-100710500D01*
X135483974Y-100710500D01*
X135483976Y-100710500D01*
X135684456Y-100673024D01*
X135874637Y-100599348D01*
X136048041Y-100491981D01*
X136198764Y-100354579D01*
X136321673Y-100191821D01*
X136412582Y-100009250D01*
X136468397Y-99813083D01*
X136487215Y-99610000D01*
X136468397Y-99406917D01*
X136412582Y-99210750D01*
X136409836Y-99205236D01*
X136348137Y-99081326D01*
X136321673Y-99028179D01*
X136198764Y-98865421D01*
X136198762Y-98865418D01*
X136048041Y-98728019D01*
X136048039Y-98728017D01*
X135874642Y-98620655D01*
X135874635Y-98620651D01*
X135774552Y-98581879D01*
X135684456Y-98546976D01*
X135483976Y-98509500D01*
X135280024Y-98509500D01*
X135193801Y-98525617D01*
X135079536Y-98546977D01*
X134989443Y-98581879D01*
X134919820Y-98587740D01*
X134858080Y-98555030D01*
X134856970Y-98553933D01*
X134568819Y-98265782D01*
X134535334Y-98204459D01*
X134532500Y-98178101D01*
X134532500Y-98061010D01*
X134552185Y-97993971D01*
X134604989Y-97948216D01*
X134674147Y-97938272D01*
X134721774Y-97955581D01*
X134889363Y-98059348D01*
X135079544Y-98133024D01*
X135280024Y-98170500D01*
X135280026Y-98170500D01*
X135483974Y-98170500D01*
X135483976Y-98170500D01*
X135684456Y-98133024D01*
X135874637Y-98059348D01*
X136048041Y-97951981D01*
X136113963Y-97891884D01*
X136176765Y-97861269D01*
X136246153Y-97869466D01*
X136300093Y-97913876D01*
X136321461Y-97980398D01*
X136321500Y-97983523D01*
X136321500Y-98434435D01*
X136341614Y-98509500D01*
X136347091Y-98529941D01*
X136356925Y-98546973D01*
X136356927Y-98546976D01*
X136396526Y-98615563D01*
X136396528Y-98615565D01*
X136862289Y-99081326D01*
X136895774Y-99142649D01*
X136891331Y-99204765D01*
X136892986Y-99205236D01*
X136835603Y-99406915D01*
X136835602Y-99406917D01*
X136816785Y-99609999D01*
X136816785Y-99610000D01*
X136835602Y-99813082D01*
X136891417Y-100009247D01*
X136891422Y-100009260D01*
X136982327Y-100191821D01*
X137105237Y-100354581D01*
X137255958Y-100491980D01*
X137255960Y-100491982D01*
X137355141Y-100553392D01*
X137429363Y-100599348D01*
X137619544Y-100673024D01*
X137820024Y-100710500D01*
X137820026Y-100710500D01*
X138023974Y-100710500D01*
X138023976Y-100710500D01*
X138224456Y-100673024D01*
X138414637Y-100599348D01*
X138588041Y-100491981D01*
X138738764Y-100354579D01*
X138861673Y-100191821D01*
X138952582Y-100009250D01*
X139008397Y-99813083D01*
X139027215Y-99610000D01*
X139008397Y-99406917D01*
X138952582Y-99210750D01*
X138949836Y-99205236D01*
X138888137Y-99081326D01*
X138861673Y-99028179D01*
X138738764Y-98865421D01*
X138738762Y-98865418D01*
X138588041Y-98728019D01*
X138588039Y-98728017D01*
X138414642Y-98620655D01*
X138414635Y-98620651D01*
X138314552Y-98581879D01*
X138224456Y-98546976D01*
X138023976Y-98509500D01*
X137820024Y-98509500D01*
X137733801Y-98525617D01*
X137619536Y-98546977D01*
X137529443Y-98581879D01*
X137459820Y-98587740D01*
X137398080Y-98555030D01*
X137396970Y-98553933D01*
X137108819Y-98265782D01*
X137075334Y-98204459D01*
X137072500Y-98178101D01*
X137072500Y-98061010D01*
X137092185Y-97993971D01*
X137144989Y-97948216D01*
X137214147Y-97938272D01*
X137261774Y-97955581D01*
X137429363Y-98059348D01*
X137619544Y-98133024D01*
X137820024Y-98170500D01*
X137820026Y-98170500D01*
X138023974Y-98170500D01*
X138023976Y-98170500D01*
X138224456Y-98133024D01*
X138414637Y-98059348D01*
X138588041Y-97951981D01*
X138653963Y-97891884D01*
X138716765Y-97861269D01*
X138786153Y-97869466D01*
X138840093Y-97913876D01*
X138861461Y-97980398D01*
X138861500Y-97983523D01*
X138861500Y-98434435D01*
X138881614Y-98509500D01*
X138887091Y-98529941D01*
X138896925Y-98546973D01*
X138896927Y-98546976D01*
X138936526Y-98615563D01*
X138936528Y-98615565D01*
X139402289Y-99081326D01*
X139435774Y-99142649D01*
X139431331Y-99204765D01*
X139432986Y-99205236D01*
X139375603Y-99406915D01*
X139375602Y-99406917D01*
X139356785Y-99609999D01*
X139356785Y-99610000D01*
X139375602Y-99813082D01*
X139431417Y-100009247D01*
X139431422Y-100009260D01*
X139522327Y-100191821D01*
X139645237Y-100354581D01*
X139795958Y-100491980D01*
X139795960Y-100491982D01*
X139895141Y-100553392D01*
X139969363Y-100599348D01*
X140159544Y-100673024D01*
X140360024Y-100710500D01*
X140360026Y-100710500D01*
X140563974Y-100710500D01*
X140563976Y-100710500D01*
X140764456Y-100673024D01*
X140954637Y-100599348D01*
X141128041Y-100491981D01*
X141278764Y-100354579D01*
X141401673Y-100191821D01*
X141492582Y-100009250D01*
X141548397Y-99813083D01*
X141567215Y-99610000D01*
X141548397Y-99406917D01*
X141492582Y-99210750D01*
X141489836Y-99205236D01*
X141428137Y-99081326D01*
X141401673Y-99028179D01*
X141278764Y-98865421D01*
X141278762Y-98865418D01*
X141128041Y-98728019D01*
X141128039Y-98728017D01*
X140954642Y-98620655D01*
X140954635Y-98620651D01*
X140854552Y-98581879D01*
X140764456Y-98546976D01*
X140563976Y-98509500D01*
X140360024Y-98509500D01*
X140273801Y-98525617D01*
X140159536Y-98546977D01*
X140069443Y-98581879D01*
X139999820Y-98587740D01*
X139938080Y-98555030D01*
X139936970Y-98553933D01*
X139648819Y-98265782D01*
X139615334Y-98204459D01*
X139612500Y-98178101D01*
X139612500Y-98061010D01*
X139632185Y-97993971D01*
X139684989Y-97948216D01*
X139754147Y-97938272D01*
X139801774Y-97955581D01*
X139969363Y-98059348D01*
X140159544Y-98133024D01*
X140360024Y-98170500D01*
X140360026Y-98170500D01*
X140563974Y-98170500D01*
X140563976Y-98170500D01*
X140764456Y-98133024D01*
X140954637Y-98059348D01*
X141128041Y-97951981D01*
X141193963Y-97891884D01*
X141256765Y-97861269D01*
X141326153Y-97869466D01*
X141380093Y-97913876D01*
X141401461Y-97980398D01*
X141401500Y-97983523D01*
X141401500Y-98434435D01*
X141421614Y-98509500D01*
X141427091Y-98529941D01*
X141436925Y-98546973D01*
X141436927Y-98546976D01*
X141476526Y-98615563D01*
X141476528Y-98615565D01*
X141942289Y-99081326D01*
X141975774Y-99142649D01*
X141971331Y-99204765D01*
X141972986Y-99205236D01*
X141915603Y-99406915D01*
X141915602Y-99406917D01*
X141896785Y-99609999D01*
X141896785Y-99610000D01*
X141915602Y-99813082D01*
X141971417Y-100009247D01*
X141971422Y-100009260D01*
X142062327Y-100191821D01*
X142185237Y-100354581D01*
X142335958Y-100491980D01*
X142335960Y-100491982D01*
X142435141Y-100553392D01*
X142509363Y-100599348D01*
X142699544Y-100673024D01*
X142900024Y-100710500D01*
X142900026Y-100710500D01*
X143103974Y-100710500D01*
X143103976Y-100710500D01*
X143304456Y-100673024D01*
X143494637Y-100599348D01*
X143668041Y-100491981D01*
X143818764Y-100354579D01*
X143941673Y-100191821D01*
X144032582Y-100009250D01*
X144088397Y-99813083D01*
X144107215Y-99610000D01*
X144088397Y-99406917D01*
X144032582Y-99210750D01*
X144029836Y-99205236D01*
X143968137Y-99081326D01*
X143941673Y-99028179D01*
X143818764Y-98865421D01*
X143818762Y-98865418D01*
X143668041Y-98728019D01*
X143668039Y-98728017D01*
X143494642Y-98620655D01*
X143494635Y-98620651D01*
X143394552Y-98581879D01*
X143304456Y-98546976D01*
X143103976Y-98509500D01*
X142900024Y-98509500D01*
X142813801Y-98525617D01*
X142699536Y-98546977D01*
X142609443Y-98581879D01*
X142539820Y-98587740D01*
X142478080Y-98555030D01*
X142476970Y-98553933D01*
X142188819Y-98265782D01*
X142155334Y-98204459D01*
X142152500Y-98178101D01*
X142152500Y-98061010D01*
X142172185Y-97993971D01*
X142224989Y-97948216D01*
X142294147Y-97938272D01*
X142341774Y-97955581D01*
X142509363Y-98059348D01*
X142699544Y-98133024D01*
X142900024Y-98170500D01*
X142900026Y-98170500D01*
X143103974Y-98170500D01*
X143103976Y-98170500D01*
X143304456Y-98133024D01*
X143494637Y-98059348D01*
X143668041Y-97951981D01*
X143733963Y-97891884D01*
X143796765Y-97861269D01*
X143866153Y-97869466D01*
X143920093Y-97913876D01*
X143941461Y-97980398D01*
X143941500Y-97983523D01*
X143941500Y-98434435D01*
X143961614Y-98509500D01*
X143967091Y-98529941D01*
X143976925Y-98546973D01*
X143976927Y-98546976D01*
X144016526Y-98615563D01*
X144016528Y-98615565D01*
X144482289Y-99081326D01*
X144515774Y-99142649D01*
X144511331Y-99204765D01*
X144512986Y-99205236D01*
X144455603Y-99406915D01*
X144455602Y-99406917D01*
X144436785Y-99609999D01*
X144436785Y-99610000D01*
X144455602Y-99813082D01*
X144511417Y-100009247D01*
X144511422Y-100009260D01*
X144602327Y-100191821D01*
X144725237Y-100354581D01*
X144875958Y-100491980D01*
X144875960Y-100491982D01*
X144975141Y-100553392D01*
X145049363Y-100599348D01*
X145239544Y-100673024D01*
X145440024Y-100710500D01*
X145440026Y-100710500D01*
X145643974Y-100710500D01*
X145643976Y-100710500D01*
X145844456Y-100673024D01*
X146034637Y-100599348D01*
X146208041Y-100491981D01*
X146358764Y-100354579D01*
X146481673Y-100191821D01*
X146572582Y-100009250D01*
X146628397Y-99813083D01*
X146647215Y-99610000D01*
X146628397Y-99406917D01*
X146572582Y-99210750D01*
X146569836Y-99205236D01*
X146508137Y-99081326D01*
X146481673Y-99028179D01*
X146358764Y-98865421D01*
X146358762Y-98865418D01*
X146208041Y-98728019D01*
X146208039Y-98728017D01*
X146034642Y-98620655D01*
X146034635Y-98620651D01*
X145934552Y-98581879D01*
X145844456Y-98546976D01*
X145643976Y-98509500D01*
X145440024Y-98509500D01*
X145353801Y-98525617D01*
X145239536Y-98546977D01*
X145149443Y-98581879D01*
X145079820Y-98587740D01*
X145018080Y-98555030D01*
X145016970Y-98553933D01*
X144728819Y-98265782D01*
X144695334Y-98204459D01*
X144692500Y-98178101D01*
X144692500Y-98061010D01*
X144712185Y-97993971D01*
X144764989Y-97948216D01*
X144834147Y-97938272D01*
X144881774Y-97955581D01*
X145049363Y-98059348D01*
X145239544Y-98133024D01*
X145440024Y-98170500D01*
X145440026Y-98170500D01*
X145643974Y-98170500D01*
X145643976Y-98170500D01*
X145844456Y-98133024D01*
X146034637Y-98059348D01*
X146208041Y-97951981D01*
X146273963Y-97891884D01*
X146336765Y-97861269D01*
X146406153Y-97869466D01*
X146460093Y-97913876D01*
X146481461Y-97980398D01*
X146481500Y-97983523D01*
X146481500Y-98434435D01*
X146501614Y-98509500D01*
X146507091Y-98529941D01*
X146516925Y-98546973D01*
X146516927Y-98546976D01*
X146556526Y-98615563D01*
X146556528Y-98615565D01*
X147022289Y-99081326D01*
X147055774Y-99142649D01*
X147051331Y-99204765D01*
X147052986Y-99205236D01*
X146995603Y-99406915D01*
X146995602Y-99406917D01*
X146976785Y-99609999D01*
X146976785Y-99610000D01*
X146995602Y-99813082D01*
X147051417Y-100009247D01*
X147051422Y-100009260D01*
X147142327Y-100191821D01*
X147265237Y-100354581D01*
X147415958Y-100491980D01*
X147415960Y-100491982D01*
X147515141Y-100553392D01*
X147589363Y-100599348D01*
X147779544Y-100673024D01*
X147980024Y-100710500D01*
X147980026Y-100710500D01*
X148183974Y-100710500D01*
X148183976Y-100710500D01*
X148384456Y-100673024D01*
X148574637Y-100599348D01*
X148748041Y-100491981D01*
X148898764Y-100354579D01*
X149021673Y-100191821D01*
X149112582Y-100009250D01*
X149168397Y-99813083D01*
X149187215Y-99610000D01*
X149168397Y-99406917D01*
X149112582Y-99210750D01*
X149109836Y-99205236D01*
X149048137Y-99081326D01*
X149021673Y-99028179D01*
X148898764Y-98865421D01*
X148898762Y-98865418D01*
X148748041Y-98728019D01*
X148748039Y-98728017D01*
X148574642Y-98620655D01*
X148574635Y-98620651D01*
X148474552Y-98581879D01*
X148384456Y-98546976D01*
X148183976Y-98509500D01*
X147980024Y-98509500D01*
X147893801Y-98525617D01*
X147779536Y-98546977D01*
X147689443Y-98581879D01*
X147619820Y-98587740D01*
X147558080Y-98555030D01*
X147556970Y-98553933D01*
X147268819Y-98265782D01*
X147235334Y-98204459D01*
X147232500Y-98178101D01*
X147232500Y-98061010D01*
X147252185Y-97993971D01*
X147304989Y-97948216D01*
X147374147Y-97938272D01*
X147421774Y-97955581D01*
X147589363Y-98059348D01*
X147779544Y-98133024D01*
X147980024Y-98170500D01*
X147980026Y-98170500D01*
X148183974Y-98170500D01*
X148183976Y-98170500D01*
X148384456Y-98133024D01*
X148574637Y-98059348D01*
X148748041Y-97951981D01*
X148813963Y-97891884D01*
X148876765Y-97861269D01*
X148946153Y-97869466D01*
X149000093Y-97913876D01*
X149021461Y-97980398D01*
X149021500Y-97983523D01*
X149021500Y-98434435D01*
X149041614Y-98509500D01*
X149047091Y-98529941D01*
X149056925Y-98546973D01*
X149056927Y-98546976D01*
X149096526Y-98615563D01*
X149096528Y-98615565D01*
X149562289Y-99081326D01*
X149595774Y-99142649D01*
X149591331Y-99204765D01*
X149592986Y-99205236D01*
X149535603Y-99406915D01*
X149535602Y-99406917D01*
X149516785Y-99609999D01*
X149516785Y-99610000D01*
X149535602Y-99813082D01*
X149591417Y-100009247D01*
X149591422Y-100009260D01*
X149682327Y-100191821D01*
X149805237Y-100354581D01*
X149955958Y-100491980D01*
X149955960Y-100491982D01*
X150055141Y-100553392D01*
X150129363Y-100599348D01*
X150319544Y-100673024D01*
X150520024Y-100710500D01*
X150520026Y-100710500D01*
X150723974Y-100710500D01*
X150723976Y-100710500D01*
X150924456Y-100673024D01*
X151114637Y-100599348D01*
X151288041Y-100491981D01*
X151438764Y-100354579D01*
X151561673Y-100191821D01*
X151652582Y-100009250D01*
X151708397Y-99813083D01*
X151727215Y-99610000D01*
X151708397Y-99406917D01*
X151652582Y-99210750D01*
X151649836Y-99205236D01*
X151588137Y-99081326D01*
X151561673Y-99028179D01*
X151438764Y-98865421D01*
X151438762Y-98865418D01*
X151288041Y-98728019D01*
X151288039Y-98728017D01*
X151114642Y-98620655D01*
X151114635Y-98620651D01*
X151014552Y-98581879D01*
X150924456Y-98546976D01*
X150723976Y-98509500D01*
X150520024Y-98509500D01*
X150433801Y-98525617D01*
X150319536Y-98546977D01*
X150229443Y-98581879D01*
X150159820Y-98587740D01*
X150098080Y-98555030D01*
X150096970Y-98553933D01*
X149808819Y-98265782D01*
X149775334Y-98204459D01*
X149772500Y-98178101D01*
X149772500Y-98061010D01*
X149792185Y-97993971D01*
X149844989Y-97948216D01*
X149914147Y-97938272D01*
X149961774Y-97955581D01*
X150129363Y-98059348D01*
X150319544Y-98133024D01*
X150520024Y-98170500D01*
X150520026Y-98170500D01*
X150723974Y-98170500D01*
X150723976Y-98170500D01*
X150924456Y-98133024D01*
X151114637Y-98059348D01*
X151288041Y-97951981D01*
X151438764Y-97814579D01*
X151561673Y-97651821D01*
X151652582Y-97469250D01*
X151708397Y-97273083D01*
X151727215Y-97070000D01*
X151708397Y-96866917D01*
X151652582Y-96670750D01*
X151561673Y-96488179D01*
X151511799Y-96422135D01*
X152061500Y-96422135D01*
X152061500Y-97717870D01*
X152061501Y-97717876D01*
X152067908Y-97777483D01*
X152118202Y-97912328D01*
X152118206Y-97912335D01*
X152204452Y-98027544D01*
X152204455Y-98027547D01*
X152319664Y-98113793D01*
X152319671Y-98113797D01*
X152454517Y-98164091D01*
X152454516Y-98164091D01*
X152461444Y-98164835D01*
X152514127Y-98170500D01*
X153809872Y-98170499D01*
X153869483Y-98164091D01*
X154004331Y-98113796D01*
X154119546Y-98027546D01*
X154205796Y-97912331D01*
X154256091Y-97777483D01*
X154262500Y-97717873D01*
X154262499Y-96422128D01*
X154256091Y-96362517D01*
X154214195Y-96250189D01*
X154205797Y-96227671D01*
X154205793Y-96227664D01*
X154119547Y-96112455D01*
X154119544Y-96112452D01*
X154004335Y-96026206D01*
X154004328Y-96026202D01*
X153869482Y-95975908D01*
X153869483Y-95975908D01*
X153809883Y-95969501D01*
X153809881Y-95969500D01*
X153809873Y-95969500D01*
X153809864Y-95969500D01*
X152514129Y-95969500D01*
X152514123Y-95969501D01*
X152454516Y-95975908D01*
X152319671Y-96026202D01*
X152319664Y-96026206D01*
X152204455Y-96112452D01*
X152204452Y-96112455D01*
X152118206Y-96227664D01*
X152118202Y-96227671D01*
X152067908Y-96362517D01*
X152061501Y-96422116D01*
X152061501Y-96422123D01*
X152061500Y-96422135D01*
X151511799Y-96422135D01*
X151438764Y-96325421D01*
X151438762Y-96325418D01*
X151288041Y-96188019D01*
X151288039Y-96188017D01*
X151114642Y-96080655D01*
X151114635Y-96080651D01*
X151019546Y-96043814D01*
X150924456Y-96006976D01*
X150723976Y-95969500D01*
X150520024Y-95969500D01*
X150319544Y-96006976D01*
X150319541Y-96006976D01*
X150319541Y-96006977D01*
X150129364Y-96080651D01*
X150129357Y-96080655D01*
X149961777Y-96184416D01*
X149894417Y-96202971D01*
X149827717Y-96182163D01*
X149782856Y-96128598D01*
X149772500Y-96078989D01*
X149772500Y-82847898D01*
X149792185Y-82780859D01*
X149808815Y-82760221D01*
X150096972Y-82472063D01*
X150158293Y-82438580D01*
X150227984Y-82443564D01*
X150229444Y-82444119D01*
X150319544Y-82479024D01*
X150520024Y-82516500D01*
X150520026Y-82516500D01*
X150723974Y-82516500D01*
X150723976Y-82516500D01*
X150924456Y-82479024D01*
X151114637Y-82405348D01*
X151288041Y-82297981D01*
X151438764Y-82160579D01*
X151561673Y-81997821D01*
X151652582Y-81815250D01*
X151708397Y-81619083D01*
X151727215Y-81416000D01*
X151708397Y-81212917D01*
X151652582Y-81016750D01*
X151649836Y-81011236D01*
X151574108Y-80859152D01*
X151561673Y-80834179D01*
X151438764Y-80671421D01*
X151438762Y-80671418D01*
X151288041Y-80534019D01*
X151288039Y-80534017D01*
X151114642Y-80426655D01*
X151114635Y-80426651D01*
X151014552Y-80387879D01*
X150924456Y-80352976D01*
X150723976Y-80315500D01*
X150520024Y-80315500D01*
X150434115Y-80331559D01*
X150319536Y-80352977D01*
X150229443Y-80387879D01*
X150159820Y-80393740D01*
X150098080Y-80361030D01*
X150096970Y-80359933D01*
X149808819Y-80071782D01*
X149775334Y-80010459D01*
X149772500Y-79984101D01*
X149772500Y-79867010D01*
X149792185Y-79799971D01*
X149844989Y-79754216D01*
X149914147Y-79744272D01*
X149961774Y-79761581D01*
X150129363Y-79865348D01*
X150319544Y-79939024D01*
X150520024Y-79976500D01*
X150520026Y-79976500D01*
X150723974Y-79976500D01*
X150723976Y-79976500D01*
X150924456Y-79939024D01*
X151114637Y-79865348D01*
X151288041Y-79757981D01*
X151438764Y-79620579D01*
X151561673Y-79457821D01*
X151652582Y-79275250D01*
X151708397Y-79079083D01*
X151727215Y-78876000D01*
X151708397Y-78672917D01*
X151652582Y-78476750D01*
X151561673Y-78294179D01*
X151511799Y-78228135D01*
X152061500Y-78228135D01*
X152061500Y-79523870D01*
X152061501Y-79523876D01*
X152067908Y-79583483D01*
X152118202Y-79718328D01*
X152118206Y-79718335D01*
X152204452Y-79833544D01*
X152204455Y-79833547D01*
X152319664Y-79919793D01*
X152319671Y-79919797D01*
X152454517Y-79970091D01*
X152454516Y-79970091D01*
X152461444Y-79970835D01*
X152514127Y-79976500D01*
X153809872Y-79976499D01*
X153869483Y-79970091D01*
X154004331Y-79919796D01*
X154119546Y-79833546D01*
X154205796Y-79718331D01*
X154256091Y-79583483D01*
X154262500Y-79523873D01*
X154262499Y-78228128D01*
X154256091Y-78168517D01*
X154214195Y-78056189D01*
X154205797Y-78033671D01*
X154205793Y-78033664D01*
X154119547Y-77918455D01*
X154119544Y-77918452D01*
X154004335Y-77832206D01*
X154004328Y-77832202D01*
X153869482Y-77781908D01*
X153869483Y-77781908D01*
X153809883Y-77775501D01*
X153809881Y-77775500D01*
X153809873Y-77775500D01*
X153809864Y-77775500D01*
X152514129Y-77775500D01*
X152514123Y-77775501D01*
X152454516Y-77781908D01*
X152319671Y-77832202D01*
X152319664Y-77832206D01*
X152204455Y-77918452D01*
X152204452Y-77918455D01*
X152118206Y-78033664D01*
X152118202Y-78033671D01*
X152067908Y-78168517D01*
X152061501Y-78228116D01*
X152061501Y-78228123D01*
X152061500Y-78228135D01*
X151511799Y-78228135D01*
X151438764Y-78131421D01*
X151438762Y-78131418D01*
X151288041Y-77994019D01*
X151288039Y-77994017D01*
X151114642Y-77886655D01*
X151114635Y-77886651D01*
X151019546Y-77849814D01*
X150924456Y-77812976D01*
X150723976Y-77775500D01*
X150520024Y-77775500D01*
X150319544Y-77812976D01*
X150319541Y-77812976D01*
X150319541Y-77812977D01*
X150129364Y-77886651D01*
X150129357Y-77886655D01*
X149961777Y-77990416D01*
X149894417Y-78008971D01*
X149827717Y-77988163D01*
X149782856Y-77934598D01*
X149772500Y-77884989D01*
X149772500Y-71163898D01*
X149792185Y-71096859D01*
X149808815Y-71076221D01*
X150096972Y-70788063D01*
X150158293Y-70754580D01*
X150227984Y-70759564D01*
X150229444Y-70760119D01*
X150319544Y-70795024D01*
X150520024Y-70832500D01*
X150520026Y-70832500D01*
X150723974Y-70832500D01*
X150723976Y-70832500D01*
X150924456Y-70795024D01*
X151114637Y-70721348D01*
X151288041Y-70613981D01*
X151438764Y-70476579D01*
X151561673Y-70313821D01*
X151652582Y-70131250D01*
X151708397Y-69935083D01*
X151727215Y-69732000D01*
X151708397Y-69528917D01*
X151652582Y-69332750D01*
X151561673Y-69150179D01*
X151438764Y-68987421D01*
X151438762Y-68987418D01*
X151288041Y-68850019D01*
X151288039Y-68850017D01*
X151114642Y-68742655D01*
X151114635Y-68742651D01*
X151019546Y-68705814D01*
X150924456Y-68668976D01*
X150723976Y-68631500D01*
X150520024Y-68631500D01*
X150319544Y-68668976D01*
X150319541Y-68668976D01*
X150319541Y-68668977D01*
X150129364Y-68742651D01*
X150129357Y-68742655D01*
X149955960Y-68850017D01*
X149955958Y-68850019D01*
X149805237Y-68987418D01*
X149682327Y-69150178D01*
X149591422Y-69332739D01*
X149591417Y-69332752D01*
X149535602Y-69528917D01*
X149516785Y-69731999D01*
X149516785Y-69732000D01*
X149535602Y-69935082D01*
X149572500Y-70064760D01*
X149591417Y-70131247D01*
X149592987Y-70136763D01*
X149591003Y-70137327D01*
X149596098Y-70197816D01*
X149563390Y-70259557D01*
X149562290Y-70260671D01*
X149166438Y-70656525D01*
X149096526Y-70726436D01*
X149047090Y-70812061D01*
X149041615Y-70832498D01*
X149041614Y-70832500D01*
X149022978Y-70902052D01*
X149022974Y-70902065D01*
X149021501Y-70907559D01*
X149021500Y-70907568D01*
X149021500Y-77962476D01*
X149001815Y-78029515D01*
X148949011Y-78075270D01*
X148879853Y-78085214D01*
X148816297Y-78056189D01*
X148813962Y-78054113D01*
X148748042Y-77994019D01*
X148748039Y-77994017D01*
X148574642Y-77886655D01*
X148574635Y-77886651D01*
X148479546Y-77849814D01*
X148384456Y-77812976D01*
X148183976Y-77775500D01*
X147980024Y-77775500D01*
X147779544Y-77812976D01*
X147779541Y-77812976D01*
X147779541Y-77812977D01*
X147589364Y-77886651D01*
X147589357Y-77886655D01*
X147421777Y-77990416D01*
X147354417Y-78008971D01*
X147287717Y-77988163D01*
X147242856Y-77934598D01*
X147232500Y-77884989D01*
X147232500Y-71163898D01*
X147252185Y-71096859D01*
X147268815Y-71076221D01*
X147556972Y-70788063D01*
X147618293Y-70754580D01*
X147687984Y-70759564D01*
X147689444Y-70760119D01*
X147779544Y-70795024D01*
X147980024Y-70832500D01*
X147980026Y-70832500D01*
X148183974Y-70832500D01*
X148183976Y-70832500D01*
X148384456Y-70795024D01*
X148574637Y-70721348D01*
X148748041Y-70613981D01*
X148898764Y-70476579D01*
X149021673Y-70313821D01*
X149112582Y-70131250D01*
X149168397Y-69935083D01*
X149187215Y-69732000D01*
X149168397Y-69528917D01*
X149112582Y-69332750D01*
X149021673Y-69150179D01*
X148898764Y-68987421D01*
X148898762Y-68987418D01*
X148748041Y-68850019D01*
X148748039Y-68850017D01*
X148574642Y-68742655D01*
X148574635Y-68742651D01*
X148479546Y-68705814D01*
X148384456Y-68668976D01*
X148183976Y-68631500D01*
X147980024Y-68631500D01*
X147779544Y-68668976D01*
X147779541Y-68668976D01*
X147779541Y-68668977D01*
X147589364Y-68742651D01*
X147589357Y-68742655D01*
X147415960Y-68850017D01*
X147415958Y-68850019D01*
X147265237Y-68987418D01*
X147142327Y-69150178D01*
X147051422Y-69332739D01*
X147051417Y-69332752D01*
X146995602Y-69528917D01*
X146976785Y-69731999D01*
X146976785Y-69732000D01*
X146995602Y-69935082D01*
X147032500Y-70064760D01*
X147051417Y-70131247D01*
X147052987Y-70136763D01*
X147051003Y-70137327D01*
X147056098Y-70197816D01*
X147023390Y-70259557D01*
X147022290Y-70260671D01*
X146626438Y-70656525D01*
X146556526Y-70726436D01*
X146507090Y-70812061D01*
X146501615Y-70832498D01*
X146501614Y-70832500D01*
X146482978Y-70902052D01*
X146482974Y-70902065D01*
X146481501Y-70907559D01*
X146481500Y-70907568D01*
X146481500Y-77962476D01*
X146461815Y-78029515D01*
X146409011Y-78075270D01*
X146339853Y-78085214D01*
X146276297Y-78056189D01*
X146273962Y-78054113D01*
X146208042Y-77994019D01*
X146208039Y-77994017D01*
X146034642Y-77886655D01*
X146034635Y-77886651D01*
X145939546Y-77849814D01*
X145844456Y-77812976D01*
X145643976Y-77775500D01*
X145440024Y-77775500D01*
X145239544Y-77812976D01*
X145239541Y-77812976D01*
X145239541Y-77812977D01*
X145049364Y-77886651D01*
X145049357Y-77886655D01*
X144881777Y-77990416D01*
X144814417Y-78008971D01*
X144747717Y-77988163D01*
X144702856Y-77934598D01*
X144692500Y-77884989D01*
X144692500Y-71163898D01*
X144712185Y-71096859D01*
X144728815Y-71076221D01*
X145016972Y-70788063D01*
X145078293Y-70754580D01*
X145147984Y-70759564D01*
X145149444Y-70760119D01*
X145239544Y-70795024D01*
X145440024Y-70832500D01*
X145440026Y-70832500D01*
X145643974Y-70832500D01*
X145643976Y-70832500D01*
X145844456Y-70795024D01*
X146034637Y-70721348D01*
X146208041Y-70613981D01*
X146358764Y-70476579D01*
X146481673Y-70313821D01*
X146572582Y-70131250D01*
X146628397Y-69935083D01*
X146647215Y-69732000D01*
X146628397Y-69528917D01*
X146572582Y-69332750D01*
X146481673Y-69150179D01*
X146358764Y-68987421D01*
X146358762Y-68987418D01*
X146208041Y-68850019D01*
X146208039Y-68850017D01*
X146034642Y-68742655D01*
X146034635Y-68742651D01*
X145939546Y-68705814D01*
X145844456Y-68668976D01*
X145643976Y-68631500D01*
X145440024Y-68631500D01*
X145239544Y-68668976D01*
X145239541Y-68668976D01*
X145239541Y-68668977D01*
X145049364Y-68742651D01*
X145049357Y-68742655D01*
X144875960Y-68850017D01*
X144875958Y-68850019D01*
X144725237Y-68987418D01*
X144602327Y-69150178D01*
X144511422Y-69332739D01*
X144511417Y-69332752D01*
X144455602Y-69528917D01*
X144436785Y-69731999D01*
X144436785Y-69732000D01*
X144455602Y-69935082D01*
X144492500Y-70064760D01*
X144511417Y-70131247D01*
X144512987Y-70136763D01*
X144511003Y-70137327D01*
X144516098Y-70197816D01*
X144483390Y-70259557D01*
X144482290Y-70260671D01*
X144086438Y-70656525D01*
X144016526Y-70726436D01*
X143967090Y-70812061D01*
X143961615Y-70832498D01*
X143961614Y-70832500D01*
X143942978Y-70902052D01*
X143942974Y-70902065D01*
X143941501Y-70907559D01*
X143941500Y-70907568D01*
X143941500Y-77962476D01*
X143921815Y-78029515D01*
X143869011Y-78075270D01*
X143799853Y-78085214D01*
X143736297Y-78056189D01*
X143733962Y-78054113D01*
X143668042Y-77994019D01*
X143668039Y-77994017D01*
X143494642Y-77886655D01*
X143494635Y-77886651D01*
X143399546Y-77849814D01*
X143304456Y-77812976D01*
X143103976Y-77775500D01*
X142900024Y-77775500D01*
X142699544Y-77812976D01*
X142699541Y-77812976D01*
X142699541Y-77812977D01*
X142509364Y-77886651D01*
X142509357Y-77886655D01*
X142341777Y-77990416D01*
X142274417Y-78008971D01*
X142207717Y-77988163D01*
X142162856Y-77934598D01*
X142152500Y-77884989D01*
X142152500Y-71163898D01*
X142172185Y-71096859D01*
X142188815Y-71076221D01*
X142476972Y-70788063D01*
X142538293Y-70754580D01*
X142607984Y-70759564D01*
X142609444Y-70760119D01*
X142699544Y-70795024D01*
X142900024Y-70832500D01*
X142900026Y-70832500D01*
X143103974Y-70832500D01*
X143103976Y-70832500D01*
X143304456Y-70795024D01*
X143494637Y-70721348D01*
X143668041Y-70613981D01*
X143818764Y-70476579D01*
X143941673Y-70313821D01*
X144032582Y-70131250D01*
X144088397Y-69935083D01*
X144107215Y-69732000D01*
X144088397Y-69528917D01*
X144032582Y-69332750D01*
X143941673Y-69150179D01*
X143818764Y-68987421D01*
X143818762Y-68987418D01*
X143668041Y-68850019D01*
X143668039Y-68850017D01*
X143494642Y-68742655D01*
X143494635Y-68742651D01*
X143399546Y-68705814D01*
X143304456Y-68668976D01*
X143103976Y-68631500D01*
X142900024Y-68631500D01*
X142699544Y-68668976D01*
X142699541Y-68668976D01*
X142699541Y-68668977D01*
X142509364Y-68742651D01*
X142509357Y-68742655D01*
X142335960Y-68850017D01*
X142335958Y-68850019D01*
X142185237Y-68987418D01*
X142062327Y-69150178D01*
X141971422Y-69332739D01*
X141971417Y-69332752D01*
X141915602Y-69528917D01*
X141896785Y-69731999D01*
X141896785Y-69732000D01*
X141915602Y-69935082D01*
X141952500Y-70064760D01*
X141971417Y-70131247D01*
X141972987Y-70136763D01*
X141971003Y-70137327D01*
X141976098Y-70197816D01*
X141943390Y-70259557D01*
X141942290Y-70260671D01*
X141546438Y-70656525D01*
X141476526Y-70726436D01*
X141427090Y-70812061D01*
X141421615Y-70832498D01*
X141421614Y-70832500D01*
X141402978Y-70902052D01*
X141402974Y-70902065D01*
X141401501Y-70907559D01*
X141401500Y-70907568D01*
X141401500Y-77962476D01*
X141381815Y-78029515D01*
X141329011Y-78075270D01*
X141259853Y-78085214D01*
X141196297Y-78056189D01*
X141193962Y-78054113D01*
X141128042Y-77994019D01*
X141128039Y-77994017D01*
X140954642Y-77886655D01*
X140954635Y-77886651D01*
X140859546Y-77849814D01*
X140764456Y-77812976D01*
X140563976Y-77775500D01*
X140360024Y-77775500D01*
X140159544Y-77812976D01*
X140159541Y-77812976D01*
X140159541Y-77812977D01*
X139969364Y-77886651D01*
X139969357Y-77886655D01*
X139801777Y-77990416D01*
X139734417Y-78008971D01*
X139667717Y-77988163D01*
X139622856Y-77934598D01*
X139612500Y-77884989D01*
X139612500Y-71163898D01*
X139632185Y-71096859D01*
X139648815Y-71076221D01*
X139936972Y-70788063D01*
X139998293Y-70754580D01*
X140067984Y-70759564D01*
X140069444Y-70760119D01*
X140159544Y-70795024D01*
X140360024Y-70832500D01*
X140360026Y-70832500D01*
X140563974Y-70832500D01*
X140563976Y-70832500D01*
X140764456Y-70795024D01*
X140954637Y-70721348D01*
X141128041Y-70613981D01*
X141278764Y-70476579D01*
X141401673Y-70313821D01*
X141492582Y-70131250D01*
X141548397Y-69935083D01*
X141567215Y-69732000D01*
X141548397Y-69528917D01*
X141492582Y-69332750D01*
X141401673Y-69150179D01*
X141278764Y-68987421D01*
X141278762Y-68987418D01*
X141128041Y-68850019D01*
X141128039Y-68850017D01*
X140954642Y-68742655D01*
X140954635Y-68742651D01*
X140859546Y-68705814D01*
X140764456Y-68668976D01*
X140563976Y-68631500D01*
X140360024Y-68631500D01*
X140159544Y-68668976D01*
X140159541Y-68668976D01*
X140159541Y-68668977D01*
X139969364Y-68742651D01*
X139969357Y-68742655D01*
X139795960Y-68850017D01*
X139795958Y-68850019D01*
X139645237Y-68987418D01*
X139522327Y-69150178D01*
X139431422Y-69332739D01*
X139431417Y-69332752D01*
X139375602Y-69528917D01*
X139356785Y-69731999D01*
X139356785Y-69732000D01*
X139375602Y-69935082D01*
X139412500Y-70064760D01*
X139431417Y-70131247D01*
X139432987Y-70136763D01*
X139431003Y-70137327D01*
X139436098Y-70197816D01*
X139403390Y-70259557D01*
X139402290Y-70260671D01*
X139006438Y-70656525D01*
X138936526Y-70726436D01*
X138887090Y-70812061D01*
X138881615Y-70832498D01*
X138881614Y-70832500D01*
X138862978Y-70902052D01*
X138862974Y-70902065D01*
X138861501Y-70907559D01*
X138861500Y-70907568D01*
X138861500Y-77962476D01*
X138841815Y-78029515D01*
X138789011Y-78075270D01*
X138719853Y-78085214D01*
X138656297Y-78056189D01*
X138653962Y-78054113D01*
X138588042Y-77994019D01*
X138588039Y-77994017D01*
X138414642Y-77886655D01*
X138414635Y-77886651D01*
X138319546Y-77849814D01*
X138224456Y-77812976D01*
X138023976Y-77775500D01*
X137820024Y-77775500D01*
X137619544Y-77812976D01*
X137619541Y-77812976D01*
X137619541Y-77812977D01*
X137429364Y-77886651D01*
X137429357Y-77886655D01*
X137261777Y-77990416D01*
X137194417Y-78008971D01*
X137127717Y-77988163D01*
X137082856Y-77934598D01*
X137072500Y-77884989D01*
X137072500Y-71163898D01*
X137092185Y-71096859D01*
X137108815Y-71076221D01*
X137396972Y-70788063D01*
X137458293Y-70754580D01*
X137527984Y-70759564D01*
X137529444Y-70760119D01*
X137619544Y-70795024D01*
X137820024Y-70832500D01*
X137820026Y-70832500D01*
X138023974Y-70832500D01*
X138023976Y-70832500D01*
X138224456Y-70795024D01*
X138414637Y-70721348D01*
X138588041Y-70613981D01*
X138738764Y-70476579D01*
X138861673Y-70313821D01*
X138952582Y-70131250D01*
X139008397Y-69935083D01*
X139027215Y-69732000D01*
X139008397Y-69528917D01*
X138952582Y-69332750D01*
X138861673Y-69150179D01*
X138738764Y-68987421D01*
X138738762Y-68987418D01*
X138588041Y-68850019D01*
X138588039Y-68850017D01*
X138414642Y-68742655D01*
X138414635Y-68742651D01*
X138319546Y-68705814D01*
X138224456Y-68668976D01*
X138023976Y-68631500D01*
X137820024Y-68631500D01*
X137619544Y-68668976D01*
X137619541Y-68668976D01*
X137619541Y-68668977D01*
X137429364Y-68742651D01*
X137429357Y-68742655D01*
X137255960Y-68850017D01*
X137255958Y-68850019D01*
X137105237Y-68987418D01*
X136982327Y-69150178D01*
X136891422Y-69332739D01*
X136891417Y-69332752D01*
X136835602Y-69528917D01*
X136816785Y-69731999D01*
X136816785Y-69732000D01*
X136835602Y-69935082D01*
X136872500Y-70064760D01*
X136891417Y-70131247D01*
X136892987Y-70136763D01*
X136891003Y-70137327D01*
X136896098Y-70197816D01*
X136863390Y-70259557D01*
X136862290Y-70260671D01*
X136466438Y-70656525D01*
X136396526Y-70726436D01*
X136347090Y-70812061D01*
X136341615Y-70832498D01*
X136341614Y-70832500D01*
X136322978Y-70902052D01*
X136322974Y-70902065D01*
X136321501Y-70907559D01*
X136321500Y-70907568D01*
X136321500Y-77962476D01*
X136301815Y-78029515D01*
X136249011Y-78075270D01*
X136179853Y-78085214D01*
X136116297Y-78056189D01*
X136113962Y-78054113D01*
X136048042Y-77994019D01*
X136048039Y-77994017D01*
X135874642Y-77886655D01*
X135874635Y-77886651D01*
X135779546Y-77849814D01*
X135684456Y-77812976D01*
X135483976Y-77775500D01*
X135280024Y-77775500D01*
X135079544Y-77812976D01*
X135079541Y-77812976D01*
X135079541Y-77812977D01*
X134889364Y-77886651D01*
X134889357Y-77886655D01*
X134715960Y-77994017D01*
X134715957Y-77994019D01*
X134650038Y-78054113D01*
X134587234Y-78084730D01*
X134517847Y-78076532D01*
X134463907Y-78032122D01*
X134442539Y-77965600D01*
X134442500Y-77962476D01*
X134442500Y-71253898D01*
X134462185Y-71186859D01*
X134478815Y-71166221D01*
X134856972Y-70788063D01*
X134918293Y-70754580D01*
X134987984Y-70759564D01*
X134989444Y-70760119D01*
X135079544Y-70795024D01*
X135280024Y-70832500D01*
X135280026Y-70832500D01*
X135483974Y-70832500D01*
X135483976Y-70832500D01*
X135684456Y-70795024D01*
X135874637Y-70721348D01*
X136048041Y-70613981D01*
X136198764Y-70476579D01*
X136321673Y-70313821D01*
X136412582Y-70131250D01*
X136468397Y-69935083D01*
X136487215Y-69732000D01*
X136468397Y-69528917D01*
X136412582Y-69332750D01*
X136321673Y-69150179D01*
X136198764Y-68987421D01*
X136198762Y-68987418D01*
X136048041Y-68850019D01*
X136048039Y-68850017D01*
X135874642Y-68742655D01*
X135874635Y-68742651D01*
X135779546Y-68705814D01*
X135684456Y-68668976D01*
X135483976Y-68631500D01*
X135280024Y-68631500D01*
X135079544Y-68668976D01*
X135079541Y-68668976D01*
X135079541Y-68668977D01*
X134889364Y-68742651D01*
X134889357Y-68742655D01*
X134715960Y-68850017D01*
X134715958Y-68850019D01*
X134565237Y-68987418D01*
X134442327Y-69150178D01*
X134351422Y-69332739D01*
X134351417Y-69332752D01*
X134295602Y-69528917D01*
X134276785Y-69731999D01*
X134276785Y-69732000D01*
X134295602Y-69935082D01*
X134332500Y-70064760D01*
X134351417Y-70131247D01*
X134352987Y-70136763D01*
X134351003Y-70137327D01*
X134356098Y-70197816D01*
X134323390Y-70259557D01*
X134322290Y-70260671D01*
X133836438Y-70746525D01*
X133766526Y-70816436D01*
X133717096Y-70902052D01*
X133717090Y-70902062D01*
X133691500Y-70997565D01*
X133691500Y-70997567D01*
X133691500Y-77884989D01*
X133671815Y-77952028D01*
X133619011Y-77997783D01*
X133549853Y-78007727D01*
X133502223Y-77990416D01*
X133334642Y-77886655D01*
X133334635Y-77886651D01*
X133239546Y-77849814D01*
X133144456Y-77812976D01*
X132943976Y-77775500D01*
X132740024Y-77775500D01*
X132539544Y-77812976D01*
X132539541Y-77812976D01*
X132539541Y-77812977D01*
X132349364Y-77886651D01*
X132349357Y-77886655D01*
X132181777Y-77990416D01*
X132114417Y-78008971D01*
X132047717Y-77988163D01*
X132002856Y-77934598D01*
X131992500Y-77884989D01*
X131992500Y-71163898D01*
X132012185Y-71096859D01*
X132028815Y-71076221D01*
X132316972Y-70788063D01*
X132378293Y-70754580D01*
X132447984Y-70759564D01*
X132449444Y-70760119D01*
X132539544Y-70795024D01*
X132740024Y-70832500D01*
X132740026Y-70832500D01*
X132943974Y-70832500D01*
X132943976Y-70832500D01*
X133144456Y-70795024D01*
X133334637Y-70721348D01*
X133508041Y-70613981D01*
X133658764Y-70476579D01*
X133781673Y-70313821D01*
X133872582Y-70131250D01*
X133928397Y-69935083D01*
X133947215Y-69732000D01*
X133928397Y-69528917D01*
X133872582Y-69332750D01*
X133781673Y-69150179D01*
X133658764Y-68987421D01*
X133658762Y-68987418D01*
X133508041Y-68850019D01*
X133508039Y-68850017D01*
X133334642Y-68742655D01*
X133334635Y-68742651D01*
X133239546Y-68705814D01*
X133144456Y-68668976D01*
X132943976Y-68631500D01*
X132740024Y-68631500D01*
X132539544Y-68668976D01*
X132539541Y-68668976D01*
X132539541Y-68668977D01*
X132349364Y-68742651D01*
X132349357Y-68742655D01*
X132175960Y-68850017D01*
X132175958Y-68850019D01*
X132025237Y-68987418D01*
X131902327Y-69150178D01*
X131811422Y-69332739D01*
X131811417Y-69332752D01*
X131755602Y-69528917D01*
X131736785Y-69731999D01*
X131736785Y-69732000D01*
X131755602Y-69935082D01*
X131792500Y-70064760D01*
X131811417Y-70131247D01*
X131812987Y-70136763D01*
X131811003Y-70137327D01*
X131816098Y-70197816D01*
X131783390Y-70259557D01*
X131782290Y-70260671D01*
X131386438Y-70656525D01*
X131316526Y-70726436D01*
X131267090Y-70812061D01*
X131261615Y-70832498D01*
X131261614Y-70832500D01*
X131242978Y-70902052D01*
X131242974Y-70902065D01*
X131241501Y-70907559D01*
X131241500Y-70907568D01*
X129657467Y-70907568D01*
X129776972Y-70788063D01*
X129838293Y-70754580D01*
X129907984Y-70759564D01*
X129909444Y-70760119D01*
X129999544Y-70795024D01*
X130200024Y-70832500D01*
X130200026Y-70832500D01*
X130403974Y-70832500D01*
X130403976Y-70832500D01*
X130604456Y-70795024D01*
X130794637Y-70721348D01*
X130968041Y-70613981D01*
X131118764Y-70476579D01*
X131241673Y-70313821D01*
X131332582Y-70131250D01*
X131388397Y-69935083D01*
X131407215Y-69732000D01*
X131388397Y-69528917D01*
X131332582Y-69332750D01*
X131241673Y-69150179D01*
X131118764Y-68987421D01*
X131118762Y-68987418D01*
X130968041Y-68850019D01*
X130968039Y-68850017D01*
X130794642Y-68742655D01*
X130794635Y-68742651D01*
X130699546Y-68705814D01*
X130604456Y-68668976D01*
X130403976Y-68631500D01*
X130200024Y-68631500D01*
X129999544Y-68668976D01*
X129999541Y-68668976D01*
X129999541Y-68668977D01*
X129809364Y-68742651D01*
X129809357Y-68742655D01*
X129635960Y-68850017D01*
X129635958Y-68850019D01*
X129485237Y-68987418D01*
X129362327Y-69150178D01*
X129271422Y-69332739D01*
X129271417Y-69332752D01*
X129215602Y-69528917D01*
X129196785Y-69731999D01*
X129196785Y-69732000D01*
X129215602Y-69935082D01*
X129252500Y-70064760D01*
X129271417Y-70131247D01*
X129272987Y-70136763D01*
X129271003Y-70137327D01*
X129276098Y-70197816D01*
X129243390Y-70259557D01*
X129242290Y-70260671D01*
X128846438Y-70656525D01*
X128776526Y-70726436D01*
X128727090Y-70812061D01*
X128721615Y-70832498D01*
X128721614Y-70832500D01*
X128702978Y-70902052D01*
X128702974Y-70902065D01*
X128701501Y-70907559D01*
X128701500Y-70907568D01*
X128701500Y-77962476D01*
X128681815Y-78029515D01*
X128629011Y-78075270D01*
X128559853Y-78085214D01*
X128496297Y-78056189D01*
X128493962Y-78054113D01*
X128428042Y-77994019D01*
X128428039Y-77994017D01*
X128254642Y-77886655D01*
X128254635Y-77886651D01*
X128159546Y-77849814D01*
X128064456Y-77812976D01*
X127863976Y-77775500D01*
X127660024Y-77775500D01*
X127459544Y-77812976D01*
X127459541Y-77812976D01*
X127459541Y-77812977D01*
X127269364Y-77886651D01*
X127269357Y-77886655D01*
X127095960Y-77994017D01*
X127095958Y-77994019D01*
X126945237Y-78131418D01*
X126822327Y-78294178D01*
X126731422Y-78476739D01*
X126731417Y-78476752D01*
X126675602Y-78672917D01*
X126656785Y-78875999D01*
X126327215Y-78875999D01*
X126308397Y-78672917D01*
X126252582Y-78476750D01*
X126161673Y-78294179D01*
X126038764Y-78131421D01*
X126038762Y-78131418D01*
X125888041Y-77994019D01*
X125888039Y-77994017D01*
X125714642Y-77886655D01*
X125714635Y-77886651D01*
X125619546Y-77849814D01*
X125524456Y-77812976D01*
X125323976Y-77775500D01*
X125120024Y-77775500D01*
X124919544Y-77812976D01*
X124919541Y-77812976D01*
X124919541Y-77812977D01*
X124729364Y-77886651D01*
X124729357Y-77886655D01*
X124555960Y-77994017D01*
X124555958Y-77994019D01*
X124405237Y-78131418D01*
X124282327Y-78294178D01*
X124191422Y-78476739D01*
X124191417Y-78476752D01*
X124135602Y-78672917D01*
X124116785Y-78875999D01*
X123787215Y-78875999D01*
X123768397Y-78672917D01*
X123712582Y-78476750D01*
X123621673Y-78294179D01*
X123498764Y-78131421D01*
X123498762Y-78131418D01*
X123348041Y-77994019D01*
X123348039Y-77994017D01*
X123174642Y-77886655D01*
X123174635Y-77886651D01*
X123079546Y-77849814D01*
X122984456Y-77812976D01*
X122783976Y-77775500D01*
X122580024Y-77775500D01*
X122379544Y-77812976D01*
X122379541Y-77812976D01*
X122379541Y-77812977D01*
X122189364Y-77886651D01*
X122189357Y-77886655D01*
X122015960Y-77994017D01*
X122015958Y-77994019D01*
X121865237Y-78131418D01*
X121742327Y-78294178D01*
X121651422Y-78476739D01*
X121651417Y-78476752D01*
X121595602Y-78672917D01*
X121576785Y-78875999D01*
X121247215Y-78875999D01*
X121228397Y-78672917D01*
X121172582Y-78476750D01*
X121081673Y-78294179D01*
X120958764Y-78131421D01*
X120958762Y-78131418D01*
X120808041Y-77994019D01*
X120808039Y-77994017D01*
X120634642Y-77886655D01*
X120634635Y-77886651D01*
X120539546Y-77849814D01*
X120444456Y-77812976D01*
X120243976Y-77775500D01*
X120040024Y-77775500D01*
X119839544Y-77812976D01*
X119839541Y-77812976D01*
X119839541Y-77812977D01*
X119649364Y-77886651D01*
X119649357Y-77886655D01*
X119475960Y-77994017D01*
X119475958Y-77994019D01*
X119325237Y-78131418D01*
X119202327Y-78294178D01*
X119111422Y-78476739D01*
X119111417Y-78476752D01*
X119055602Y-78672917D01*
X119036785Y-78875999D01*
X118707215Y-78875999D01*
X118688397Y-78672917D01*
X118632582Y-78476750D01*
X118541673Y-78294179D01*
X118418764Y-78131421D01*
X118418762Y-78131418D01*
X118268041Y-77994019D01*
X118268039Y-77994017D01*
X118094642Y-77886655D01*
X118094635Y-77886651D01*
X117999546Y-77849814D01*
X117904456Y-77812976D01*
X117703976Y-77775500D01*
X117500024Y-77775500D01*
X117299544Y-77812976D01*
X117299541Y-77812976D01*
X117299541Y-77812977D01*
X117109364Y-77886651D01*
X117109357Y-77886655D01*
X116935960Y-77994017D01*
X116935958Y-77994019D01*
X116785237Y-78131418D01*
X116662327Y-78294178D01*
X116571422Y-78476739D01*
X116571417Y-78476752D01*
X116515602Y-78672917D01*
X116496785Y-78875999D01*
X116167215Y-78875999D01*
X116148397Y-78672917D01*
X116092582Y-78476750D01*
X116001673Y-78294179D01*
X115878764Y-78131421D01*
X115878762Y-78131418D01*
X115728041Y-77994019D01*
X115728039Y-77994017D01*
X115554642Y-77886655D01*
X115554635Y-77886651D01*
X115459546Y-77849814D01*
X115364456Y-77812976D01*
X115163976Y-77775500D01*
X114960024Y-77775500D01*
X114759544Y-77812976D01*
X114759541Y-77812976D01*
X114759541Y-77812977D01*
X114569364Y-77886651D01*
X114569357Y-77886655D01*
X114395960Y-77994017D01*
X114395958Y-77994019D01*
X114375037Y-78013091D01*
X114312232Y-78043708D01*
X114242845Y-78035509D01*
X114188906Y-77991098D01*
X114167539Y-77924576D01*
X114167500Y-77921453D01*
X114167500Y-70686546D01*
X114187185Y-70619507D01*
X114239989Y-70573752D01*
X114309147Y-70563808D01*
X114372703Y-70592833D01*
X114375039Y-70594910D01*
X114395957Y-70613980D01*
X114395960Y-70613982D01*
X114463775Y-70655971D01*
X114569363Y-70721348D01*
X114759544Y-70795024D01*
X114960024Y-70832500D01*
X114960026Y-70832500D01*
X115163974Y-70832500D01*
X115163976Y-70832500D01*
X115364456Y-70795024D01*
X115554637Y-70721348D01*
X115728041Y-70613981D01*
X115878764Y-70476579D01*
X116001673Y-70313821D01*
X116092582Y-70131250D01*
X116148397Y-69935083D01*
X116167215Y-69732000D01*
X116167215Y-69731999D01*
X119036785Y-69731999D01*
X119036785Y-69732000D01*
X119055602Y-69935082D01*
X119111417Y-70131247D01*
X119111422Y-70131260D01*
X119202327Y-70313821D01*
X119325237Y-70476581D01*
X119475958Y-70613980D01*
X119475960Y-70613982D01*
X119543775Y-70655971D01*
X119649363Y-70721348D01*
X119839544Y-70795024D01*
X120040024Y-70832500D01*
X120040026Y-70832500D01*
X120243974Y-70832500D01*
X120243976Y-70832500D01*
X120444456Y-70795024D01*
X120634637Y-70721348D01*
X120808041Y-70613981D01*
X120958764Y-70476579D01*
X121081673Y-70313821D01*
X121172582Y-70131250D01*
X121228397Y-69935083D01*
X121247215Y-69732000D01*
X121228397Y-69528917D01*
X121172582Y-69332750D01*
X121081673Y-69150179D01*
X120958764Y-68987421D01*
X120958762Y-68987418D01*
X120808041Y-68850019D01*
X120808039Y-68850017D01*
X120634642Y-68742655D01*
X120634635Y-68742651D01*
X120539546Y-68705814D01*
X120444456Y-68668976D01*
X120243976Y-68631500D01*
X120040024Y-68631500D01*
X119839544Y-68668976D01*
X119839541Y-68668976D01*
X119839541Y-68668977D01*
X119649364Y-68742651D01*
X119649357Y-68742655D01*
X119475960Y-68850017D01*
X119475958Y-68850019D01*
X119325237Y-68987418D01*
X119202327Y-69150178D01*
X119111422Y-69332739D01*
X119111417Y-69332752D01*
X119055602Y-69528917D01*
X119036785Y-69731999D01*
X116167215Y-69731999D01*
X116148397Y-69528917D01*
X116092582Y-69332750D01*
X116001673Y-69150179D01*
X115878764Y-68987421D01*
X115878762Y-68987418D01*
X115728041Y-68850019D01*
X115728039Y-68850017D01*
X115554642Y-68742655D01*
X115554635Y-68742651D01*
X115459546Y-68705814D01*
X115364456Y-68668976D01*
X115163976Y-68631500D01*
X114960024Y-68631500D01*
X114759544Y-68668976D01*
X114759541Y-68668976D01*
X114759541Y-68668977D01*
X114569364Y-68742651D01*
X114569357Y-68742655D01*
X114395960Y-68850017D01*
X114395958Y-68850019D01*
X114375037Y-68869091D01*
X114312232Y-68899708D01*
X114242845Y-68891509D01*
X114188906Y-68847098D01*
X114167539Y-68780576D01*
X114167500Y-68777453D01*
X114167500Y-68668898D01*
X114187185Y-68601859D01*
X114203815Y-68581221D01*
X114536972Y-68248063D01*
X114598293Y-68214580D01*
X114667984Y-68219564D01*
X114669444Y-68220119D01*
X114759544Y-68255024D01*
X114960024Y-68292500D01*
X114960026Y-68292500D01*
X115163974Y-68292500D01*
X115163976Y-68292500D01*
X115364456Y-68255024D01*
X115554637Y-68181348D01*
X115728041Y-68073981D01*
X115878764Y-67936579D01*
X116001673Y-67773821D01*
X116092582Y-67591250D01*
X116148397Y-67395083D01*
X116167215Y-67192000D01*
X116167215Y-67191999D01*
X116496785Y-67191999D01*
X116496785Y-67192000D01*
X116515602Y-67395082D01*
X116571417Y-67591247D01*
X116571422Y-67591260D01*
X116662327Y-67773821D01*
X116785237Y-67936581D01*
X116935958Y-68073980D01*
X116935960Y-68073982D01*
X117004670Y-68116525D01*
X117109363Y-68181348D01*
X117299544Y-68255024D01*
X117500024Y-68292500D01*
X117500026Y-68292500D01*
X117703974Y-68292500D01*
X117703976Y-68292500D01*
X117904456Y-68255024D01*
X118094637Y-68181348D01*
X118268041Y-68073981D01*
X118418764Y-67936579D01*
X118541673Y-67773821D01*
X118632582Y-67591250D01*
X118688397Y-67395083D01*
X118707215Y-67192000D01*
X118707215Y-67191999D01*
X119036785Y-67191999D01*
X119036785Y-67192000D01*
X119055602Y-67395082D01*
X119111417Y-67591247D01*
X119111422Y-67591260D01*
X119202327Y-67773821D01*
X119325237Y-67936581D01*
X119475958Y-68073980D01*
X119475960Y-68073982D01*
X119544670Y-68116525D01*
X119649363Y-68181348D01*
X119839544Y-68255024D01*
X120040024Y-68292500D01*
X120040026Y-68292500D01*
X120243974Y-68292500D01*
X120243976Y-68292500D01*
X120444456Y-68255024D01*
X120634637Y-68181348D01*
X120808041Y-68073981D01*
X120958764Y-67936579D01*
X121081673Y-67773821D01*
X121172582Y-67591250D01*
X121228397Y-67395083D01*
X121247215Y-67192000D01*
X121247215Y-67191999D01*
X121576785Y-67191999D01*
X121576785Y-67192000D01*
X121595602Y-67395082D01*
X121651417Y-67591247D01*
X121651422Y-67591260D01*
X121742327Y-67773821D01*
X121865237Y-67936581D01*
X122015958Y-68073980D01*
X122015960Y-68073982D01*
X122084670Y-68116525D01*
X122189363Y-68181348D01*
X122379544Y-68255024D01*
X122580024Y-68292500D01*
X122580026Y-68292500D01*
X122783974Y-68292500D01*
X122783976Y-68292500D01*
X122984456Y-68255024D01*
X123174637Y-68181348D01*
X123348041Y-68073981D01*
X123498764Y-67936579D01*
X123621673Y-67773821D01*
X123712582Y-67591250D01*
X123768397Y-67395083D01*
X123787215Y-67192000D01*
X123787215Y-67191999D01*
X124116785Y-67191999D01*
X124116785Y-67192000D01*
X124135602Y-67395082D01*
X124191417Y-67591247D01*
X124191422Y-67591260D01*
X124282327Y-67773821D01*
X124405237Y-67936581D01*
X124555958Y-68073980D01*
X124555960Y-68073982D01*
X124624670Y-68116525D01*
X124729363Y-68181348D01*
X124919544Y-68255024D01*
X125120024Y-68292500D01*
X125120026Y-68292500D01*
X125323974Y-68292500D01*
X125323976Y-68292500D01*
X125524456Y-68255024D01*
X125714637Y-68181348D01*
X125888041Y-68073981D01*
X126038764Y-67936579D01*
X126161673Y-67773821D01*
X126252582Y-67591250D01*
X126308397Y-67395083D01*
X126327215Y-67192000D01*
X126327215Y-67191999D01*
X126656785Y-67191999D01*
X126656785Y-67192000D01*
X126675602Y-67395082D01*
X126731417Y-67591247D01*
X126731422Y-67591260D01*
X126822327Y-67773821D01*
X126945237Y-67936581D01*
X127095958Y-68073980D01*
X127095960Y-68073982D01*
X127164670Y-68116525D01*
X127269363Y-68181348D01*
X127459544Y-68255024D01*
X127660024Y-68292500D01*
X127660026Y-68292500D01*
X127863974Y-68292500D01*
X127863976Y-68292500D01*
X128064456Y-68255024D01*
X128254637Y-68181348D01*
X128428041Y-68073981D01*
X128578764Y-67936579D01*
X128701673Y-67773821D01*
X128792582Y-67591250D01*
X128848397Y-67395083D01*
X128867215Y-67192000D01*
X128867215Y-67191999D01*
X131736785Y-67191999D01*
X131736785Y-67192000D01*
X131755602Y-67395082D01*
X131811417Y-67591247D01*
X131811422Y-67591260D01*
X131902327Y-67773821D01*
X132025237Y-67936581D01*
X132175958Y-68073980D01*
X132175960Y-68073982D01*
X132244670Y-68116525D01*
X132349363Y-68181348D01*
X132539544Y-68255024D01*
X132740024Y-68292500D01*
X132740026Y-68292500D01*
X132943974Y-68292500D01*
X132943976Y-68292500D01*
X133144456Y-68255024D01*
X133334637Y-68181348D01*
X133508041Y-68073981D01*
X133658764Y-67936579D01*
X133781673Y-67773821D01*
X133872582Y-67591250D01*
X133928397Y-67395083D01*
X133947215Y-67192000D01*
X133947215Y-67191999D01*
X134276785Y-67191999D01*
X134276785Y-67192000D01*
X134295602Y-67395082D01*
X134351417Y-67591247D01*
X134351422Y-67591260D01*
X134442327Y-67773821D01*
X134565237Y-67936581D01*
X134715958Y-68073980D01*
X134715960Y-68073982D01*
X134784670Y-68116525D01*
X134889363Y-68181348D01*
X135079544Y-68255024D01*
X135280024Y-68292500D01*
X135280026Y-68292500D01*
X135483974Y-68292500D01*
X135483976Y-68292500D01*
X135684456Y-68255024D01*
X135874637Y-68181348D01*
X136048041Y-68073981D01*
X136198764Y-67936579D01*
X136321673Y-67773821D01*
X136412582Y-67591250D01*
X136468397Y-67395083D01*
X136487215Y-67192000D01*
X136487215Y-67191999D01*
X136816785Y-67191999D01*
X136816785Y-67192000D01*
X136835602Y-67395082D01*
X136891417Y-67591247D01*
X136891422Y-67591260D01*
X136982327Y-67773821D01*
X137105237Y-67936581D01*
X137255958Y-68073980D01*
X137255960Y-68073982D01*
X137324670Y-68116525D01*
X137429363Y-68181348D01*
X137619544Y-68255024D01*
X137820024Y-68292500D01*
X137820026Y-68292500D01*
X138023974Y-68292500D01*
X138023976Y-68292500D01*
X138224456Y-68255024D01*
X138414637Y-68181348D01*
X138588041Y-68073981D01*
X138738764Y-67936579D01*
X138861673Y-67773821D01*
X138952582Y-67591250D01*
X139008397Y-67395083D01*
X139027215Y-67192000D01*
X139027215Y-67191999D01*
X139356785Y-67191999D01*
X139356785Y-67192000D01*
X139375602Y-67395082D01*
X139431417Y-67591247D01*
X139431422Y-67591260D01*
X139522327Y-67773821D01*
X139645237Y-67936581D01*
X139795958Y-68073980D01*
X139795960Y-68073982D01*
X139864670Y-68116525D01*
X139969363Y-68181348D01*
X140159544Y-68255024D01*
X140360024Y-68292500D01*
X140360026Y-68292500D01*
X140563974Y-68292500D01*
X140563976Y-68292500D01*
X140764456Y-68255024D01*
X140954637Y-68181348D01*
X141128041Y-68073981D01*
X141278764Y-67936579D01*
X141401673Y-67773821D01*
X141492582Y-67591250D01*
X141548397Y-67395083D01*
X141567215Y-67192000D01*
X141567215Y-67191999D01*
X141896785Y-67191999D01*
X141896785Y-67192000D01*
X141915602Y-67395082D01*
X141971417Y-67591247D01*
X141971422Y-67591260D01*
X142062327Y-67773821D01*
X142185237Y-67936581D01*
X142335958Y-68073980D01*
X142335960Y-68073982D01*
X142404670Y-68116525D01*
X142509363Y-68181348D01*
X142699544Y-68255024D01*
X142900024Y-68292500D01*
X142900026Y-68292500D01*
X143103974Y-68292500D01*
X143103976Y-68292500D01*
X143304456Y-68255024D01*
X143494637Y-68181348D01*
X143668041Y-68073981D01*
X143818764Y-67936579D01*
X143941673Y-67773821D01*
X144032582Y-67591250D01*
X144088397Y-67395083D01*
X144107215Y-67192000D01*
X144107215Y-67191999D01*
X144436785Y-67191999D01*
X144436785Y-67192000D01*
X144455602Y-67395082D01*
X144511417Y-67591247D01*
X144511422Y-67591260D01*
X144602327Y-67773821D01*
X144725237Y-67936581D01*
X144875958Y-68073980D01*
X144875960Y-68073982D01*
X144944670Y-68116525D01*
X145049363Y-68181348D01*
X145239544Y-68255024D01*
X145440024Y-68292500D01*
X145440026Y-68292500D01*
X145643974Y-68292500D01*
X145643976Y-68292500D01*
X145844456Y-68255024D01*
X146034637Y-68181348D01*
X146208041Y-68073981D01*
X146358764Y-67936579D01*
X146481673Y-67773821D01*
X146572582Y-67591250D01*
X146628397Y-67395083D01*
X146647215Y-67192000D01*
X146647215Y-67191999D01*
X146976785Y-67191999D01*
X146976785Y-67192000D01*
X146995602Y-67395082D01*
X147051417Y-67591247D01*
X147051422Y-67591260D01*
X147142327Y-67773821D01*
X147265237Y-67936581D01*
X147415958Y-68073980D01*
X147415960Y-68073982D01*
X147484670Y-68116525D01*
X147589363Y-68181348D01*
X147779544Y-68255024D01*
X147980024Y-68292500D01*
X147980026Y-68292500D01*
X148183974Y-68292500D01*
X148183976Y-68292500D01*
X148384456Y-68255024D01*
X148574637Y-68181348D01*
X148748041Y-68073981D01*
X148898764Y-67936579D01*
X149021673Y-67773821D01*
X149112582Y-67591250D01*
X149168397Y-67395083D01*
X149187215Y-67192000D01*
X149187215Y-67191999D01*
X149516785Y-67191999D01*
X149516785Y-67192000D01*
X149535602Y-67395082D01*
X149591417Y-67591247D01*
X149591422Y-67591260D01*
X149682327Y-67773821D01*
X149805237Y-67936581D01*
X149955958Y-68073980D01*
X149955960Y-68073982D01*
X150024670Y-68116525D01*
X150129363Y-68181348D01*
X150319544Y-68255024D01*
X150520024Y-68292500D01*
X150520026Y-68292500D01*
X150723974Y-68292500D01*
X150723976Y-68292500D01*
X150924456Y-68255024D01*
X151114637Y-68181348D01*
X151288041Y-68073981D01*
X151438764Y-67936579D01*
X151561673Y-67773821D01*
X151652582Y-67591250D01*
X151708397Y-67395083D01*
X151727215Y-67192000D01*
X151708397Y-66988917D01*
X151652582Y-66792750D01*
X151561673Y-66610179D01*
X151511799Y-66544135D01*
X152061500Y-66544135D01*
X152061500Y-67839870D01*
X152061501Y-67839876D01*
X152067908Y-67899483D01*
X152118202Y-68034328D01*
X152118206Y-68034335D01*
X152204452Y-68149544D01*
X152204455Y-68149547D01*
X152319664Y-68235793D01*
X152319671Y-68235797D01*
X152454517Y-68286091D01*
X152454516Y-68286091D01*
X152461444Y-68286835D01*
X152514127Y-68292500D01*
X153809872Y-68292499D01*
X153869483Y-68286091D01*
X154004331Y-68235796D01*
X154119546Y-68149546D01*
X154205796Y-68034331D01*
X154256091Y-67899483D01*
X154262500Y-67839873D01*
X154262499Y-66544128D01*
X154256091Y-66484517D01*
X154205796Y-66349669D01*
X154205795Y-66349668D01*
X154205793Y-66349664D01*
X154119547Y-66234455D01*
X154119544Y-66234452D01*
X154004335Y-66148206D01*
X154004328Y-66148202D01*
X153869482Y-66097908D01*
X153869483Y-66097908D01*
X153809883Y-66091501D01*
X153809881Y-66091500D01*
X153809873Y-66091500D01*
X153809864Y-66091500D01*
X152514129Y-66091500D01*
X152514123Y-66091501D01*
X152454516Y-66097908D01*
X152319671Y-66148202D01*
X152319664Y-66148206D01*
X152204455Y-66234452D01*
X152204452Y-66234455D01*
X152118206Y-66349664D01*
X152118202Y-66349671D01*
X152067908Y-66484517D01*
X152061501Y-66544116D01*
X152061501Y-66544123D01*
X152061500Y-66544135D01*
X151511799Y-66544135D01*
X151438764Y-66447421D01*
X151438762Y-66447418D01*
X151288041Y-66310019D01*
X151288039Y-66310017D01*
X151114642Y-66202655D01*
X151114635Y-66202651D01*
X151019546Y-66165814D01*
X150924456Y-66128976D01*
X150723976Y-66091500D01*
X150520024Y-66091500D01*
X150319544Y-66128976D01*
X150319541Y-66128976D01*
X150319541Y-66128977D01*
X150129364Y-66202651D01*
X150129357Y-66202655D01*
X149955960Y-66310017D01*
X149955958Y-66310019D01*
X149805237Y-66447418D01*
X149682327Y-66610178D01*
X149591422Y-66792739D01*
X149591417Y-66792752D01*
X149535602Y-66988917D01*
X149516785Y-67191999D01*
X149187215Y-67191999D01*
X149168397Y-66988917D01*
X149112582Y-66792750D01*
X149021673Y-66610179D01*
X148898764Y-66447421D01*
X148898762Y-66447418D01*
X148748041Y-66310019D01*
X148748039Y-66310017D01*
X148574642Y-66202655D01*
X148574635Y-66202651D01*
X148479546Y-66165814D01*
X148384456Y-66128976D01*
X148183976Y-66091500D01*
X147980024Y-66091500D01*
X147779544Y-66128976D01*
X147779541Y-66128976D01*
X147779541Y-66128977D01*
X147589364Y-66202651D01*
X147589357Y-66202655D01*
X147415960Y-66310017D01*
X147415958Y-66310019D01*
X147265237Y-66447418D01*
X147142327Y-66610178D01*
X147051422Y-66792739D01*
X147051417Y-66792752D01*
X146995602Y-66988917D01*
X146976785Y-67191999D01*
X146647215Y-67191999D01*
X146628397Y-66988917D01*
X146572582Y-66792750D01*
X146481673Y-66610179D01*
X146358764Y-66447421D01*
X146358762Y-66447418D01*
X146208041Y-66310019D01*
X146208039Y-66310017D01*
X146034642Y-66202655D01*
X146034635Y-66202651D01*
X145939546Y-66165814D01*
X145844456Y-66128976D01*
X145643976Y-66091500D01*
X145440024Y-66091500D01*
X145239544Y-66128976D01*
X145239541Y-66128976D01*
X145239541Y-66128977D01*
X145049364Y-66202651D01*
X145049357Y-66202655D01*
X144875960Y-66310017D01*
X144875958Y-66310019D01*
X144725237Y-66447418D01*
X144602327Y-66610178D01*
X144511422Y-66792739D01*
X144511417Y-66792752D01*
X144455602Y-66988917D01*
X144436785Y-67191999D01*
X144107215Y-67191999D01*
X144088397Y-66988917D01*
X144032582Y-66792750D01*
X143941673Y-66610179D01*
X143818764Y-66447421D01*
X143818762Y-66447418D01*
X143668041Y-66310019D01*
X143668039Y-66310017D01*
X143494642Y-66202655D01*
X143494635Y-66202651D01*
X143399546Y-66165814D01*
X143304456Y-66128976D01*
X143103976Y-66091500D01*
X142900024Y-66091500D01*
X142699544Y-66128976D01*
X142699541Y-66128976D01*
X142699541Y-66128977D01*
X142509364Y-66202651D01*
X142509357Y-66202655D01*
X142335960Y-66310017D01*
X142335958Y-66310019D01*
X142185237Y-66447418D01*
X142062327Y-66610178D01*
X141971422Y-66792739D01*
X141971417Y-66792752D01*
X141915602Y-66988917D01*
X141896785Y-67191999D01*
X141567215Y-67191999D01*
X141548397Y-66988917D01*
X141492582Y-66792750D01*
X141401673Y-66610179D01*
X141278764Y-66447421D01*
X141278762Y-66447418D01*
X141128041Y-66310019D01*
X141128039Y-66310017D01*
X140954642Y-66202655D01*
X140954635Y-66202651D01*
X140859546Y-66165814D01*
X140764456Y-66128976D01*
X140563976Y-66091500D01*
X140360024Y-66091500D01*
X140159544Y-66128976D01*
X140159541Y-66128976D01*
X140159541Y-66128977D01*
X139969364Y-66202651D01*
X139969357Y-66202655D01*
X139795960Y-66310017D01*
X139795958Y-66310019D01*
X139645237Y-66447418D01*
X139522327Y-66610178D01*
X139431422Y-66792739D01*
X139431417Y-66792752D01*
X139375602Y-66988917D01*
X139356785Y-67191999D01*
X139027215Y-67191999D01*
X139008397Y-66988917D01*
X138952582Y-66792750D01*
X138861673Y-66610179D01*
X138738764Y-66447421D01*
X138738762Y-66447418D01*
X138588041Y-66310019D01*
X138588039Y-66310017D01*
X138414642Y-66202655D01*
X138414635Y-66202651D01*
X138319546Y-66165814D01*
X138224456Y-66128976D01*
X138023976Y-66091500D01*
X137820024Y-66091500D01*
X137619544Y-66128976D01*
X137619541Y-66128976D01*
X137619541Y-66128977D01*
X137429364Y-66202651D01*
X137429357Y-66202655D01*
X137255960Y-66310017D01*
X137255958Y-66310019D01*
X137105237Y-66447418D01*
X136982327Y-66610178D01*
X136891422Y-66792739D01*
X136891417Y-66792752D01*
X136835602Y-66988917D01*
X136816785Y-67191999D01*
X136487215Y-67191999D01*
X136468397Y-66988917D01*
X136412582Y-66792750D01*
X136321673Y-66610179D01*
X136198764Y-66447421D01*
X136198762Y-66447418D01*
X136048041Y-66310019D01*
X136048039Y-66310017D01*
X135874642Y-66202655D01*
X135874635Y-66202651D01*
X135779546Y-66165814D01*
X135684456Y-66128976D01*
X135483976Y-66091500D01*
X135280024Y-66091500D01*
X135079544Y-66128976D01*
X135079541Y-66128976D01*
X135079541Y-66128977D01*
X134889364Y-66202651D01*
X134889357Y-66202655D01*
X134715960Y-66310017D01*
X134715958Y-66310019D01*
X134565237Y-66447418D01*
X134442327Y-66610178D01*
X134351422Y-66792739D01*
X134351417Y-66792752D01*
X134295602Y-66988917D01*
X134276785Y-67191999D01*
X133947215Y-67191999D01*
X133928397Y-66988917D01*
X133872582Y-66792750D01*
X133781673Y-66610179D01*
X133658764Y-66447421D01*
X133658762Y-66447418D01*
X133508041Y-66310019D01*
X133508039Y-66310017D01*
X133334642Y-66202655D01*
X133334635Y-66202651D01*
X133239546Y-66165814D01*
X133144456Y-66128976D01*
X132943976Y-66091500D01*
X132740024Y-66091500D01*
X132539544Y-66128976D01*
X132539541Y-66128976D01*
X132539541Y-66128977D01*
X132349364Y-66202651D01*
X132349357Y-66202655D01*
X132175960Y-66310017D01*
X132175958Y-66310019D01*
X132025237Y-66447418D01*
X131902327Y-66610178D01*
X131811422Y-66792739D01*
X131811417Y-66792752D01*
X131755602Y-66988917D01*
X131736785Y-67191999D01*
X128867215Y-67191999D01*
X128848397Y-66988917D01*
X128792582Y-66792750D01*
X128701673Y-66610179D01*
X128578764Y-66447421D01*
X128578762Y-66447418D01*
X128428041Y-66310019D01*
X128428039Y-66310017D01*
X128254642Y-66202655D01*
X128254635Y-66202651D01*
X128159546Y-66165814D01*
X128064456Y-66128976D01*
X127863976Y-66091500D01*
X127660024Y-66091500D01*
X127459544Y-66128976D01*
X127459541Y-66128976D01*
X127459541Y-66128977D01*
X127269364Y-66202651D01*
X127269357Y-66202655D01*
X127095960Y-66310017D01*
X127095958Y-66310019D01*
X126945237Y-66447418D01*
X126822327Y-66610178D01*
X126731422Y-66792739D01*
X126731417Y-66792752D01*
X126675602Y-66988917D01*
X126656785Y-67191999D01*
X126327215Y-67191999D01*
X126308397Y-66988917D01*
X126252582Y-66792750D01*
X126161673Y-66610179D01*
X126038764Y-66447421D01*
X126038762Y-66447418D01*
X125888041Y-66310019D01*
X125888039Y-66310017D01*
X125714642Y-66202655D01*
X125714635Y-66202651D01*
X125619546Y-66165814D01*
X125524456Y-66128976D01*
X125323976Y-66091500D01*
X125120024Y-66091500D01*
X124919544Y-66128976D01*
X124919541Y-66128976D01*
X124919541Y-66128977D01*
X124729364Y-66202651D01*
X124729357Y-66202655D01*
X124555960Y-66310017D01*
X124555958Y-66310019D01*
X124405237Y-66447418D01*
X124282327Y-66610178D01*
X124191422Y-66792739D01*
X124191417Y-66792752D01*
X124135602Y-66988917D01*
X124116785Y-67191999D01*
X123787215Y-67191999D01*
X123768397Y-66988917D01*
X123712582Y-66792750D01*
X123621673Y-66610179D01*
X123498764Y-66447421D01*
X123498762Y-66447418D01*
X123348041Y-66310019D01*
X123348039Y-66310017D01*
X123174642Y-66202655D01*
X123174635Y-66202651D01*
X123079546Y-66165814D01*
X122984456Y-66128976D01*
X122783976Y-66091500D01*
X122580024Y-66091500D01*
X122379544Y-66128976D01*
X122379541Y-66128976D01*
X122379541Y-66128977D01*
X122189364Y-66202651D01*
X122189357Y-66202655D01*
X122015960Y-66310017D01*
X122015958Y-66310019D01*
X121865237Y-66447418D01*
X121742327Y-66610178D01*
X121651422Y-66792739D01*
X121651417Y-66792752D01*
X121595602Y-66988917D01*
X121576785Y-67191999D01*
X121247215Y-67191999D01*
X121228397Y-66988917D01*
X121172582Y-66792750D01*
X121081673Y-66610179D01*
X120958764Y-66447421D01*
X120958762Y-66447418D01*
X120808041Y-66310019D01*
X120808039Y-66310017D01*
X120634642Y-66202655D01*
X120634635Y-66202651D01*
X120539546Y-66165814D01*
X120444456Y-66128976D01*
X120243976Y-66091500D01*
X120040024Y-66091500D01*
X119839544Y-66128976D01*
X119839541Y-66128976D01*
X119839541Y-66128977D01*
X119649364Y-66202651D01*
X119649357Y-66202655D01*
X119475960Y-66310017D01*
X119475958Y-66310019D01*
X119325237Y-66447418D01*
X119202327Y-66610178D01*
X119111422Y-66792739D01*
X119111417Y-66792752D01*
X119055602Y-66988917D01*
X119036785Y-67191999D01*
X118707215Y-67191999D01*
X118688397Y-66988917D01*
X118632582Y-66792750D01*
X118541673Y-66610179D01*
X118418764Y-66447421D01*
X118418762Y-66447418D01*
X118268041Y-66310019D01*
X118268039Y-66310017D01*
X118094642Y-66202655D01*
X118094635Y-66202651D01*
X117999546Y-66165814D01*
X117904456Y-66128976D01*
X117703976Y-66091500D01*
X117500024Y-66091500D01*
X117299544Y-66128976D01*
X117299541Y-66128976D01*
X117299541Y-66128977D01*
X117109364Y-66202651D01*
X117109357Y-66202655D01*
X116935960Y-66310017D01*
X116935958Y-66310019D01*
X116785237Y-66447418D01*
X116662327Y-66610178D01*
X116571422Y-66792739D01*
X116571417Y-66792752D01*
X116515602Y-66988917D01*
X116496785Y-67191999D01*
X116167215Y-67191999D01*
X116148397Y-66988917D01*
X116092582Y-66792750D01*
X116001673Y-66610179D01*
X115878764Y-66447421D01*
X115878762Y-66447418D01*
X115728041Y-66310019D01*
X115728039Y-66310017D01*
X115554642Y-66202655D01*
X115554635Y-66202651D01*
X115459546Y-66165814D01*
X115364456Y-66128976D01*
X115163976Y-66091500D01*
X114960024Y-66091500D01*
X114759544Y-66128976D01*
X114759541Y-66128976D01*
X114759541Y-66128977D01*
X114569364Y-66202651D01*
X114569357Y-66202655D01*
X114395960Y-66310017D01*
X114395958Y-66310019D01*
X114245237Y-66447418D01*
X114122327Y-66610178D01*
X114031422Y-66792739D01*
X114031417Y-66792752D01*
X113975602Y-66988917D01*
X113956785Y-67191999D01*
X113956785Y-67192000D01*
X113975602Y-67395082D01*
X114012500Y-67524760D01*
X114031417Y-67591247D01*
X114032987Y-67596763D01*
X114031003Y-67597327D01*
X114036098Y-67657816D01*
X114003390Y-67719557D01*
X114002290Y-67720671D01*
X113561438Y-68161525D01*
X113491526Y-68231436D01*
X113442091Y-68317059D01*
X113442091Y-68317060D01*
X113442090Y-68317062D01*
X113416500Y-68412565D01*
X113416500Y-68412567D01*
X113416500Y-68777453D01*
X113396815Y-68844492D01*
X113344011Y-68890247D01*
X113274853Y-68900191D01*
X113211297Y-68871166D01*
X113208963Y-68869091D01*
X113188041Y-68850019D01*
X113188039Y-68850017D01*
X113014642Y-68742655D01*
X113014635Y-68742651D01*
X112919546Y-68705814D01*
X112824456Y-68668976D01*
X112623976Y-68631500D01*
X112420024Y-68631500D01*
X112219544Y-68668976D01*
X112219541Y-68668976D01*
X112219541Y-68668977D01*
X112029364Y-68742651D01*
X112029357Y-68742655D01*
X111855960Y-68850017D01*
X111855958Y-68850019D01*
X111705237Y-68987418D01*
X111582327Y-69150178D01*
X111491422Y-69332739D01*
X111491417Y-69332752D01*
X111435602Y-69528917D01*
X111416785Y-69731999D01*
X111416785Y-69732000D01*
X111435602Y-69935082D01*
X111491417Y-70131247D01*
X111491422Y-70131260D01*
X111582327Y-70313821D01*
X111705237Y-70476581D01*
X111855958Y-70613980D01*
X111855960Y-70613982D01*
X111923775Y-70655971D01*
X112029363Y-70721348D01*
X112219544Y-70795024D01*
X112420024Y-70832500D01*
X112420026Y-70832500D01*
X112623974Y-70832500D01*
X112623976Y-70832500D01*
X112824456Y-70795024D01*
X113014637Y-70721348D01*
X113188041Y-70613981D01*
X113208961Y-70594910D01*
X113271765Y-70564292D01*
X113341152Y-70572489D01*
X113395093Y-70616899D01*
X113416461Y-70683421D01*
X113416500Y-70686546D01*
X113416500Y-77921453D01*
X113396815Y-77988492D01*
X113344011Y-78034247D01*
X113274853Y-78044191D01*
X113211297Y-78015166D01*
X113208963Y-78013091D01*
X113188041Y-77994019D01*
X113188039Y-77994017D01*
X113014642Y-77886655D01*
X113014635Y-77886651D01*
X112919546Y-77849814D01*
X112824456Y-77812976D01*
X112623976Y-77775500D01*
X112420024Y-77775500D01*
X112219544Y-77812976D01*
X112219541Y-77812976D01*
X112219541Y-77812977D01*
X112029364Y-77886651D01*
X112029357Y-77886655D01*
X111855960Y-77994017D01*
X111855957Y-77994019D01*
X111790038Y-78054113D01*
X111727234Y-78084730D01*
X111657847Y-78076532D01*
X111603907Y-78032122D01*
X111582539Y-77965600D01*
X111582500Y-77962476D01*
X111582500Y-70907562D01*
X111581027Y-70902065D01*
X111581027Y-70902066D01*
X111578177Y-70891431D01*
X111556911Y-70812063D01*
X111507475Y-70726438D01*
X111041708Y-70260671D01*
X111008224Y-70199349D01*
X111012666Y-70137234D01*
X111011013Y-70136764D01*
X111068397Y-69935082D01*
X111087215Y-69732000D01*
X111087215Y-69731999D01*
X111068397Y-69528917D01*
X111012582Y-69332750D01*
X110921673Y-69150179D01*
X110798764Y-68987421D01*
X110798762Y-68987418D01*
X110648041Y-68850019D01*
X110648039Y-68850017D01*
X110474642Y-68742655D01*
X110474635Y-68742651D01*
X110379546Y-68705814D01*
X110284456Y-68668976D01*
X110083976Y-68631500D01*
X109880024Y-68631500D01*
X109679544Y-68668976D01*
X109679541Y-68668976D01*
X109679541Y-68668977D01*
X109489364Y-68742651D01*
X109489357Y-68742655D01*
X109315960Y-68850017D01*
X109315958Y-68850019D01*
X109165237Y-68987418D01*
X109042327Y-69150178D01*
X108951422Y-69332739D01*
X108951417Y-69332752D01*
X108895602Y-69528917D01*
X108876785Y-69731999D01*
X108876785Y-69732000D01*
X108895602Y-69935082D01*
X108951417Y-70131247D01*
X108951422Y-70131260D01*
X109042327Y-70313821D01*
X109165237Y-70476581D01*
X109315958Y-70613980D01*
X109315960Y-70613982D01*
X109383775Y-70655971D01*
X109489363Y-70721348D01*
X109679544Y-70795024D01*
X109880024Y-70832500D01*
X109880026Y-70832500D01*
X110083974Y-70832500D01*
X110083976Y-70832500D01*
X110284456Y-70795024D01*
X110374556Y-70760118D01*
X110444174Y-70754256D01*
X110505914Y-70786965D01*
X110507027Y-70788064D01*
X110795181Y-71076218D01*
X110828666Y-71137541D01*
X110831500Y-71163899D01*
X110831500Y-77884989D01*
X110811815Y-77952028D01*
X110759011Y-77997783D01*
X110689853Y-78007727D01*
X110642223Y-77990416D01*
X110474642Y-77886655D01*
X110474635Y-77886651D01*
X110379546Y-77849814D01*
X110284456Y-77812976D01*
X110083976Y-77775500D01*
X109880024Y-77775500D01*
X109679544Y-77812976D01*
X109679541Y-77812976D01*
X109679541Y-77812977D01*
X109489364Y-77886651D01*
X109489357Y-77886655D01*
X109315960Y-77994017D01*
X109315957Y-77994019D01*
X109250038Y-78054113D01*
X109187234Y-78084730D01*
X109117847Y-78076532D01*
X109063907Y-78032122D01*
X109042539Y-77965600D01*
X109042500Y-77962476D01*
X109042500Y-70907562D01*
X109041027Y-70902065D01*
X109041027Y-70902066D01*
X109038177Y-70891431D01*
X109016911Y-70812063D01*
X108967475Y-70726438D01*
X108501708Y-70260671D01*
X108468224Y-70199349D01*
X108472666Y-70137234D01*
X108471013Y-70136764D01*
X108528397Y-69935082D01*
X108547215Y-69732000D01*
X108547215Y-69731999D01*
X108528397Y-69528917D01*
X108472582Y-69332750D01*
X108381673Y-69150179D01*
X108258764Y-68987421D01*
X108258762Y-68987418D01*
X108108041Y-68850019D01*
X108108039Y-68850017D01*
X107934642Y-68742655D01*
X107934635Y-68742651D01*
X107839546Y-68705814D01*
X107744456Y-68668976D01*
X107543976Y-68631500D01*
X107340024Y-68631500D01*
X107139544Y-68668976D01*
X107139541Y-68668976D01*
X107139541Y-68668977D01*
X106949364Y-68742651D01*
X106949357Y-68742655D01*
X106781777Y-68846416D01*
X106714417Y-68864971D01*
X106647717Y-68844163D01*
X106602856Y-68790598D01*
X106592500Y-68740989D01*
X106592500Y-68623898D01*
X106612185Y-68556859D01*
X106628815Y-68536221D01*
X106916972Y-68248063D01*
X106978293Y-68214580D01*
X107047984Y-68219564D01*
X107049444Y-68220119D01*
X107139544Y-68255024D01*
X107340024Y-68292500D01*
X107340026Y-68292500D01*
X107543974Y-68292500D01*
X107543976Y-68292500D01*
X107744456Y-68255024D01*
X107934637Y-68181348D01*
X108108041Y-68073981D01*
X108258764Y-67936579D01*
X108381673Y-67773821D01*
X108472582Y-67591250D01*
X108528397Y-67395083D01*
X108547215Y-67192000D01*
X108547215Y-67191999D01*
X108876785Y-67191999D01*
X108876785Y-67192000D01*
X108895602Y-67395082D01*
X108951417Y-67591247D01*
X108951422Y-67591260D01*
X109042327Y-67773821D01*
X109165237Y-67936581D01*
X109315958Y-68073980D01*
X109315960Y-68073982D01*
X109384670Y-68116525D01*
X109489363Y-68181348D01*
X109679544Y-68255024D01*
X109880024Y-68292500D01*
X109880026Y-68292500D01*
X110083974Y-68292500D01*
X110083976Y-68292500D01*
X110284456Y-68255024D01*
X110474637Y-68181348D01*
X110648041Y-68073981D01*
X110798764Y-67936579D01*
X110921673Y-67773821D01*
X111012582Y-67591250D01*
X111068397Y-67395083D01*
X111087215Y-67192000D01*
X111087215Y-67191999D01*
X111416785Y-67191999D01*
X111416785Y-67192000D01*
X111435602Y-67395082D01*
X111491417Y-67591247D01*
X111491422Y-67591260D01*
X111582327Y-67773821D01*
X111705237Y-67936581D01*
X111855958Y-68073980D01*
X111855960Y-68073982D01*
X111924670Y-68116525D01*
X112029363Y-68181348D01*
X112219544Y-68255024D01*
X112420024Y-68292500D01*
X112420026Y-68292500D01*
X112623974Y-68292500D01*
X112623976Y-68292500D01*
X112824456Y-68255024D01*
X113014637Y-68181348D01*
X113188041Y-68073981D01*
X113338764Y-67936579D01*
X113461673Y-67773821D01*
X113552582Y-67591250D01*
X113608397Y-67395083D01*
X113627215Y-67192000D01*
X113608397Y-66988917D01*
X113552582Y-66792750D01*
X113461673Y-66610179D01*
X113338764Y-66447421D01*
X113338762Y-66447418D01*
X113188041Y-66310019D01*
X113188039Y-66310017D01*
X113014642Y-66202655D01*
X113014635Y-66202651D01*
X112919546Y-66165814D01*
X112824456Y-66128976D01*
X112623976Y-66091500D01*
X112420024Y-66091500D01*
X112219544Y-66128976D01*
X112219541Y-66128976D01*
X112219541Y-66128977D01*
X112029364Y-66202651D01*
X112029357Y-66202655D01*
X111855960Y-66310017D01*
X111855958Y-66310019D01*
X111705237Y-66447418D01*
X111582327Y-66610178D01*
X111491422Y-66792739D01*
X111491417Y-66792752D01*
X111435602Y-66988917D01*
X111416785Y-67191999D01*
X111087215Y-67191999D01*
X111068397Y-66988917D01*
X111012582Y-66792750D01*
X110921673Y-66610179D01*
X110798764Y-66447421D01*
X110798762Y-66447418D01*
X110648041Y-66310019D01*
X110648039Y-66310017D01*
X110474642Y-66202655D01*
X110474635Y-66202651D01*
X110379546Y-66165814D01*
X110284456Y-66128976D01*
X110083976Y-66091500D01*
X109880024Y-66091500D01*
X109679544Y-66128976D01*
X109679541Y-66128976D01*
X109679541Y-66128977D01*
X109489364Y-66202651D01*
X109489357Y-66202655D01*
X109315960Y-66310017D01*
X109315958Y-66310019D01*
X109165237Y-66447418D01*
X109042327Y-66610178D01*
X108951422Y-66792739D01*
X108951417Y-66792752D01*
X108895602Y-66988917D01*
X108876785Y-67191999D01*
X108547215Y-67191999D01*
X108528397Y-66988917D01*
X108472582Y-66792750D01*
X108381673Y-66610179D01*
X108258764Y-66447421D01*
X108258762Y-66447418D01*
X108108041Y-66310019D01*
X108108039Y-66310017D01*
X107934642Y-66202655D01*
X107934635Y-66202651D01*
X107839546Y-66165814D01*
X107744456Y-66128976D01*
X107543976Y-66091500D01*
X107340024Y-66091500D01*
X107139544Y-66128976D01*
X107139541Y-66128976D01*
X107139541Y-66128977D01*
X106949364Y-66202651D01*
X106949357Y-66202655D01*
X106775960Y-66310017D01*
X106775958Y-66310019D01*
X106625237Y-66447418D01*
X106502327Y-66610178D01*
X106411422Y-66792739D01*
X106411417Y-66792752D01*
X106355602Y-66988917D01*
X106336785Y-67191999D01*
X106336785Y-67192000D01*
X106355602Y-67395082D01*
X106392500Y-67524760D01*
X106411417Y-67591247D01*
X106412987Y-67596763D01*
X106411003Y-67597327D01*
X106416098Y-67657816D01*
X106383390Y-67719557D01*
X106382290Y-67720671D01*
X105986438Y-68116525D01*
X105916526Y-68186436D01*
X105867091Y-68272059D01*
X105867091Y-68272060D01*
X105867090Y-68272062D01*
X105841500Y-68367565D01*
X105841500Y-68367567D01*
X105841500Y-77962476D01*
X105821815Y-78029515D01*
X105769011Y-78075270D01*
X105699853Y-78085214D01*
X105636297Y-78056189D01*
X105633962Y-78054113D01*
X105568042Y-77994019D01*
X105568039Y-77994017D01*
X105394642Y-77886655D01*
X105394635Y-77886651D01*
X105299546Y-77849814D01*
X105204456Y-77812976D01*
X105003976Y-77775500D01*
X104800024Y-77775500D01*
X104599544Y-77812976D01*
X104599541Y-77812976D01*
X104599541Y-77812977D01*
X104409364Y-77886651D01*
X104409357Y-77886655D01*
X104235960Y-77994017D01*
X104235958Y-77994019D01*
X104085237Y-78131418D01*
X103962327Y-78294178D01*
X103871422Y-78476739D01*
X103871417Y-78476752D01*
X103815602Y-78672917D01*
X103796785Y-78875999D01*
X96266000Y-78875999D01*
X96266000Y-67191999D01*
X103796785Y-67191999D01*
X103796785Y-67192000D01*
X103815602Y-67395082D01*
X103871417Y-67591247D01*
X103871422Y-67591260D01*
X103962327Y-67773821D01*
X104085237Y-67936581D01*
X104235958Y-68073980D01*
X104235960Y-68073982D01*
X104304670Y-68116525D01*
X104409363Y-68181348D01*
X104599544Y-68255024D01*
X104800024Y-68292500D01*
X104800026Y-68292500D01*
X105003974Y-68292500D01*
X105003976Y-68292500D01*
X105204456Y-68255024D01*
X105394637Y-68181348D01*
X105568041Y-68073981D01*
X105718764Y-67936579D01*
X105841673Y-67773821D01*
X105932582Y-67591250D01*
X105988397Y-67395083D01*
X106007215Y-67192000D01*
X105988397Y-66988917D01*
X105932582Y-66792750D01*
X105841673Y-66610179D01*
X105718764Y-66447421D01*
X105718762Y-66447418D01*
X105568041Y-66310019D01*
X105568039Y-66310017D01*
X105394642Y-66202655D01*
X105394635Y-66202651D01*
X105299546Y-66165814D01*
X105204456Y-66128976D01*
X105003976Y-66091500D01*
X104800024Y-66091500D01*
X104599544Y-66128976D01*
X104599541Y-66128976D01*
X104599541Y-66128977D01*
X104409364Y-66202651D01*
X104409357Y-66202655D01*
X104235960Y-66310017D01*
X104235958Y-66310019D01*
X104085237Y-66447418D01*
X103962327Y-66610178D01*
X103871422Y-66792739D01*
X103871417Y-66792752D01*
X103815602Y-66988917D01*
X103796785Y-67191999D01*
X96266000Y-67191999D01*
X96266000Y-62354000D01*
X96285685Y-62286961D01*
X96338489Y-62241206D01*
X96390000Y-62230000D01*
X159896000Y-62230000D01*
X159963039Y-62249685D01*
G37*
G04 #@! TD.AperFunction*
D15*
X97710000Y-53848000D02*
X158830000Y-53848000D01*
X163830000Y-107522000D02*
G75*
G02*
X158830000Y-112522000I-5000000J0D01*
G01*
X92710000Y-107522000D02*
X92710000Y-58848000D01*
X92710000Y-58848000D02*
G75*
G02*
X97710000Y-53848000I5000000J0D01*
G01*
X158830000Y-112522000D02*
X97710000Y-112522000D01*
X163830000Y-58848000D02*
X163830000Y-107522000D01*
X97710000Y-112522000D02*
G75*
G02*
X92710000Y-107522000I0J5000000D01*
G01*
X158830000Y-53848000D02*
G75*
G02*
X163830000Y-58848000I0J-5000000D01*
G01*
M02*
