G04 #@! TF.GenerationSoftware,KiCad,Pcbnew,8.0.4*
G04 #@! TF.CreationDate,2024-09-28T14:18:14+10:00*
G04 #@! TF.ProjectId,Amiga_4000_4IDE,416d6967-615f-4343-9030-305f34494445,rev?*
G04 #@! TF.SameCoordinates,Original*
G04 #@! TF.FileFunction,Copper,L1,Top*
G04 #@! TF.FilePolarity,Positive*
%FSLAX46Y46*%
G04 Gerber Fmt 4.6, Leading zero omitted, Abs format (unit mm)*
G04 Created by KiCad (PCBNEW 8.0.4) date 2024-09-28 14:18:14*
%MOMM*%
%LPD*%
G01*
G04 APERTURE LIST*
G04 Aperture macros list*
%AMRoundRect*
0 Rectangle with rounded corners*
0 $1 Rounding radius*
0 $2 $3 $4 $5 $6 $7 $8 $9 X,Y pos of 4 corners*
0 Add a 4 corners polygon primitive as box body*
4,1,4,$2,$3,$4,$5,$6,$7,$8,$9,$2,$3,0*
0 Add four circle primitives for the rounded corners*
1,1,$1+$1,$2,$3*
1,1,$1+$1,$4,$5*
1,1,$1+$1,$6,$7*
1,1,$1+$1,$8,$9*
0 Add four rect primitives between the rounded corners*
20,1,$1+$1,$2,$3,$4,$5,0*
20,1,$1+$1,$4,$5,$6,$7,0*
20,1,$1+$1,$6,$7,$8,$9,0*
20,1,$1+$1,$8,$9,$2,$3,0*%
G04 Aperture macros list end*
G04 #@! TA.AperFunction,Conductor*
%ADD10C,0.200000*%
G04 #@! TD*
G04 #@! TA.AperFunction,ComponentPad*
%ADD11R,2.000000X2.000000*%
G04 #@! TD*
G04 #@! TA.AperFunction,ComponentPad*
%ADD12O,2.000000X2.000000*%
G04 #@! TD*
G04 #@! TA.AperFunction,ComponentPad*
%ADD13RoundRect,0.250000X-0.600000X0.600000X-0.600000X-0.600000X0.600000X-0.600000X0.600000X0.600000X0*%
G04 #@! TD*
G04 #@! TA.AperFunction,ComponentPad*
%ADD14C,1.700000*%
G04 #@! TD*
G04 #@! TA.AperFunction,Conductor*
%ADD15C,0.250000*%
G04 #@! TD*
G04 #@! TA.AperFunction,Profile*
%ADD16C,0.050000*%
G04 #@! TD*
G04 APERTURE END LIST*
D10*
X114300000Y-91830000D02*
X117881400Y-91821000D01*
D11*
X106934000Y-86750000D03*
D12*
X106934000Y-91830000D03*
D11*
X103632000Y-86750000D03*
D12*
X103632000Y-91830000D03*
D11*
X117602000Y-91830000D03*
D12*
X117602000Y-86750000D03*
D13*
X153162000Y-78876000D03*
D14*
X153162000Y-81416000D03*
X150622000Y-78876000D03*
X150622000Y-81416000D03*
X148082000Y-78876000D03*
X148082000Y-81416000D03*
X145542000Y-78876000D03*
X145542000Y-81416000D03*
X143002000Y-78876000D03*
X143002000Y-81416000D03*
X140462000Y-78876000D03*
X140462000Y-81416000D03*
X137922000Y-78876000D03*
X137922000Y-81416000D03*
X135382000Y-78876000D03*
X135382000Y-81416000D03*
X132842000Y-78876000D03*
X132842000Y-81416000D03*
X130302000Y-78876000D03*
X130302000Y-81416000D03*
X127762000Y-78876000D03*
X127762000Y-81416000D03*
X125222000Y-78876000D03*
X125222000Y-81416000D03*
X122682000Y-78876000D03*
X122682000Y-81416000D03*
X120142000Y-78876000D03*
X120142000Y-81416000D03*
X117602000Y-78876000D03*
X117602000Y-81416000D03*
X115062000Y-78876000D03*
X115062000Y-81416000D03*
X112522000Y-78876000D03*
X112522000Y-81416000D03*
X109982000Y-78876000D03*
X109982000Y-81416000D03*
X107442000Y-78876000D03*
X107442000Y-81416000D03*
X104902000Y-78876000D03*
X104902000Y-81416000D03*
D13*
X153162000Y-97070000D03*
D14*
X153162000Y-99610000D03*
X150622000Y-97070000D03*
X150622000Y-99610000D03*
X148082000Y-97070000D03*
X148082000Y-99610000D03*
X145542000Y-97070000D03*
X145542000Y-99610000D03*
X143002000Y-97070000D03*
X143002000Y-99610000D03*
X140462000Y-97070000D03*
X140462000Y-99610000D03*
X137922000Y-97070000D03*
X137922000Y-99610000D03*
X135382000Y-97070000D03*
X135382000Y-99610000D03*
X132842000Y-97070000D03*
X132842000Y-99610000D03*
X130302000Y-97070000D03*
X130302000Y-99610000D03*
X127762000Y-97070000D03*
X127762000Y-99610000D03*
X125222000Y-97070000D03*
X125222000Y-99610000D03*
X122682000Y-97070000D03*
X122682000Y-99610000D03*
X120142000Y-97070000D03*
X120142000Y-99610000D03*
X117602000Y-97070000D03*
X117602000Y-99610000D03*
X115062000Y-97070000D03*
X115062000Y-99610000D03*
X112522000Y-97070000D03*
X112522000Y-99610000D03*
X109982000Y-97070000D03*
X109982000Y-99610000D03*
X107442000Y-97070000D03*
X107442000Y-99610000D03*
X104902000Y-97070000D03*
X104902000Y-99610000D03*
D13*
X153162000Y-67192000D03*
D14*
X153162000Y-69732000D03*
X150622000Y-67192000D03*
X150622000Y-69732000D03*
X148082000Y-67192000D03*
X148082000Y-69732000D03*
X145542000Y-67192000D03*
X145542000Y-69732000D03*
X143002000Y-67192000D03*
X143002000Y-69732000D03*
X140462000Y-67192000D03*
X140462000Y-69732000D03*
X137922000Y-67192000D03*
X137922000Y-69732000D03*
X135382000Y-67192000D03*
X135382000Y-69732000D03*
X132842000Y-67192000D03*
X132842000Y-69732000D03*
X130302000Y-67192000D03*
X130302000Y-69732000D03*
X127762000Y-67192000D03*
X127762000Y-69732000D03*
X125222000Y-67192000D03*
X125222000Y-69732000D03*
X122682000Y-67192000D03*
X122682000Y-69732000D03*
X120142000Y-67192000D03*
X120142000Y-69732000D03*
X117602000Y-67192000D03*
X117602000Y-69732000D03*
X115062000Y-67192000D03*
X115062000Y-69732000D03*
X112522000Y-67192000D03*
X112522000Y-69732000D03*
X109982000Y-67192000D03*
X109982000Y-69732000D03*
X107442000Y-67192000D03*
X107442000Y-69732000D03*
X104902000Y-67192000D03*
X104902000Y-69732000D03*
D11*
X114300000Y-91830000D03*
D12*
X114300000Y-86750000D03*
D15*
X115062000Y-92592000D02*
X114300000Y-91830000D01*
X115062000Y-97070000D02*
X115062000Y-92592000D01*
X114300000Y-91830000D02*
X117602000Y-91830000D01*
X116377000Y-85525000D02*
X117602000Y-86750000D01*
X115062000Y-78876000D02*
X116377000Y-80191000D01*
X116377000Y-80191000D02*
X116377000Y-85525000D01*
X104902000Y-97070000D02*
X104902000Y-93100000D01*
X104902000Y-93100000D02*
X103632000Y-91830000D01*
X103632000Y-91830000D02*
X106934000Y-91830000D01*
X106934000Y-86750000D02*
X106217000Y-86033000D01*
X106217000Y-86033000D02*
X106217000Y-80191000D01*
X106217000Y-80191000D02*
X104902000Y-78876000D01*
X105274000Y-78876000D02*
X105410000Y-78740000D01*
X104902000Y-78876000D02*
X105274000Y-78876000D01*
X103632000Y-68462000D02*
X104902000Y-67192000D01*
X103632000Y-86750000D02*
X103632000Y-68462000D01*
X130302000Y-78876000D02*
X131527000Y-77651000D01*
X131527000Y-68417000D02*
X130302000Y-67192000D01*
X130302000Y-97070000D02*
X131527000Y-95845000D01*
X131527000Y-95845000D02*
X131527000Y-80101000D01*
X131527000Y-80101000D02*
X130302000Y-78876000D01*
X131527000Y-77651000D02*
X131527000Y-68417000D01*
X126447000Y-68417000D02*
X125222000Y-67192000D01*
X126447000Y-80101000D02*
X125222000Y-78876000D01*
X126447000Y-95845000D02*
X126447000Y-80101000D01*
X126447000Y-77651000D02*
X126447000Y-68417000D01*
X125222000Y-97070000D02*
X126447000Y-95845000D01*
X125222000Y-78876000D02*
X126447000Y-77651000D01*
X154387000Y-80101000D02*
X153162000Y-78876000D01*
X153162000Y-78876000D02*
X154387000Y-77651000D01*
X109474588Y-65967000D02*
X108667000Y-66774588D01*
X108667000Y-66774588D02*
X108667000Y-68507000D01*
X108667000Y-68507000D02*
X107442000Y-69732000D01*
X154387000Y-77651000D02*
X154387000Y-68417000D01*
X154387000Y-95845000D02*
X154387000Y-80101000D01*
X154387000Y-68417000D02*
X153162000Y-67192000D01*
X153162000Y-97070000D02*
X154387000Y-95845000D01*
X153162000Y-67192000D02*
X151937000Y-65967000D01*
X151937000Y-65967000D02*
X109474588Y-65967000D01*
X146767000Y-80101000D02*
X145542000Y-78876000D01*
X145542000Y-78876000D02*
X146767000Y-77651000D01*
X145542000Y-97070000D02*
X146767000Y-95845000D01*
X146767000Y-77651000D02*
X146767000Y-68417000D01*
X146767000Y-68417000D02*
X145542000Y-67192000D01*
X146767000Y-95845000D02*
X146767000Y-80101000D01*
X139237000Y-80191000D02*
X137922000Y-78876000D01*
X139237000Y-95755000D02*
X139237000Y-80191000D01*
X139147000Y-77651000D02*
X139147000Y-68417000D01*
X139147000Y-68417000D02*
X137922000Y-67192000D01*
X137922000Y-97070000D02*
X139237000Y-95755000D01*
X137922000Y-78876000D02*
X139147000Y-77651000D01*
X141687000Y-77651000D02*
X141687000Y-68417000D01*
X141687000Y-68417000D02*
X140462000Y-67192000D01*
X141687000Y-95845000D02*
X141687000Y-80101000D01*
X141687000Y-80101000D02*
X140462000Y-78876000D01*
X140462000Y-97070000D02*
X141687000Y-95845000D01*
X140462000Y-78876000D02*
X141687000Y-77651000D01*
X111207000Y-68417000D02*
X109982000Y-67192000D01*
X109982000Y-97070000D02*
X111207000Y-95845000D01*
X111207000Y-95845000D02*
X111207000Y-80101000D01*
X111207000Y-80101000D02*
X109982000Y-78876000D01*
X109982000Y-78876000D02*
X111207000Y-77651000D01*
X111207000Y-77651000D02*
X111207000Y-68417000D01*
X109474000Y-95038000D02*
X109474000Y-83357000D01*
X108667000Y-80101000D02*
X107442000Y-78876000D01*
X109474000Y-83357000D02*
X108667000Y-82550000D01*
X108667000Y-82550000D02*
X108667000Y-80101000D01*
X107442000Y-97070000D02*
X109474000Y-95038000D01*
X135382000Y-78876000D02*
X136607000Y-77651000D01*
X136607000Y-68417000D02*
X135382000Y-67192000D01*
X136607000Y-77651000D02*
X136607000Y-68417000D01*
X136607000Y-95845000D02*
X136607000Y-80101000D01*
X136607000Y-80101000D02*
X135382000Y-78876000D01*
X135382000Y-97070000D02*
X136607000Y-95845000D01*
X123907000Y-68417000D02*
X122682000Y-67192000D01*
X122682000Y-78876000D02*
X123907000Y-77651000D01*
X123907000Y-80101000D02*
X122682000Y-78876000D01*
X123907000Y-95845000D02*
X123907000Y-80101000D01*
X122682000Y-97070000D02*
X123907000Y-95845000D01*
X123907000Y-77651000D02*
X123907000Y-68417000D01*
X113747000Y-68417000D02*
X112522000Y-67192000D01*
X112522000Y-83148412D02*
X113747000Y-81923412D01*
X113747000Y-77651000D02*
X113747000Y-68417000D01*
X113747000Y-80101000D02*
X112522000Y-78876000D01*
X112522000Y-78876000D02*
X113747000Y-77651000D01*
X112522000Y-97070000D02*
X112522000Y-83148412D01*
X113747000Y-81923412D02*
X113747000Y-80101000D01*
X119380000Y-95292000D02*
X119380000Y-82804000D01*
X118827000Y-80101000D02*
X117602000Y-78876000D01*
X119380000Y-82804000D02*
X118827000Y-82251000D01*
X117602000Y-78876000D02*
X118827000Y-77651000D01*
X118827000Y-82251000D02*
X118827000Y-80101000D01*
X118827000Y-68417000D02*
X117602000Y-67192000D01*
X117602000Y-97070000D02*
X119380000Y-95292000D01*
X118827000Y-77651000D02*
X118827000Y-68417000D01*
X148082000Y-78876000D02*
X149307000Y-77651000D01*
X149307000Y-80101000D02*
X148082000Y-78876000D01*
X149307000Y-68417000D02*
X148082000Y-67192000D01*
X149307000Y-95845000D02*
X149307000Y-80101000D01*
X149307000Y-77651000D02*
X149307000Y-68417000D01*
X148082000Y-97070000D02*
X149307000Y-95845000D01*
X128987000Y-68417000D02*
X127762000Y-67192000D01*
X127762000Y-78876000D02*
X128987000Y-77651000D01*
X128987000Y-80101000D02*
X127762000Y-78876000D01*
X127762000Y-97070000D02*
X128987000Y-95845000D01*
X128987000Y-77651000D02*
X128987000Y-68417000D01*
X128987000Y-95845000D02*
X128987000Y-80101000D01*
X121367000Y-95845000D02*
X121367000Y-80101000D01*
X121367000Y-80101000D02*
X120142000Y-78876000D01*
X120142000Y-78876000D02*
X121367000Y-77651000D01*
X121367000Y-68417000D02*
X120142000Y-67192000D01*
X120142000Y-97070000D02*
X121367000Y-95845000D01*
X121367000Y-77651000D02*
X121367000Y-68417000D01*
X134067000Y-95845000D02*
X134067000Y-80101000D01*
X134067000Y-77651000D02*
X134067000Y-68417000D01*
X132842000Y-97070000D02*
X134067000Y-95845000D01*
X132842000Y-78876000D02*
X134067000Y-77651000D01*
X134067000Y-80101000D02*
X132842000Y-78876000D01*
X134067000Y-68417000D02*
X132842000Y-67192000D01*
X113837000Y-78368588D02*
X113837000Y-79483894D01*
X115062000Y-69732000D02*
X115062000Y-77143588D01*
X113837000Y-79483894D02*
X115062000Y-80708894D01*
X115062000Y-77143588D02*
X113837000Y-78368588D01*
X115062000Y-80708894D02*
X115062000Y-81416000D01*
X143002000Y-97070000D02*
X144227000Y-95845000D01*
X144227000Y-80101000D02*
X143002000Y-78876000D01*
X143002000Y-78876000D02*
X144227000Y-77651000D01*
X144227000Y-77651000D02*
X144227000Y-68417000D01*
X144227000Y-68417000D02*
X143002000Y-67192000D01*
X144227000Y-95845000D02*
X144227000Y-80101000D01*
X150622000Y-78876000D02*
X151847000Y-77651000D01*
X151847000Y-95845000D02*
X151847000Y-80101000D01*
X151847000Y-80101000D02*
X150622000Y-78876000D01*
X151847000Y-68417000D02*
X150622000Y-67192000D01*
X150622000Y-97070000D02*
X151847000Y-95845000D01*
X151847000Y-77651000D02*
X151847000Y-68417000D01*
G04 #@! TA.AperFunction,Conductor*
G36*
X152389826Y-79945963D02*
G01*
X152454517Y-79970091D01*
X152514127Y-79976500D01*
X153680100Y-79976499D01*
X153747139Y-79996184D01*
X153767781Y-80012818D01*
X153975181Y-80220218D01*
X154008666Y-80281541D01*
X154011500Y-80307899D01*
X154011500Y-95638100D01*
X153991815Y-95705139D01*
X153975181Y-95725781D01*
X153767781Y-95933181D01*
X153706458Y-95966666D01*
X153680100Y-95969500D01*
X152514129Y-95969500D01*
X152514123Y-95969501D01*
X152454516Y-95975908D01*
X152389833Y-96000034D01*
X152320141Y-96005018D01*
X152258818Y-95971532D01*
X152225334Y-95910209D01*
X152222500Y-95883852D01*
X152222500Y-80062147D01*
X152242185Y-79995108D01*
X152294989Y-79949353D01*
X152364147Y-79939409D01*
X152389826Y-79945963D01*
G37*
G04 #@! TD.AperFunction*
G04 #@! TA.AperFunction,Conductor*
G36*
X114142482Y-66362185D02*
G01*
X114188237Y-66414989D01*
X114198181Y-66484147D01*
X114174397Y-66541227D01*
X114122327Y-66610178D01*
X114031422Y-66792739D01*
X114031417Y-66792752D01*
X113975602Y-66988917D01*
X113956785Y-67191999D01*
X113956785Y-67192000D01*
X113975602Y-67395082D01*
X114031417Y-67591247D01*
X114031422Y-67591260D01*
X114122327Y-67773821D01*
X114245237Y-67936581D01*
X114395958Y-68073980D01*
X114395960Y-68073982D01*
X114446901Y-68105523D01*
X114569363Y-68181348D01*
X114759544Y-68255024D01*
X114960024Y-68292500D01*
X114960026Y-68292500D01*
X115163974Y-68292500D01*
X115163976Y-68292500D01*
X115364456Y-68255024D01*
X115554637Y-68181348D01*
X115728041Y-68073981D01*
X115878764Y-67936579D01*
X116001673Y-67773821D01*
X116092582Y-67591250D01*
X116148397Y-67395083D01*
X116167215Y-67192000D01*
X116148397Y-66988917D01*
X116092582Y-66792750D01*
X116001673Y-66610179D01*
X115949603Y-66541227D01*
X115924911Y-66475865D01*
X115939476Y-66407531D01*
X115988674Y-66357918D01*
X116048557Y-66342500D01*
X116615443Y-66342500D01*
X116682482Y-66362185D01*
X116728237Y-66414989D01*
X116738181Y-66484147D01*
X116714397Y-66541227D01*
X116662327Y-66610178D01*
X116571422Y-66792739D01*
X116571417Y-66792752D01*
X116515602Y-66988917D01*
X116496785Y-67191999D01*
X116496785Y-67192000D01*
X116515602Y-67395082D01*
X116571417Y-67591247D01*
X116571422Y-67591260D01*
X116662327Y-67773821D01*
X116785237Y-67936581D01*
X116935958Y-68073980D01*
X116935960Y-68073982D01*
X116986901Y-68105523D01*
X117109363Y-68181348D01*
X117299544Y-68255024D01*
X117500024Y-68292500D01*
X117500026Y-68292500D01*
X117703974Y-68292500D01*
X117703976Y-68292500D01*
X117904456Y-68255024D01*
X117994556Y-68220118D01*
X118064174Y-68214256D01*
X118125914Y-68246965D01*
X118127027Y-68248064D01*
X118415181Y-68536218D01*
X118448666Y-68597541D01*
X118451500Y-68623899D01*
X118451500Y-77444100D01*
X118431815Y-77511139D01*
X118415181Y-77531781D01*
X118127028Y-77819933D01*
X118065705Y-77853418D01*
X117996013Y-77848434D01*
X117994554Y-77847879D01*
X117904461Y-77812977D01*
X117904456Y-77812976D01*
X117703976Y-77775500D01*
X117500024Y-77775500D01*
X117299544Y-77812976D01*
X117299541Y-77812976D01*
X117299541Y-77812977D01*
X117109364Y-77886651D01*
X117109357Y-77886655D01*
X116935960Y-77994017D01*
X116935958Y-77994019D01*
X116785237Y-78131418D01*
X116662327Y-78294178D01*
X116571422Y-78476739D01*
X116571417Y-78476752D01*
X116515602Y-78672917D01*
X116496785Y-78875999D01*
X116496785Y-78876000D01*
X116515602Y-79079082D01*
X116571417Y-79275247D01*
X116571422Y-79275260D01*
X116662327Y-79457821D01*
X116785237Y-79620581D01*
X116935958Y-79757980D01*
X116935960Y-79757982D01*
X117035141Y-79819392D01*
X117109363Y-79865348D01*
X117299544Y-79939024D01*
X117500024Y-79976500D01*
X117500026Y-79976500D01*
X117703974Y-79976500D01*
X117703976Y-79976500D01*
X117904456Y-79939024D01*
X117994556Y-79904118D01*
X118064174Y-79898256D01*
X118125914Y-79930965D01*
X118127027Y-79932064D01*
X118415181Y-80220218D01*
X118448666Y-80281541D01*
X118451500Y-80307899D01*
X118451500Y-82300436D01*
X118464277Y-82348123D01*
X118464295Y-82348185D01*
X118477091Y-82395940D01*
X118482522Y-82405347D01*
X118525060Y-82479024D01*
X118525061Y-82479025D01*
X118525060Y-82479025D01*
X118526521Y-82481556D01*
X118526528Y-82481565D01*
X118968181Y-82923218D01*
X119001666Y-82984541D01*
X119004500Y-83010899D01*
X119004500Y-86239406D01*
X118984815Y-86306445D01*
X118932011Y-86352200D01*
X118862853Y-86362144D01*
X118799297Y-86333119D01*
X118768118Y-86291811D01*
X118711829Y-86171101D01*
X118689102Y-86122362D01*
X118689100Y-86122359D01*
X118689099Y-86122357D01*
X118563599Y-85943124D01*
X118563596Y-85943121D01*
X118408877Y-85788402D01*
X118229639Y-85662898D01*
X118229640Y-85662898D01*
X118229638Y-85662897D01*
X118102135Y-85603442D01*
X118031330Y-85570425D01*
X118031326Y-85570424D01*
X118031322Y-85570422D01*
X117819977Y-85513793D01*
X117602002Y-85494723D01*
X117601998Y-85494723D01*
X117456682Y-85507436D01*
X117384023Y-85513793D01*
X117384020Y-85513793D01*
X117172677Y-85570422D01*
X117172663Y-85570427D01*
X117101863Y-85603442D01*
X117032785Y-85613934D01*
X116969002Y-85585414D01*
X116961778Y-85578741D01*
X116788819Y-85405782D01*
X116755334Y-85344459D01*
X116752500Y-85318101D01*
X116752500Y-80141567D01*
X116752500Y-80141565D01*
X116726910Y-80046062D01*
X116702192Y-80003250D01*
X116702192Y-80003249D01*
X116702190Y-80003247D01*
X116677475Y-79960437D01*
X116677474Y-79960436D01*
X116677471Y-79960432D01*
X116121709Y-79404672D01*
X116088224Y-79343349D01*
X116092666Y-79281234D01*
X116091013Y-79280764D01*
X116148397Y-79079082D01*
X116167215Y-78876000D01*
X116167215Y-78875999D01*
X116148397Y-78672917D01*
X116092582Y-78476750D01*
X116001673Y-78294179D01*
X115878764Y-78131421D01*
X115878762Y-78131418D01*
X115728041Y-77994019D01*
X115728039Y-77994017D01*
X115554642Y-77886655D01*
X115554635Y-77886651D01*
X115454552Y-77847879D01*
X115364456Y-77812976D01*
X115224309Y-77786778D01*
X115162030Y-77755111D01*
X115126757Y-77694798D01*
X115129691Y-77624990D01*
X115159413Y-77577211D01*
X115362475Y-77374150D01*
X115411911Y-77288525D01*
X115437500Y-77193024D01*
X115437500Y-77094152D01*
X115437500Y-70851668D01*
X115457185Y-70784629D01*
X115509989Y-70738874D01*
X115516679Y-70736052D01*
X115554637Y-70721348D01*
X115728041Y-70613981D01*
X115878764Y-70476579D01*
X116001673Y-70313821D01*
X116092582Y-70131250D01*
X116148397Y-69935083D01*
X116167215Y-69732000D01*
X116148397Y-69528917D01*
X116092582Y-69332750D01*
X116001673Y-69150179D01*
X115878764Y-68987421D01*
X115878762Y-68987418D01*
X115728041Y-68850019D01*
X115728039Y-68850017D01*
X115554642Y-68742655D01*
X115554635Y-68742651D01*
X115382414Y-68675933D01*
X115364456Y-68668976D01*
X115163976Y-68631500D01*
X114960024Y-68631500D01*
X114759544Y-68668976D01*
X114759541Y-68668976D01*
X114759541Y-68668977D01*
X114569364Y-68742651D01*
X114569357Y-68742655D01*
X114395960Y-68850017D01*
X114395957Y-68850019D01*
X114330038Y-68910113D01*
X114267234Y-68940730D01*
X114197847Y-68932532D01*
X114143907Y-68888122D01*
X114122539Y-68821600D01*
X114122500Y-68818476D01*
X114122500Y-68367562D01*
X114121027Y-68362065D01*
X114121027Y-68362066D01*
X114108968Y-68317062D01*
X114096911Y-68272063D01*
X114047475Y-68186438D01*
X113581708Y-67720671D01*
X113548224Y-67659349D01*
X113552666Y-67597234D01*
X113551013Y-67596764D01*
X113608397Y-67395082D01*
X113627215Y-67192000D01*
X113627215Y-67191999D01*
X113608397Y-66988917D01*
X113552582Y-66792750D01*
X113461673Y-66610179D01*
X113409603Y-66541227D01*
X113384911Y-66475865D01*
X113399476Y-66407531D01*
X113448674Y-66357918D01*
X113508557Y-66342500D01*
X114075443Y-66342500D01*
X114142482Y-66362185D01*
G37*
G04 #@! TD.AperFunction*
G04 #@! TA.AperFunction,Conductor*
G36*
X152389826Y-68261963D02*
G01*
X152454517Y-68286091D01*
X152514127Y-68292500D01*
X153680100Y-68292499D01*
X153747139Y-68312184D01*
X153767781Y-68328818D01*
X153975181Y-68536218D01*
X154008666Y-68597541D01*
X154011500Y-68623899D01*
X154011500Y-77444100D01*
X153991815Y-77511139D01*
X153975181Y-77531781D01*
X153767781Y-77739181D01*
X153706458Y-77772666D01*
X153680100Y-77775500D01*
X152514129Y-77775500D01*
X152514123Y-77775501D01*
X152454516Y-77781908D01*
X152389833Y-77806034D01*
X152320141Y-77811018D01*
X152258818Y-77777532D01*
X152225334Y-77716209D01*
X152222500Y-77689852D01*
X152222500Y-68378147D01*
X152242185Y-68311108D01*
X152294989Y-68265353D01*
X152364147Y-68255409D01*
X152389826Y-68261963D01*
G37*
G04 #@! TD.AperFunction*
G04 #@! TA.AperFunction,Conductor*
G36*
X159963039Y-62249685D02*
G01*
X160008794Y-62302489D01*
X160020000Y-62354000D01*
X160020000Y-104016263D01*
X160000315Y-104083302D01*
X159947511Y-104129057D01*
X159896265Y-104140263D01*
X96390265Y-104275734D01*
X96323183Y-104256192D01*
X96277316Y-104203486D01*
X96266000Y-104151734D01*
X96266000Y-99609999D01*
X106336785Y-99609999D01*
X106336785Y-99610000D01*
X106355602Y-99813082D01*
X106411417Y-100009247D01*
X106411422Y-100009260D01*
X106502327Y-100191821D01*
X106625237Y-100354581D01*
X106775958Y-100491980D01*
X106775960Y-100491982D01*
X106875141Y-100553392D01*
X106949363Y-100599348D01*
X107139544Y-100673024D01*
X107340024Y-100710500D01*
X107340026Y-100710500D01*
X107543974Y-100710500D01*
X107543976Y-100710500D01*
X107744456Y-100673024D01*
X107934637Y-100599348D01*
X108108041Y-100491981D01*
X108258764Y-100354579D01*
X108381673Y-100191821D01*
X108472582Y-100009250D01*
X108528397Y-99813083D01*
X108547215Y-99610000D01*
X108547215Y-99609999D01*
X108876785Y-99609999D01*
X108876785Y-99610000D01*
X108895602Y-99813082D01*
X108951417Y-100009247D01*
X108951422Y-100009260D01*
X109042327Y-100191821D01*
X109165237Y-100354581D01*
X109315958Y-100491980D01*
X109315960Y-100491982D01*
X109415141Y-100553392D01*
X109489363Y-100599348D01*
X109679544Y-100673024D01*
X109880024Y-100710500D01*
X109880026Y-100710500D01*
X110083974Y-100710500D01*
X110083976Y-100710500D01*
X110284456Y-100673024D01*
X110474637Y-100599348D01*
X110648041Y-100491981D01*
X110798764Y-100354579D01*
X110921673Y-100191821D01*
X111012582Y-100009250D01*
X111068397Y-99813083D01*
X111087215Y-99610000D01*
X111087215Y-99609999D01*
X111416785Y-99609999D01*
X111416785Y-99610000D01*
X111435602Y-99813082D01*
X111491417Y-100009247D01*
X111491422Y-100009260D01*
X111582327Y-100191821D01*
X111705237Y-100354581D01*
X111855958Y-100491980D01*
X111855960Y-100491982D01*
X111955141Y-100553392D01*
X112029363Y-100599348D01*
X112219544Y-100673024D01*
X112420024Y-100710500D01*
X112420026Y-100710500D01*
X112623974Y-100710500D01*
X112623976Y-100710500D01*
X112824456Y-100673024D01*
X113014637Y-100599348D01*
X113188041Y-100491981D01*
X113338764Y-100354579D01*
X113461673Y-100191821D01*
X113552582Y-100009250D01*
X113608397Y-99813083D01*
X113627215Y-99610000D01*
X113627215Y-99609999D01*
X113956785Y-99609999D01*
X113956785Y-99610000D01*
X113975602Y-99813082D01*
X114031417Y-100009247D01*
X114031422Y-100009260D01*
X114122327Y-100191821D01*
X114245237Y-100354581D01*
X114395958Y-100491980D01*
X114395960Y-100491982D01*
X114495141Y-100553392D01*
X114569363Y-100599348D01*
X114759544Y-100673024D01*
X114960024Y-100710500D01*
X114960026Y-100710500D01*
X115163974Y-100710500D01*
X115163976Y-100710500D01*
X115364456Y-100673024D01*
X115554637Y-100599348D01*
X115728041Y-100491981D01*
X115878764Y-100354579D01*
X116001673Y-100191821D01*
X116092582Y-100009250D01*
X116148397Y-99813083D01*
X116167215Y-99610000D01*
X116167215Y-99609999D01*
X119036785Y-99609999D01*
X119036785Y-99610000D01*
X119055602Y-99813082D01*
X119111417Y-100009247D01*
X119111422Y-100009260D01*
X119202327Y-100191821D01*
X119325237Y-100354581D01*
X119475958Y-100491980D01*
X119475960Y-100491982D01*
X119575141Y-100553392D01*
X119649363Y-100599348D01*
X119839544Y-100673024D01*
X120040024Y-100710500D01*
X120040026Y-100710500D01*
X120243974Y-100710500D01*
X120243976Y-100710500D01*
X120444456Y-100673024D01*
X120634637Y-100599348D01*
X120808041Y-100491981D01*
X120958764Y-100354579D01*
X121081673Y-100191821D01*
X121172582Y-100009250D01*
X121228397Y-99813083D01*
X121247215Y-99610000D01*
X121247215Y-99609999D01*
X129196785Y-99609999D01*
X129196785Y-99610000D01*
X129215602Y-99813082D01*
X129271417Y-100009247D01*
X129271422Y-100009260D01*
X129362327Y-100191821D01*
X129485237Y-100354581D01*
X129635958Y-100491980D01*
X129635960Y-100491982D01*
X129735141Y-100553392D01*
X129809363Y-100599348D01*
X129999544Y-100673024D01*
X130200024Y-100710500D01*
X130200026Y-100710500D01*
X130403974Y-100710500D01*
X130403976Y-100710500D01*
X130604456Y-100673024D01*
X130794637Y-100599348D01*
X130968041Y-100491981D01*
X131118764Y-100354579D01*
X131241673Y-100191821D01*
X131332582Y-100009250D01*
X131388397Y-99813083D01*
X131407215Y-99610000D01*
X131407215Y-99609999D01*
X131736785Y-99609999D01*
X131736785Y-99610000D01*
X131755602Y-99813082D01*
X131811417Y-100009247D01*
X131811422Y-100009260D01*
X131902327Y-100191821D01*
X132025237Y-100354581D01*
X132175958Y-100491980D01*
X132175960Y-100491982D01*
X132275141Y-100553392D01*
X132349363Y-100599348D01*
X132539544Y-100673024D01*
X132740024Y-100710500D01*
X132740026Y-100710500D01*
X132943974Y-100710500D01*
X132943976Y-100710500D01*
X133144456Y-100673024D01*
X133334637Y-100599348D01*
X133508041Y-100491981D01*
X133658764Y-100354579D01*
X133781673Y-100191821D01*
X133872582Y-100009250D01*
X133928397Y-99813083D01*
X133947215Y-99610000D01*
X133947215Y-99609999D01*
X134276785Y-99609999D01*
X134276785Y-99610000D01*
X134295602Y-99813082D01*
X134351417Y-100009247D01*
X134351422Y-100009260D01*
X134442327Y-100191821D01*
X134565237Y-100354581D01*
X134715958Y-100491980D01*
X134715960Y-100491982D01*
X134815141Y-100553392D01*
X134889363Y-100599348D01*
X135079544Y-100673024D01*
X135280024Y-100710500D01*
X135280026Y-100710500D01*
X135483974Y-100710500D01*
X135483976Y-100710500D01*
X135684456Y-100673024D01*
X135874637Y-100599348D01*
X136048041Y-100491981D01*
X136198764Y-100354579D01*
X136321673Y-100191821D01*
X136412582Y-100009250D01*
X136468397Y-99813083D01*
X136487215Y-99610000D01*
X136487215Y-99609999D01*
X136816785Y-99609999D01*
X136816785Y-99610000D01*
X136835602Y-99813082D01*
X136891417Y-100009247D01*
X136891422Y-100009260D01*
X136982327Y-100191821D01*
X137105237Y-100354581D01*
X137255958Y-100491980D01*
X137255960Y-100491982D01*
X137355141Y-100553392D01*
X137429363Y-100599348D01*
X137619544Y-100673024D01*
X137820024Y-100710500D01*
X137820026Y-100710500D01*
X138023974Y-100710500D01*
X138023976Y-100710500D01*
X138224456Y-100673024D01*
X138414637Y-100599348D01*
X138588041Y-100491981D01*
X138738764Y-100354579D01*
X138861673Y-100191821D01*
X138952582Y-100009250D01*
X139008397Y-99813083D01*
X139027215Y-99610000D01*
X139027215Y-99609999D01*
X139356785Y-99609999D01*
X139356785Y-99610000D01*
X139375602Y-99813082D01*
X139431417Y-100009247D01*
X139431422Y-100009260D01*
X139522327Y-100191821D01*
X139645237Y-100354581D01*
X139795958Y-100491980D01*
X139795960Y-100491982D01*
X139895141Y-100553392D01*
X139969363Y-100599348D01*
X140159544Y-100673024D01*
X140360024Y-100710500D01*
X140360026Y-100710500D01*
X140563974Y-100710500D01*
X140563976Y-100710500D01*
X140764456Y-100673024D01*
X140954637Y-100599348D01*
X141128041Y-100491981D01*
X141278764Y-100354579D01*
X141401673Y-100191821D01*
X141492582Y-100009250D01*
X141548397Y-99813083D01*
X141567215Y-99610000D01*
X141567215Y-99609999D01*
X141896785Y-99609999D01*
X141896785Y-99610000D01*
X141915602Y-99813082D01*
X141971417Y-100009247D01*
X141971422Y-100009260D01*
X142062327Y-100191821D01*
X142185237Y-100354581D01*
X142335958Y-100491980D01*
X142335960Y-100491982D01*
X142435141Y-100553392D01*
X142509363Y-100599348D01*
X142699544Y-100673024D01*
X142900024Y-100710500D01*
X142900026Y-100710500D01*
X143103974Y-100710500D01*
X143103976Y-100710500D01*
X143304456Y-100673024D01*
X143494637Y-100599348D01*
X143668041Y-100491981D01*
X143818764Y-100354579D01*
X143941673Y-100191821D01*
X144032582Y-100009250D01*
X144088397Y-99813083D01*
X144107215Y-99610000D01*
X144107215Y-99609999D01*
X144436785Y-99609999D01*
X144436785Y-99610000D01*
X144455602Y-99813082D01*
X144511417Y-100009247D01*
X144511422Y-100009260D01*
X144602327Y-100191821D01*
X144725237Y-100354581D01*
X144875958Y-100491980D01*
X144875960Y-100491982D01*
X144975141Y-100553392D01*
X145049363Y-100599348D01*
X145239544Y-100673024D01*
X145440024Y-100710500D01*
X145440026Y-100710500D01*
X145643974Y-100710500D01*
X145643976Y-100710500D01*
X145844456Y-100673024D01*
X146034637Y-100599348D01*
X146208041Y-100491981D01*
X146358764Y-100354579D01*
X146481673Y-100191821D01*
X146572582Y-100009250D01*
X146628397Y-99813083D01*
X146647215Y-99610000D01*
X146647215Y-99609999D01*
X146976785Y-99609999D01*
X146976785Y-99610000D01*
X146995602Y-99813082D01*
X147051417Y-100009247D01*
X147051422Y-100009260D01*
X147142327Y-100191821D01*
X147265237Y-100354581D01*
X147415958Y-100491980D01*
X147415960Y-100491982D01*
X147515141Y-100553392D01*
X147589363Y-100599348D01*
X147779544Y-100673024D01*
X147980024Y-100710500D01*
X147980026Y-100710500D01*
X148183974Y-100710500D01*
X148183976Y-100710500D01*
X148384456Y-100673024D01*
X148574637Y-100599348D01*
X148748041Y-100491981D01*
X148898764Y-100354579D01*
X149021673Y-100191821D01*
X149112582Y-100009250D01*
X149168397Y-99813083D01*
X149187215Y-99610000D01*
X149187215Y-99609999D01*
X149516785Y-99609999D01*
X149516785Y-99610000D01*
X149535602Y-99813082D01*
X149591417Y-100009247D01*
X149591422Y-100009260D01*
X149682327Y-100191821D01*
X149805237Y-100354581D01*
X149955958Y-100491980D01*
X149955960Y-100491982D01*
X150055141Y-100553392D01*
X150129363Y-100599348D01*
X150319544Y-100673024D01*
X150520024Y-100710500D01*
X150520026Y-100710500D01*
X150723974Y-100710500D01*
X150723976Y-100710500D01*
X150924456Y-100673024D01*
X151114637Y-100599348D01*
X151288041Y-100491981D01*
X151438764Y-100354579D01*
X151561673Y-100191821D01*
X151652582Y-100009250D01*
X151708397Y-99813083D01*
X151727215Y-99610000D01*
X151708397Y-99406917D01*
X151652582Y-99210750D01*
X151561673Y-99028179D01*
X151438764Y-98865421D01*
X151438762Y-98865418D01*
X151288041Y-98728019D01*
X151288039Y-98728017D01*
X151114642Y-98620655D01*
X151114635Y-98620651D01*
X151019546Y-98583814D01*
X150924456Y-98546976D01*
X150723976Y-98509500D01*
X150520024Y-98509500D01*
X150319544Y-98546976D01*
X150319541Y-98546976D01*
X150319541Y-98546977D01*
X150129364Y-98620651D01*
X150129357Y-98620655D01*
X149955960Y-98728017D01*
X149955958Y-98728019D01*
X149805237Y-98865418D01*
X149682327Y-99028178D01*
X149591422Y-99210739D01*
X149591417Y-99210752D01*
X149535602Y-99406917D01*
X149516785Y-99609999D01*
X149187215Y-99609999D01*
X149168397Y-99406917D01*
X149112582Y-99210750D01*
X149021673Y-99028179D01*
X148898764Y-98865421D01*
X148898762Y-98865418D01*
X148748041Y-98728019D01*
X148748039Y-98728017D01*
X148574642Y-98620655D01*
X148574635Y-98620651D01*
X148479546Y-98583814D01*
X148384456Y-98546976D01*
X148183976Y-98509500D01*
X147980024Y-98509500D01*
X147779544Y-98546976D01*
X147779541Y-98546976D01*
X147779541Y-98546977D01*
X147589364Y-98620651D01*
X147589357Y-98620655D01*
X147415960Y-98728017D01*
X147415958Y-98728019D01*
X147265237Y-98865418D01*
X147142327Y-99028178D01*
X147051422Y-99210739D01*
X147051417Y-99210752D01*
X146995602Y-99406917D01*
X146976785Y-99609999D01*
X146647215Y-99609999D01*
X146628397Y-99406917D01*
X146572582Y-99210750D01*
X146481673Y-99028179D01*
X146358764Y-98865421D01*
X146358762Y-98865418D01*
X146208041Y-98728019D01*
X146208039Y-98728017D01*
X146034642Y-98620655D01*
X146034635Y-98620651D01*
X145939546Y-98583814D01*
X145844456Y-98546976D01*
X145643976Y-98509500D01*
X145440024Y-98509500D01*
X145239544Y-98546976D01*
X145239541Y-98546976D01*
X145239541Y-98546977D01*
X145049364Y-98620651D01*
X145049357Y-98620655D01*
X144875960Y-98728017D01*
X144875958Y-98728019D01*
X144725237Y-98865418D01*
X144602327Y-99028178D01*
X144511422Y-99210739D01*
X144511417Y-99210752D01*
X144455602Y-99406917D01*
X144436785Y-99609999D01*
X144107215Y-99609999D01*
X144088397Y-99406917D01*
X144032582Y-99210750D01*
X143941673Y-99028179D01*
X143818764Y-98865421D01*
X143818762Y-98865418D01*
X143668041Y-98728019D01*
X143668039Y-98728017D01*
X143494642Y-98620655D01*
X143494635Y-98620651D01*
X143399546Y-98583814D01*
X143304456Y-98546976D01*
X143103976Y-98509500D01*
X142900024Y-98509500D01*
X142699544Y-98546976D01*
X142699541Y-98546976D01*
X142699541Y-98546977D01*
X142509364Y-98620651D01*
X142509357Y-98620655D01*
X142335960Y-98728017D01*
X142335958Y-98728019D01*
X142185237Y-98865418D01*
X142062327Y-99028178D01*
X141971422Y-99210739D01*
X141971417Y-99210752D01*
X141915602Y-99406917D01*
X141896785Y-99609999D01*
X141567215Y-99609999D01*
X141548397Y-99406917D01*
X141492582Y-99210750D01*
X141401673Y-99028179D01*
X141278764Y-98865421D01*
X141278762Y-98865418D01*
X141128041Y-98728019D01*
X141128039Y-98728017D01*
X140954642Y-98620655D01*
X140954635Y-98620651D01*
X140859546Y-98583814D01*
X140764456Y-98546976D01*
X140563976Y-98509500D01*
X140360024Y-98509500D01*
X140159544Y-98546976D01*
X140159541Y-98546976D01*
X140159541Y-98546977D01*
X139969364Y-98620651D01*
X139969357Y-98620655D01*
X139795960Y-98728017D01*
X139795958Y-98728019D01*
X139645237Y-98865418D01*
X139522327Y-99028178D01*
X139431422Y-99210739D01*
X139431417Y-99210752D01*
X139375602Y-99406917D01*
X139356785Y-99609999D01*
X139027215Y-99609999D01*
X139008397Y-99406917D01*
X138952582Y-99210750D01*
X138861673Y-99028179D01*
X138738764Y-98865421D01*
X138738762Y-98865418D01*
X138588041Y-98728019D01*
X138588039Y-98728017D01*
X138414642Y-98620655D01*
X138414635Y-98620651D01*
X138319546Y-98583814D01*
X138224456Y-98546976D01*
X138023976Y-98509500D01*
X137820024Y-98509500D01*
X137619544Y-98546976D01*
X137619541Y-98546976D01*
X137619541Y-98546977D01*
X137429364Y-98620651D01*
X137429357Y-98620655D01*
X137255960Y-98728017D01*
X137255958Y-98728019D01*
X137105237Y-98865418D01*
X136982327Y-99028178D01*
X136891422Y-99210739D01*
X136891417Y-99210752D01*
X136835602Y-99406917D01*
X136816785Y-99609999D01*
X136487215Y-99609999D01*
X136468397Y-99406917D01*
X136412582Y-99210750D01*
X136321673Y-99028179D01*
X136198764Y-98865421D01*
X136198762Y-98865418D01*
X136048041Y-98728019D01*
X136048039Y-98728017D01*
X135874642Y-98620655D01*
X135874635Y-98620651D01*
X135779546Y-98583814D01*
X135684456Y-98546976D01*
X135483976Y-98509500D01*
X135280024Y-98509500D01*
X135079544Y-98546976D01*
X135079541Y-98546976D01*
X135079541Y-98546977D01*
X134889364Y-98620651D01*
X134889357Y-98620655D01*
X134715960Y-98728017D01*
X134715958Y-98728019D01*
X134565237Y-98865418D01*
X134442327Y-99028178D01*
X134351422Y-99210739D01*
X134351417Y-99210752D01*
X134295602Y-99406917D01*
X134276785Y-99609999D01*
X133947215Y-99609999D01*
X133928397Y-99406917D01*
X133872582Y-99210750D01*
X133781673Y-99028179D01*
X133658764Y-98865421D01*
X133658762Y-98865418D01*
X133508041Y-98728019D01*
X133508039Y-98728017D01*
X133334642Y-98620655D01*
X133334635Y-98620651D01*
X133239546Y-98583814D01*
X133144456Y-98546976D01*
X132943976Y-98509500D01*
X132740024Y-98509500D01*
X132539544Y-98546976D01*
X132539541Y-98546976D01*
X132539541Y-98546977D01*
X132349364Y-98620651D01*
X132349357Y-98620655D01*
X132175960Y-98728017D01*
X132175958Y-98728019D01*
X132025237Y-98865418D01*
X131902327Y-99028178D01*
X131811422Y-99210739D01*
X131811417Y-99210752D01*
X131755602Y-99406917D01*
X131736785Y-99609999D01*
X131407215Y-99609999D01*
X131388397Y-99406917D01*
X131332582Y-99210750D01*
X131241673Y-99028179D01*
X131118764Y-98865421D01*
X131118762Y-98865418D01*
X130968041Y-98728019D01*
X130968039Y-98728017D01*
X130794642Y-98620655D01*
X130794635Y-98620651D01*
X130699546Y-98583814D01*
X130604456Y-98546976D01*
X130403976Y-98509500D01*
X130200024Y-98509500D01*
X129999544Y-98546976D01*
X129999541Y-98546976D01*
X129999541Y-98546977D01*
X129809364Y-98620651D01*
X129809357Y-98620655D01*
X129635960Y-98728017D01*
X129635958Y-98728019D01*
X129485237Y-98865418D01*
X129362327Y-99028178D01*
X129271422Y-99210739D01*
X129271417Y-99210752D01*
X129215602Y-99406917D01*
X129196785Y-99609999D01*
X121247215Y-99609999D01*
X121228397Y-99406917D01*
X121172582Y-99210750D01*
X121081673Y-99028179D01*
X120958764Y-98865421D01*
X120958762Y-98865418D01*
X120808041Y-98728019D01*
X120808039Y-98728017D01*
X120634642Y-98620655D01*
X120634635Y-98620651D01*
X120539546Y-98583814D01*
X120444456Y-98546976D01*
X120243976Y-98509500D01*
X120040024Y-98509500D01*
X119839544Y-98546976D01*
X119839541Y-98546976D01*
X119839541Y-98546977D01*
X119649364Y-98620651D01*
X119649357Y-98620655D01*
X119475960Y-98728017D01*
X119475958Y-98728019D01*
X119325237Y-98865418D01*
X119202327Y-99028178D01*
X119111422Y-99210739D01*
X119111417Y-99210752D01*
X119055602Y-99406917D01*
X119036785Y-99609999D01*
X116167215Y-99609999D01*
X116148397Y-99406917D01*
X116092582Y-99210750D01*
X116001673Y-99028179D01*
X115878764Y-98865421D01*
X115878762Y-98865418D01*
X115728041Y-98728019D01*
X115728039Y-98728017D01*
X115554642Y-98620655D01*
X115554635Y-98620651D01*
X115459546Y-98583814D01*
X115364456Y-98546976D01*
X115163976Y-98509500D01*
X114960024Y-98509500D01*
X114759544Y-98546976D01*
X114759541Y-98546976D01*
X114759541Y-98546977D01*
X114569364Y-98620651D01*
X114569357Y-98620655D01*
X114395960Y-98728017D01*
X114395958Y-98728019D01*
X114245237Y-98865418D01*
X114122327Y-99028178D01*
X114031422Y-99210739D01*
X114031417Y-99210752D01*
X113975602Y-99406917D01*
X113956785Y-99609999D01*
X113627215Y-99609999D01*
X113608397Y-99406917D01*
X113552582Y-99210750D01*
X113461673Y-99028179D01*
X113338764Y-98865421D01*
X113338762Y-98865418D01*
X113188041Y-98728019D01*
X113188039Y-98728017D01*
X113014642Y-98620655D01*
X113014635Y-98620651D01*
X112919546Y-98583814D01*
X112824456Y-98546976D01*
X112623976Y-98509500D01*
X112420024Y-98509500D01*
X112219544Y-98546976D01*
X112219541Y-98546976D01*
X112219541Y-98546977D01*
X112029364Y-98620651D01*
X112029357Y-98620655D01*
X111855960Y-98728017D01*
X111855958Y-98728019D01*
X111705237Y-98865418D01*
X111582327Y-99028178D01*
X111491422Y-99210739D01*
X111491417Y-99210752D01*
X111435602Y-99406917D01*
X111416785Y-99609999D01*
X111087215Y-99609999D01*
X111068397Y-99406917D01*
X111012582Y-99210750D01*
X110921673Y-99028179D01*
X110798764Y-98865421D01*
X110798762Y-98865418D01*
X110648041Y-98728019D01*
X110648039Y-98728017D01*
X110474642Y-98620655D01*
X110474635Y-98620651D01*
X110379546Y-98583814D01*
X110284456Y-98546976D01*
X110083976Y-98509500D01*
X109880024Y-98509500D01*
X109679544Y-98546976D01*
X109679541Y-98546976D01*
X109679541Y-98546977D01*
X109489364Y-98620651D01*
X109489357Y-98620655D01*
X109315960Y-98728017D01*
X109315958Y-98728019D01*
X109165237Y-98865418D01*
X109042327Y-99028178D01*
X108951422Y-99210739D01*
X108951417Y-99210752D01*
X108895602Y-99406917D01*
X108876785Y-99609999D01*
X108547215Y-99609999D01*
X108528397Y-99406917D01*
X108472582Y-99210750D01*
X108381673Y-99028179D01*
X108258764Y-98865421D01*
X108258762Y-98865418D01*
X108108041Y-98728019D01*
X108108039Y-98728017D01*
X107934642Y-98620655D01*
X107934635Y-98620651D01*
X107839546Y-98583814D01*
X107744456Y-98546976D01*
X107543976Y-98509500D01*
X107340024Y-98509500D01*
X107139544Y-98546976D01*
X107139541Y-98546976D01*
X107139541Y-98546977D01*
X106949364Y-98620651D01*
X106949357Y-98620655D01*
X106775960Y-98728017D01*
X106775958Y-98728019D01*
X106625237Y-98865418D01*
X106502327Y-99028178D01*
X106411422Y-99210739D01*
X106411417Y-99210752D01*
X106355602Y-99406917D01*
X106336785Y-99609999D01*
X96266000Y-99609999D01*
X96266000Y-91829997D01*
X102376723Y-91829997D01*
X102376723Y-91830002D01*
X102395793Y-92047975D01*
X102395793Y-92047979D01*
X102452422Y-92259322D01*
X102452424Y-92259326D01*
X102452425Y-92259330D01*
X102489672Y-92339206D01*
X102544897Y-92457638D01*
X102544898Y-92457639D01*
X102670402Y-92636877D01*
X102825123Y-92791598D01*
X103004361Y-92917102D01*
X103202670Y-93009575D01*
X103202676Y-93009576D01*
X103202677Y-93009577D01*
X103231810Y-93017383D01*
X103414023Y-93066207D01*
X103596926Y-93082208D01*
X103631998Y-93085277D01*
X103632000Y-93085277D01*
X103632002Y-93085277D01*
X103660254Y-93082805D01*
X103849977Y-93066207D01*
X104061330Y-93009575D01*
X104132137Y-92976556D01*
X104201212Y-92966065D01*
X104264996Y-92994584D01*
X104272221Y-93001258D01*
X104490181Y-93219218D01*
X104523666Y-93280541D01*
X104526500Y-93306899D01*
X104526500Y-95950330D01*
X104506815Y-96017369D01*
X104454011Y-96063124D01*
X104447295Y-96065956D01*
X104409371Y-96080647D01*
X104409359Y-96080653D01*
X104235960Y-96188017D01*
X104235958Y-96188019D01*
X104085237Y-96325418D01*
X103962327Y-96488178D01*
X103871422Y-96670739D01*
X103871417Y-96670752D01*
X103815602Y-96866917D01*
X103796785Y-97069999D01*
X103796785Y-97070000D01*
X103815602Y-97273082D01*
X103871417Y-97469247D01*
X103871422Y-97469260D01*
X103962327Y-97651821D01*
X104085237Y-97814581D01*
X104235958Y-97951980D01*
X104235960Y-97951982D01*
X104335141Y-98013392D01*
X104409363Y-98059348D01*
X104599544Y-98133024D01*
X104800024Y-98170500D01*
X104800026Y-98170500D01*
X105003974Y-98170500D01*
X105003976Y-98170500D01*
X105204456Y-98133024D01*
X105394637Y-98059348D01*
X105568041Y-97951981D01*
X105718764Y-97814579D01*
X105841673Y-97651821D01*
X105932582Y-97469250D01*
X105988397Y-97273083D01*
X106007215Y-97070000D01*
X105988397Y-96866917D01*
X105932582Y-96670750D01*
X105841673Y-96488179D01*
X105718764Y-96325421D01*
X105718762Y-96325418D01*
X105568041Y-96188019D01*
X105568039Y-96188017D01*
X105394640Y-96080653D01*
X105394628Y-96080647D01*
X105356705Y-96065956D01*
X105301304Y-96023383D01*
X105277714Y-95957616D01*
X105277500Y-95950330D01*
X105277500Y-93050567D01*
X105277500Y-93050565D01*
X105251910Y-92955062D01*
X105202475Y-92869438D01*
X105132562Y-92799525D01*
X104803258Y-92470221D01*
X104769773Y-92408898D01*
X104774757Y-92339206D01*
X104778558Y-92330134D01*
X104803292Y-92277094D01*
X104849465Y-92224655D01*
X104915673Y-92205500D01*
X105650327Y-92205500D01*
X105717366Y-92225185D01*
X105762709Y-92277095D01*
X105846897Y-92457638D01*
X105846898Y-92457639D01*
X105972402Y-92636877D01*
X106127123Y-92791598D01*
X106306361Y-92917102D01*
X106504670Y-93009575D01*
X106504676Y-93009576D01*
X106504677Y-93009577D01*
X106533810Y-93017383D01*
X106716023Y-93066207D01*
X106898926Y-93082208D01*
X106933998Y-93085277D01*
X106934000Y-93085277D01*
X106934002Y-93085277D01*
X106962254Y-93082805D01*
X107151977Y-93066207D01*
X107363330Y-93009575D01*
X107561639Y-92917102D01*
X107740877Y-92791598D01*
X107895598Y-92636877D01*
X108021102Y-92457639D01*
X108113575Y-92259330D01*
X108170207Y-92047977D01*
X108189277Y-91830000D01*
X108170207Y-91612023D01*
X108113575Y-91400670D01*
X108021102Y-91202362D01*
X108021100Y-91202359D01*
X108021099Y-91202357D01*
X107895599Y-91023124D01*
X107895596Y-91023121D01*
X107740877Y-90868402D01*
X107561639Y-90742898D01*
X107561640Y-90742898D01*
X107561638Y-90742897D01*
X107440528Y-90686423D01*
X107363330Y-90650425D01*
X107363326Y-90650424D01*
X107363322Y-90650422D01*
X107151977Y-90593793D01*
X106934002Y-90574723D01*
X106933998Y-90574723D01*
X106788682Y-90587436D01*
X106716023Y-90593793D01*
X106716020Y-90593793D01*
X106504677Y-90650422D01*
X106504668Y-90650426D01*
X106306361Y-90742898D01*
X106306357Y-90742900D01*
X106127121Y-90868402D01*
X105972402Y-91023121D01*
X105846900Y-91202357D01*
X105846898Y-91202361D01*
X105762709Y-91382905D01*
X105716536Y-91435344D01*
X105650327Y-91454500D01*
X104915673Y-91454500D01*
X104848634Y-91434815D01*
X104803291Y-91382905D01*
X104778854Y-91330500D01*
X104719102Y-91202362D01*
X104719100Y-91202359D01*
X104719099Y-91202357D01*
X104593599Y-91023124D01*
X104593596Y-91023121D01*
X104438877Y-90868402D01*
X104259639Y-90742898D01*
X104259640Y-90742898D01*
X104259638Y-90742897D01*
X104138528Y-90686423D01*
X104061330Y-90650425D01*
X104061326Y-90650424D01*
X104061322Y-90650422D01*
X103849977Y-90593793D01*
X103632002Y-90574723D01*
X103631998Y-90574723D01*
X103486682Y-90587436D01*
X103414023Y-90593793D01*
X103414020Y-90593793D01*
X103202677Y-90650422D01*
X103202668Y-90650426D01*
X103004361Y-90742898D01*
X103004357Y-90742900D01*
X102825121Y-90868402D01*
X102670402Y-91023121D01*
X102544900Y-91202357D01*
X102544898Y-91202361D01*
X102452426Y-91400668D01*
X102452422Y-91400677D01*
X102395793Y-91612020D01*
X102395793Y-91612024D01*
X102376723Y-91829997D01*
X96266000Y-91829997D01*
X96266000Y-85725321D01*
X102381500Y-85725321D01*
X102381500Y-87774678D01*
X102396032Y-87847735D01*
X102396033Y-87847739D01*
X102396034Y-87847740D01*
X102451399Y-87930601D01*
X102534260Y-87985966D01*
X102534264Y-87985967D01*
X102607321Y-88000499D01*
X102607324Y-88000500D01*
X102607326Y-88000500D01*
X104656676Y-88000500D01*
X104656677Y-88000499D01*
X104729740Y-87985966D01*
X104812601Y-87930601D01*
X104867966Y-87847740D01*
X104882500Y-87774674D01*
X104882500Y-85725326D01*
X104882500Y-85725323D01*
X104882499Y-85725321D01*
X104867967Y-85652264D01*
X104867966Y-85652260D01*
X104859865Y-85640136D01*
X104812601Y-85569399D01*
X104729740Y-85514034D01*
X104729739Y-85514033D01*
X104729735Y-85514032D01*
X104656677Y-85499500D01*
X104656674Y-85499500D01*
X104131500Y-85499500D01*
X104064461Y-85479815D01*
X104018706Y-85427011D01*
X104007500Y-85375500D01*
X104007500Y-79830546D01*
X104027185Y-79763507D01*
X104079989Y-79717752D01*
X104149147Y-79707808D01*
X104212703Y-79736833D01*
X104215039Y-79738910D01*
X104235957Y-79757980D01*
X104235960Y-79757982D01*
X104335141Y-79819392D01*
X104409363Y-79865348D01*
X104599544Y-79939024D01*
X104800024Y-79976500D01*
X104800026Y-79976500D01*
X105003974Y-79976500D01*
X105003976Y-79976500D01*
X105204456Y-79939024D01*
X105294556Y-79904118D01*
X105364174Y-79898256D01*
X105425914Y-79930965D01*
X105427027Y-79932064D01*
X105805181Y-80310218D01*
X105838666Y-80371541D01*
X105841500Y-80397899D01*
X105841500Y-85444253D01*
X105821815Y-85511292D01*
X105786390Y-85547355D01*
X105753400Y-85569397D01*
X105698033Y-85652260D01*
X105698032Y-85652264D01*
X105683500Y-85725321D01*
X105683500Y-87774678D01*
X105698032Y-87847735D01*
X105698033Y-87847739D01*
X105698034Y-87847740D01*
X105753399Y-87930601D01*
X105836260Y-87985966D01*
X105836264Y-87985967D01*
X105909321Y-88000499D01*
X105909324Y-88000500D01*
X105909326Y-88000500D01*
X107958676Y-88000500D01*
X107958677Y-88000499D01*
X108031740Y-87985966D01*
X108114601Y-87930601D01*
X108169966Y-87847740D01*
X108184500Y-87774674D01*
X108184500Y-85725326D01*
X108184500Y-85725323D01*
X108184499Y-85725321D01*
X108169967Y-85652264D01*
X108169966Y-85652260D01*
X108161865Y-85640136D01*
X108114601Y-85569399D01*
X108031740Y-85514034D01*
X108031739Y-85514033D01*
X108031735Y-85514032D01*
X107958677Y-85499500D01*
X107958674Y-85499500D01*
X106716500Y-85499500D01*
X106649461Y-85479815D01*
X106603706Y-85427011D01*
X106592500Y-85375500D01*
X106592500Y-82407010D01*
X106612185Y-82339971D01*
X106664989Y-82294216D01*
X106734147Y-82284272D01*
X106781774Y-82301581D01*
X106949363Y-82405348D01*
X107139544Y-82479024D01*
X107340024Y-82516500D01*
X107340026Y-82516500D01*
X107543974Y-82516500D01*
X107543976Y-82516500D01*
X107744456Y-82479024D01*
X107934637Y-82405348D01*
X108102224Y-82301582D01*
X108169583Y-82283027D01*
X108236282Y-82303835D01*
X108281144Y-82357401D01*
X108291500Y-82407010D01*
X108291500Y-82599435D01*
X108317090Y-82694938D01*
X108317091Y-82694939D01*
X108317091Y-82694940D01*
X108366526Y-82780563D01*
X109062181Y-83476218D01*
X109095666Y-83537541D01*
X109098500Y-83563899D01*
X109098500Y-94831100D01*
X109078815Y-94898139D01*
X109062181Y-94918781D01*
X107967028Y-96013933D01*
X107905705Y-96047418D01*
X107836013Y-96042434D01*
X107834554Y-96041879D01*
X107744461Y-96006977D01*
X107744456Y-96006976D01*
X107543976Y-95969500D01*
X107340024Y-95969500D01*
X107139544Y-96006976D01*
X107139541Y-96006976D01*
X107139541Y-96006977D01*
X106949364Y-96080651D01*
X106949357Y-96080655D01*
X106775960Y-96188017D01*
X106775958Y-96188019D01*
X106625237Y-96325418D01*
X106502327Y-96488178D01*
X106411422Y-96670739D01*
X106411417Y-96670752D01*
X106355602Y-96866917D01*
X106336785Y-97069999D01*
X106336785Y-97070000D01*
X106355602Y-97273082D01*
X106411417Y-97469247D01*
X106411422Y-97469260D01*
X106502327Y-97651821D01*
X106625237Y-97814581D01*
X106775958Y-97951980D01*
X106775960Y-97951982D01*
X106875141Y-98013392D01*
X106949363Y-98059348D01*
X107139544Y-98133024D01*
X107340024Y-98170500D01*
X107340026Y-98170500D01*
X107543974Y-98170500D01*
X107543976Y-98170500D01*
X107744456Y-98133024D01*
X107934637Y-98059348D01*
X108108041Y-97951981D01*
X108258764Y-97814579D01*
X108381673Y-97651821D01*
X108472582Y-97469250D01*
X108528397Y-97273083D01*
X108547215Y-97070000D01*
X108528397Y-96866917D01*
X108472582Y-96670750D01*
X108472581Y-96670748D01*
X108471013Y-96665237D01*
X108472994Y-96664673D01*
X108467902Y-96604174D01*
X108500614Y-96542435D01*
X108501627Y-96541408D01*
X109774474Y-95268563D01*
X109774475Y-95268562D01*
X109823910Y-95182938D01*
X109849500Y-95087435D01*
X109849500Y-83307565D01*
X109823910Y-83212062D01*
X109774475Y-83126438D01*
X109704562Y-83056525D01*
X109078819Y-82430782D01*
X109045334Y-82369459D01*
X109042500Y-82343101D01*
X109042500Y-82329523D01*
X109062185Y-82262484D01*
X109114989Y-82216729D01*
X109184147Y-82206785D01*
X109247703Y-82235810D01*
X109249993Y-82237845D01*
X109315959Y-82297981D01*
X109315961Y-82297982D01*
X109315962Y-82297983D01*
X109361854Y-82326398D01*
X109489363Y-82405348D01*
X109679544Y-82479024D01*
X109880024Y-82516500D01*
X109880026Y-82516500D01*
X110083974Y-82516500D01*
X110083976Y-82516500D01*
X110284456Y-82479024D01*
X110474637Y-82405348D01*
X110642224Y-82301582D01*
X110709583Y-82283027D01*
X110776282Y-82303835D01*
X110821144Y-82357401D01*
X110831500Y-82407010D01*
X110831500Y-95638100D01*
X110811815Y-95705139D01*
X110795181Y-95725781D01*
X110507028Y-96013933D01*
X110445705Y-96047418D01*
X110376013Y-96042434D01*
X110374554Y-96041879D01*
X110284461Y-96006977D01*
X110284456Y-96006976D01*
X110083976Y-95969500D01*
X109880024Y-95969500D01*
X109679544Y-96006976D01*
X109679541Y-96006976D01*
X109679541Y-96006977D01*
X109489364Y-96080651D01*
X109489357Y-96080655D01*
X109315960Y-96188017D01*
X109315958Y-96188019D01*
X109165237Y-96325418D01*
X109042327Y-96488178D01*
X108951422Y-96670739D01*
X108951417Y-96670752D01*
X108895602Y-96866917D01*
X108876785Y-97069999D01*
X108876785Y-97070000D01*
X108895602Y-97273082D01*
X108951417Y-97469247D01*
X108951422Y-97469260D01*
X109042327Y-97651821D01*
X109165237Y-97814581D01*
X109315958Y-97951980D01*
X109315960Y-97951982D01*
X109415141Y-98013392D01*
X109489363Y-98059348D01*
X109679544Y-98133024D01*
X109880024Y-98170500D01*
X109880026Y-98170500D01*
X110083974Y-98170500D01*
X110083976Y-98170500D01*
X110284456Y-98133024D01*
X110474637Y-98059348D01*
X110648041Y-97951981D01*
X110798764Y-97814579D01*
X110921673Y-97651821D01*
X111012582Y-97469250D01*
X111068397Y-97273083D01*
X111087215Y-97070000D01*
X111068397Y-96866917D01*
X111012582Y-96670750D01*
X111012581Y-96670748D01*
X111011013Y-96665237D01*
X111012994Y-96664673D01*
X111007902Y-96604174D01*
X111040614Y-96542435D01*
X111041621Y-96541414D01*
X111507475Y-96075562D01*
X111556911Y-95989937D01*
X111582500Y-95894436D01*
X111582500Y-95795564D01*
X111582500Y-82329523D01*
X111602185Y-82262484D01*
X111654989Y-82216729D01*
X111724147Y-82206785D01*
X111787703Y-82235810D01*
X111789993Y-82237845D01*
X111855959Y-82297981D01*
X111855961Y-82297982D01*
X111855962Y-82297983D01*
X111901854Y-82326398D01*
X112029363Y-82405348D01*
X112163415Y-82457279D01*
X112219538Y-82479022D01*
X112219544Y-82479024D01*
X112359690Y-82505221D01*
X112421968Y-82536888D01*
X112457242Y-82597200D01*
X112454309Y-82667008D01*
X112424585Y-82714790D01*
X112291438Y-82847937D01*
X112221526Y-82917848D01*
X112172091Y-83003471D01*
X112172091Y-83003472D01*
X112172090Y-83003474D01*
X112146500Y-83098977D01*
X112146500Y-83098979D01*
X112146500Y-95950330D01*
X112126815Y-96017369D01*
X112074011Y-96063124D01*
X112067295Y-96065956D01*
X112029371Y-96080647D01*
X112029359Y-96080653D01*
X111855960Y-96188017D01*
X111855958Y-96188019D01*
X111705237Y-96325418D01*
X111582327Y-96488178D01*
X111491422Y-96670739D01*
X111491417Y-96670752D01*
X111435602Y-96866917D01*
X111416785Y-97069999D01*
X111416785Y-97070000D01*
X111435602Y-97273082D01*
X111491417Y-97469247D01*
X111491422Y-97469260D01*
X111582327Y-97651821D01*
X111705237Y-97814581D01*
X111855958Y-97951980D01*
X111855960Y-97951982D01*
X111955141Y-98013392D01*
X112029363Y-98059348D01*
X112219544Y-98133024D01*
X112420024Y-98170500D01*
X112420026Y-98170500D01*
X112623974Y-98170500D01*
X112623976Y-98170500D01*
X112824456Y-98133024D01*
X113014637Y-98059348D01*
X113188041Y-97951981D01*
X113338764Y-97814579D01*
X113461673Y-97651821D01*
X113552582Y-97469250D01*
X113608397Y-97273083D01*
X113627215Y-97070000D01*
X113608397Y-96866917D01*
X113552582Y-96670750D01*
X113461673Y-96488179D01*
X113338764Y-96325421D01*
X113338762Y-96325418D01*
X113188041Y-96188019D01*
X113188039Y-96188017D01*
X113014640Y-96080653D01*
X113014628Y-96080647D01*
X112976705Y-96065956D01*
X112921304Y-96023383D01*
X112897714Y-95957616D01*
X112897500Y-95950330D01*
X112897500Y-93087278D01*
X112917185Y-93020239D01*
X112969989Y-92974484D01*
X113039147Y-92964540D01*
X113102703Y-92993565D01*
X113110417Y-93002310D01*
X113110763Y-93001965D01*
X113119396Y-93010598D01*
X113119397Y-93010599D01*
X113119399Y-93010601D01*
X113185046Y-93054464D01*
X113202260Y-93065966D01*
X113202264Y-93065967D01*
X113275321Y-93080499D01*
X113275324Y-93080500D01*
X113275326Y-93080500D01*
X114562500Y-93080500D01*
X114629539Y-93100185D01*
X114675294Y-93152989D01*
X114686500Y-93204500D01*
X114686500Y-95950330D01*
X114666815Y-96017369D01*
X114614011Y-96063124D01*
X114607295Y-96065956D01*
X114569371Y-96080647D01*
X114569359Y-96080653D01*
X114395960Y-96188017D01*
X114395958Y-96188019D01*
X114245237Y-96325418D01*
X114122327Y-96488178D01*
X114031422Y-96670739D01*
X114031417Y-96670752D01*
X113975602Y-96866917D01*
X113956785Y-97069999D01*
X113956785Y-97070000D01*
X113975602Y-97273082D01*
X114031417Y-97469247D01*
X114031422Y-97469260D01*
X114122327Y-97651821D01*
X114245237Y-97814581D01*
X114395958Y-97951980D01*
X114395960Y-97951982D01*
X114495141Y-98013392D01*
X114569363Y-98059348D01*
X114759544Y-98133024D01*
X114960024Y-98170500D01*
X114960026Y-98170500D01*
X115163974Y-98170500D01*
X115163976Y-98170500D01*
X115364456Y-98133024D01*
X115554637Y-98059348D01*
X115728041Y-97951981D01*
X115878764Y-97814579D01*
X116001673Y-97651821D01*
X116092582Y-97469250D01*
X116148397Y-97273083D01*
X116167215Y-97070000D01*
X116148397Y-96866917D01*
X116092582Y-96670750D01*
X116001673Y-96488179D01*
X115878764Y-96325421D01*
X115878762Y-96325418D01*
X115728041Y-96188019D01*
X115728039Y-96188017D01*
X115554640Y-96080653D01*
X115554628Y-96080647D01*
X115516705Y-96065956D01*
X115461304Y-96023383D01*
X115437714Y-95957616D01*
X115437500Y-95950330D01*
X115437500Y-93105064D01*
X115457185Y-93038025D01*
X115473819Y-93017383D01*
X115480598Y-93010603D01*
X115480597Y-93010603D01*
X115480601Y-93010601D01*
X115535966Y-92927740D01*
X115550500Y-92854674D01*
X115550500Y-92329500D01*
X115570185Y-92262461D01*
X115622989Y-92216706D01*
X115674500Y-92205500D01*
X116227500Y-92205500D01*
X116294539Y-92225185D01*
X116340294Y-92277989D01*
X116351500Y-92329500D01*
X116351500Y-92854678D01*
X116366032Y-92927735D01*
X116366033Y-92927739D01*
X116366034Y-92927740D01*
X116421399Y-93010601D01*
X116487046Y-93054464D01*
X116504260Y-93065966D01*
X116504264Y-93065967D01*
X116577321Y-93080499D01*
X116577324Y-93080500D01*
X116577326Y-93080500D01*
X118626676Y-93080500D01*
X118626677Y-93080499D01*
X118699740Y-93065966D01*
X118782601Y-93010601D01*
X118782603Y-93010597D01*
X118791237Y-93001965D01*
X118793883Y-93004611D01*
X118831002Y-92973586D01*
X118900326Y-92964873D01*
X118963356Y-92995023D01*
X119000079Y-93054464D01*
X119004500Y-93087278D01*
X119004500Y-95085100D01*
X118984815Y-95152139D01*
X118968181Y-95172781D01*
X118127028Y-96013933D01*
X118065705Y-96047418D01*
X117996013Y-96042434D01*
X117994554Y-96041879D01*
X117904461Y-96006977D01*
X117904456Y-96006976D01*
X117703976Y-95969500D01*
X117500024Y-95969500D01*
X117299544Y-96006976D01*
X117299541Y-96006976D01*
X117299541Y-96006977D01*
X117109364Y-96080651D01*
X117109357Y-96080655D01*
X116935960Y-96188017D01*
X116935958Y-96188019D01*
X116785237Y-96325418D01*
X116662327Y-96488178D01*
X116571422Y-96670739D01*
X116571417Y-96670752D01*
X116515602Y-96866917D01*
X116496785Y-97069999D01*
X116496785Y-97070000D01*
X116515602Y-97273082D01*
X116571417Y-97469247D01*
X116571422Y-97469260D01*
X116662327Y-97651821D01*
X116785237Y-97814581D01*
X116935958Y-97951980D01*
X116935960Y-97951982D01*
X117035141Y-98013392D01*
X117109363Y-98059348D01*
X117299544Y-98133024D01*
X117500024Y-98170500D01*
X117500026Y-98170500D01*
X117703974Y-98170500D01*
X117703976Y-98170500D01*
X117904456Y-98133024D01*
X118094637Y-98059348D01*
X118268041Y-97951981D01*
X118418764Y-97814579D01*
X118541673Y-97651821D01*
X118632582Y-97469250D01*
X118688397Y-97273083D01*
X118707215Y-97070000D01*
X118688397Y-96866917D01*
X118632582Y-96670750D01*
X118632581Y-96670748D01*
X118631013Y-96665237D01*
X118632994Y-96664673D01*
X118627902Y-96604174D01*
X118660614Y-96542435D01*
X118661621Y-96541414D01*
X119680475Y-95522563D01*
X119729911Y-95436937D01*
X119755500Y-95341436D01*
X119755500Y-95242564D01*
X119755500Y-82754565D01*
X119729910Y-82659062D01*
X119729908Y-82659059D01*
X119729908Y-82659057D01*
X119727432Y-82653079D01*
X119719965Y-82583610D01*
X119751241Y-82521131D01*
X119811330Y-82485480D01*
X119864773Y-82483740D01*
X120040024Y-82516500D01*
X120040026Y-82516500D01*
X120243974Y-82516500D01*
X120243976Y-82516500D01*
X120444456Y-82479024D01*
X120634637Y-82405348D01*
X120802224Y-82301582D01*
X120869583Y-82283027D01*
X120936282Y-82303835D01*
X120981144Y-82357401D01*
X120991500Y-82407010D01*
X120991500Y-95638100D01*
X120971815Y-95705139D01*
X120955181Y-95725781D01*
X120667028Y-96013933D01*
X120605705Y-96047418D01*
X120536013Y-96042434D01*
X120534554Y-96041879D01*
X120444461Y-96006977D01*
X120444456Y-96006976D01*
X120243976Y-95969500D01*
X120040024Y-95969500D01*
X119839544Y-96006976D01*
X119839541Y-96006976D01*
X119839541Y-96006977D01*
X119649364Y-96080651D01*
X119649357Y-96080655D01*
X119475960Y-96188017D01*
X119475958Y-96188019D01*
X119325237Y-96325418D01*
X119202327Y-96488178D01*
X119111422Y-96670739D01*
X119111417Y-96670752D01*
X119055602Y-96866917D01*
X119036785Y-97069999D01*
X119036785Y-97070000D01*
X119055602Y-97273082D01*
X119111417Y-97469247D01*
X119111422Y-97469260D01*
X119202327Y-97651821D01*
X119325237Y-97814581D01*
X119475958Y-97951980D01*
X119475960Y-97951982D01*
X119575141Y-98013392D01*
X119649363Y-98059348D01*
X119839544Y-98133024D01*
X120040024Y-98170500D01*
X120040026Y-98170500D01*
X120243974Y-98170500D01*
X120243976Y-98170500D01*
X120444456Y-98133024D01*
X120634637Y-98059348D01*
X120808041Y-97951981D01*
X120958764Y-97814579D01*
X121081673Y-97651821D01*
X121172582Y-97469250D01*
X121228397Y-97273083D01*
X121247215Y-97070000D01*
X121228397Y-96866917D01*
X121172582Y-96670750D01*
X121172581Y-96670748D01*
X121171013Y-96665237D01*
X121172994Y-96664673D01*
X121167902Y-96604174D01*
X121200614Y-96542435D01*
X121201621Y-96541414D01*
X121667475Y-96075562D01*
X121716911Y-95989937D01*
X121742500Y-95894436D01*
X121742500Y-95795564D01*
X121742500Y-80051565D01*
X121742500Y-80051562D01*
X121741027Y-80046065D01*
X121741027Y-80046066D01*
X121729554Y-80003249D01*
X121716911Y-79956063D01*
X121667475Y-79870438D01*
X121201709Y-79404672D01*
X121168224Y-79343349D01*
X121172666Y-79281234D01*
X121171013Y-79280764D01*
X121228397Y-79079082D01*
X121247215Y-78876000D01*
X121247215Y-78875999D01*
X121228397Y-78672917D01*
X121172582Y-78476750D01*
X121172581Y-78476748D01*
X121171013Y-78471237D01*
X121172994Y-78470673D01*
X121167902Y-78410174D01*
X121200614Y-78348435D01*
X121201621Y-78347414D01*
X121667475Y-77881562D01*
X121716911Y-77795937D01*
X121742500Y-77700436D01*
X121742500Y-77601564D01*
X121742500Y-68367565D01*
X121742500Y-68367562D01*
X121741027Y-68362065D01*
X121741027Y-68362066D01*
X121728968Y-68317062D01*
X121716911Y-68272063D01*
X121667475Y-68186438D01*
X121201708Y-67720671D01*
X121168224Y-67659349D01*
X121172666Y-67597234D01*
X121171013Y-67596764D01*
X121228397Y-67395082D01*
X121247215Y-67192000D01*
X121247215Y-67191999D01*
X121228397Y-66988917D01*
X121172582Y-66792750D01*
X121081673Y-66610179D01*
X121029603Y-66541227D01*
X121004911Y-66475865D01*
X121019476Y-66407531D01*
X121068674Y-66357918D01*
X121128557Y-66342500D01*
X121695443Y-66342500D01*
X121762482Y-66362185D01*
X121808237Y-66414989D01*
X121818181Y-66484147D01*
X121794397Y-66541227D01*
X121742327Y-66610178D01*
X121651422Y-66792739D01*
X121651417Y-66792752D01*
X121595602Y-66988917D01*
X121576785Y-67191999D01*
X121576785Y-67192000D01*
X121595602Y-67395082D01*
X121651417Y-67591247D01*
X121651422Y-67591260D01*
X121742327Y-67773821D01*
X121865237Y-67936581D01*
X122015958Y-68073980D01*
X122015960Y-68073982D01*
X122066901Y-68105523D01*
X122189363Y-68181348D01*
X122379544Y-68255024D01*
X122580024Y-68292500D01*
X122580026Y-68292500D01*
X122783974Y-68292500D01*
X122783976Y-68292500D01*
X122984456Y-68255024D01*
X123074556Y-68220118D01*
X123144174Y-68214256D01*
X123205914Y-68246965D01*
X123207027Y-68248064D01*
X123495181Y-68536218D01*
X123528666Y-68597541D01*
X123531500Y-68623899D01*
X123531500Y-77444100D01*
X123511815Y-77511139D01*
X123495181Y-77531781D01*
X123207028Y-77819933D01*
X123145705Y-77853418D01*
X123076013Y-77848434D01*
X123074554Y-77847879D01*
X122984461Y-77812977D01*
X122984456Y-77812976D01*
X122783976Y-77775500D01*
X122580024Y-77775500D01*
X122379544Y-77812976D01*
X122379541Y-77812976D01*
X122379541Y-77812977D01*
X122189364Y-77886651D01*
X122189357Y-77886655D01*
X122015960Y-77994017D01*
X122015958Y-77994019D01*
X121865237Y-78131418D01*
X121742327Y-78294178D01*
X121651422Y-78476739D01*
X121651417Y-78476752D01*
X121595602Y-78672917D01*
X121576785Y-78875999D01*
X121576785Y-78876000D01*
X121595602Y-79079082D01*
X121651417Y-79275247D01*
X121651422Y-79275260D01*
X121742327Y-79457821D01*
X121865237Y-79620581D01*
X122015958Y-79757980D01*
X122015960Y-79757982D01*
X122115141Y-79819392D01*
X122189363Y-79865348D01*
X122379544Y-79939024D01*
X122580024Y-79976500D01*
X122580026Y-79976500D01*
X122783974Y-79976500D01*
X122783976Y-79976500D01*
X122984456Y-79939024D01*
X123074556Y-79904118D01*
X123144174Y-79898256D01*
X123205914Y-79930965D01*
X123207027Y-79932064D01*
X123495181Y-80220218D01*
X123528666Y-80281541D01*
X123531500Y-80307899D01*
X123531500Y-95638100D01*
X123511815Y-95705139D01*
X123495181Y-95725781D01*
X123207028Y-96013933D01*
X123145705Y-96047418D01*
X123076013Y-96042434D01*
X123074554Y-96041879D01*
X122984461Y-96006977D01*
X122984456Y-96006976D01*
X122783976Y-95969500D01*
X122580024Y-95969500D01*
X122379544Y-96006976D01*
X122379541Y-96006976D01*
X122379541Y-96006977D01*
X122189364Y-96080651D01*
X122189357Y-96080655D01*
X122015960Y-96188017D01*
X122015958Y-96188019D01*
X121865237Y-96325418D01*
X121742327Y-96488178D01*
X121651422Y-96670739D01*
X121651417Y-96670752D01*
X121595602Y-96866917D01*
X121576785Y-97069999D01*
X121576785Y-97070000D01*
X121595602Y-97273082D01*
X121651417Y-97469247D01*
X121651422Y-97469260D01*
X121742327Y-97651821D01*
X121865237Y-97814581D01*
X122015958Y-97951980D01*
X122015960Y-97951982D01*
X122115141Y-98013392D01*
X122189363Y-98059348D01*
X122379544Y-98133024D01*
X122580024Y-98170500D01*
X122580026Y-98170500D01*
X122783974Y-98170500D01*
X122783976Y-98170500D01*
X122984456Y-98133024D01*
X123174637Y-98059348D01*
X123348041Y-97951981D01*
X123498764Y-97814579D01*
X123621673Y-97651821D01*
X123712582Y-97469250D01*
X123768397Y-97273083D01*
X123787215Y-97070000D01*
X123768397Y-96866917D01*
X123712582Y-96670750D01*
X123712581Y-96670748D01*
X123711013Y-96665237D01*
X123712994Y-96664673D01*
X123707902Y-96604174D01*
X123740614Y-96542435D01*
X123741621Y-96541414D01*
X124207475Y-96075562D01*
X124256911Y-95989937D01*
X124282500Y-95894436D01*
X124282500Y-95795564D01*
X124282500Y-80051565D01*
X124282500Y-80051562D01*
X124281027Y-80046065D01*
X124281027Y-80046066D01*
X124269554Y-80003249D01*
X124256911Y-79956063D01*
X124207475Y-79870438D01*
X123741709Y-79404672D01*
X123708224Y-79343349D01*
X123712666Y-79281234D01*
X123711013Y-79280764D01*
X123768397Y-79079082D01*
X123787215Y-78876000D01*
X123787215Y-78875999D01*
X123768397Y-78672917D01*
X123712582Y-78476750D01*
X123712581Y-78476748D01*
X123711013Y-78471237D01*
X123712994Y-78470673D01*
X123707902Y-78410174D01*
X123740614Y-78348435D01*
X123741621Y-78347414D01*
X124207475Y-77881562D01*
X124256911Y-77795937D01*
X124282500Y-77700436D01*
X124282500Y-77601564D01*
X124282500Y-68367565D01*
X124282500Y-68367562D01*
X124281027Y-68362065D01*
X124281027Y-68362066D01*
X124268968Y-68317062D01*
X124256911Y-68272063D01*
X124207475Y-68186438D01*
X123741708Y-67720671D01*
X123708224Y-67659349D01*
X123712666Y-67597234D01*
X123711013Y-67596764D01*
X123768397Y-67395082D01*
X123787215Y-67192000D01*
X123787215Y-67191999D01*
X123768397Y-66988917D01*
X123712582Y-66792750D01*
X123621673Y-66610179D01*
X123569603Y-66541227D01*
X123544911Y-66475865D01*
X123559476Y-66407531D01*
X123608674Y-66357918D01*
X123668557Y-66342500D01*
X124235443Y-66342500D01*
X124302482Y-66362185D01*
X124348237Y-66414989D01*
X124358181Y-66484147D01*
X124334397Y-66541227D01*
X124282327Y-66610178D01*
X124191422Y-66792739D01*
X124191417Y-66792752D01*
X124135602Y-66988917D01*
X124116785Y-67191999D01*
X124116785Y-67192000D01*
X124135602Y-67395082D01*
X124191417Y-67591247D01*
X124191422Y-67591260D01*
X124282327Y-67773821D01*
X124405237Y-67936581D01*
X124555958Y-68073980D01*
X124555960Y-68073982D01*
X124606901Y-68105523D01*
X124729363Y-68181348D01*
X124919544Y-68255024D01*
X125120024Y-68292500D01*
X125120026Y-68292500D01*
X125323974Y-68292500D01*
X125323976Y-68292500D01*
X125524456Y-68255024D01*
X125614556Y-68220118D01*
X125684174Y-68214256D01*
X125745914Y-68246965D01*
X125747027Y-68248064D01*
X126035181Y-68536218D01*
X126068666Y-68597541D01*
X126071500Y-68623899D01*
X126071500Y-77444100D01*
X126051815Y-77511139D01*
X126035181Y-77531781D01*
X125747028Y-77819933D01*
X125685705Y-77853418D01*
X125616013Y-77848434D01*
X125614554Y-77847879D01*
X125524461Y-77812977D01*
X125524456Y-77812976D01*
X125323976Y-77775500D01*
X125120024Y-77775500D01*
X124919544Y-77812976D01*
X124919541Y-77812976D01*
X124919541Y-77812977D01*
X124729364Y-77886651D01*
X124729357Y-77886655D01*
X124555960Y-77994017D01*
X124555958Y-77994019D01*
X124405237Y-78131418D01*
X124282327Y-78294178D01*
X124191422Y-78476739D01*
X124191417Y-78476752D01*
X124135602Y-78672917D01*
X124116785Y-78875999D01*
X124116785Y-78876000D01*
X124135602Y-79079082D01*
X124191417Y-79275247D01*
X124191422Y-79275260D01*
X124282327Y-79457821D01*
X124405237Y-79620581D01*
X124555958Y-79757980D01*
X124555960Y-79757982D01*
X124655141Y-79819392D01*
X124729363Y-79865348D01*
X124919544Y-79939024D01*
X125120024Y-79976500D01*
X125120026Y-79976500D01*
X125323974Y-79976500D01*
X125323976Y-79976500D01*
X125524456Y-79939024D01*
X125614556Y-79904118D01*
X125684174Y-79898256D01*
X125745914Y-79930965D01*
X125747027Y-79932064D01*
X126035181Y-80220218D01*
X126068666Y-80281541D01*
X126071500Y-80307899D01*
X126071500Y-95638100D01*
X126051815Y-95705139D01*
X126035181Y-95725781D01*
X125747028Y-96013933D01*
X125685705Y-96047418D01*
X125616013Y-96042434D01*
X125614554Y-96041879D01*
X125524461Y-96006977D01*
X125524456Y-96006976D01*
X125323976Y-95969500D01*
X125120024Y-95969500D01*
X124919544Y-96006976D01*
X124919541Y-96006976D01*
X124919541Y-96006977D01*
X124729364Y-96080651D01*
X124729357Y-96080655D01*
X124555960Y-96188017D01*
X124555958Y-96188019D01*
X124405237Y-96325418D01*
X124282327Y-96488178D01*
X124191422Y-96670739D01*
X124191417Y-96670752D01*
X124135602Y-96866917D01*
X124116785Y-97069999D01*
X124116785Y-97070000D01*
X124135602Y-97273082D01*
X124191417Y-97469247D01*
X124191422Y-97469260D01*
X124282327Y-97651821D01*
X124405237Y-97814581D01*
X124555958Y-97951980D01*
X124555960Y-97951982D01*
X124655141Y-98013392D01*
X124729363Y-98059348D01*
X124919544Y-98133024D01*
X125120024Y-98170500D01*
X125120026Y-98170500D01*
X125323974Y-98170500D01*
X125323976Y-98170500D01*
X125524456Y-98133024D01*
X125714637Y-98059348D01*
X125888041Y-97951981D01*
X126038764Y-97814579D01*
X126161673Y-97651821D01*
X126252582Y-97469250D01*
X126308397Y-97273083D01*
X126327215Y-97070000D01*
X126308397Y-96866917D01*
X126252582Y-96670750D01*
X126252581Y-96670748D01*
X126251013Y-96665237D01*
X126252994Y-96664673D01*
X126247902Y-96604174D01*
X126280614Y-96542435D01*
X126281621Y-96541414D01*
X126747475Y-96075562D01*
X126796911Y-95989937D01*
X126822500Y-95894436D01*
X126822500Y-95795564D01*
X126822500Y-80051565D01*
X126822500Y-80051562D01*
X126821027Y-80046065D01*
X126821027Y-80046066D01*
X126809554Y-80003249D01*
X126796911Y-79956063D01*
X126747475Y-79870438D01*
X126281709Y-79404672D01*
X126248224Y-79343349D01*
X126252666Y-79281234D01*
X126251013Y-79280764D01*
X126308397Y-79079082D01*
X126327215Y-78876000D01*
X126327215Y-78875999D01*
X126308397Y-78672917D01*
X126252582Y-78476750D01*
X126252581Y-78476748D01*
X126251013Y-78471237D01*
X126252994Y-78470673D01*
X126247902Y-78410174D01*
X126280614Y-78348435D01*
X126281621Y-78347414D01*
X126747475Y-77881562D01*
X126796911Y-77795937D01*
X126822500Y-77700436D01*
X126822500Y-77601564D01*
X126822500Y-68367565D01*
X126822500Y-68367562D01*
X126821027Y-68362065D01*
X126821027Y-68362066D01*
X126808968Y-68317062D01*
X126796911Y-68272063D01*
X126747475Y-68186438D01*
X126281708Y-67720671D01*
X126248224Y-67659349D01*
X126252666Y-67597234D01*
X126251013Y-67596764D01*
X126308397Y-67395082D01*
X126327215Y-67192000D01*
X126327215Y-67191999D01*
X126308397Y-66988917D01*
X126252582Y-66792750D01*
X126161673Y-66610179D01*
X126109603Y-66541227D01*
X126084911Y-66475865D01*
X126099476Y-66407531D01*
X126148674Y-66357918D01*
X126208557Y-66342500D01*
X126775443Y-66342500D01*
X126842482Y-66362185D01*
X126888237Y-66414989D01*
X126898181Y-66484147D01*
X126874397Y-66541227D01*
X126822327Y-66610178D01*
X126731422Y-66792739D01*
X126731417Y-66792752D01*
X126675602Y-66988917D01*
X126656785Y-67191999D01*
X126656785Y-67192000D01*
X126675602Y-67395082D01*
X126731417Y-67591247D01*
X126731422Y-67591260D01*
X126822327Y-67773821D01*
X126945237Y-67936581D01*
X127095958Y-68073980D01*
X127095960Y-68073982D01*
X127146901Y-68105523D01*
X127269363Y-68181348D01*
X127459544Y-68255024D01*
X127660024Y-68292500D01*
X127660026Y-68292500D01*
X127863974Y-68292500D01*
X127863976Y-68292500D01*
X128064456Y-68255024D01*
X128154556Y-68220118D01*
X128224174Y-68214256D01*
X128285914Y-68246965D01*
X128287027Y-68248064D01*
X128575181Y-68536218D01*
X128608666Y-68597541D01*
X128611500Y-68623899D01*
X128611500Y-77444100D01*
X128591815Y-77511139D01*
X128575181Y-77531781D01*
X128287028Y-77819933D01*
X128225705Y-77853418D01*
X128156013Y-77848434D01*
X128154554Y-77847879D01*
X128064461Y-77812977D01*
X128064456Y-77812976D01*
X127863976Y-77775500D01*
X127660024Y-77775500D01*
X127459544Y-77812976D01*
X127459541Y-77812976D01*
X127459541Y-77812977D01*
X127269364Y-77886651D01*
X127269357Y-77886655D01*
X127095960Y-77994017D01*
X127095958Y-77994019D01*
X126945237Y-78131418D01*
X126822327Y-78294178D01*
X126731422Y-78476739D01*
X126731417Y-78476752D01*
X126675602Y-78672917D01*
X126656785Y-78875999D01*
X126656785Y-78876000D01*
X126675602Y-79079082D01*
X126731417Y-79275247D01*
X126731422Y-79275260D01*
X126822327Y-79457821D01*
X126945237Y-79620581D01*
X127095958Y-79757980D01*
X127095960Y-79757982D01*
X127195141Y-79819392D01*
X127269363Y-79865348D01*
X127459544Y-79939024D01*
X127660024Y-79976500D01*
X127660026Y-79976500D01*
X127863974Y-79976500D01*
X127863976Y-79976500D01*
X128064456Y-79939024D01*
X128154556Y-79904118D01*
X128224174Y-79898256D01*
X128285914Y-79930965D01*
X128287027Y-79932064D01*
X128575181Y-80220218D01*
X128608666Y-80281541D01*
X128611500Y-80307899D01*
X128611500Y-95638100D01*
X128591815Y-95705139D01*
X128575181Y-95725781D01*
X128287028Y-96013933D01*
X128225705Y-96047418D01*
X128156013Y-96042434D01*
X128154554Y-96041879D01*
X128064461Y-96006977D01*
X128064456Y-96006976D01*
X127863976Y-95969500D01*
X127660024Y-95969500D01*
X127459544Y-96006976D01*
X127459541Y-96006976D01*
X127459541Y-96006977D01*
X127269364Y-96080651D01*
X127269357Y-96080655D01*
X127095960Y-96188017D01*
X127095958Y-96188019D01*
X126945237Y-96325418D01*
X126822327Y-96488178D01*
X126731422Y-96670739D01*
X126731417Y-96670752D01*
X126675602Y-96866917D01*
X126656785Y-97069999D01*
X126656785Y-97070000D01*
X126675602Y-97273082D01*
X126731417Y-97469247D01*
X126731422Y-97469260D01*
X126822327Y-97651821D01*
X126945237Y-97814581D01*
X127095958Y-97951980D01*
X127095960Y-97951982D01*
X127195141Y-98013392D01*
X127269363Y-98059348D01*
X127459544Y-98133024D01*
X127660024Y-98170500D01*
X127660026Y-98170500D01*
X127863974Y-98170500D01*
X127863976Y-98170500D01*
X128064456Y-98133024D01*
X128254637Y-98059348D01*
X128428041Y-97951981D01*
X128578764Y-97814579D01*
X128701673Y-97651821D01*
X128792582Y-97469250D01*
X128848397Y-97273083D01*
X128867215Y-97070000D01*
X128848397Y-96866917D01*
X128792582Y-96670750D01*
X128792581Y-96670748D01*
X128791013Y-96665237D01*
X128792994Y-96664673D01*
X128787902Y-96604174D01*
X128820614Y-96542435D01*
X128821621Y-96541414D01*
X129287475Y-96075562D01*
X129336911Y-95989937D01*
X129362500Y-95894436D01*
X129362500Y-95795564D01*
X129362500Y-82329523D01*
X129382185Y-82262484D01*
X129434989Y-82216729D01*
X129504147Y-82206785D01*
X129567703Y-82235810D01*
X129569993Y-82237845D01*
X129635959Y-82297981D01*
X129635961Y-82297982D01*
X129635962Y-82297983D01*
X129681854Y-82326398D01*
X129809363Y-82405348D01*
X129999544Y-82479024D01*
X130200024Y-82516500D01*
X130200026Y-82516500D01*
X130403974Y-82516500D01*
X130403976Y-82516500D01*
X130604456Y-82479024D01*
X130794637Y-82405348D01*
X130968041Y-82297981D01*
X131118764Y-82160579D01*
X131241673Y-81997821D01*
X131332582Y-81815250D01*
X131388397Y-81619083D01*
X131407215Y-81416000D01*
X131388397Y-81212917D01*
X131332582Y-81016750D01*
X131241673Y-80834179D01*
X131118764Y-80671421D01*
X131118762Y-80671418D01*
X130968041Y-80534019D01*
X130968039Y-80534017D01*
X130794642Y-80426655D01*
X130794635Y-80426651D01*
X130652378Y-80371541D01*
X130604456Y-80352976D01*
X130403976Y-80315500D01*
X130200024Y-80315500D01*
X129999544Y-80352976D01*
X129999541Y-80352976D01*
X129999541Y-80352977D01*
X129809364Y-80426651D01*
X129809357Y-80426655D01*
X129635960Y-80534017D01*
X129635957Y-80534019D01*
X129570038Y-80594113D01*
X129507234Y-80624730D01*
X129437847Y-80616532D01*
X129383907Y-80572122D01*
X129362539Y-80505600D01*
X129362500Y-80502476D01*
X129362500Y-80051562D01*
X129361027Y-80046065D01*
X129361027Y-80046066D01*
X129349554Y-80003249D01*
X129336911Y-79956063D01*
X129287475Y-79870438D01*
X128821709Y-79404672D01*
X128788224Y-79343349D01*
X128792666Y-79281234D01*
X128791013Y-79280764D01*
X128848397Y-79079082D01*
X128867215Y-78876000D01*
X128867215Y-78875999D01*
X128848397Y-78672917D01*
X128792582Y-78476750D01*
X128792581Y-78476748D01*
X128791013Y-78471237D01*
X128792994Y-78470673D01*
X128787902Y-78410174D01*
X128820614Y-78348435D01*
X128821621Y-78347414D01*
X129287475Y-77881562D01*
X129336911Y-77795937D01*
X129362500Y-77700436D01*
X129362500Y-77601564D01*
X129362500Y-70645523D01*
X129382185Y-70578484D01*
X129434989Y-70532729D01*
X129504147Y-70522785D01*
X129567703Y-70551810D01*
X129569993Y-70553845D01*
X129635959Y-70613981D01*
X129635961Y-70613982D01*
X129635962Y-70613983D01*
X129686901Y-70645523D01*
X129809363Y-70721348D01*
X129999544Y-70795024D01*
X130200024Y-70832500D01*
X130200026Y-70832500D01*
X130403974Y-70832500D01*
X130403976Y-70832500D01*
X130604456Y-70795024D01*
X130794637Y-70721348D01*
X130968041Y-70613981D01*
X131118764Y-70476579D01*
X131241673Y-70313821D01*
X131332582Y-70131250D01*
X131388397Y-69935083D01*
X131407215Y-69732000D01*
X131388397Y-69528917D01*
X131332582Y-69332750D01*
X131241673Y-69150179D01*
X131118764Y-68987421D01*
X131118762Y-68987418D01*
X130968041Y-68850019D01*
X130968039Y-68850017D01*
X130794642Y-68742655D01*
X130794635Y-68742651D01*
X130622414Y-68675933D01*
X130604456Y-68668976D01*
X130403976Y-68631500D01*
X130200024Y-68631500D01*
X129999544Y-68668976D01*
X129999541Y-68668976D01*
X129999541Y-68668977D01*
X129809364Y-68742651D01*
X129809357Y-68742655D01*
X129635960Y-68850017D01*
X129635957Y-68850019D01*
X129570038Y-68910113D01*
X129507234Y-68940730D01*
X129437847Y-68932532D01*
X129383907Y-68888122D01*
X129362539Y-68821600D01*
X129362500Y-68818476D01*
X129362500Y-68367562D01*
X129361027Y-68362065D01*
X129361027Y-68362066D01*
X129348968Y-68317062D01*
X129336911Y-68272063D01*
X129287475Y-68186438D01*
X128821708Y-67720671D01*
X128788224Y-67659349D01*
X128792666Y-67597234D01*
X128791013Y-67596764D01*
X128848397Y-67395082D01*
X128867215Y-67192000D01*
X128867215Y-67191999D01*
X128848397Y-66988917D01*
X128792582Y-66792750D01*
X128701673Y-66610179D01*
X128649603Y-66541227D01*
X128624911Y-66475865D01*
X128639476Y-66407531D01*
X128688674Y-66357918D01*
X128748557Y-66342500D01*
X131855443Y-66342500D01*
X131922482Y-66362185D01*
X131968237Y-66414989D01*
X131978181Y-66484147D01*
X131954397Y-66541227D01*
X131902327Y-66610178D01*
X131811422Y-66792739D01*
X131811417Y-66792752D01*
X131755602Y-66988917D01*
X131736785Y-67191999D01*
X131736785Y-67192000D01*
X131755602Y-67395082D01*
X131811417Y-67591247D01*
X131811422Y-67591260D01*
X131902327Y-67773821D01*
X132025237Y-67936581D01*
X132175958Y-68073980D01*
X132175960Y-68073982D01*
X132226901Y-68105523D01*
X132349363Y-68181348D01*
X132539544Y-68255024D01*
X132740024Y-68292500D01*
X132740026Y-68292500D01*
X132943974Y-68292500D01*
X132943976Y-68292500D01*
X133144456Y-68255024D01*
X133234556Y-68220118D01*
X133304174Y-68214256D01*
X133365914Y-68246965D01*
X133367027Y-68248064D01*
X133655181Y-68536218D01*
X133688666Y-68597541D01*
X133691500Y-68623899D01*
X133691500Y-68740989D01*
X133671815Y-68808028D01*
X133619011Y-68853783D01*
X133549853Y-68863727D01*
X133502223Y-68846416D01*
X133334642Y-68742655D01*
X133334635Y-68742651D01*
X133162414Y-68675933D01*
X133144456Y-68668976D01*
X132943976Y-68631500D01*
X132740024Y-68631500D01*
X132539544Y-68668976D01*
X132539541Y-68668976D01*
X132539541Y-68668977D01*
X132349364Y-68742651D01*
X132349357Y-68742655D01*
X132175960Y-68850017D01*
X132175958Y-68850019D01*
X132025237Y-68987418D01*
X131902327Y-69150178D01*
X131811422Y-69332739D01*
X131811417Y-69332752D01*
X131755602Y-69528917D01*
X131736785Y-69731999D01*
X131736785Y-69732000D01*
X131755602Y-69935082D01*
X131811417Y-70131247D01*
X131811422Y-70131260D01*
X131902327Y-70313821D01*
X132025237Y-70476581D01*
X132175958Y-70613980D01*
X132175960Y-70613982D01*
X132226901Y-70645523D01*
X132349363Y-70721348D01*
X132539544Y-70795024D01*
X132740024Y-70832500D01*
X132740026Y-70832500D01*
X132943974Y-70832500D01*
X132943976Y-70832500D01*
X133144456Y-70795024D01*
X133334637Y-70721348D01*
X133502224Y-70617582D01*
X133569583Y-70599027D01*
X133636282Y-70619835D01*
X133681144Y-70673401D01*
X133691500Y-70723010D01*
X133691500Y-77444100D01*
X133671815Y-77511139D01*
X133655181Y-77531781D01*
X133367028Y-77819933D01*
X133305705Y-77853418D01*
X133236013Y-77848434D01*
X133234554Y-77847879D01*
X133144461Y-77812977D01*
X133144456Y-77812976D01*
X132943976Y-77775500D01*
X132740024Y-77775500D01*
X132539544Y-77812976D01*
X132539541Y-77812976D01*
X132539541Y-77812977D01*
X132349364Y-77886651D01*
X132349357Y-77886655D01*
X132175960Y-77994017D01*
X132175958Y-77994019D01*
X132025237Y-78131418D01*
X131902327Y-78294178D01*
X131811422Y-78476739D01*
X131811417Y-78476752D01*
X131755602Y-78672917D01*
X131736785Y-78875999D01*
X131736785Y-78876000D01*
X131755602Y-79079082D01*
X131811417Y-79275247D01*
X131811422Y-79275260D01*
X131902327Y-79457821D01*
X132025237Y-79620581D01*
X132175958Y-79757980D01*
X132175960Y-79757982D01*
X132275141Y-79819392D01*
X132349363Y-79865348D01*
X132539544Y-79939024D01*
X132740024Y-79976500D01*
X132740026Y-79976500D01*
X132943974Y-79976500D01*
X132943976Y-79976500D01*
X133144456Y-79939024D01*
X133234556Y-79904118D01*
X133304174Y-79898256D01*
X133365914Y-79930965D01*
X133367027Y-79932064D01*
X133655181Y-80220218D01*
X133688666Y-80281541D01*
X133691500Y-80307899D01*
X133691500Y-80424989D01*
X133671815Y-80492028D01*
X133619011Y-80537783D01*
X133549853Y-80547727D01*
X133502223Y-80530416D01*
X133334642Y-80426655D01*
X133334635Y-80426651D01*
X133192378Y-80371541D01*
X133144456Y-80352976D01*
X132943976Y-80315500D01*
X132740024Y-80315500D01*
X132539544Y-80352976D01*
X132539541Y-80352976D01*
X132539541Y-80352977D01*
X132349364Y-80426651D01*
X132349357Y-80426655D01*
X132175960Y-80534017D01*
X132175958Y-80534019D01*
X132025237Y-80671418D01*
X131902327Y-80834178D01*
X131811422Y-81016739D01*
X131811417Y-81016752D01*
X131755602Y-81212917D01*
X131736785Y-81415999D01*
X131736785Y-81416000D01*
X131755602Y-81619082D01*
X131811417Y-81815247D01*
X131811422Y-81815260D01*
X131902327Y-81997821D01*
X132025237Y-82160581D01*
X132175958Y-82297980D01*
X132175960Y-82297982D01*
X132221854Y-82326398D01*
X132349363Y-82405348D01*
X132539544Y-82479024D01*
X132740024Y-82516500D01*
X132740026Y-82516500D01*
X132943974Y-82516500D01*
X132943976Y-82516500D01*
X133144456Y-82479024D01*
X133334637Y-82405348D01*
X133502224Y-82301582D01*
X133569583Y-82283027D01*
X133636282Y-82303835D01*
X133681144Y-82357401D01*
X133691500Y-82407010D01*
X133691500Y-95638100D01*
X133671815Y-95705139D01*
X133655181Y-95725781D01*
X133367028Y-96013933D01*
X133305705Y-96047418D01*
X133236013Y-96042434D01*
X133234554Y-96041879D01*
X133144461Y-96006977D01*
X133144456Y-96006976D01*
X132943976Y-95969500D01*
X132740024Y-95969500D01*
X132539544Y-96006976D01*
X132539541Y-96006976D01*
X132539541Y-96006977D01*
X132349364Y-96080651D01*
X132349357Y-96080655D01*
X132175960Y-96188017D01*
X132175958Y-96188019D01*
X132025237Y-96325418D01*
X131902327Y-96488178D01*
X131811422Y-96670739D01*
X131811417Y-96670752D01*
X131755602Y-96866917D01*
X131736785Y-97069999D01*
X131736785Y-97070000D01*
X131755602Y-97273082D01*
X131811417Y-97469247D01*
X131811422Y-97469260D01*
X131902327Y-97651821D01*
X132025237Y-97814581D01*
X132175958Y-97951980D01*
X132175960Y-97951982D01*
X132275141Y-98013392D01*
X132349363Y-98059348D01*
X132539544Y-98133024D01*
X132740024Y-98170500D01*
X132740026Y-98170500D01*
X132943974Y-98170500D01*
X132943976Y-98170500D01*
X133144456Y-98133024D01*
X133334637Y-98059348D01*
X133508041Y-97951981D01*
X133658764Y-97814579D01*
X133781673Y-97651821D01*
X133872582Y-97469250D01*
X133928397Y-97273083D01*
X133947215Y-97070000D01*
X133928397Y-96866917D01*
X133872582Y-96670750D01*
X133872581Y-96670748D01*
X133871013Y-96665237D01*
X133872994Y-96664673D01*
X133867902Y-96604174D01*
X133900614Y-96542435D01*
X133901621Y-96541414D01*
X134367475Y-96075562D01*
X134416911Y-95989937D01*
X134442500Y-95894436D01*
X134442500Y-95795564D01*
X134442500Y-82329523D01*
X134462185Y-82262484D01*
X134514989Y-82216729D01*
X134584147Y-82206785D01*
X134647703Y-82235810D01*
X134649993Y-82237845D01*
X134715959Y-82297981D01*
X134715961Y-82297982D01*
X134715962Y-82297983D01*
X134761854Y-82326398D01*
X134889363Y-82405348D01*
X135079544Y-82479024D01*
X135280024Y-82516500D01*
X135280026Y-82516500D01*
X135483974Y-82516500D01*
X135483976Y-82516500D01*
X135684456Y-82479024D01*
X135874637Y-82405348D01*
X136042224Y-82301582D01*
X136109583Y-82283027D01*
X136176282Y-82303835D01*
X136221144Y-82357401D01*
X136231500Y-82407010D01*
X136231500Y-95638100D01*
X136211815Y-95705139D01*
X136195181Y-95725781D01*
X135907028Y-96013933D01*
X135845705Y-96047418D01*
X135776013Y-96042434D01*
X135774554Y-96041879D01*
X135684461Y-96006977D01*
X135684456Y-96006976D01*
X135483976Y-95969500D01*
X135280024Y-95969500D01*
X135079544Y-96006976D01*
X135079541Y-96006976D01*
X135079541Y-96006977D01*
X134889364Y-96080651D01*
X134889357Y-96080655D01*
X134715960Y-96188017D01*
X134715958Y-96188019D01*
X134565237Y-96325418D01*
X134442327Y-96488178D01*
X134351422Y-96670739D01*
X134351417Y-96670752D01*
X134295602Y-96866917D01*
X134276785Y-97069999D01*
X134276785Y-97070000D01*
X134295602Y-97273082D01*
X134351417Y-97469247D01*
X134351422Y-97469260D01*
X134442327Y-97651821D01*
X134565237Y-97814581D01*
X134715958Y-97951980D01*
X134715960Y-97951982D01*
X134815141Y-98013392D01*
X134889363Y-98059348D01*
X135079544Y-98133024D01*
X135280024Y-98170500D01*
X135280026Y-98170500D01*
X135483974Y-98170500D01*
X135483976Y-98170500D01*
X135684456Y-98133024D01*
X135874637Y-98059348D01*
X136048041Y-97951981D01*
X136198764Y-97814579D01*
X136321673Y-97651821D01*
X136412582Y-97469250D01*
X136468397Y-97273083D01*
X136487215Y-97070000D01*
X136468397Y-96866917D01*
X136412582Y-96670750D01*
X136412581Y-96670748D01*
X136411013Y-96665237D01*
X136412994Y-96664673D01*
X136407902Y-96604174D01*
X136440614Y-96542435D01*
X136441621Y-96541414D01*
X136907475Y-96075562D01*
X136956911Y-95989937D01*
X136982500Y-95894436D01*
X136982500Y-95795564D01*
X136982500Y-82329523D01*
X137002185Y-82262484D01*
X137054989Y-82216729D01*
X137124147Y-82206785D01*
X137187703Y-82235810D01*
X137189993Y-82237845D01*
X137255959Y-82297981D01*
X137255961Y-82297982D01*
X137255962Y-82297983D01*
X137301854Y-82326398D01*
X137429363Y-82405348D01*
X137619544Y-82479024D01*
X137820024Y-82516500D01*
X137820026Y-82516500D01*
X138023974Y-82516500D01*
X138023976Y-82516500D01*
X138224456Y-82479024D01*
X138414637Y-82405348D01*
X138588041Y-82297981D01*
X138653963Y-82237884D01*
X138716765Y-82207269D01*
X138786153Y-82215466D01*
X138840093Y-82259876D01*
X138861461Y-82326398D01*
X138861500Y-82329523D01*
X138861500Y-95548100D01*
X138841815Y-95615139D01*
X138825181Y-95635781D01*
X138447028Y-96013933D01*
X138385705Y-96047418D01*
X138316013Y-96042434D01*
X138314554Y-96041879D01*
X138224461Y-96006977D01*
X138224456Y-96006976D01*
X138023976Y-95969500D01*
X137820024Y-95969500D01*
X137619544Y-96006976D01*
X137619541Y-96006976D01*
X137619541Y-96006977D01*
X137429364Y-96080651D01*
X137429357Y-96080655D01*
X137255960Y-96188017D01*
X137255958Y-96188019D01*
X137105237Y-96325418D01*
X136982327Y-96488178D01*
X136891422Y-96670739D01*
X136891417Y-96670752D01*
X136835602Y-96866917D01*
X136816785Y-97069999D01*
X136816785Y-97070000D01*
X136835602Y-97273082D01*
X136891417Y-97469247D01*
X136891422Y-97469260D01*
X136982327Y-97651821D01*
X137105237Y-97814581D01*
X137255958Y-97951980D01*
X137255960Y-97951982D01*
X137355141Y-98013392D01*
X137429363Y-98059348D01*
X137619544Y-98133024D01*
X137820024Y-98170500D01*
X137820026Y-98170500D01*
X138023974Y-98170500D01*
X138023976Y-98170500D01*
X138224456Y-98133024D01*
X138414637Y-98059348D01*
X138588041Y-97951981D01*
X138738764Y-97814579D01*
X138861673Y-97651821D01*
X138952582Y-97469250D01*
X139008397Y-97273083D01*
X139027215Y-97070000D01*
X139008397Y-96866917D01*
X138952582Y-96670750D01*
X138952581Y-96670748D01*
X138951013Y-96665237D01*
X138952994Y-96664673D01*
X138947902Y-96604174D01*
X138980614Y-96542435D01*
X138981615Y-96541421D01*
X139537475Y-95985563D01*
X139562192Y-95942750D01*
X139586910Y-95899938D01*
X139612500Y-95804435D01*
X139612500Y-82407010D01*
X139632185Y-82339971D01*
X139684989Y-82294216D01*
X139754147Y-82284272D01*
X139801774Y-82301581D01*
X139969363Y-82405348D01*
X140159544Y-82479024D01*
X140360024Y-82516500D01*
X140360026Y-82516500D01*
X140563974Y-82516500D01*
X140563976Y-82516500D01*
X140764456Y-82479024D01*
X140954637Y-82405348D01*
X141122224Y-82301582D01*
X141189583Y-82283027D01*
X141256282Y-82303835D01*
X141301144Y-82357401D01*
X141311500Y-82407010D01*
X141311500Y-95638100D01*
X141291815Y-95705139D01*
X141275181Y-95725781D01*
X140987028Y-96013933D01*
X140925705Y-96047418D01*
X140856013Y-96042434D01*
X140854554Y-96041879D01*
X140764461Y-96006977D01*
X140764456Y-96006976D01*
X140563976Y-95969500D01*
X140360024Y-95969500D01*
X140159544Y-96006976D01*
X140159541Y-96006976D01*
X140159541Y-96006977D01*
X139969364Y-96080651D01*
X139969357Y-96080655D01*
X139795960Y-96188017D01*
X139795958Y-96188019D01*
X139645237Y-96325418D01*
X139522327Y-96488178D01*
X139431422Y-96670739D01*
X139431417Y-96670752D01*
X139375602Y-96866917D01*
X139356785Y-97069999D01*
X139356785Y-97070000D01*
X139375602Y-97273082D01*
X139431417Y-97469247D01*
X139431422Y-97469260D01*
X139522327Y-97651821D01*
X139645237Y-97814581D01*
X139795958Y-97951980D01*
X139795960Y-97951982D01*
X139895141Y-98013392D01*
X139969363Y-98059348D01*
X140159544Y-98133024D01*
X140360024Y-98170500D01*
X140360026Y-98170500D01*
X140563974Y-98170500D01*
X140563976Y-98170500D01*
X140764456Y-98133024D01*
X140954637Y-98059348D01*
X141128041Y-97951981D01*
X141278764Y-97814579D01*
X141401673Y-97651821D01*
X141492582Y-97469250D01*
X141548397Y-97273083D01*
X141567215Y-97070000D01*
X141548397Y-96866917D01*
X141492582Y-96670750D01*
X141492581Y-96670748D01*
X141491013Y-96665237D01*
X141492994Y-96664673D01*
X141487902Y-96604174D01*
X141520614Y-96542435D01*
X141521621Y-96541414D01*
X141987475Y-96075562D01*
X142036911Y-95989937D01*
X142062500Y-95894436D01*
X142062500Y-95795564D01*
X142062500Y-82329523D01*
X142082185Y-82262484D01*
X142134989Y-82216729D01*
X142204147Y-82206785D01*
X142267703Y-82235810D01*
X142269993Y-82237845D01*
X142335959Y-82297981D01*
X142335961Y-82297982D01*
X142335962Y-82297983D01*
X142381854Y-82326398D01*
X142509363Y-82405348D01*
X142699544Y-82479024D01*
X142900024Y-82516500D01*
X142900026Y-82516500D01*
X143103974Y-82516500D01*
X143103976Y-82516500D01*
X143304456Y-82479024D01*
X143494637Y-82405348D01*
X143662224Y-82301582D01*
X143729583Y-82283027D01*
X143796282Y-82303835D01*
X143841144Y-82357401D01*
X143851500Y-82407010D01*
X143851500Y-95638100D01*
X143831815Y-95705139D01*
X143815181Y-95725781D01*
X143527028Y-96013933D01*
X143465705Y-96047418D01*
X143396013Y-96042434D01*
X143394554Y-96041879D01*
X143304461Y-96006977D01*
X143304456Y-96006976D01*
X143103976Y-95969500D01*
X142900024Y-95969500D01*
X142699544Y-96006976D01*
X142699541Y-96006976D01*
X142699541Y-96006977D01*
X142509364Y-96080651D01*
X142509357Y-96080655D01*
X142335960Y-96188017D01*
X142335958Y-96188019D01*
X142185237Y-96325418D01*
X142062327Y-96488178D01*
X141971422Y-96670739D01*
X141971417Y-96670752D01*
X141915602Y-96866917D01*
X141896785Y-97069999D01*
X141896785Y-97070000D01*
X141915602Y-97273082D01*
X141971417Y-97469247D01*
X141971422Y-97469260D01*
X142062327Y-97651821D01*
X142185237Y-97814581D01*
X142335958Y-97951980D01*
X142335960Y-97951982D01*
X142435141Y-98013392D01*
X142509363Y-98059348D01*
X142699544Y-98133024D01*
X142900024Y-98170500D01*
X142900026Y-98170500D01*
X143103974Y-98170500D01*
X143103976Y-98170500D01*
X143304456Y-98133024D01*
X143494637Y-98059348D01*
X143668041Y-97951981D01*
X143818764Y-97814579D01*
X143941673Y-97651821D01*
X144032582Y-97469250D01*
X144088397Y-97273083D01*
X144107215Y-97070000D01*
X144088397Y-96866917D01*
X144032582Y-96670750D01*
X144032581Y-96670748D01*
X144031013Y-96665237D01*
X144032994Y-96664673D01*
X144027902Y-96604174D01*
X144060614Y-96542435D01*
X144061621Y-96541414D01*
X144527475Y-96075562D01*
X144576911Y-95989937D01*
X144602500Y-95894436D01*
X144602500Y-95795564D01*
X144602500Y-82329523D01*
X144622185Y-82262484D01*
X144674989Y-82216729D01*
X144744147Y-82206785D01*
X144807703Y-82235810D01*
X144809993Y-82237845D01*
X144875959Y-82297981D01*
X144875961Y-82297982D01*
X144875962Y-82297983D01*
X144921854Y-82326398D01*
X145049363Y-82405348D01*
X145239544Y-82479024D01*
X145440024Y-82516500D01*
X145440026Y-82516500D01*
X145643974Y-82516500D01*
X145643976Y-82516500D01*
X145844456Y-82479024D01*
X146034637Y-82405348D01*
X146202224Y-82301582D01*
X146269583Y-82283027D01*
X146336282Y-82303835D01*
X146381144Y-82357401D01*
X146391500Y-82407010D01*
X146391500Y-95638100D01*
X146371815Y-95705139D01*
X146355181Y-95725781D01*
X146067028Y-96013933D01*
X146005705Y-96047418D01*
X145936013Y-96042434D01*
X145934554Y-96041879D01*
X145844461Y-96006977D01*
X145844456Y-96006976D01*
X145643976Y-95969500D01*
X145440024Y-95969500D01*
X145239544Y-96006976D01*
X145239541Y-96006976D01*
X145239541Y-96006977D01*
X145049364Y-96080651D01*
X145049357Y-96080655D01*
X144875960Y-96188017D01*
X144875958Y-96188019D01*
X144725237Y-96325418D01*
X144602327Y-96488178D01*
X144511422Y-96670739D01*
X144511417Y-96670752D01*
X144455602Y-96866917D01*
X144436785Y-97069999D01*
X144436785Y-97070000D01*
X144455602Y-97273082D01*
X144511417Y-97469247D01*
X144511422Y-97469260D01*
X144602327Y-97651821D01*
X144725237Y-97814581D01*
X144875958Y-97951980D01*
X144875960Y-97951982D01*
X144975141Y-98013392D01*
X145049363Y-98059348D01*
X145239544Y-98133024D01*
X145440024Y-98170500D01*
X145440026Y-98170500D01*
X145643974Y-98170500D01*
X145643976Y-98170500D01*
X145844456Y-98133024D01*
X146034637Y-98059348D01*
X146208041Y-97951981D01*
X146358764Y-97814579D01*
X146481673Y-97651821D01*
X146572582Y-97469250D01*
X146628397Y-97273083D01*
X146647215Y-97070000D01*
X146628397Y-96866917D01*
X146572582Y-96670750D01*
X146572581Y-96670748D01*
X146571013Y-96665237D01*
X146572994Y-96664673D01*
X146567902Y-96604174D01*
X146600614Y-96542435D01*
X146601621Y-96541414D01*
X147067475Y-96075562D01*
X147116911Y-95989937D01*
X147142500Y-95894436D01*
X147142500Y-95795564D01*
X147142500Y-82329523D01*
X147162185Y-82262484D01*
X147214989Y-82216729D01*
X147284147Y-82206785D01*
X147347703Y-82235810D01*
X147349993Y-82237845D01*
X147415959Y-82297981D01*
X147415961Y-82297982D01*
X147415962Y-82297983D01*
X147461854Y-82326398D01*
X147589363Y-82405348D01*
X147779544Y-82479024D01*
X147980024Y-82516500D01*
X147980026Y-82516500D01*
X148183974Y-82516500D01*
X148183976Y-82516500D01*
X148384456Y-82479024D01*
X148574637Y-82405348D01*
X148742224Y-82301582D01*
X148809583Y-82283027D01*
X148876282Y-82303835D01*
X148921144Y-82357401D01*
X148931500Y-82407010D01*
X148931500Y-95638100D01*
X148911815Y-95705139D01*
X148895181Y-95725781D01*
X148607028Y-96013933D01*
X148545705Y-96047418D01*
X148476013Y-96042434D01*
X148474554Y-96041879D01*
X148384461Y-96006977D01*
X148384456Y-96006976D01*
X148183976Y-95969500D01*
X147980024Y-95969500D01*
X147779544Y-96006976D01*
X147779541Y-96006976D01*
X147779541Y-96006977D01*
X147589364Y-96080651D01*
X147589357Y-96080655D01*
X147415960Y-96188017D01*
X147415958Y-96188019D01*
X147265237Y-96325418D01*
X147142327Y-96488178D01*
X147051422Y-96670739D01*
X147051417Y-96670752D01*
X146995602Y-96866917D01*
X146976785Y-97069999D01*
X146976785Y-97070000D01*
X146995602Y-97273082D01*
X147051417Y-97469247D01*
X147051422Y-97469260D01*
X147142327Y-97651821D01*
X147265237Y-97814581D01*
X147415958Y-97951980D01*
X147415960Y-97951982D01*
X147515141Y-98013392D01*
X147589363Y-98059348D01*
X147779544Y-98133024D01*
X147980024Y-98170500D01*
X147980026Y-98170500D01*
X148183974Y-98170500D01*
X148183976Y-98170500D01*
X148384456Y-98133024D01*
X148574637Y-98059348D01*
X148748041Y-97951981D01*
X148898764Y-97814579D01*
X149021673Y-97651821D01*
X149112582Y-97469250D01*
X149168397Y-97273083D01*
X149187215Y-97070000D01*
X149168397Y-96866917D01*
X149112582Y-96670750D01*
X149112581Y-96670748D01*
X149111013Y-96665237D01*
X149112994Y-96664673D01*
X149107902Y-96604174D01*
X149140614Y-96542435D01*
X149141621Y-96541414D01*
X149607475Y-96075562D01*
X149656911Y-95989937D01*
X149682500Y-95894436D01*
X149682500Y-95795564D01*
X149682500Y-82329523D01*
X149702185Y-82262484D01*
X149754989Y-82216729D01*
X149824147Y-82206785D01*
X149887703Y-82235810D01*
X149889993Y-82237845D01*
X149955959Y-82297981D01*
X149955961Y-82297982D01*
X149955962Y-82297983D01*
X150001854Y-82326398D01*
X150129363Y-82405348D01*
X150319544Y-82479024D01*
X150520024Y-82516500D01*
X150520026Y-82516500D01*
X150723974Y-82516500D01*
X150723976Y-82516500D01*
X150924456Y-82479024D01*
X151114637Y-82405348D01*
X151282224Y-82301582D01*
X151349583Y-82283027D01*
X151416282Y-82303835D01*
X151461144Y-82357401D01*
X151471500Y-82407010D01*
X151471500Y-95638100D01*
X151451815Y-95705139D01*
X151435181Y-95725781D01*
X151147028Y-96013933D01*
X151085705Y-96047418D01*
X151016013Y-96042434D01*
X151014554Y-96041879D01*
X150924461Y-96006977D01*
X150924456Y-96006976D01*
X150723976Y-95969500D01*
X150520024Y-95969500D01*
X150319544Y-96006976D01*
X150319541Y-96006976D01*
X150319541Y-96006977D01*
X150129364Y-96080651D01*
X150129357Y-96080655D01*
X149955960Y-96188017D01*
X149955958Y-96188019D01*
X149805237Y-96325418D01*
X149682327Y-96488178D01*
X149591422Y-96670739D01*
X149591417Y-96670752D01*
X149535602Y-96866917D01*
X149516785Y-97069999D01*
X149516785Y-97070000D01*
X149535602Y-97273082D01*
X149591417Y-97469247D01*
X149591422Y-97469260D01*
X149682327Y-97651821D01*
X149805237Y-97814581D01*
X149955958Y-97951980D01*
X149955960Y-97951982D01*
X150055141Y-98013392D01*
X150129363Y-98059348D01*
X150319544Y-98133024D01*
X150520024Y-98170500D01*
X150520026Y-98170500D01*
X150723974Y-98170500D01*
X150723976Y-98170500D01*
X150924456Y-98133024D01*
X151114637Y-98059348D01*
X151288041Y-97951981D01*
X151438764Y-97814579D01*
X151561673Y-97651821D01*
X151652582Y-97469250D01*
X151708397Y-97273083D01*
X151727215Y-97070000D01*
X151708397Y-96866917D01*
X151652582Y-96670750D01*
X151652581Y-96670748D01*
X151651013Y-96665237D01*
X151652994Y-96664673D01*
X151647902Y-96604174D01*
X151680614Y-96542435D01*
X151681554Y-96541481D01*
X151849822Y-96373214D01*
X151911142Y-96339732D01*
X151980834Y-96344716D01*
X152036767Y-96386588D01*
X152061184Y-96452052D01*
X152061500Y-96460898D01*
X152061500Y-97717870D01*
X152061501Y-97717876D01*
X152067908Y-97777483D01*
X152118202Y-97912328D01*
X152118206Y-97912335D01*
X152204452Y-98027544D01*
X152204455Y-98027547D01*
X152319664Y-98113793D01*
X152319671Y-98113797D01*
X152454517Y-98164091D01*
X152454516Y-98164091D01*
X152461444Y-98164835D01*
X152514127Y-98170500D01*
X153809872Y-98170499D01*
X153869483Y-98164091D01*
X154004331Y-98113796D01*
X154119546Y-98027546D01*
X154205796Y-97912331D01*
X154256091Y-97777483D01*
X154262500Y-97717873D01*
X154262499Y-96551898D01*
X154282184Y-96484860D01*
X154298818Y-96464218D01*
X154437618Y-96325418D01*
X154687475Y-96075562D01*
X154736911Y-95989937D01*
X154762500Y-95894436D01*
X154762500Y-95795564D01*
X154762500Y-80051565D01*
X154762500Y-80051562D01*
X154761027Y-80046065D01*
X154761027Y-80046066D01*
X154749554Y-80003249D01*
X154736911Y-79956063D01*
X154687475Y-79870438D01*
X154298818Y-79481781D01*
X154265333Y-79420458D01*
X154262499Y-79394100D01*
X154262499Y-78357899D01*
X154282184Y-78290860D01*
X154298818Y-78270218D01*
X154437618Y-78131418D01*
X154687475Y-77881562D01*
X154736911Y-77795937D01*
X154762500Y-77700436D01*
X154762500Y-77601564D01*
X154762500Y-68367565D01*
X154762500Y-68367562D01*
X154761027Y-68362065D01*
X154761027Y-68362066D01*
X154748968Y-68317062D01*
X154736911Y-68272063D01*
X154687475Y-68186438D01*
X154298818Y-67797781D01*
X154265333Y-67736458D01*
X154262499Y-67710100D01*
X154262499Y-66544129D01*
X154262498Y-66544123D01*
X154256091Y-66484516D01*
X154205797Y-66349671D01*
X154205793Y-66349664D01*
X154119547Y-66234455D01*
X154119544Y-66234452D01*
X154004335Y-66148206D01*
X154004328Y-66148202D01*
X153869482Y-66097908D01*
X153869483Y-66097908D01*
X153809883Y-66091501D01*
X153809881Y-66091500D01*
X153809873Y-66091500D01*
X153809865Y-66091500D01*
X152643899Y-66091500D01*
X152576860Y-66071815D01*
X152556218Y-66055181D01*
X152167563Y-65666526D01*
X152167562Y-65666525D01*
X152081938Y-65617090D01*
X152034186Y-65604295D01*
X152034184Y-65604294D01*
X152034182Y-65604293D01*
X151986436Y-65591500D01*
X151986435Y-65591500D01*
X109524024Y-65591500D01*
X109425152Y-65591500D01*
X109377400Y-65604295D01*
X109377399Y-65604294D01*
X109329651Y-65617089D01*
X109329650Y-65617089D01*
X109244023Y-65666527D01*
X108447454Y-66463096D01*
X108386131Y-66496581D01*
X108316439Y-66491597D01*
X108262726Y-66451563D01*
X108262625Y-66451656D01*
X108262148Y-66451133D01*
X108260821Y-66450144D01*
X108258765Y-66447422D01*
X108258763Y-66447419D01*
X108108041Y-66310019D01*
X108108039Y-66310017D01*
X107934642Y-66202655D01*
X107934635Y-66202651D01*
X107839546Y-66165814D01*
X107744456Y-66128976D01*
X107543976Y-66091500D01*
X107340024Y-66091500D01*
X107139544Y-66128976D01*
X107139541Y-66128976D01*
X107139541Y-66128977D01*
X106949364Y-66202651D01*
X106949357Y-66202655D01*
X106775960Y-66310017D01*
X106775958Y-66310019D01*
X106625237Y-66447418D01*
X106502327Y-66610178D01*
X106411422Y-66792739D01*
X106411417Y-66792752D01*
X106355602Y-66988917D01*
X106336785Y-67191999D01*
X106336785Y-67192000D01*
X106355602Y-67395082D01*
X106411417Y-67591247D01*
X106411422Y-67591260D01*
X106502327Y-67773821D01*
X106625237Y-67936581D01*
X106775958Y-68073980D01*
X106775960Y-68073982D01*
X106826901Y-68105523D01*
X106949363Y-68181348D01*
X107139544Y-68255024D01*
X107340024Y-68292500D01*
X107340026Y-68292500D01*
X107543974Y-68292500D01*
X107543976Y-68292500D01*
X107744456Y-68255024D01*
X107934637Y-68181348D01*
X108102224Y-68077582D01*
X108169583Y-68059027D01*
X108236282Y-68079835D01*
X108281144Y-68133401D01*
X108291500Y-68183010D01*
X108291500Y-68300100D01*
X108271815Y-68367139D01*
X108255181Y-68387781D01*
X107967028Y-68675933D01*
X107905705Y-68709418D01*
X107836013Y-68704434D01*
X107834554Y-68703879D01*
X107744461Y-68668977D01*
X107744456Y-68668976D01*
X107543976Y-68631500D01*
X107340024Y-68631500D01*
X107139544Y-68668976D01*
X107139541Y-68668976D01*
X107139541Y-68668977D01*
X106949364Y-68742651D01*
X106949357Y-68742655D01*
X106775960Y-68850017D01*
X106775958Y-68850019D01*
X106625237Y-68987418D01*
X106502327Y-69150178D01*
X106411422Y-69332739D01*
X106411417Y-69332752D01*
X106355602Y-69528917D01*
X106336785Y-69731999D01*
X106336785Y-69732000D01*
X106355602Y-69935082D01*
X106411417Y-70131247D01*
X106411422Y-70131260D01*
X106502327Y-70313821D01*
X106625237Y-70476581D01*
X106775958Y-70613980D01*
X106775960Y-70613982D01*
X106826901Y-70645523D01*
X106949363Y-70721348D01*
X107139544Y-70795024D01*
X107340024Y-70832500D01*
X107340026Y-70832500D01*
X107543974Y-70832500D01*
X107543976Y-70832500D01*
X107744456Y-70795024D01*
X107934637Y-70721348D01*
X108108041Y-70613981D01*
X108258764Y-70476579D01*
X108381673Y-70313821D01*
X108472582Y-70131250D01*
X108528397Y-69935083D01*
X108547215Y-69732000D01*
X108528397Y-69528917D01*
X108472582Y-69332750D01*
X108472581Y-69332748D01*
X108471013Y-69327237D01*
X108472994Y-69326673D01*
X108467902Y-69266174D01*
X108500614Y-69204435D01*
X108501621Y-69203414D01*
X108967475Y-68737562D01*
X109016911Y-68651937D01*
X109042500Y-68556436D01*
X109042500Y-68457564D01*
X109042500Y-68105523D01*
X109062185Y-68038484D01*
X109114989Y-67992729D01*
X109184147Y-67982785D01*
X109247703Y-68011810D01*
X109249993Y-68013845D01*
X109315959Y-68073981D01*
X109315961Y-68073982D01*
X109315962Y-68073983D01*
X109366901Y-68105523D01*
X109489363Y-68181348D01*
X109679544Y-68255024D01*
X109880024Y-68292500D01*
X109880026Y-68292500D01*
X110083974Y-68292500D01*
X110083976Y-68292500D01*
X110284456Y-68255024D01*
X110374556Y-68220118D01*
X110444174Y-68214256D01*
X110505914Y-68246965D01*
X110507027Y-68248064D01*
X110795181Y-68536218D01*
X110828666Y-68597541D01*
X110831500Y-68623899D01*
X110831500Y-68740989D01*
X110811815Y-68808028D01*
X110759011Y-68853783D01*
X110689853Y-68863727D01*
X110642223Y-68846416D01*
X110474642Y-68742655D01*
X110474635Y-68742651D01*
X110302414Y-68675933D01*
X110284456Y-68668976D01*
X110083976Y-68631500D01*
X109880024Y-68631500D01*
X109679544Y-68668976D01*
X109679541Y-68668976D01*
X109679541Y-68668977D01*
X109489364Y-68742651D01*
X109489357Y-68742655D01*
X109315960Y-68850017D01*
X109315958Y-68850019D01*
X109165237Y-68987418D01*
X109042327Y-69150178D01*
X108951422Y-69332739D01*
X108951417Y-69332752D01*
X108895602Y-69528917D01*
X108876785Y-69731999D01*
X108876785Y-69732000D01*
X108895602Y-69935082D01*
X108951417Y-70131247D01*
X108951422Y-70131260D01*
X109042327Y-70313821D01*
X109165237Y-70476581D01*
X109315958Y-70613980D01*
X109315960Y-70613982D01*
X109366901Y-70645523D01*
X109489363Y-70721348D01*
X109679544Y-70795024D01*
X109880024Y-70832500D01*
X109880026Y-70832500D01*
X110083974Y-70832500D01*
X110083976Y-70832500D01*
X110284456Y-70795024D01*
X110474637Y-70721348D01*
X110642224Y-70617582D01*
X110709583Y-70599027D01*
X110776282Y-70619835D01*
X110821144Y-70673401D01*
X110831500Y-70723010D01*
X110831500Y-77444100D01*
X110811815Y-77511139D01*
X110795181Y-77531781D01*
X110507028Y-77819933D01*
X110445705Y-77853418D01*
X110376013Y-77848434D01*
X110374554Y-77847879D01*
X110284461Y-77812977D01*
X110284456Y-77812976D01*
X110083976Y-77775500D01*
X109880024Y-77775500D01*
X109679544Y-77812976D01*
X109679541Y-77812976D01*
X109679541Y-77812977D01*
X109489364Y-77886651D01*
X109489357Y-77886655D01*
X109315960Y-77994017D01*
X109315958Y-77994019D01*
X109165237Y-78131418D01*
X109042327Y-78294178D01*
X108951422Y-78476739D01*
X108951417Y-78476752D01*
X108895602Y-78672917D01*
X108876785Y-78875999D01*
X108876785Y-78876000D01*
X108895602Y-79079082D01*
X108951417Y-79275247D01*
X108951422Y-79275260D01*
X109042327Y-79457821D01*
X109165237Y-79620581D01*
X109315958Y-79757980D01*
X109315960Y-79757982D01*
X109415141Y-79819392D01*
X109489363Y-79865348D01*
X109679544Y-79939024D01*
X109880024Y-79976500D01*
X109880026Y-79976500D01*
X110083974Y-79976500D01*
X110083976Y-79976500D01*
X110284456Y-79939024D01*
X110374556Y-79904118D01*
X110444174Y-79898256D01*
X110505914Y-79930965D01*
X110507027Y-79932064D01*
X110795181Y-80220218D01*
X110828666Y-80281541D01*
X110831500Y-80307899D01*
X110831500Y-80424989D01*
X110811815Y-80492028D01*
X110759011Y-80537783D01*
X110689853Y-80547727D01*
X110642223Y-80530416D01*
X110474642Y-80426655D01*
X110474635Y-80426651D01*
X110332378Y-80371541D01*
X110284456Y-80352976D01*
X110083976Y-80315500D01*
X109880024Y-80315500D01*
X109679544Y-80352976D01*
X109679541Y-80352976D01*
X109679541Y-80352977D01*
X109489364Y-80426651D01*
X109489357Y-80426655D01*
X109315960Y-80534017D01*
X109315957Y-80534019D01*
X109250038Y-80594113D01*
X109187234Y-80624730D01*
X109117847Y-80616532D01*
X109063907Y-80572122D01*
X109042539Y-80505600D01*
X109042500Y-80502476D01*
X109042500Y-80051562D01*
X109041027Y-80046065D01*
X109041027Y-80046066D01*
X109029554Y-80003249D01*
X109016911Y-79956063D01*
X108967475Y-79870438D01*
X108501709Y-79404672D01*
X108468224Y-79343349D01*
X108472666Y-79281234D01*
X108471013Y-79280764D01*
X108528397Y-79079082D01*
X108547215Y-78876000D01*
X108547215Y-78875999D01*
X108528397Y-78672917D01*
X108472582Y-78476750D01*
X108381673Y-78294179D01*
X108258764Y-78131421D01*
X108258762Y-78131418D01*
X108108041Y-77994019D01*
X108108039Y-77994017D01*
X107934642Y-77886655D01*
X107934635Y-77886651D01*
X107834552Y-77847879D01*
X107744456Y-77812976D01*
X107543976Y-77775500D01*
X107340024Y-77775500D01*
X107139544Y-77812976D01*
X107139541Y-77812976D01*
X107139541Y-77812977D01*
X106949364Y-77886651D01*
X106949357Y-77886655D01*
X106775960Y-77994017D01*
X106775958Y-77994019D01*
X106625237Y-78131418D01*
X106502327Y-78294178D01*
X106411422Y-78476739D01*
X106411417Y-78476752D01*
X106355602Y-78672917D01*
X106336785Y-78875999D01*
X106336785Y-78876000D01*
X106355602Y-79079082D01*
X106411417Y-79275247D01*
X106411422Y-79275260D01*
X106502327Y-79457821D01*
X106625237Y-79620581D01*
X106775958Y-79757980D01*
X106775960Y-79757982D01*
X106875141Y-79819392D01*
X106949363Y-79865348D01*
X107139544Y-79939024D01*
X107340024Y-79976500D01*
X107340026Y-79976500D01*
X107543974Y-79976500D01*
X107543976Y-79976500D01*
X107744456Y-79939024D01*
X107834556Y-79904118D01*
X107904174Y-79898256D01*
X107965914Y-79930965D01*
X107967027Y-79932064D01*
X108255181Y-80220218D01*
X108288666Y-80281541D01*
X108291500Y-80307899D01*
X108291500Y-80424989D01*
X108271815Y-80492028D01*
X108219011Y-80537783D01*
X108149853Y-80547727D01*
X108102223Y-80530416D01*
X107934642Y-80426655D01*
X107934635Y-80426651D01*
X107792378Y-80371541D01*
X107744456Y-80352976D01*
X107543976Y-80315500D01*
X107340024Y-80315500D01*
X107139544Y-80352976D01*
X107139541Y-80352976D01*
X107139541Y-80352977D01*
X106949364Y-80426651D01*
X106949357Y-80426655D01*
X106781777Y-80530416D01*
X106714417Y-80548971D01*
X106647717Y-80528163D01*
X106602856Y-80474598D01*
X106592500Y-80424989D01*
X106592500Y-80141567D01*
X106592500Y-80141565D01*
X106566910Y-80046062D01*
X106542192Y-80003250D01*
X106542192Y-80003249D01*
X106542190Y-80003247D01*
X106517475Y-79960437D01*
X106517474Y-79960436D01*
X106517471Y-79960432D01*
X105961709Y-79404672D01*
X105928224Y-79343349D01*
X105932666Y-79281234D01*
X105931013Y-79280764D01*
X105988397Y-79079082D01*
X106007215Y-78876000D01*
X106007215Y-78875999D01*
X105988397Y-78672917D01*
X105932582Y-78476750D01*
X105841673Y-78294179D01*
X105718764Y-78131421D01*
X105718762Y-78131418D01*
X105568041Y-77994019D01*
X105568039Y-77994017D01*
X105394642Y-77886655D01*
X105394635Y-77886651D01*
X105294552Y-77847879D01*
X105204456Y-77812976D01*
X105003976Y-77775500D01*
X104800024Y-77775500D01*
X104599544Y-77812976D01*
X104599541Y-77812976D01*
X104599541Y-77812977D01*
X104409364Y-77886651D01*
X104409357Y-77886655D01*
X104235960Y-77994017D01*
X104235958Y-77994019D01*
X104215037Y-78013091D01*
X104152232Y-78043708D01*
X104082845Y-78035509D01*
X104028906Y-77991098D01*
X104007539Y-77924576D01*
X104007500Y-77921453D01*
X104007500Y-68668898D01*
X104027185Y-68601859D01*
X104043815Y-68581221D01*
X104376972Y-68248063D01*
X104438293Y-68214580D01*
X104507984Y-68219564D01*
X104509444Y-68220119D01*
X104599544Y-68255024D01*
X104800024Y-68292500D01*
X104800026Y-68292500D01*
X105003974Y-68292500D01*
X105003976Y-68292500D01*
X105204456Y-68255024D01*
X105394637Y-68181348D01*
X105568041Y-68073981D01*
X105718764Y-67936579D01*
X105841673Y-67773821D01*
X105932582Y-67591250D01*
X105988397Y-67395083D01*
X106007215Y-67192000D01*
X105988397Y-66988917D01*
X105932582Y-66792750D01*
X105841673Y-66610179D01*
X105721567Y-66451133D01*
X105718762Y-66447418D01*
X105568041Y-66310019D01*
X105568039Y-66310017D01*
X105394642Y-66202655D01*
X105394635Y-66202651D01*
X105299546Y-66165814D01*
X105204456Y-66128976D01*
X105003976Y-66091500D01*
X104800024Y-66091500D01*
X104599544Y-66128976D01*
X104599541Y-66128976D01*
X104599541Y-66128977D01*
X104409364Y-66202651D01*
X104409357Y-66202655D01*
X104235960Y-66310017D01*
X104235958Y-66310019D01*
X104085237Y-66447418D01*
X103962327Y-66610178D01*
X103871422Y-66792739D01*
X103871417Y-66792752D01*
X103815602Y-66988917D01*
X103796785Y-67191999D01*
X103796785Y-67192000D01*
X103815602Y-67395082D01*
X103852500Y-67524760D01*
X103871417Y-67591247D01*
X103872987Y-67596763D01*
X103871003Y-67597327D01*
X103876098Y-67657816D01*
X103843390Y-67719557D01*
X103842290Y-67720671D01*
X103401438Y-68161525D01*
X103331526Y-68231436D01*
X103282091Y-68317059D01*
X103282091Y-68317060D01*
X103282090Y-68317062D01*
X103256500Y-68412565D01*
X103256500Y-68412567D01*
X103256500Y-85375500D01*
X103236815Y-85442539D01*
X103184011Y-85488294D01*
X103132500Y-85499500D01*
X102607323Y-85499500D01*
X102534264Y-85514032D01*
X102534260Y-85514033D01*
X102451399Y-85569399D01*
X102396033Y-85652260D01*
X102396032Y-85652264D01*
X102381500Y-85725321D01*
X96266000Y-85725321D01*
X96266000Y-62354000D01*
X96285685Y-62286961D01*
X96338489Y-62241206D01*
X96390000Y-62230000D01*
X159896000Y-62230000D01*
X159963039Y-62249685D01*
G37*
G04 #@! TD.AperFunction*
D16*
X97710000Y-53848000D02*
X158830000Y-53848000D01*
X163830000Y-107522000D02*
G75*
G02*
X158830000Y-112522000I-5000000J0D01*
G01*
X92710000Y-107522000D02*
X92710000Y-58848000D01*
X92710000Y-58848000D02*
G75*
G02*
X97710000Y-53848000I5000000J0D01*
G01*
X158830000Y-112522000D02*
X97710000Y-112522000D01*
X163830000Y-58848000D02*
X163830000Y-107522000D01*
X97710000Y-112522000D02*
G75*
G02*
X92710000Y-107522000I0J5000000D01*
G01*
X158830000Y-53848000D02*
G75*
G02*
X163830000Y-58848000I0J-5000000D01*
G01*
M02*
