G04 #@! TF.GenerationSoftware,KiCad,Pcbnew,8.0.4*
G04 #@! TF.CreationDate,2024-09-01T00:03:10+10:00*
G04 #@! TF.ProjectId,Amiga_4000_4IDE,416d6967-615f-4343-9030-305f34494445,rev?*
G04 #@! TF.SameCoordinates,Original*
G04 #@! TF.FileFunction,Copper,L2,Bot*
G04 #@! TF.FilePolarity,Positive*
%FSLAX46Y46*%
G04 Gerber Fmt 4.6, Leading zero omitted, Abs format (unit mm)*
G04 Created by KiCad (PCBNEW 8.0.4) date 2024-09-01 00:03:10*
%MOMM*%
%LPD*%
G01*
G04 APERTURE LIST*
G04 Aperture macros list*
%AMRoundRect*
0 Rectangle with rounded corners*
0 $1 Rounding radius*
0 $2 $3 $4 $5 $6 $7 $8 $9 X,Y pos of 4 corners*
0 Add a 4 corners polygon primitive as box body*
4,1,4,$2,$3,$4,$5,$6,$7,$8,$9,$2,$3,0*
0 Add four circle primitives for the rounded corners*
1,1,$1+$1,$2,$3*
1,1,$1+$1,$4,$5*
1,1,$1+$1,$6,$7*
1,1,$1+$1,$8,$9*
0 Add four rect primitives between the rounded corners*
20,1,$1+$1,$2,$3,$4,$5,0*
20,1,$1+$1,$4,$5,$6,$7,0*
20,1,$1+$1,$6,$7,$8,$9,0*
20,1,$1+$1,$8,$9,$2,$3,0*%
G04 Aperture macros list end*
G04 #@! TA.AperFunction,ComponentPad*
%ADD10R,2.000000X2.000000*%
G04 #@! TD*
G04 #@! TA.AperFunction,ComponentPad*
%ADD11O,2.000000X2.000000*%
G04 #@! TD*
G04 #@! TA.AperFunction,ComponentPad*
%ADD12RoundRect,0.250000X-0.600000X0.600000X-0.600000X-0.600000X0.600000X-0.600000X0.600000X0.600000X0*%
G04 #@! TD*
G04 #@! TA.AperFunction,ComponentPad*
%ADD13C,1.700000*%
G04 #@! TD*
G04 #@! TA.AperFunction,Conductor*
%ADD14C,0.250000*%
G04 #@! TD*
G04 #@! TA.AperFunction,Profile*
%ADD15C,0.050000*%
G04 #@! TD*
G04 APERTURE END LIST*
D10*
X106934000Y-86750000D03*
D11*
X106934000Y-91830000D03*
D10*
X103632000Y-86750000D03*
D11*
X103632000Y-91830000D03*
D10*
X117602000Y-91830000D03*
D11*
X117602000Y-86750000D03*
D12*
X153162000Y-78876000D03*
D13*
X153162000Y-81416000D03*
X150622000Y-78876000D03*
X150622000Y-81416000D03*
X148082000Y-78876000D03*
X148082000Y-81416000D03*
X145542000Y-78876000D03*
X145542000Y-81416000D03*
X143002000Y-78876000D03*
X143002000Y-81416000D03*
X140462000Y-78876000D03*
X140462000Y-81416000D03*
X137922000Y-78876000D03*
X137922000Y-81416000D03*
X135382000Y-78876000D03*
X135382000Y-81416000D03*
X132842000Y-78876000D03*
X132842000Y-81416000D03*
X130302000Y-78876000D03*
X130302000Y-81416000D03*
X127762000Y-78876000D03*
X127762000Y-81416000D03*
X125222000Y-78876000D03*
X125222000Y-81416000D03*
X122682000Y-78876000D03*
X122682000Y-81416000D03*
X120142000Y-78876000D03*
X120142000Y-81416000D03*
X117602000Y-78876000D03*
X117602000Y-81416000D03*
X115062000Y-78876000D03*
X115062000Y-81416000D03*
X112522000Y-78876000D03*
X112522000Y-81416000D03*
X109982000Y-78876000D03*
X109982000Y-81416000D03*
X107442000Y-78876000D03*
X107442000Y-81416000D03*
X104902000Y-78876000D03*
X104902000Y-81416000D03*
D12*
X153162000Y-97070000D03*
D13*
X153162000Y-99610000D03*
X150622000Y-97070000D03*
X150622000Y-99610000D03*
X148082000Y-97070000D03*
X148082000Y-99610000D03*
X145542000Y-97070000D03*
X145542000Y-99610000D03*
X143002000Y-97070000D03*
X143002000Y-99610000D03*
X140462000Y-97070000D03*
X140462000Y-99610000D03*
X137922000Y-97070000D03*
X137922000Y-99610000D03*
X135382000Y-97070000D03*
X135382000Y-99610000D03*
X132842000Y-97070000D03*
X132842000Y-99610000D03*
X130302000Y-97070000D03*
X130302000Y-99610000D03*
X127762000Y-97070000D03*
X127762000Y-99610000D03*
X125222000Y-97070000D03*
X125222000Y-99610000D03*
X122682000Y-97070000D03*
X122682000Y-99610000D03*
X120142000Y-97070000D03*
X120142000Y-99610000D03*
X117602000Y-97070000D03*
X117602000Y-99610000D03*
X115062000Y-97070000D03*
X115062000Y-99610000D03*
X112522000Y-97070000D03*
X112522000Y-99610000D03*
X109982000Y-97070000D03*
X109982000Y-99610000D03*
X107442000Y-97070000D03*
X107442000Y-99610000D03*
X104902000Y-97070000D03*
X104902000Y-99610000D03*
D12*
X153162000Y-67192000D03*
D13*
X153162000Y-69732000D03*
X150622000Y-67192000D03*
X150622000Y-69732000D03*
X148082000Y-67192000D03*
X148082000Y-69732000D03*
X145542000Y-67192000D03*
X145542000Y-69732000D03*
X143002000Y-67192000D03*
X143002000Y-69732000D03*
X140462000Y-67192000D03*
X140462000Y-69732000D03*
X137922000Y-67192000D03*
X137922000Y-69732000D03*
X135382000Y-67192000D03*
X135382000Y-69732000D03*
X132842000Y-67192000D03*
X132842000Y-69732000D03*
X130302000Y-67192000D03*
X130302000Y-69732000D03*
X127762000Y-67192000D03*
X127762000Y-69732000D03*
X125222000Y-67192000D03*
X125222000Y-69732000D03*
X122682000Y-67192000D03*
X122682000Y-69732000D03*
X120142000Y-67192000D03*
X120142000Y-69732000D03*
X117602000Y-67192000D03*
X117602000Y-69732000D03*
X115062000Y-67192000D03*
X115062000Y-69732000D03*
X112522000Y-67192000D03*
X112522000Y-69732000D03*
X109982000Y-67192000D03*
X109982000Y-69732000D03*
X107442000Y-67192000D03*
X107442000Y-69732000D03*
X104902000Y-67192000D03*
X104902000Y-69732000D03*
D10*
X114300000Y-91830000D03*
D11*
X114300000Y-86750000D03*
D14*
X116377000Y-85525000D02*
X116377000Y-80191000D01*
X117602000Y-86750000D02*
X116377000Y-85525000D01*
X116377000Y-80191000D02*
X115062000Y-78876000D01*
G04 #@! TA.AperFunction,Conductor*
G36*
X159963039Y-62249685D02*
G01*
X160008794Y-62302489D01*
X160020000Y-62354000D01*
X160020000Y-104016263D01*
X160000315Y-104083302D01*
X159947511Y-104129057D01*
X159896265Y-104140263D01*
X96390265Y-104275734D01*
X96323183Y-104256192D01*
X96277316Y-104203486D01*
X96266000Y-104151734D01*
X96266000Y-99609999D01*
X106336785Y-99609999D01*
X106336785Y-99610000D01*
X106355602Y-99813082D01*
X106411417Y-100009247D01*
X106411422Y-100009260D01*
X106502327Y-100191821D01*
X106625237Y-100354581D01*
X106775958Y-100491980D01*
X106775960Y-100491982D01*
X106875141Y-100553392D01*
X106949363Y-100599348D01*
X107139544Y-100673024D01*
X107340024Y-100710500D01*
X107340026Y-100710500D01*
X107543974Y-100710500D01*
X107543976Y-100710500D01*
X107744456Y-100673024D01*
X107934637Y-100599348D01*
X108108041Y-100491981D01*
X108258764Y-100354579D01*
X108381673Y-100191821D01*
X108472582Y-100009250D01*
X108528397Y-99813083D01*
X108547215Y-99610000D01*
X108547215Y-99609999D01*
X108876785Y-99609999D01*
X108876785Y-99610000D01*
X108895602Y-99813082D01*
X108951417Y-100009247D01*
X108951422Y-100009260D01*
X109042327Y-100191821D01*
X109165237Y-100354581D01*
X109315958Y-100491980D01*
X109315960Y-100491982D01*
X109415141Y-100553392D01*
X109489363Y-100599348D01*
X109679544Y-100673024D01*
X109880024Y-100710500D01*
X109880026Y-100710500D01*
X110083974Y-100710500D01*
X110083976Y-100710500D01*
X110284456Y-100673024D01*
X110474637Y-100599348D01*
X110648041Y-100491981D01*
X110798764Y-100354579D01*
X110921673Y-100191821D01*
X111012582Y-100009250D01*
X111068397Y-99813083D01*
X111087215Y-99610000D01*
X111087215Y-99609999D01*
X111416785Y-99609999D01*
X111416785Y-99610000D01*
X111435602Y-99813082D01*
X111491417Y-100009247D01*
X111491422Y-100009260D01*
X111582327Y-100191821D01*
X111705237Y-100354581D01*
X111855958Y-100491980D01*
X111855960Y-100491982D01*
X111955141Y-100553392D01*
X112029363Y-100599348D01*
X112219544Y-100673024D01*
X112420024Y-100710500D01*
X112420026Y-100710500D01*
X112623974Y-100710500D01*
X112623976Y-100710500D01*
X112824456Y-100673024D01*
X113014637Y-100599348D01*
X113188041Y-100491981D01*
X113338764Y-100354579D01*
X113461673Y-100191821D01*
X113552582Y-100009250D01*
X113608397Y-99813083D01*
X113627215Y-99610000D01*
X113627215Y-99609999D01*
X113956785Y-99609999D01*
X113956785Y-99610000D01*
X113975602Y-99813082D01*
X114031417Y-100009247D01*
X114031422Y-100009260D01*
X114122327Y-100191821D01*
X114245237Y-100354581D01*
X114395958Y-100491980D01*
X114395960Y-100491982D01*
X114495141Y-100553392D01*
X114569363Y-100599348D01*
X114759544Y-100673024D01*
X114960024Y-100710500D01*
X114960026Y-100710500D01*
X115163974Y-100710500D01*
X115163976Y-100710500D01*
X115364456Y-100673024D01*
X115554637Y-100599348D01*
X115728041Y-100491981D01*
X115878764Y-100354579D01*
X116001673Y-100191821D01*
X116092582Y-100009250D01*
X116148397Y-99813083D01*
X116167215Y-99610000D01*
X116167215Y-99609999D01*
X119036785Y-99609999D01*
X119036785Y-99610000D01*
X119055602Y-99813082D01*
X119111417Y-100009247D01*
X119111422Y-100009260D01*
X119202327Y-100191821D01*
X119325237Y-100354581D01*
X119475958Y-100491980D01*
X119475960Y-100491982D01*
X119575141Y-100553392D01*
X119649363Y-100599348D01*
X119839544Y-100673024D01*
X120040024Y-100710500D01*
X120040026Y-100710500D01*
X120243974Y-100710500D01*
X120243976Y-100710500D01*
X120444456Y-100673024D01*
X120634637Y-100599348D01*
X120808041Y-100491981D01*
X120958764Y-100354579D01*
X121081673Y-100191821D01*
X121172582Y-100009250D01*
X121228397Y-99813083D01*
X121247215Y-99610000D01*
X121247215Y-99609999D01*
X129196785Y-99609999D01*
X129196785Y-99610000D01*
X129215602Y-99813082D01*
X129271417Y-100009247D01*
X129271422Y-100009260D01*
X129362327Y-100191821D01*
X129485237Y-100354581D01*
X129635958Y-100491980D01*
X129635960Y-100491982D01*
X129735141Y-100553392D01*
X129809363Y-100599348D01*
X129999544Y-100673024D01*
X130200024Y-100710500D01*
X130200026Y-100710500D01*
X130403974Y-100710500D01*
X130403976Y-100710500D01*
X130604456Y-100673024D01*
X130794637Y-100599348D01*
X130968041Y-100491981D01*
X131118764Y-100354579D01*
X131241673Y-100191821D01*
X131332582Y-100009250D01*
X131388397Y-99813083D01*
X131407215Y-99610000D01*
X131407215Y-99609999D01*
X131736785Y-99609999D01*
X131736785Y-99610000D01*
X131755602Y-99813082D01*
X131811417Y-100009247D01*
X131811422Y-100009260D01*
X131902327Y-100191821D01*
X132025237Y-100354581D01*
X132175958Y-100491980D01*
X132175960Y-100491982D01*
X132275141Y-100553392D01*
X132349363Y-100599348D01*
X132539544Y-100673024D01*
X132740024Y-100710500D01*
X132740026Y-100710500D01*
X132943974Y-100710500D01*
X132943976Y-100710500D01*
X133144456Y-100673024D01*
X133334637Y-100599348D01*
X133508041Y-100491981D01*
X133658764Y-100354579D01*
X133781673Y-100191821D01*
X133872582Y-100009250D01*
X133928397Y-99813083D01*
X133947215Y-99610000D01*
X133947215Y-99609999D01*
X134276785Y-99609999D01*
X134276785Y-99610000D01*
X134295602Y-99813082D01*
X134351417Y-100009247D01*
X134351422Y-100009260D01*
X134442327Y-100191821D01*
X134565237Y-100354581D01*
X134715958Y-100491980D01*
X134715960Y-100491982D01*
X134815141Y-100553392D01*
X134889363Y-100599348D01*
X135079544Y-100673024D01*
X135280024Y-100710500D01*
X135280026Y-100710500D01*
X135483974Y-100710500D01*
X135483976Y-100710500D01*
X135684456Y-100673024D01*
X135874637Y-100599348D01*
X136048041Y-100491981D01*
X136198764Y-100354579D01*
X136321673Y-100191821D01*
X136412582Y-100009250D01*
X136468397Y-99813083D01*
X136487215Y-99610000D01*
X136487215Y-99609999D01*
X136816785Y-99609999D01*
X136816785Y-99610000D01*
X136835602Y-99813082D01*
X136891417Y-100009247D01*
X136891422Y-100009260D01*
X136982327Y-100191821D01*
X137105237Y-100354581D01*
X137255958Y-100491980D01*
X137255960Y-100491982D01*
X137355141Y-100553392D01*
X137429363Y-100599348D01*
X137619544Y-100673024D01*
X137820024Y-100710500D01*
X137820026Y-100710500D01*
X138023974Y-100710500D01*
X138023976Y-100710500D01*
X138224456Y-100673024D01*
X138414637Y-100599348D01*
X138588041Y-100491981D01*
X138738764Y-100354579D01*
X138861673Y-100191821D01*
X138952582Y-100009250D01*
X139008397Y-99813083D01*
X139027215Y-99610000D01*
X139027215Y-99609999D01*
X139356785Y-99609999D01*
X139356785Y-99610000D01*
X139375602Y-99813082D01*
X139431417Y-100009247D01*
X139431422Y-100009260D01*
X139522327Y-100191821D01*
X139645237Y-100354581D01*
X139795958Y-100491980D01*
X139795960Y-100491982D01*
X139895141Y-100553392D01*
X139969363Y-100599348D01*
X140159544Y-100673024D01*
X140360024Y-100710500D01*
X140360026Y-100710500D01*
X140563974Y-100710500D01*
X140563976Y-100710500D01*
X140764456Y-100673024D01*
X140954637Y-100599348D01*
X141128041Y-100491981D01*
X141278764Y-100354579D01*
X141401673Y-100191821D01*
X141492582Y-100009250D01*
X141548397Y-99813083D01*
X141567215Y-99610000D01*
X141567215Y-99609999D01*
X141896785Y-99609999D01*
X141896785Y-99610000D01*
X141915602Y-99813082D01*
X141971417Y-100009247D01*
X141971422Y-100009260D01*
X142062327Y-100191821D01*
X142185237Y-100354581D01*
X142335958Y-100491980D01*
X142335960Y-100491982D01*
X142435141Y-100553392D01*
X142509363Y-100599348D01*
X142699544Y-100673024D01*
X142900024Y-100710500D01*
X142900026Y-100710500D01*
X143103974Y-100710500D01*
X143103976Y-100710500D01*
X143304456Y-100673024D01*
X143494637Y-100599348D01*
X143668041Y-100491981D01*
X143818764Y-100354579D01*
X143941673Y-100191821D01*
X144032582Y-100009250D01*
X144088397Y-99813083D01*
X144107215Y-99610000D01*
X144107215Y-99609999D01*
X144436785Y-99609999D01*
X144436785Y-99610000D01*
X144455602Y-99813082D01*
X144511417Y-100009247D01*
X144511422Y-100009260D01*
X144602327Y-100191821D01*
X144725237Y-100354581D01*
X144875958Y-100491980D01*
X144875960Y-100491982D01*
X144975141Y-100553392D01*
X145049363Y-100599348D01*
X145239544Y-100673024D01*
X145440024Y-100710500D01*
X145440026Y-100710500D01*
X145643974Y-100710500D01*
X145643976Y-100710500D01*
X145844456Y-100673024D01*
X146034637Y-100599348D01*
X146208041Y-100491981D01*
X146358764Y-100354579D01*
X146481673Y-100191821D01*
X146572582Y-100009250D01*
X146628397Y-99813083D01*
X146647215Y-99610000D01*
X146647215Y-99609999D01*
X146976785Y-99609999D01*
X146976785Y-99610000D01*
X146995602Y-99813082D01*
X147051417Y-100009247D01*
X147051422Y-100009260D01*
X147142327Y-100191821D01*
X147265237Y-100354581D01*
X147415958Y-100491980D01*
X147415960Y-100491982D01*
X147515141Y-100553392D01*
X147589363Y-100599348D01*
X147779544Y-100673024D01*
X147980024Y-100710500D01*
X147980026Y-100710500D01*
X148183974Y-100710500D01*
X148183976Y-100710500D01*
X148384456Y-100673024D01*
X148574637Y-100599348D01*
X148748041Y-100491981D01*
X148898764Y-100354579D01*
X149021673Y-100191821D01*
X149112582Y-100009250D01*
X149168397Y-99813083D01*
X149187215Y-99610000D01*
X149187215Y-99609999D01*
X149516785Y-99609999D01*
X149516785Y-99610000D01*
X149535602Y-99813082D01*
X149591417Y-100009247D01*
X149591422Y-100009260D01*
X149682327Y-100191821D01*
X149805237Y-100354581D01*
X149955958Y-100491980D01*
X149955960Y-100491982D01*
X150055141Y-100553392D01*
X150129363Y-100599348D01*
X150319544Y-100673024D01*
X150520024Y-100710500D01*
X150520026Y-100710500D01*
X150723974Y-100710500D01*
X150723976Y-100710500D01*
X150924456Y-100673024D01*
X151114637Y-100599348D01*
X151288041Y-100491981D01*
X151438764Y-100354579D01*
X151561673Y-100191821D01*
X151652582Y-100009250D01*
X151708397Y-99813083D01*
X151727215Y-99610000D01*
X151708397Y-99406917D01*
X151652582Y-99210750D01*
X151561673Y-99028179D01*
X151438764Y-98865421D01*
X151438762Y-98865418D01*
X151288041Y-98728019D01*
X151288039Y-98728017D01*
X151114642Y-98620655D01*
X151114635Y-98620651D01*
X151019546Y-98583814D01*
X150924456Y-98546976D01*
X150723976Y-98509500D01*
X150520024Y-98509500D01*
X150319544Y-98546976D01*
X150319541Y-98546976D01*
X150319541Y-98546977D01*
X150129364Y-98620651D01*
X150129357Y-98620655D01*
X149955960Y-98728017D01*
X149955958Y-98728019D01*
X149805237Y-98865418D01*
X149682327Y-99028178D01*
X149591422Y-99210739D01*
X149591417Y-99210752D01*
X149535602Y-99406917D01*
X149516785Y-99609999D01*
X149187215Y-99609999D01*
X149168397Y-99406917D01*
X149112582Y-99210750D01*
X149021673Y-99028179D01*
X148898764Y-98865421D01*
X148898762Y-98865418D01*
X148748041Y-98728019D01*
X148748039Y-98728017D01*
X148574642Y-98620655D01*
X148574635Y-98620651D01*
X148479546Y-98583814D01*
X148384456Y-98546976D01*
X148183976Y-98509500D01*
X147980024Y-98509500D01*
X147779544Y-98546976D01*
X147779541Y-98546976D01*
X147779541Y-98546977D01*
X147589364Y-98620651D01*
X147589357Y-98620655D01*
X147415960Y-98728017D01*
X147415958Y-98728019D01*
X147265237Y-98865418D01*
X147142327Y-99028178D01*
X147051422Y-99210739D01*
X147051417Y-99210752D01*
X146995602Y-99406917D01*
X146976785Y-99609999D01*
X146647215Y-99609999D01*
X146628397Y-99406917D01*
X146572582Y-99210750D01*
X146481673Y-99028179D01*
X146358764Y-98865421D01*
X146358762Y-98865418D01*
X146208041Y-98728019D01*
X146208039Y-98728017D01*
X146034642Y-98620655D01*
X146034635Y-98620651D01*
X145939546Y-98583814D01*
X145844456Y-98546976D01*
X145643976Y-98509500D01*
X145440024Y-98509500D01*
X145239544Y-98546976D01*
X145239541Y-98546976D01*
X145239541Y-98546977D01*
X145049364Y-98620651D01*
X145049357Y-98620655D01*
X144875960Y-98728017D01*
X144875958Y-98728019D01*
X144725237Y-98865418D01*
X144602327Y-99028178D01*
X144511422Y-99210739D01*
X144511417Y-99210752D01*
X144455602Y-99406917D01*
X144436785Y-99609999D01*
X144107215Y-99609999D01*
X144088397Y-99406917D01*
X144032582Y-99210750D01*
X143941673Y-99028179D01*
X143818764Y-98865421D01*
X143818762Y-98865418D01*
X143668041Y-98728019D01*
X143668039Y-98728017D01*
X143494642Y-98620655D01*
X143494635Y-98620651D01*
X143399546Y-98583814D01*
X143304456Y-98546976D01*
X143103976Y-98509500D01*
X142900024Y-98509500D01*
X142699544Y-98546976D01*
X142699541Y-98546976D01*
X142699541Y-98546977D01*
X142509364Y-98620651D01*
X142509357Y-98620655D01*
X142335960Y-98728017D01*
X142335958Y-98728019D01*
X142185237Y-98865418D01*
X142062327Y-99028178D01*
X141971422Y-99210739D01*
X141971417Y-99210752D01*
X141915602Y-99406917D01*
X141896785Y-99609999D01*
X141567215Y-99609999D01*
X141548397Y-99406917D01*
X141492582Y-99210750D01*
X141401673Y-99028179D01*
X141278764Y-98865421D01*
X141278762Y-98865418D01*
X141128041Y-98728019D01*
X141128039Y-98728017D01*
X140954642Y-98620655D01*
X140954635Y-98620651D01*
X140859546Y-98583814D01*
X140764456Y-98546976D01*
X140563976Y-98509500D01*
X140360024Y-98509500D01*
X140159544Y-98546976D01*
X140159541Y-98546976D01*
X140159541Y-98546977D01*
X139969364Y-98620651D01*
X139969357Y-98620655D01*
X139795960Y-98728017D01*
X139795958Y-98728019D01*
X139645237Y-98865418D01*
X139522327Y-99028178D01*
X139431422Y-99210739D01*
X139431417Y-99210752D01*
X139375602Y-99406917D01*
X139356785Y-99609999D01*
X139027215Y-99609999D01*
X139008397Y-99406917D01*
X138952582Y-99210750D01*
X138861673Y-99028179D01*
X138738764Y-98865421D01*
X138738762Y-98865418D01*
X138588041Y-98728019D01*
X138588039Y-98728017D01*
X138414642Y-98620655D01*
X138414635Y-98620651D01*
X138319546Y-98583814D01*
X138224456Y-98546976D01*
X138023976Y-98509500D01*
X137820024Y-98509500D01*
X137619544Y-98546976D01*
X137619541Y-98546976D01*
X137619541Y-98546977D01*
X137429364Y-98620651D01*
X137429357Y-98620655D01*
X137255960Y-98728017D01*
X137255958Y-98728019D01*
X137105237Y-98865418D01*
X136982327Y-99028178D01*
X136891422Y-99210739D01*
X136891417Y-99210752D01*
X136835602Y-99406917D01*
X136816785Y-99609999D01*
X136487215Y-99609999D01*
X136468397Y-99406917D01*
X136412582Y-99210750D01*
X136321673Y-99028179D01*
X136198764Y-98865421D01*
X136198762Y-98865418D01*
X136048041Y-98728019D01*
X136048039Y-98728017D01*
X135874642Y-98620655D01*
X135874635Y-98620651D01*
X135779546Y-98583814D01*
X135684456Y-98546976D01*
X135483976Y-98509500D01*
X135280024Y-98509500D01*
X135079544Y-98546976D01*
X135079541Y-98546976D01*
X135079541Y-98546977D01*
X134889364Y-98620651D01*
X134889357Y-98620655D01*
X134715960Y-98728017D01*
X134715958Y-98728019D01*
X134565237Y-98865418D01*
X134442327Y-99028178D01*
X134351422Y-99210739D01*
X134351417Y-99210752D01*
X134295602Y-99406917D01*
X134276785Y-99609999D01*
X133947215Y-99609999D01*
X133928397Y-99406917D01*
X133872582Y-99210750D01*
X133781673Y-99028179D01*
X133658764Y-98865421D01*
X133658762Y-98865418D01*
X133508041Y-98728019D01*
X133508039Y-98728017D01*
X133334642Y-98620655D01*
X133334635Y-98620651D01*
X133239546Y-98583814D01*
X133144456Y-98546976D01*
X132943976Y-98509500D01*
X132740024Y-98509500D01*
X132539544Y-98546976D01*
X132539541Y-98546976D01*
X132539541Y-98546977D01*
X132349364Y-98620651D01*
X132349357Y-98620655D01*
X132175960Y-98728017D01*
X132175958Y-98728019D01*
X132025237Y-98865418D01*
X131902327Y-99028178D01*
X131811422Y-99210739D01*
X131811417Y-99210752D01*
X131755602Y-99406917D01*
X131736785Y-99609999D01*
X131407215Y-99609999D01*
X131388397Y-99406917D01*
X131332582Y-99210750D01*
X131241673Y-99028179D01*
X131118764Y-98865421D01*
X131118762Y-98865418D01*
X130968041Y-98728019D01*
X130968039Y-98728017D01*
X130794642Y-98620655D01*
X130794635Y-98620651D01*
X130699546Y-98583814D01*
X130604456Y-98546976D01*
X130403976Y-98509500D01*
X130200024Y-98509500D01*
X129999544Y-98546976D01*
X129999541Y-98546976D01*
X129999541Y-98546977D01*
X129809364Y-98620651D01*
X129809357Y-98620655D01*
X129635960Y-98728017D01*
X129635958Y-98728019D01*
X129485237Y-98865418D01*
X129362327Y-99028178D01*
X129271422Y-99210739D01*
X129271417Y-99210752D01*
X129215602Y-99406917D01*
X129196785Y-99609999D01*
X121247215Y-99609999D01*
X121228397Y-99406917D01*
X121172582Y-99210750D01*
X121081673Y-99028179D01*
X120958764Y-98865421D01*
X120958762Y-98865418D01*
X120808041Y-98728019D01*
X120808039Y-98728017D01*
X120634642Y-98620655D01*
X120634635Y-98620651D01*
X120539546Y-98583814D01*
X120444456Y-98546976D01*
X120243976Y-98509500D01*
X120040024Y-98509500D01*
X119839544Y-98546976D01*
X119839541Y-98546976D01*
X119839541Y-98546977D01*
X119649364Y-98620651D01*
X119649357Y-98620655D01*
X119475960Y-98728017D01*
X119475958Y-98728019D01*
X119325237Y-98865418D01*
X119202327Y-99028178D01*
X119111422Y-99210739D01*
X119111417Y-99210752D01*
X119055602Y-99406917D01*
X119036785Y-99609999D01*
X116167215Y-99609999D01*
X116148397Y-99406917D01*
X116092582Y-99210750D01*
X116001673Y-99028179D01*
X115878764Y-98865421D01*
X115878762Y-98865418D01*
X115728041Y-98728019D01*
X115728039Y-98728017D01*
X115554642Y-98620655D01*
X115554635Y-98620651D01*
X115459546Y-98583814D01*
X115364456Y-98546976D01*
X115163976Y-98509500D01*
X114960024Y-98509500D01*
X114759544Y-98546976D01*
X114759541Y-98546976D01*
X114759541Y-98546977D01*
X114569364Y-98620651D01*
X114569357Y-98620655D01*
X114395960Y-98728017D01*
X114395958Y-98728019D01*
X114245237Y-98865418D01*
X114122327Y-99028178D01*
X114031422Y-99210739D01*
X114031417Y-99210752D01*
X113975602Y-99406917D01*
X113956785Y-99609999D01*
X113627215Y-99609999D01*
X113608397Y-99406917D01*
X113552582Y-99210750D01*
X113461673Y-99028179D01*
X113338764Y-98865421D01*
X113338762Y-98865418D01*
X113188041Y-98728019D01*
X113188039Y-98728017D01*
X113014642Y-98620655D01*
X113014635Y-98620651D01*
X112919546Y-98583814D01*
X112824456Y-98546976D01*
X112623976Y-98509500D01*
X112420024Y-98509500D01*
X112219544Y-98546976D01*
X112219541Y-98546976D01*
X112219541Y-98546977D01*
X112029364Y-98620651D01*
X112029357Y-98620655D01*
X111855960Y-98728017D01*
X111855958Y-98728019D01*
X111705237Y-98865418D01*
X111582327Y-99028178D01*
X111491422Y-99210739D01*
X111491417Y-99210752D01*
X111435602Y-99406917D01*
X111416785Y-99609999D01*
X111087215Y-99609999D01*
X111068397Y-99406917D01*
X111012582Y-99210750D01*
X110921673Y-99028179D01*
X110798764Y-98865421D01*
X110798762Y-98865418D01*
X110648041Y-98728019D01*
X110648039Y-98728017D01*
X110474642Y-98620655D01*
X110474635Y-98620651D01*
X110379546Y-98583814D01*
X110284456Y-98546976D01*
X110083976Y-98509500D01*
X109880024Y-98509500D01*
X109679544Y-98546976D01*
X109679541Y-98546976D01*
X109679541Y-98546977D01*
X109489364Y-98620651D01*
X109489357Y-98620655D01*
X109315960Y-98728017D01*
X109315958Y-98728019D01*
X109165237Y-98865418D01*
X109042327Y-99028178D01*
X108951422Y-99210739D01*
X108951417Y-99210752D01*
X108895602Y-99406917D01*
X108876785Y-99609999D01*
X108547215Y-99609999D01*
X108528397Y-99406917D01*
X108472582Y-99210750D01*
X108381673Y-99028179D01*
X108258764Y-98865421D01*
X108258762Y-98865418D01*
X108108041Y-98728019D01*
X108108039Y-98728017D01*
X107934642Y-98620655D01*
X107934635Y-98620651D01*
X107839546Y-98583814D01*
X107744456Y-98546976D01*
X107543976Y-98509500D01*
X107340024Y-98509500D01*
X107139544Y-98546976D01*
X107139541Y-98546976D01*
X107139541Y-98546977D01*
X106949364Y-98620651D01*
X106949357Y-98620655D01*
X106775960Y-98728017D01*
X106775958Y-98728019D01*
X106625237Y-98865418D01*
X106502327Y-99028178D01*
X106411422Y-99210739D01*
X106411417Y-99210752D01*
X106355602Y-99406917D01*
X106336785Y-99609999D01*
X96266000Y-99609999D01*
X96266000Y-97069999D01*
X103796785Y-97069999D01*
X103796785Y-97070000D01*
X103815602Y-97273082D01*
X103871417Y-97469247D01*
X103871422Y-97469260D01*
X103962327Y-97651821D01*
X104085237Y-97814581D01*
X104235958Y-97951980D01*
X104235960Y-97951982D01*
X104335141Y-98013392D01*
X104409363Y-98059348D01*
X104599544Y-98133024D01*
X104800024Y-98170500D01*
X104800026Y-98170500D01*
X105003974Y-98170500D01*
X105003976Y-98170500D01*
X105204456Y-98133024D01*
X105394637Y-98059348D01*
X105568041Y-97951981D01*
X105718764Y-97814579D01*
X105841673Y-97651821D01*
X105932582Y-97469250D01*
X105988397Y-97273083D01*
X106007215Y-97070000D01*
X106007215Y-97069999D01*
X106336785Y-97069999D01*
X106336785Y-97070000D01*
X106355602Y-97273082D01*
X106411417Y-97469247D01*
X106411422Y-97469260D01*
X106502327Y-97651821D01*
X106625237Y-97814581D01*
X106775958Y-97951980D01*
X106775960Y-97951982D01*
X106875141Y-98013392D01*
X106949363Y-98059348D01*
X107139544Y-98133024D01*
X107340024Y-98170500D01*
X107340026Y-98170500D01*
X107543974Y-98170500D01*
X107543976Y-98170500D01*
X107744456Y-98133024D01*
X107934637Y-98059348D01*
X108108041Y-97951981D01*
X108258764Y-97814579D01*
X108381673Y-97651821D01*
X108472582Y-97469250D01*
X108528397Y-97273083D01*
X108547215Y-97070000D01*
X108547215Y-97069999D01*
X108876785Y-97069999D01*
X108876785Y-97070000D01*
X108895602Y-97273082D01*
X108951417Y-97469247D01*
X108951422Y-97469260D01*
X109042327Y-97651821D01*
X109165237Y-97814581D01*
X109315958Y-97951980D01*
X109315960Y-97951982D01*
X109415141Y-98013392D01*
X109489363Y-98059348D01*
X109679544Y-98133024D01*
X109880024Y-98170500D01*
X109880026Y-98170500D01*
X110083974Y-98170500D01*
X110083976Y-98170500D01*
X110284456Y-98133024D01*
X110474637Y-98059348D01*
X110648041Y-97951981D01*
X110798764Y-97814579D01*
X110921673Y-97651821D01*
X111012582Y-97469250D01*
X111068397Y-97273083D01*
X111087215Y-97070000D01*
X111087215Y-97069999D01*
X111416785Y-97069999D01*
X111416785Y-97070000D01*
X111435602Y-97273082D01*
X111491417Y-97469247D01*
X111491422Y-97469260D01*
X111582327Y-97651821D01*
X111705237Y-97814581D01*
X111855958Y-97951980D01*
X111855960Y-97951982D01*
X111955141Y-98013392D01*
X112029363Y-98059348D01*
X112219544Y-98133024D01*
X112420024Y-98170500D01*
X112420026Y-98170500D01*
X112623974Y-98170500D01*
X112623976Y-98170500D01*
X112824456Y-98133024D01*
X113014637Y-98059348D01*
X113188041Y-97951981D01*
X113338764Y-97814579D01*
X113461673Y-97651821D01*
X113552582Y-97469250D01*
X113608397Y-97273083D01*
X113627215Y-97070000D01*
X113627215Y-97069999D01*
X113956785Y-97069999D01*
X113956785Y-97070000D01*
X113975602Y-97273082D01*
X114031417Y-97469247D01*
X114031422Y-97469260D01*
X114122327Y-97651821D01*
X114245237Y-97814581D01*
X114395958Y-97951980D01*
X114395960Y-97951982D01*
X114495141Y-98013392D01*
X114569363Y-98059348D01*
X114759544Y-98133024D01*
X114960024Y-98170500D01*
X114960026Y-98170500D01*
X115163974Y-98170500D01*
X115163976Y-98170500D01*
X115364456Y-98133024D01*
X115554637Y-98059348D01*
X115728041Y-97951981D01*
X115878764Y-97814579D01*
X116001673Y-97651821D01*
X116092582Y-97469250D01*
X116148397Y-97273083D01*
X116167215Y-97070000D01*
X116167215Y-97069999D01*
X116496785Y-97069999D01*
X116496785Y-97070000D01*
X116515602Y-97273082D01*
X116571417Y-97469247D01*
X116571422Y-97469260D01*
X116662327Y-97651821D01*
X116785237Y-97814581D01*
X116935958Y-97951980D01*
X116935960Y-97951982D01*
X117035141Y-98013392D01*
X117109363Y-98059348D01*
X117299544Y-98133024D01*
X117500024Y-98170500D01*
X117500026Y-98170500D01*
X117703974Y-98170500D01*
X117703976Y-98170500D01*
X117904456Y-98133024D01*
X118094637Y-98059348D01*
X118268041Y-97951981D01*
X118418764Y-97814579D01*
X118541673Y-97651821D01*
X118632582Y-97469250D01*
X118688397Y-97273083D01*
X118707215Y-97070000D01*
X118707215Y-97069999D01*
X119036785Y-97069999D01*
X119036785Y-97070000D01*
X119055602Y-97273082D01*
X119111417Y-97469247D01*
X119111422Y-97469260D01*
X119202327Y-97651821D01*
X119325237Y-97814581D01*
X119475958Y-97951980D01*
X119475960Y-97951982D01*
X119575141Y-98013392D01*
X119649363Y-98059348D01*
X119839544Y-98133024D01*
X120040024Y-98170500D01*
X120040026Y-98170500D01*
X120243974Y-98170500D01*
X120243976Y-98170500D01*
X120444456Y-98133024D01*
X120634637Y-98059348D01*
X120808041Y-97951981D01*
X120958764Y-97814579D01*
X121081673Y-97651821D01*
X121172582Y-97469250D01*
X121228397Y-97273083D01*
X121247215Y-97070000D01*
X121247215Y-97069999D01*
X121576785Y-97069999D01*
X121576785Y-97070000D01*
X121595602Y-97273082D01*
X121651417Y-97469247D01*
X121651422Y-97469260D01*
X121742327Y-97651821D01*
X121865237Y-97814581D01*
X122015958Y-97951980D01*
X122015960Y-97951982D01*
X122115141Y-98013392D01*
X122189363Y-98059348D01*
X122379544Y-98133024D01*
X122580024Y-98170500D01*
X122580026Y-98170500D01*
X122783974Y-98170500D01*
X122783976Y-98170500D01*
X122984456Y-98133024D01*
X123174637Y-98059348D01*
X123348041Y-97951981D01*
X123498764Y-97814579D01*
X123621673Y-97651821D01*
X123712582Y-97469250D01*
X123768397Y-97273083D01*
X123787215Y-97070000D01*
X123787215Y-97069999D01*
X124116785Y-97069999D01*
X124116785Y-97070000D01*
X124135602Y-97273082D01*
X124191417Y-97469247D01*
X124191422Y-97469260D01*
X124282327Y-97651821D01*
X124405237Y-97814581D01*
X124555958Y-97951980D01*
X124555960Y-97951982D01*
X124655141Y-98013392D01*
X124729363Y-98059348D01*
X124919544Y-98133024D01*
X125120024Y-98170500D01*
X125120026Y-98170500D01*
X125323974Y-98170500D01*
X125323976Y-98170500D01*
X125524456Y-98133024D01*
X125714637Y-98059348D01*
X125888041Y-97951981D01*
X126038764Y-97814579D01*
X126161673Y-97651821D01*
X126252582Y-97469250D01*
X126308397Y-97273083D01*
X126327215Y-97070000D01*
X126327215Y-97069999D01*
X126656785Y-97069999D01*
X126656785Y-97070000D01*
X126675602Y-97273082D01*
X126731417Y-97469247D01*
X126731422Y-97469260D01*
X126822327Y-97651821D01*
X126945237Y-97814581D01*
X127095958Y-97951980D01*
X127095960Y-97951982D01*
X127195141Y-98013392D01*
X127269363Y-98059348D01*
X127459544Y-98133024D01*
X127660024Y-98170500D01*
X127660026Y-98170500D01*
X127863974Y-98170500D01*
X127863976Y-98170500D01*
X128064456Y-98133024D01*
X128254637Y-98059348D01*
X128428041Y-97951981D01*
X128578764Y-97814579D01*
X128701673Y-97651821D01*
X128792582Y-97469250D01*
X128848397Y-97273083D01*
X128867215Y-97070000D01*
X128867215Y-97069999D01*
X131736785Y-97069999D01*
X131736785Y-97070000D01*
X131755602Y-97273082D01*
X131811417Y-97469247D01*
X131811422Y-97469260D01*
X131902327Y-97651821D01*
X132025237Y-97814581D01*
X132175958Y-97951980D01*
X132175960Y-97951982D01*
X132275141Y-98013392D01*
X132349363Y-98059348D01*
X132539544Y-98133024D01*
X132740024Y-98170500D01*
X132740026Y-98170500D01*
X132943974Y-98170500D01*
X132943976Y-98170500D01*
X133144456Y-98133024D01*
X133334637Y-98059348D01*
X133508041Y-97951981D01*
X133658764Y-97814579D01*
X133781673Y-97651821D01*
X133872582Y-97469250D01*
X133928397Y-97273083D01*
X133947215Y-97070000D01*
X133947215Y-97069999D01*
X134276785Y-97069999D01*
X134276785Y-97070000D01*
X134295602Y-97273082D01*
X134351417Y-97469247D01*
X134351422Y-97469260D01*
X134442327Y-97651821D01*
X134565237Y-97814581D01*
X134715958Y-97951980D01*
X134715960Y-97951982D01*
X134815141Y-98013392D01*
X134889363Y-98059348D01*
X135079544Y-98133024D01*
X135280024Y-98170500D01*
X135280026Y-98170500D01*
X135483974Y-98170500D01*
X135483976Y-98170500D01*
X135684456Y-98133024D01*
X135874637Y-98059348D01*
X136048041Y-97951981D01*
X136198764Y-97814579D01*
X136321673Y-97651821D01*
X136412582Y-97469250D01*
X136468397Y-97273083D01*
X136487215Y-97070000D01*
X136487215Y-97069999D01*
X136816785Y-97069999D01*
X136816785Y-97070000D01*
X136835602Y-97273082D01*
X136891417Y-97469247D01*
X136891422Y-97469260D01*
X136982327Y-97651821D01*
X137105237Y-97814581D01*
X137255958Y-97951980D01*
X137255960Y-97951982D01*
X137355141Y-98013392D01*
X137429363Y-98059348D01*
X137619544Y-98133024D01*
X137820024Y-98170500D01*
X137820026Y-98170500D01*
X138023974Y-98170500D01*
X138023976Y-98170500D01*
X138224456Y-98133024D01*
X138414637Y-98059348D01*
X138588041Y-97951981D01*
X138738764Y-97814579D01*
X138861673Y-97651821D01*
X138952582Y-97469250D01*
X139008397Y-97273083D01*
X139027215Y-97070000D01*
X139027215Y-97069999D01*
X139356785Y-97069999D01*
X139356785Y-97070000D01*
X139375602Y-97273082D01*
X139431417Y-97469247D01*
X139431422Y-97469260D01*
X139522327Y-97651821D01*
X139645237Y-97814581D01*
X139795958Y-97951980D01*
X139795960Y-97951982D01*
X139895141Y-98013392D01*
X139969363Y-98059348D01*
X140159544Y-98133024D01*
X140360024Y-98170500D01*
X140360026Y-98170500D01*
X140563974Y-98170500D01*
X140563976Y-98170500D01*
X140764456Y-98133024D01*
X140954637Y-98059348D01*
X141128041Y-97951981D01*
X141278764Y-97814579D01*
X141401673Y-97651821D01*
X141492582Y-97469250D01*
X141548397Y-97273083D01*
X141567215Y-97070000D01*
X141567215Y-97069999D01*
X141896785Y-97069999D01*
X141896785Y-97070000D01*
X141915602Y-97273082D01*
X141971417Y-97469247D01*
X141971422Y-97469260D01*
X142062327Y-97651821D01*
X142185237Y-97814581D01*
X142335958Y-97951980D01*
X142335960Y-97951982D01*
X142435141Y-98013392D01*
X142509363Y-98059348D01*
X142699544Y-98133024D01*
X142900024Y-98170500D01*
X142900026Y-98170500D01*
X143103974Y-98170500D01*
X143103976Y-98170500D01*
X143304456Y-98133024D01*
X143494637Y-98059348D01*
X143668041Y-97951981D01*
X143818764Y-97814579D01*
X143941673Y-97651821D01*
X144032582Y-97469250D01*
X144088397Y-97273083D01*
X144107215Y-97070000D01*
X144107215Y-97069999D01*
X144436785Y-97069999D01*
X144436785Y-97070000D01*
X144455602Y-97273082D01*
X144511417Y-97469247D01*
X144511422Y-97469260D01*
X144602327Y-97651821D01*
X144725237Y-97814581D01*
X144875958Y-97951980D01*
X144875960Y-97951982D01*
X144975141Y-98013392D01*
X145049363Y-98059348D01*
X145239544Y-98133024D01*
X145440024Y-98170500D01*
X145440026Y-98170500D01*
X145643974Y-98170500D01*
X145643976Y-98170500D01*
X145844456Y-98133024D01*
X146034637Y-98059348D01*
X146208041Y-97951981D01*
X146358764Y-97814579D01*
X146481673Y-97651821D01*
X146572582Y-97469250D01*
X146628397Y-97273083D01*
X146647215Y-97070000D01*
X146647215Y-97069999D01*
X146976785Y-97069999D01*
X146976785Y-97070000D01*
X146995602Y-97273082D01*
X147051417Y-97469247D01*
X147051422Y-97469260D01*
X147142327Y-97651821D01*
X147265237Y-97814581D01*
X147415958Y-97951980D01*
X147415960Y-97951982D01*
X147515141Y-98013392D01*
X147589363Y-98059348D01*
X147779544Y-98133024D01*
X147980024Y-98170500D01*
X147980026Y-98170500D01*
X148183974Y-98170500D01*
X148183976Y-98170500D01*
X148384456Y-98133024D01*
X148574637Y-98059348D01*
X148748041Y-97951981D01*
X148898764Y-97814579D01*
X149021673Y-97651821D01*
X149112582Y-97469250D01*
X149168397Y-97273083D01*
X149187215Y-97070000D01*
X149168397Y-96866917D01*
X149112582Y-96670750D01*
X149021673Y-96488179D01*
X148971799Y-96422135D01*
X152061500Y-96422135D01*
X152061500Y-97717870D01*
X152061501Y-97717876D01*
X152067908Y-97777483D01*
X152118202Y-97912328D01*
X152118206Y-97912335D01*
X152204452Y-98027544D01*
X152204455Y-98027547D01*
X152319664Y-98113793D01*
X152319671Y-98113797D01*
X152454517Y-98164091D01*
X152454516Y-98164091D01*
X152461444Y-98164835D01*
X152514127Y-98170500D01*
X153809872Y-98170499D01*
X153869483Y-98164091D01*
X154004331Y-98113796D01*
X154119546Y-98027546D01*
X154205796Y-97912331D01*
X154256091Y-97777483D01*
X154262500Y-97717873D01*
X154262499Y-96422128D01*
X154256091Y-96362517D01*
X154205796Y-96227669D01*
X154205795Y-96227668D01*
X154205793Y-96227664D01*
X154119547Y-96112455D01*
X154119544Y-96112452D01*
X154004335Y-96026206D01*
X154004328Y-96026202D01*
X153869482Y-95975908D01*
X153869483Y-95975908D01*
X153809883Y-95969501D01*
X153809881Y-95969500D01*
X153809873Y-95969500D01*
X153809864Y-95969500D01*
X152514129Y-95969500D01*
X152514123Y-95969501D01*
X152454516Y-95975908D01*
X152319671Y-96026202D01*
X152319664Y-96026206D01*
X152204455Y-96112452D01*
X152204452Y-96112455D01*
X152118206Y-96227664D01*
X152118202Y-96227671D01*
X152067908Y-96362517D01*
X152061501Y-96422116D01*
X152061501Y-96422123D01*
X152061500Y-96422135D01*
X148971799Y-96422135D01*
X148898764Y-96325421D01*
X148898762Y-96325418D01*
X148748041Y-96188019D01*
X148748039Y-96188017D01*
X148574642Y-96080655D01*
X148574635Y-96080651D01*
X148479546Y-96043814D01*
X148384456Y-96006976D01*
X148183976Y-95969500D01*
X147980024Y-95969500D01*
X147779544Y-96006976D01*
X147779541Y-96006976D01*
X147779541Y-96006977D01*
X147589364Y-96080651D01*
X147589357Y-96080655D01*
X147415960Y-96188017D01*
X147415958Y-96188019D01*
X147265237Y-96325418D01*
X147142327Y-96488178D01*
X147051422Y-96670739D01*
X147051417Y-96670752D01*
X146995602Y-96866917D01*
X146976785Y-97069999D01*
X146647215Y-97069999D01*
X146628397Y-96866917D01*
X146572582Y-96670750D01*
X146481673Y-96488179D01*
X146358764Y-96325421D01*
X146358762Y-96325418D01*
X146208041Y-96188019D01*
X146208039Y-96188017D01*
X146034642Y-96080655D01*
X146034635Y-96080651D01*
X145939546Y-96043814D01*
X145844456Y-96006976D01*
X145643976Y-95969500D01*
X145440024Y-95969500D01*
X145239544Y-96006976D01*
X145239541Y-96006976D01*
X145239541Y-96006977D01*
X145049364Y-96080651D01*
X145049357Y-96080655D01*
X144875960Y-96188017D01*
X144875958Y-96188019D01*
X144725237Y-96325418D01*
X144602327Y-96488178D01*
X144511422Y-96670739D01*
X144511417Y-96670752D01*
X144455602Y-96866917D01*
X144436785Y-97069999D01*
X144107215Y-97069999D01*
X144088397Y-96866917D01*
X144032582Y-96670750D01*
X143941673Y-96488179D01*
X143818764Y-96325421D01*
X143818762Y-96325418D01*
X143668041Y-96188019D01*
X143668039Y-96188017D01*
X143494642Y-96080655D01*
X143494635Y-96080651D01*
X143399546Y-96043814D01*
X143304456Y-96006976D01*
X143103976Y-95969500D01*
X142900024Y-95969500D01*
X142699544Y-96006976D01*
X142699541Y-96006976D01*
X142699541Y-96006977D01*
X142509364Y-96080651D01*
X142509357Y-96080655D01*
X142335960Y-96188017D01*
X142335958Y-96188019D01*
X142185237Y-96325418D01*
X142062327Y-96488178D01*
X141971422Y-96670739D01*
X141971417Y-96670752D01*
X141915602Y-96866917D01*
X141896785Y-97069999D01*
X141567215Y-97069999D01*
X141548397Y-96866917D01*
X141492582Y-96670750D01*
X141401673Y-96488179D01*
X141278764Y-96325421D01*
X141278762Y-96325418D01*
X141128041Y-96188019D01*
X141128039Y-96188017D01*
X140954642Y-96080655D01*
X140954635Y-96080651D01*
X140859546Y-96043814D01*
X140764456Y-96006976D01*
X140563976Y-95969500D01*
X140360024Y-95969500D01*
X140159544Y-96006976D01*
X140159541Y-96006976D01*
X140159541Y-96006977D01*
X139969364Y-96080651D01*
X139969357Y-96080655D01*
X139795960Y-96188017D01*
X139795958Y-96188019D01*
X139645237Y-96325418D01*
X139522327Y-96488178D01*
X139431422Y-96670739D01*
X139431417Y-96670752D01*
X139375602Y-96866917D01*
X139356785Y-97069999D01*
X139027215Y-97069999D01*
X139008397Y-96866917D01*
X138952582Y-96670750D01*
X138861673Y-96488179D01*
X138738764Y-96325421D01*
X138738762Y-96325418D01*
X138588041Y-96188019D01*
X138588039Y-96188017D01*
X138414642Y-96080655D01*
X138414635Y-96080651D01*
X138319546Y-96043814D01*
X138224456Y-96006976D01*
X138023976Y-95969500D01*
X137820024Y-95969500D01*
X137619544Y-96006976D01*
X137619541Y-96006976D01*
X137619541Y-96006977D01*
X137429364Y-96080651D01*
X137429357Y-96080655D01*
X137255960Y-96188017D01*
X137255958Y-96188019D01*
X137105237Y-96325418D01*
X136982327Y-96488178D01*
X136891422Y-96670739D01*
X136891417Y-96670752D01*
X136835602Y-96866917D01*
X136816785Y-97069999D01*
X136487215Y-97069999D01*
X136468397Y-96866917D01*
X136412582Y-96670750D01*
X136321673Y-96488179D01*
X136198764Y-96325421D01*
X136198762Y-96325418D01*
X136048041Y-96188019D01*
X136048039Y-96188017D01*
X135874642Y-96080655D01*
X135874635Y-96080651D01*
X135779546Y-96043814D01*
X135684456Y-96006976D01*
X135483976Y-95969500D01*
X135280024Y-95969500D01*
X135079544Y-96006976D01*
X135079541Y-96006976D01*
X135079541Y-96006977D01*
X134889364Y-96080651D01*
X134889357Y-96080655D01*
X134715960Y-96188017D01*
X134715958Y-96188019D01*
X134565237Y-96325418D01*
X134442327Y-96488178D01*
X134351422Y-96670739D01*
X134351417Y-96670752D01*
X134295602Y-96866917D01*
X134276785Y-97069999D01*
X133947215Y-97069999D01*
X133928397Y-96866917D01*
X133872582Y-96670750D01*
X133781673Y-96488179D01*
X133658764Y-96325421D01*
X133658762Y-96325418D01*
X133508041Y-96188019D01*
X133508039Y-96188017D01*
X133334642Y-96080655D01*
X133334635Y-96080651D01*
X133239546Y-96043814D01*
X133144456Y-96006976D01*
X132943976Y-95969500D01*
X132740024Y-95969500D01*
X132539544Y-96006976D01*
X132539541Y-96006976D01*
X132539541Y-96006977D01*
X132349364Y-96080651D01*
X132349357Y-96080655D01*
X132175960Y-96188017D01*
X132175958Y-96188019D01*
X132025237Y-96325418D01*
X131902327Y-96488178D01*
X131811422Y-96670739D01*
X131811417Y-96670752D01*
X131755602Y-96866917D01*
X131736785Y-97069999D01*
X128867215Y-97069999D01*
X128848397Y-96866917D01*
X128792582Y-96670750D01*
X128701673Y-96488179D01*
X128578764Y-96325421D01*
X128578762Y-96325418D01*
X128428041Y-96188019D01*
X128428039Y-96188017D01*
X128254642Y-96080655D01*
X128254635Y-96080651D01*
X128159546Y-96043814D01*
X128064456Y-96006976D01*
X127863976Y-95969500D01*
X127660024Y-95969500D01*
X127459544Y-96006976D01*
X127459541Y-96006976D01*
X127459541Y-96006977D01*
X127269364Y-96080651D01*
X127269357Y-96080655D01*
X127095960Y-96188017D01*
X127095958Y-96188019D01*
X126945237Y-96325418D01*
X126822327Y-96488178D01*
X126731422Y-96670739D01*
X126731417Y-96670752D01*
X126675602Y-96866917D01*
X126656785Y-97069999D01*
X126327215Y-97069999D01*
X126308397Y-96866917D01*
X126252582Y-96670750D01*
X126161673Y-96488179D01*
X126038764Y-96325421D01*
X126038762Y-96325418D01*
X125888041Y-96188019D01*
X125888039Y-96188017D01*
X125714642Y-96080655D01*
X125714635Y-96080651D01*
X125619546Y-96043814D01*
X125524456Y-96006976D01*
X125323976Y-95969500D01*
X125120024Y-95969500D01*
X124919544Y-96006976D01*
X124919541Y-96006976D01*
X124919541Y-96006977D01*
X124729364Y-96080651D01*
X124729357Y-96080655D01*
X124555960Y-96188017D01*
X124555958Y-96188019D01*
X124405237Y-96325418D01*
X124282327Y-96488178D01*
X124191422Y-96670739D01*
X124191417Y-96670752D01*
X124135602Y-96866917D01*
X124116785Y-97069999D01*
X123787215Y-97069999D01*
X123768397Y-96866917D01*
X123712582Y-96670750D01*
X123621673Y-96488179D01*
X123498764Y-96325421D01*
X123498762Y-96325418D01*
X123348041Y-96188019D01*
X123348039Y-96188017D01*
X123174642Y-96080655D01*
X123174635Y-96080651D01*
X123079546Y-96043814D01*
X122984456Y-96006976D01*
X122783976Y-95969500D01*
X122580024Y-95969500D01*
X122379544Y-96006976D01*
X122379541Y-96006976D01*
X122379541Y-96006977D01*
X122189364Y-96080651D01*
X122189357Y-96080655D01*
X122015960Y-96188017D01*
X122015958Y-96188019D01*
X121865237Y-96325418D01*
X121742327Y-96488178D01*
X121651422Y-96670739D01*
X121651417Y-96670752D01*
X121595602Y-96866917D01*
X121576785Y-97069999D01*
X121247215Y-97069999D01*
X121228397Y-96866917D01*
X121172582Y-96670750D01*
X121081673Y-96488179D01*
X120958764Y-96325421D01*
X120958762Y-96325418D01*
X120808041Y-96188019D01*
X120808039Y-96188017D01*
X120634642Y-96080655D01*
X120634635Y-96080651D01*
X120539546Y-96043814D01*
X120444456Y-96006976D01*
X120243976Y-95969500D01*
X120040024Y-95969500D01*
X119839544Y-96006976D01*
X119839541Y-96006976D01*
X119839541Y-96006977D01*
X119649364Y-96080651D01*
X119649357Y-96080655D01*
X119475960Y-96188017D01*
X119475958Y-96188019D01*
X119325237Y-96325418D01*
X119202327Y-96488178D01*
X119111422Y-96670739D01*
X119111417Y-96670752D01*
X119055602Y-96866917D01*
X119036785Y-97069999D01*
X118707215Y-97069999D01*
X118688397Y-96866917D01*
X118632582Y-96670750D01*
X118541673Y-96488179D01*
X118418764Y-96325421D01*
X118418762Y-96325418D01*
X118268041Y-96188019D01*
X118268039Y-96188017D01*
X118094642Y-96080655D01*
X118094635Y-96080651D01*
X117999546Y-96043814D01*
X117904456Y-96006976D01*
X117703976Y-95969500D01*
X117500024Y-95969500D01*
X117299544Y-96006976D01*
X117299541Y-96006976D01*
X117299541Y-96006977D01*
X117109364Y-96080651D01*
X117109357Y-96080655D01*
X116935960Y-96188017D01*
X116935958Y-96188019D01*
X116785237Y-96325418D01*
X116662327Y-96488178D01*
X116571422Y-96670739D01*
X116571417Y-96670752D01*
X116515602Y-96866917D01*
X116496785Y-97069999D01*
X116167215Y-97069999D01*
X116148397Y-96866917D01*
X116092582Y-96670750D01*
X116001673Y-96488179D01*
X115878764Y-96325421D01*
X115878762Y-96325418D01*
X115728041Y-96188019D01*
X115728039Y-96188017D01*
X115554642Y-96080655D01*
X115554635Y-96080651D01*
X115459546Y-96043814D01*
X115364456Y-96006976D01*
X115163976Y-95969500D01*
X114960024Y-95969500D01*
X114759544Y-96006976D01*
X114759541Y-96006976D01*
X114759541Y-96006977D01*
X114569364Y-96080651D01*
X114569357Y-96080655D01*
X114395960Y-96188017D01*
X114395958Y-96188019D01*
X114245237Y-96325418D01*
X114122327Y-96488178D01*
X114031422Y-96670739D01*
X114031417Y-96670752D01*
X113975602Y-96866917D01*
X113956785Y-97069999D01*
X113627215Y-97069999D01*
X113608397Y-96866917D01*
X113552582Y-96670750D01*
X113461673Y-96488179D01*
X113338764Y-96325421D01*
X113338762Y-96325418D01*
X113188041Y-96188019D01*
X113188039Y-96188017D01*
X113014642Y-96080655D01*
X113014635Y-96080651D01*
X112919546Y-96043814D01*
X112824456Y-96006976D01*
X112623976Y-95969500D01*
X112420024Y-95969500D01*
X112219544Y-96006976D01*
X112219541Y-96006976D01*
X112219541Y-96006977D01*
X112029364Y-96080651D01*
X112029357Y-96080655D01*
X111855960Y-96188017D01*
X111855958Y-96188019D01*
X111705237Y-96325418D01*
X111582327Y-96488178D01*
X111491422Y-96670739D01*
X111491417Y-96670752D01*
X111435602Y-96866917D01*
X111416785Y-97069999D01*
X111087215Y-97069999D01*
X111068397Y-96866917D01*
X111012582Y-96670750D01*
X110921673Y-96488179D01*
X110798764Y-96325421D01*
X110798762Y-96325418D01*
X110648041Y-96188019D01*
X110648039Y-96188017D01*
X110474642Y-96080655D01*
X110474635Y-96080651D01*
X110379546Y-96043814D01*
X110284456Y-96006976D01*
X110083976Y-95969500D01*
X109880024Y-95969500D01*
X109679544Y-96006976D01*
X109679541Y-96006976D01*
X109679541Y-96006977D01*
X109489364Y-96080651D01*
X109489357Y-96080655D01*
X109315960Y-96188017D01*
X109315958Y-96188019D01*
X109165237Y-96325418D01*
X109042327Y-96488178D01*
X108951422Y-96670739D01*
X108951417Y-96670752D01*
X108895602Y-96866917D01*
X108876785Y-97069999D01*
X108547215Y-97069999D01*
X108528397Y-96866917D01*
X108472582Y-96670750D01*
X108381673Y-96488179D01*
X108258764Y-96325421D01*
X108258762Y-96325418D01*
X108108041Y-96188019D01*
X108108039Y-96188017D01*
X107934642Y-96080655D01*
X107934635Y-96080651D01*
X107839546Y-96043814D01*
X107744456Y-96006976D01*
X107543976Y-95969500D01*
X107340024Y-95969500D01*
X107139544Y-96006976D01*
X107139541Y-96006976D01*
X107139541Y-96006977D01*
X106949364Y-96080651D01*
X106949357Y-96080655D01*
X106775960Y-96188017D01*
X106775958Y-96188019D01*
X106625237Y-96325418D01*
X106502327Y-96488178D01*
X106411422Y-96670739D01*
X106411417Y-96670752D01*
X106355602Y-96866917D01*
X106336785Y-97069999D01*
X106007215Y-97069999D01*
X105988397Y-96866917D01*
X105932582Y-96670750D01*
X105841673Y-96488179D01*
X105718764Y-96325421D01*
X105718762Y-96325418D01*
X105568041Y-96188019D01*
X105568039Y-96188017D01*
X105394642Y-96080655D01*
X105394635Y-96080651D01*
X105299546Y-96043814D01*
X105204456Y-96006976D01*
X105003976Y-95969500D01*
X104800024Y-95969500D01*
X104599544Y-96006976D01*
X104599541Y-96006976D01*
X104599541Y-96006977D01*
X104409364Y-96080651D01*
X104409357Y-96080655D01*
X104235960Y-96188017D01*
X104235958Y-96188019D01*
X104085237Y-96325418D01*
X103962327Y-96488178D01*
X103871422Y-96670739D01*
X103871417Y-96670752D01*
X103815602Y-96866917D01*
X103796785Y-97069999D01*
X96266000Y-97069999D01*
X96266000Y-91829997D01*
X102376723Y-91829997D01*
X102376723Y-91830002D01*
X102395793Y-92047975D01*
X102395793Y-92047979D01*
X102452422Y-92259322D01*
X102452424Y-92259326D01*
X102452425Y-92259330D01*
X102498661Y-92358484D01*
X102544897Y-92457638D01*
X102544898Y-92457639D01*
X102670402Y-92636877D01*
X102825123Y-92791598D01*
X103004361Y-92917102D01*
X103202670Y-93009575D01*
X103414023Y-93066207D01*
X103596926Y-93082208D01*
X103631998Y-93085277D01*
X103632000Y-93085277D01*
X103632002Y-93085277D01*
X103660254Y-93082805D01*
X103849977Y-93066207D01*
X104061330Y-93009575D01*
X104259639Y-92917102D01*
X104438877Y-92791598D01*
X104593598Y-92636877D01*
X104719102Y-92457639D01*
X104811575Y-92259330D01*
X104868207Y-92047977D01*
X104887277Y-91830000D01*
X104887277Y-91829997D01*
X105678723Y-91829997D01*
X105678723Y-91830002D01*
X105697793Y-92047975D01*
X105697793Y-92047979D01*
X105754422Y-92259322D01*
X105754424Y-92259326D01*
X105754425Y-92259330D01*
X105800661Y-92358484D01*
X105846897Y-92457638D01*
X105846898Y-92457639D01*
X105972402Y-92636877D01*
X106127123Y-92791598D01*
X106306361Y-92917102D01*
X106504670Y-93009575D01*
X106716023Y-93066207D01*
X106898926Y-93082208D01*
X106933998Y-93085277D01*
X106934000Y-93085277D01*
X106934002Y-93085277D01*
X106962254Y-93082805D01*
X107151977Y-93066207D01*
X107363330Y-93009575D01*
X107561639Y-92917102D01*
X107740877Y-92791598D01*
X107895598Y-92636877D01*
X108021102Y-92457639D01*
X108113575Y-92259330D01*
X108170207Y-92047977D01*
X108189277Y-91830000D01*
X108170207Y-91612023D01*
X108113575Y-91400670D01*
X108021102Y-91202362D01*
X108021100Y-91202359D01*
X108021099Y-91202357D01*
X107895599Y-91023124D01*
X107895596Y-91023121D01*
X107740877Y-90868402D01*
X107650788Y-90805321D01*
X113049500Y-90805321D01*
X113049500Y-92854678D01*
X113064032Y-92927735D01*
X113064033Y-92927739D01*
X113064034Y-92927740D01*
X113119399Y-93010601D01*
X113202260Y-93065966D01*
X113202264Y-93065967D01*
X113275321Y-93080499D01*
X113275324Y-93080500D01*
X113275326Y-93080500D01*
X115324676Y-93080500D01*
X115324677Y-93080499D01*
X115397740Y-93065966D01*
X115480601Y-93010601D01*
X115535966Y-92927740D01*
X115550500Y-92854674D01*
X115550500Y-90805326D01*
X115550500Y-90805323D01*
X115550499Y-90805321D01*
X116351500Y-90805321D01*
X116351500Y-92854678D01*
X116366032Y-92927735D01*
X116366033Y-92927739D01*
X116366034Y-92927740D01*
X116421399Y-93010601D01*
X116504260Y-93065966D01*
X116504264Y-93065967D01*
X116577321Y-93080499D01*
X116577324Y-93080500D01*
X116577326Y-93080500D01*
X118626676Y-93080500D01*
X118626677Y-93080499D01*
X118699740Y-93065966D01*
X118782601Y-93010601D01*
X118837966Y-92927740D01*
X118852500Y-92854674D01*
X118852500Y-90805326D01*
X118852500Y-90805323D01*
X118852499Y-90805321D01*
X118837967Y-90732264D01*
X118837966Y-90732260D01*
X118782601Y-90649399D01*
X118699740Y-90594034D01*
X118699739Y-90594033D01*
X118699735Y-90594032D01*
X118626677Y-90579500D01*
X118626674Y-90579500D01*
X116577326Y-90579500D01*
X116577323Y-90579500D01*
X116504264Y-90594032D01*
X116504260Y-90594033D01*
X116421399Y-90649399D01*
X116366033Y-90732260D01*
X116366032Y-90732264D01*
X116351500Y-90805321D01*
X115550499Y-90805321D01*
X115535967Y-90732264D01*
X115535966Y-90732260D01*
X115480601Y-90649399D01*
X115397740Y-90594034D01*
X115397739Y-90594033D01*
X115397735Y-90594032D01*
X115324677Y-90579500D01*
X115324674Y-90579500D01*
X113275326Y-90579500D01*
X113275323Y-90579500D01*
X113202264Y-90594032D01*
X113202260Y-90594033D01*
X113119399Y-90649399D01*
X113064033Y-90732260D01*
X113064032Y-90732264D01*
X113049500Y-90805321D01*
X107650788Y-90805321D01*
X107561639Y-90742898D01*
X107561640Y-90742898D01*
X107561638Y-90742897D01*
X107462484Y-90696661D01*
X107363330Y-90650425D01*
X107363326Y-90650424D01*
X107363322Y-90650422D01*
X107151977Y-90593793D01*
X106934002Y-90574723D01*
X106933998Y-90574723D01*
X106788682Y-90587436D01*
X106716023Y-90593793D01*
X106716020Y-90593793D01*
X106504677Y-90650422D01*
X106504668Y-90650426D01*
X106306361Y-90742898D01*
X106306357Y-90742900D01*
X106127121Y-90868402D01*
X105972402Y-91023121D01*
X105846900Y-91202357D01*
X105846898Y-91202361D01*
X105754426Y-91400668D01*
X105754422Y-91400677D01*
X105697793Y-91612020D01*
X105697793Y-91612024D01*
X105678723Y-91829997D01*
X104887277Y-91829997D01*
X104868207Y-91612023D01*
X104811575Y-91400670D01*
X104719102Y-91202362D01*
X104719100Y-91202359D01*
X104719099Y-91202357D01*
X104593599Y-91023124D01*
X104593596Y-91023121D01*
X104438877Y-90868402D01*
X104259639Y-90742898D01*
X104259640Y-90742898D01*
X104259638Y-90742897D01*
X104160484Y-90696661D01*
X104061330Y-90650425D01*
X104061326Y-90650424D01*
X104061322Y-90650422D01*
X103849977Y-90593793D01*
X103632002Y-90574723D01*
X103631998Y-90574723D01*
X103486682Y-90587436D01*
X103414023Y-90593793D01*
X103414020Y-90593793D01*
X103202677Y-90650422D01*
X103202668Y-90650426D01*
X103004361Y-90742898D01*
X103004357Y-90742900D01*
X102825121Y-90868402D01*
X102670402Y-91023121D01*
X102544900Y-91202357D01*
X102544898Y-91202361D01*
X102452426Y-91400668D01*
X102452422Y-91400677D01*
X102395793Y-91612020D01*
X102395793Y-91612024D01*
X102376723Y-91829997D01*
X96266000Y-91829997D01*
X96266000Y-85725321D01*
X102381500Y-85725321D01*
X102381500Y-87774678D01*
X102396032Y-87847735D01*
X102396033Y-87847739D01*
X102396034Y-87847740D01*
X102451399Y-87930601D01*
X102534260Y-87985966D01*
X102534264Y-87985967D01*
X102607321Y-88000499D01*
X102607324Y-88000500D01*
X102607326Y-88000500D01*
X104656676Y-88000500D01*
X104656677Y-88000499D01*
X104729740Y-87985966D01*
X104812601Y-87930601D01*
X104867966Y-87847740D01*
X104882500Y-87774674D01*
X104882500Y-85725326D01*
X104882500Y-85725323D01*
X104882499Y-85725321D01*
X105683500Y-85725321D01*
X105683500Y-87774678D01*
X105698032Y-87847735D01*
X105698033Y-87847739D01*
X105698034Y-87847740D01*
X105753399Y-87930601D01*
X105836260Y-87985966D01*
X105836264Y-87985967D01*
X105909321Y-88000499D01*
X105909324Y-88000500D01*
X105909326Y-88000500D01*
X107958676Y-88000500D01*
X107958677Y-88000499D01*
X108031740Y-87985966D01*
X108114601Y-87930601D01*
X108169966Y-87847740D01*
X108184500Y-87774674D01*
X108184500Y-86749997D01*
X113044723Y-86749997D01*
X113044723Y-86750002D01*
X113063793Y-86967975D01*
X113063793Y-86967979D01*
X113120422Y-87179322D01*
X113120424Y-87179326D01*
X113120425Y-87179330D01*
X113166661Y-87278484D01*
X113212897Y-87377638D01*
X113212898Y-87377639D01*
X113338402Y-87556877D01*
X113493123Y-87711598D01*
X113672361Y-87837102D01*
X113870670Y-87929575D01*
X114082023Y-87986207D01*
X114264926Y-88002208D01*
X114299998Y-88005277D01*
X114300000Y-88005277D01*
X114300002Y-88005277D01*
X114328254Y-88002805D01*
X114517977Y-87986207D01*
X114729330Y-87929575D01*
X114927639Y-87837102D01*
X115106877Y-87711598D01*
X115261598Y-87556877D01*
X115387102Y-87377639D01*
X115479575Y-87179330D01*
X115536207Y-86967977D01*
X115555277Y-86750000D01*
X115536207Y-86532023D01*
X115479575Y-86320670D01*
X115387102Y-86122362D01*
X115387100Y-86122359D01*
X115387099Y-86122357D01*
X115261599Y-85943124D01*
X115261596Y-85943121D01*
X115106877Y-85788402D01*
X114927639Y-85662898D01*
X114927640Y-85662898D01*
X114927638Y-85662897D01*
X114800135Y-85603442D01*
X114729330Y-85570425D01*
X114729326Y-85570424D01*
X114729322Y-85570422D01*
X114517977Y-85513793D01*
X114300002Y-85494723D01*
X114299998Y-85494723D01*
X114154682Y-85507436D01*
X114082023Y-85513793D01*
X114082020Y-85513793D01*
X113870677Y-85570422D01*
X113870668Y-85570426D01*
X113672361Y-85662898D01*
X113672357Y-85662900D01*
X113493121Y-85788402D01*
X113338402Y-85943121D01*
X113212900Y-86122357D01*
X113212898Y-86122361D01*
X113120426Y-86320668D01*
X113120422Y-86320677D01*
X113063793Y-86532020D01*
X113063793Y-86532024D01*
X113044723Y-86749997D01*
X108184500Y-86749997D01*
X108184500Y-85725326D01*
X108184500Y-85725323D01*
X108184499Y-85725321D01*
X108169967Y-85652264D01*
X108169966Y-85652260D01*
X108161865Y-85640136D01*
X108114601Y-85569399D01*
X108031740Y-85514034D01*
X108031739Y-85514033D01*
X108031735Y-85514032D01*
X107958677Y-85499500D01*
X107958674Y-85499500D01*
X105909326Y-85499500D01*
X105909323Y-85499500D01*
X105836264Y-85514032D01*
X105836260Y-85514033D01*
X105753399Y-85569399D01*
X105698033Y-85652260D01*
X105698032Y-85652264D01*
X105683500Y-85725321D01*
X104882499Y-85725321D01*
X104867967Y-85652264D01*
X104867966Y-85652260D01*
X104859865Y-85640136D01*
X104812601Y-85569399D01*
X104729740Y-85514034D01*
X104729739Y-85514033D01*
X104729735Y-85514032D01*
X104656677Y-85499500D01*
X104656674Y-85499500D01*
X102607326Y-85499500D01*
X102607323Y-85499500D01*
X102534264Y-85514032D01*
X102534260Y-85514033D01*
X102451399Y-85569399D01*
X102396033Y-85652260D01*
X102396032Y-85652264D01*
X102381500Y-85725321D01*
X96266000Y-85725321D01*
X96266000Y-81415999D01*
X106336785Y-81415999D01*
X106336785Y-81416000D01*
X106355602Y-81619082D01*
X106411417Y-81815247D01*
X106411422Y-81815260D01*
X106502327Y-81997821D01*
X106625237Y-82160581D01*
X106775958Y-82297980D01*
X106775960Y-82297982D01*
X106775962Y-82297983D01*
X106949363Y-82405348D01*
X107139544Y-82479024D01*
X107340024Y-82516500D01*
X107340026Y-82516500D01*
X107543974Y-82516500D01*
X107543976Y-82516500D01*
X107744456Y-82479024D01*
X107934637Y-82405348D01*
X108108041Y-82297981D01*
X108258764Y-82160579D01*
X108381673Y-81997821D01*
X108472582Y-81815250D01*
X108528397Y-81619083D01*
X108547215Y-81416000D01*
X108547215Y-81415999D01*
X108876785Y-81415999D01*
X108876785Y-81416000D01*
X108895602Y-81619082D01*
X108951417Y-81815247D01*
X108951422Y-81815260D01*
X109042327Y-81997821D01*
X109165237Y-82160581D01*
X109315958Y-82297980D01*
X109315960Y-82297982D01*
X109315962Y-82297983D01*
X109489363Y-82405348D01*
X109679544Y-82479024D01*
X109880024Y-82516500D01*
X109880026Y-82516500D01*
X110083974Y-82516500D01*
X110083976Y-82516500D01*
X110284456Y-82479024D01*
X110474637Y-82405348D01*
X110648041Y-82297981D01*
X110798764Y-82160579D01*
X110921673Y-81997821D01*
X111012582Y-81815250D01*
X111068397Y-81619083D01*
X111087215Y-81416000D01*
X111087215Y-81415999D01*
X111416785Y-81415999D01*
X111416785Y-81416000D01*
X111435602Y-81619082D01*
X111491417Y-81815247D01*
X111491422Y-81815260D01*
X111582327Y-81997821D01*
X111705237Y-82160581D01*
X111855958Y-82297980D01*
X111855960Y-82297982D01*
X111855962Y-82297983D01*
X112029363Y-82405348D01*
X112219544Y-82479024D01*
X112420024Y-82516500D01*
X112420026Y-82516500D01*
X112623974Y-82516500D01*
X112623976Y-82516500D01*
X112824456Y-82479024D01*
X113014637Y-82405348D01*
X113188041Y-82297981D01*
X113338764Y-82160579D01*
X113461673Y-81997821D01*
X113552582Y-81815250D01*
X113608397Y-81619083D01*
X113627215Y-81416000D01*
X113608397Y-81212917D01*
X113552582Y-81016750D01*
X113461673Y-80834179D01*
X113338764Y-80671421D01*
X113338762Y-80671418D01*
X113188041Y-80534019D01*
X113188039Y-80534017D01*
X113014642Y-80426655D01*
X113014635Y-80426651D01*
X112872378Y-80371541D01*
X112824456Y-80352976D01*
X112623976Y-80315500D01*
X112420024Y-80315500D01*
X112219544Y-80352976D01*
X112219541Y-80352976D01*
X112219541Y-80352977D01*
X112029364Y-80426651D01*
X112029357Y-80426655D01*
X111855960Y-80534017D01*
X111855958Y-80534019D01*
X111705237Y-80671418D01*
X111582327Y-80834178D01*
X111491422Y-81016739D01*
X111491417Y-81016752D01*
X111435602Y-81212917D01*
X111416785Y-81415999D01*
X111087215Y-81415999D01*
X111068397Y-81212917D01*
X111012582Y-81016750D01*
X110921673Y-80834179D01*
X110798764Y-80671421D01*
X110798762Y-80671418D01*
X110648041Y-80534019D01*
X110648039Y-80534017D01*
X110474642Y-80426655D01*
X110474635Y-80426651D01*
X110332378Y-80371541D01*
X110284456Y-80352976D01*
X110083976Y-80315500D01*
X109880024Y-80315500D01*
X109679544Y-80352976D01*
X109679541Y-80352976D01*
X109679541Y-80352977D01*
X109489364Y-80426651D01*
X109489357Y-80426655D01*
X109315960Y-80534017D01*
X109315958Y-80534019D01*
X109165237Y-80671418D01*
X109042327Y-80834178D01*
X108951422Y-81016739D01*
X108951417Y-81016752D01*
X108895602Y-81212917D01*
X108876785Y-81415999D01*
X108547215Y-81415999D01*
X108528397Y-81212917D01*
X108472582Y-81016750D01*
X108381673Y-80834179D01*
X108258764Y-80671421D01*
X108258762Y-80671418D01*
X108108041Y-80534019D01*
X108108039Y-80534017D01*
X107934642Y-80426655D01*
X107934635Y-80426651D01*
X107792378Y-80371541D01*
X107744456Y-80352976D01*
X107543976Y-80315500D01*
X107340024Y-80315500D01*
X107139544Y-80352976D01*
X107139541Y-80352976D01*
X107139541Y-80352977D01*
X106949364Y-80426651D01*
X106949357Y-80426655D01*
X106775960Y-80534017D01*
X106775958Y-80534019D01*
X106625237Y-80671418D01*
X106502327Y-80834178D01*
X106411422Y-81016739D01*
X106411417Y-81016752D01*
X106355602Y-81212917D01*
X106336785Y-81415999D01*
X96266000Y-81415999D01*
X96266000Y-78875999D01*
X103796785Y-78875999D01*
X103796785Y-78876000D01*
X103815602Y-79079082D01*
X103871417Y-79275247D01*
X103871422Y-79275260D01*
X103962327Y-79457821D01*
X104085237Y-79620581D01*
X104235958Y-79757980D01*
X104235960Y-79757982D01*
X104335141Y-79819392D01*
X104409363Y-79865348D01*
X104599544Y-79939024D01*
X104800024Y-79976500D01*
X104800026Y-79976500D01*
X105003974Y-79976500D01*
X105003976Y-79976500D01*
X105204456Y-79939024D01*
X105394637Y-79865348D01*
X105568041Y-79757981D01*
X105718764Y-79620579D01*
X105841673Y-79457821D01*
X105932582Y-79275250D01*
X105988397Y-79079083D01*
X106007215Y-78876000D01*
X106007215Y-78875999D01*
X106336785Y-78875999D01*
X106336785Y-78876000D01*
X106355602Y-79079082D01*
X106411417Y-79275247D01*
X106411422Y-79275260D01*
X106502327Y-79457821D01*
X106625237Y-79620581D01*
X106775958Y-79757980D01*
X106775960Y-79757982D01*
X106875141Y-79819392D01*
X106949363Y-79865348D01*
X107139544Y-79939024D01*
X107340024Y-79976500D01*
X107340026Y-79976500D01*
X107543974Y-79976500D01*
X107543976Y-79976500D01*
X107744456Y-79939024D01*
X107934637Y-79865348D01*
X108108041Y-79757981D01*
X108258764Y-79620579D01*
X108381673Y-79457821D01*
X108472582Y-79275250D01*
X108528397Y-79079083D01*
X108547215Y-78876000D01*
X108547215Y-78875999D01*
X108876785Y-78875999D01*
X108876785Y-78876000D01*
X108895602Y-79079082D01*
X108951417Y-79275247D01*
X108951422Y-79275260D01*
X109042327Y-79457821D01*
X109165237Y-79620581D01*
X109315958Y-79757980D01*
X109315960Y-79757982D01*
X109415141Y-79819392D01*
X109489363Y-79865348D01*
X109679544Y-79939024D01*
X109880024Y-79976500D01*
X109880026Y-79976500D01*
X110083974Y-79976500D01*
X110083976Y-79976500D01*
X110284456Y-79939024D01*
X110474637Y-79865348D01*
X110648041Y-79757981D01*
X110798764Y-79620579D01*
X110921673Y-79457821D01*
X111012582Y-79275250D01*
X111068397Y-79079083D01*
X111087215Y-78876000D01*
X111087215Y-78875999D01*
X111416785Y-78875999D01*
X111416785Y-78876000D01*
X111435602Y-79079082D01*
X111491417Y-79275247D01*
X111491422Y-79275260D01*
X111582327Y-79457821D01*
X111705237Y-79620581D01*
X111855958Y-79757980D01*
X111855960Y-79757982D01*
X111955141Y-79819392D01*
X112029363Y-79865348D01*
X112219544Y-79939024D01*
X112420024Y-79976500D01*
X112420026Y-79976500D01*
X112623974Y-79976500D01*
X112623976Y-79976500D01*
X112824456Y-79939024D01*
X113014637Y-79865348D01*
X113188041Y-79757981D01*
X113338764Y-79620579D01*
X113461673Y-79457821D01*
X113552582Y-79275250D01*
X113608397Y-79079083D01*
X113627215Y-78876000D01*
X113627215Y-78875999D01*
X113956785Y-78875999D01*
X113956785Y-78876000D01*
X113975602Y-79079082D01*
X114031417Y-79275247D01*
X114031422Y-79275260D01*
X114122327Y-79457821D01*
X114245237Y-79620581D01*
X114395958Y-79757980D01*
X114395960Y-79757982D01*
X114495141Y-79819392D01*
X114569363Y-79865348D01*
X114759544Y-79939024D01*
X114960024Y-79976500D01*
X114960026Y-79976500D01*
X115163974Y-79976500D01*
X115163976Y-79976500D01*
X115364456Y-79939024D01*
X115454556Y-79904118D01*
X115524174Y-79898256D01*
X115585914Y-79930965D01*
X115587027Y-79932064D01*
X115965181Y-80310218D01*
X115998666Y-80371541D01*
X116001500Y-80397899D01*
X116001500Y-80502476D01*
X115981815Y-80569515D01*
X115929011Y-80615270D01*
X115859853Y-80625214D01*
X115796297Y-80596189D01*
X115793962Y-80594113D01*
X115728042Y-80534019D01*
X115728039Y-80534017D01*
X115554642Y-80426655D01*
X115554635Y-80426651D01*
X115412378Y-80371541D01*
X115364456Y-80352976D01*
X115163976Y-80315500D01*
X114960024Y-80315500D01*
X114759544Y-80352976D01*
X114759541Y-80352976D01*
X114759541Y-80352977D01*
X114569364Y-80426651D01*
X114569357Y-80426655D01*
X114395960Y-80534017D01*
X114395958Y-80534019D01*
X114245237Y-80671418D01*
X114122327Y-80834178D01*
X114031422Y-81016739D01*
X114031417Y-81016752D01*
X113975602Y-81212917D01*
X113956785Y-81415999D01*
X113956785Y-81416000D01*
X113975602Y-81619082D01*
X114031417Y-81815247D01*
X114031422Y-81815260D01*
X114122327Y-81997821D01*
X114245237Y-82160581D01*
X114395958Y-82297980D01*
X114395960Y-82297982D01*
X114395962Y-82297983D01*
X114569363Y-82405348D01*
X114759544Y-82479024D01*
X114960024Y-82516500D01*
X114960026Y-82516500D01*
X115163974Y-82516500D01*
X115163976Y-82516500D01*
X115364456Y-82479024D01*
X115554637Y-82405348D01*
X115728041Y-82297981D01*
X115793963Y-82237884D01*
X115856765Y-82207269D01*
X115926153Y-82215466D01*
X115980093Y-82259876D01*
X116001461Y-82326398D01*
X116001500Y-82329523D01*
X116001500Y-85574435D01*
X116027090Y-85669938D01*
X116059065Y-85725321D01*
X116076526Y-85755563D01*
X116430741Y-86109778D01*
X116464226Y-86171101D01*
X116459242Y-86240793D01*
X116455442Y-86249863D01*
X116422427Y-86320663D01*
X116422422Y-86320677D01*
X116365793Y-86532020D01*
X116365793Y-86532024D01*
X116346723Y-86749997D01*
X116346723Y-86750002D01*
X116365793Y-86967975D01*
X116365793Y-86967979D01*
X116422422Y-87179322D01*
X116422424Y-87179326D01*
X116422425Y-87179330D01*
X116468661Y-87278484D01*
X116514897Y-87377638D01*
X116514898Y-87377639D01*
X116640402Y-87556877D01*
X116795123Y-87711598D01*
X116974361Y-87837102D01*
X117172670Y-87929575D01*
X117384023Y-87986207D01*
X117566926Y-88002208D01*
X117601998Y-88005277D01*
X117602000Y-88005277D01*
X117602002Y-88005277D01*
X117630254Y-88002805D01*
X117819977Y-87986207D01*
X118031330Y-87929575D01*
X118229639Y-87837102D01*
X118408877Y-87711598D01*
X118563598Y-87556877D01*
X118689102Y-87377639D01*
X118781575Y-87179330D01*
X118838207Y-86967977D01*
X118857277Y-86750000D01*
X118838207Y-86532023D01*
X118781575Y-86320670D01*
X118689102Y-86122362D01*
X118689100Y-86122359D01*
X118689099Y-86122357D01*
X118563599Y-85943124D01*
X118563596Y-85943121D01*
X118408877Y-85788402D01*
X118229639Y-85662898D01*
X118229640Y-85662898D01*
X118229638Y-85662897D01*
X118102135Y-85603442D01*
X118031330Y-85570425D01*
X118031326Y-85570424D01*
X118031322Y-85570422D01*
X117819977Y-85513793D01*
X117602002Y-85494723D01*
X117601998Y-85494723D01*
X117456682Y-85507436D01*
X117384023Y-85513793D01*
X117384020Y-85513793D01*
X117172677Y-85570422D01*
X117172663Y-85570427D01*
X117101863Y-85603442D01*
X117032785Y-85613934D01*
X116969002Y-85585414D01*
X116961778Y-85578741D01*
X116788819Y-85405782D01*
X116755334Y-85344459D01*
X116752500Y-85318101D01*
X116752500Y-81415999D01*
X119036785Y-81415999D01*
X119036785Y-81416000D01*
X119055602Y-81619082D01*
X119111417Y-81815247D01*
X119111422Y-81815260D01*
X119202327Y-81997821D01*
X119325237Y-82160581D01*
X119475958Y-82297980D01*
X119475960Y-82297982D01*
X119475962Y-82297983D01*
X119649363Y-82405348D01*
X119839544Y-82479024D01*
X120040024Y-82516500D01*
X120040026Y-82516500D01*
X120243974Y-82516500D01*
X120243976Y-82516500D01*
X120444456Y-82479024D01*
X120634637Y-82405348D01*
X120808041Y-82297981D01*
X120958764Y-82160579D01*
X121081673Y-81997821D01*
X121172582Y-81815250D01*
X121228397Y-81619083D01*
X121247215Y-81416000D01*
X121247215Y-81415999D01*
X129196785Y-81415999D01*
X129196785Y-81416000D01*
X129215602Y-81619082D01*
X129271417Y-81815247D01*
X129271422Y-81815260D01*
X129362327Y-81997821D01*
X129485237Y-82160581D01*
X129635958Y-82297980D01*
X129635960Y-82297982D01*
X129635962Y-82297983D01*
X129809363Y-82405348D01*
X129999544Y-82479024D01*
X130200024Y-82516500D01*
X130200026Y-82516500D01*
X130403974Y-82516500D01*
X130403976Y-82516500D01*
X130604456Y-82479024D01*
X130794637Y-82405348D01*
X130968041Y-82297981D01*
X131118764Y-82160579D01*
X131241673Y-81997821D01*
X131332582Y-81815250D01*
X131388397Y-81619083D01*
X131407215Y-81416000D01*
X131407215Y-81415999D01*
X131736785Y-81415999D01*
X131736785Y-81416000D01*
X131755602Y-81619082D01*
X131811417Y-81815247D01*
X131811422Y-81815260D01*
X131902327Y-81997821D01*
X132025237Y-82160581D01*
X132175958Y-82297980D01*
X132175960Y-82297982D01*
X132175962Y-82297983D01*
X132349363Y-82405348D01*
X132539544Y-82479024D01*
X132740024Y-82516500D01*
X132740026Y-82516500D01*
X132943974Y-82516500D01*
X132943976Y-82516500D01*
X133144456Y-82479024D01*
X133334637Y-82405348D01*
X133508041Y-82297981D01*
X133658764Y-82160579D01*
X133781673Y-81997821D01*
X133872582Y-81815250D01*
X133928397Y-81619083D01*
X133947215Y-81416000D01*
X133947215Y-81415999D01*
X134276785Y-81415999D01*
X134276785Y-81416000D01*
X134295602Y-81619082D01*
X134351417Y-81815247D01*
X134351422Y-81815260D01*
X134442327Y-81997821D01*
X134565237Y-82160581D01*
X134715958Y-82297980D01*
X134715960Y-82297982D01*
X134715962Y-82297983D01*
X134889363Y-82405348D01*
X135079544Y-82479024D01*
X135280024Y-82516500D01*
X135280026Y-82516500D01*
X135483974Y-82516500D01*
X135483976Y-82516500D01*
X135684456Y-82479024D01*
X135874637Y-82405348D01*
X136048041Y-82297981D01*
X136198764Y-82160579D01*
X136321673Y-81997821D01*
X136412582Y-81815250D01*
X136468397Y-81619083D01*
X136487215Y-81416000D01*
X136487215Y-81415999D01*
X136816785Y-81415999D01*
X136816785Y-81416000D01*
X136835602Y-81619082D01*
X136891417Y-81815247D01*
X136891422Y-81815260D01*
X136982327Y-81997821D01*
X137105237Y-82160581D01*
X137255958Y-82297980D01*
X137255960Y-82297982D01*
X137255962Y-82297983D01*
X137429363Y-82405348D01*
X137619544Y-82479024D01*
X137820024Y-82516500D01*
X137820026Y-82516500D01*
X138023974Y-82516500D01*
X138023976Y-82516500D01*
X138224456Y-82479024D01*
X138414637Y-82405348D01*
X138588041Y-82297981D01*
X138738764Y-82160579D01*
X138861673Y-81997821D01*
X138952582Y-81815250D01*
X139008397Y-81619083D01*
X139027215Y-81416000D01*
X139027215Y-81415999D01*
X139356785Y-81415999D01*
X139356785Y-81416000D01*
X139375602Y-81619082D01*
X139431417Y-81815247D01*
X139431422Y-81815260D01*
X139522327Y-81997821D01*
X139645237Y-82160581D01*
X139795958Y-82297980D01*
X139795960Y-82297982D01*
X139795962Y-82297983D01*
X139969363Y-82405348D01*
X140159544Y-82479024D01*
X140360024Y-82516500D01*
X140360026Y-82516500D01*
X140563974Y-82516500D01*
X140563976Y-82516500D01*
X140764456Y-82479024D01*
X140954637Y-82405348D01*
X141128041Y-82297981D01*
X141278764Y-82160579D01*
X141401673Y-81997821D01*
X141492582Y-81815250D01*
X141548397Y-81619083D01*
X141567215Y-81416000D01*
X141567215Y-81415999D01*
X141896785Y-81415999D01*
X141896785Y-81416000D01*
X141915602Y-81619082D01*
X141971417Y-81815247D01*
X141971422Y-81815260D01*
X142062327Y-81997821D01*
X142185237Y-82160581D01*
X142335958Y-82297980D01*
X142335960Y-82297982D01*
X142335962Y-82297983D01*
X142509363Y-82405348D01*
X142699544Y-82479024D01*
X142900024Y-82516500D01*
X142900026Y-82516500D01*
X143103974Y-82516500D01*
X143103976Y-82516500D01*
X143304456Y-82479024D01*
X143494637Y-82405348D01*
X143668041Y-82297981D01*
X143818764Y-82160579D01*
X143941673Y-81997821D01*
X144032582Y-81815250D01*
X144088397Y-81619083D01*
X144107215Y-81416000D01*
X144107215Y-81415999D01*
X144436785Y-81415999D01*
X144436785Y-81416000D01*
X144455602Y-81619082D01*
X144511417Y-81815247D01*
X144511422Y-81815260D01*
X144602327Y-81997821D01*
X144725237Y-82160581D01*
X144875958Y-82297980D01*
X144875960Y-82297982D01*
X144875962Y-82297983D01*
X145049363Y-82405348D01*
X145239544Y-82479024D01*
X145440024Y-82516500D01*
X145440026Y-82516500D01*
X145643974Y-82516500D01*
X145643976Y-82516500D01*
X145844456Y-82479024D01*
X146034637Y-82405348D01*
X146208041Y-82297981D01*
X146358764Y-82160579D01*
X146481673Y-81997821D01*
X146572582Y-81815250D01*
X146628397Y-81619083D01*
X146647215Y-81416000D01*
X146647215Y-81415999D01*
X146976785Y-81415999D01*
X146976785Y-81416000D01*
X146995602Y-81619082D01*
X147051417Y-81815247D01*
X147051422Y-81815260D01*
X147142327Y-81997821D01*
X147265237Y-82160581D01*
X147415958Y-82297980D01*
X147415960Y-82297982D01*
X147415962Y-82297983D01*
X147589363Y-82405348D01*
X147779544Y-82479024D01*
X147980024Y-82516500D01*
X147980026Y-82516500D01*
X148183974Y-82516500D01*
X148183976Y-82516500D01*
X148384456Y-82479024D01*
X148574637Y-82405348D01*
X148748041Y-82297981D01*
X148898764Y-82160579D01*
X149021673Y-81997821D01*
X149112582Y-81815250D01*
X149168397Y-81619083D01*
X149187215Y-81416000D01*
X149187215Y-81415999D01*
X149516785Y-81415999D01*
X149516785Y-81416000D01*
X149535602Y-81619082D01*
X149591417Y-81815247D01*
X149591422Y-81815260D01*
X149682327Y-81997821D01*
X149805237Y-82160581D01*
X149955958Y-82297980D01*
X149955960Y-82297982D01*
X149955962Y-82297983D01*
X150129363Y-82405348D01*
X150319544Y-82479024D01*
X150520024Y-82516500D01*
X150520026Y-82516500D01*
X150723974Y-82516500D01*
X150723976Y-82516500D01*
X150924456Y-82479024D01*
X151114637Y-82405348D01*
X151288041Y-82297981D01*
X151438764Y-82160579D01*
X151561673Y-81997821D01*
X151652582Y-81815250D01*
X151708397Y-81619083D01*
X151727215Y-81416000D01*
X151708397Y-81212917D01*
X151652582Y-81016750D01*
X151561673Y-80834179D01*
X151438764Y-80671421D01*
X151438762Y-80671418D01*
X151288041Y-80534019D01*
X151288039Y-80534017D01*
X151114642Y-80426655D01*
X151114635Y-80426651D01*
X150972378Y-80371541D01*
X150924456Y-80352976D01*
X150723976Y-80315500D01*
X150520024Y-80315500D01*
X150319544Y-80352976D01*
X150319541Y-80352976D01*
X150319541Y-80352977D01*
X150129364Y-80426651D01*
X150129357Y-80426655D01*
X149955960Y-80534017D01*
X149955958Y-80534019D01*
X149805237Y-80671418D01*
X149682327Y-80834178D01*
X149591422Y-81016739D01*
X149591417Y-81016752D01*
X149535602Y-81212917D01*
X149516785Y-81415999D01*
X149187215Y-81415999D01*
X149168397Y-81212917D01*
X149112582Y-81016750D01*
X149021673Y-80834179D01*
X148898764Y-80671421D01*
X148898762Y-80671418D01*
X148748041Y-80534019D01*
X148748039Y-80534017D01*
X148574642Y-80426655D01*
X148574635Y-80426651D01*
X148432378Y-80371541D01*
X148384456Y-80352976D01*
X148183976Y-80315500D01*
X147980024Y-80315500D01*
X147779544Y-80352976D01*
X147779541Y-80352976D01*
X147779541Y-80352977D01*
X147589364Y-80426651D01*
X147589357Y-80426655D01*
X147415960Y-80534017D01*
X147415958Y-80534019D01*
X147265237Y-80671418D01*
X147142327Y-80834178D01*
X147051422Y-81016739D01*
X147051417Y-81016752D01*
X146995602Y-81212917D01*
X146976785Y-81415999D01*
X146647215Y-81415999D01*
X146628397Y-81212917D01*
X146572582Y-81016750D01*
X146481673Y-80834179D01*
X146358764Y-80671421D01*
X146358762Y-80671418D01*
X146208041Y-80534019D01*
X146208039Y-80534017D01*
X146034642Y-80426655D01*
X146034635Y-80426651D01*
X145892378Y-80371541D01*
X145844456Y-80352976D01*
X145643976Y-80315500D01*
X145440024Y-80315500D01*
X145239544Y-80352976D01*
X145239541Y-80352976D01*
X145239541Y-80352977D01*
X145049364Y-80426651D01*
X145049357Y-80426655D01*
X144875960Y-80534017D01*
X144875958Y-80534019D01*
X144725237Y-80671418D01*
X144602327Y-80834178D01*
X144511422Y-81016739D01*
X144511417Y-81016752D01*
X144455602Y-81212917D01*
X144436785Y-81415999D01*
X144107215Y-81415999D01*
X144088397Y-81212917D01*
X144032582Y-81016750D01*
X143941673Y-80834179D01*
X143818764Y-80671421D01*
X143818762Y-80671418D01*
X143668041Y-80534019D01*
X143668039Y-80534017D01*
X143494642Y-80426655D01*
X143494635Y-80426651D01*
X143352378Y-80371541D01*
X143304456Y-80352976D01*
X143103976Y-80315500D01*
X142900024Y-80315500D01*
X142699544Y-80352976D01*
X142699541Y-80352976D01*
X142699541Y-80352977D01*
X142509364Y-80426651D01*
X142509357Y-80426655D01*
X142335960Y-80534017D01*
X142335958Y-80534019D01*
X142185237Y-80671418D01*
X142062327Y-80834178D01*
X141971422Y-81016739D01*
X141971417Y-81016752D01*
X141915602Y-81212917D01*
X141896785Y-81415999D01*
X141567215Y-81415999D01*
X141548397Y-81212917D01*
X141492582Y-81016750D01*
X141401673Y-80834179D01*
X141278764Y-80671421D01*
X141278762Y-80671418D01*
X141128041Y-80534019D01*
X141128039Y-80534017D01*
X140954642Y-80426655D01*
X140954635Y-80426651D01*
X140812378Y-80371541D01*
X140764456Y-80352976D01*
X140563976Y-80315500D01*
X140360024Y-80315500D01*
X140159544Y-80352976D01*
X140159541Y-80352976D01*
X140159541Y-80352977D01*
X139969364Y-80426651D01*
X139969357Y-80426655D01*
X139795960Y-80534017D01*
X139795958Y-80534019D01*
X139645237Y-80671418D01*
X139522327Y-80834178D01*
X139431422Y-81016739D01*
X139431417Y-81016752D01*
X139375602Y-81212917D01*
X139356785Y-81415999D01*
X139027215Y-81415999D01*
X139008397Y-81212917D01*
X138952582Y-81016750D01*
X138861673Y-80834179D01*
X138738764Y-80671421D01*
X138738762Y-80671418D01*
X138588041Y-80534019D01*
X138588039Y-80534017D01*
X138414642Y-80426655D01*
X138414635Y-80426651D01*
X138272378Y-80371541D01*
X138224456Y-80352976D01*
X138023976Y-80315500D01*
X137820024Y-80315500D01*
X137619544Y-80352976D01*
X137619541Y-80352976D01*
X137619541Y-80352977D01*
X137429364Y-80426651D01*
X137429357Y-80426655D01*
X137255960Y-80534017D01*
X137255958Y-80534019D01*
X137105237Y-80671418D01*
X136982327Y-80834178D01*
X136891422Y-81016739D01*
X136891417Y-81016752D01*
X136835602Y-81212917D01*
X136816785Y-81415999D01*
X136487215Y-81415999D01*
X136468397Y-81212917D01*
X136412582Y-81016750D01*
X136321673Y-80834179D01*
X136198764Y-80671421D01*
X136198762Y-80671418D01*
X136048041Y-80534019D01*
X136048039Y-80534017D01*
X135874642Y-80426655D01*
X135874635Y-80426651D01*
X135732378Y-80371541D01*
X135684456Y-80352976D01*
X135483976Y-80315500D01*
X135280024Y-80315500D01*
X135079544Y-80352976D01*
X135079541Y-80352976D01*
X135079541Y-80352977D01*
X134889364Y-80426651D01*
X134889357Y-80426655D01*
X134715960Y-80534017D01*
X134715958Y-80534019D01*
X134565237Y-80671418D01*
X134442327Y-80834178D01*
X134351422Y-81016739D01*
X134351417Y-81016752D01*
X134295602Y-81212917D01*
X134276785Y-81415999D01*
X133947215Y-81415999D01*
X133928397Y-81212917D01*
X133872582Y-81016750D01*
X133781673Y-80834179D01*
X133658764Y-80671421D01*
X133658762Y-80671418D01*
X133508041Y-80534019D01*
X133508039Y-80534017D01*
X133334642Y-80426655D01*
X133334635Y-80426651D01*
X133192378Y-80371541D01*
X133144456Y-80352976D01*
X132943976Y-80315500D01*
X132740024Y-80315500D01*
X132539544Y-80352976D01*
X132539541Y-80352976D01*
X132539541Y-80352977D01*
X132349364Y-80426651D01*
X132349357Y-80426655D01*
X132175960Y-80534017D01*
X132175958Y-80534019D01*
X132025237Y-80671418D01*
X131902327Y-80834178D01*
X131811422Y-81016739D01*
X131811417Y-81016752D01*
X131755602Y-81212917D01*
X131736785Y-81415999D01*
X131407215Y-81415999D01*
X131388397Y-81212917D01*
X131332582Y-81016750D01*
X131241673Y-80834179D01*
X131118764Y-80671421D01*
X131118762Y-80671418D01*
X130968041Y-80534019D01*
X130968039Y-80534017D01*
X130794642Y-80426655D01*
X130794635Y-80426651D01*
X130652378Y-80371541D01*
X130604456Y-80352976D01*
X130403976Y-80315500D01*
X130200024Y-80315500D01*
X129999544Y-80352976D01*
X129999541Y-80352976D01*
X129999541Y-80352977D01*
X129809364Y-80426651D01*
X129809357Y-80426655D01*
X129635960Y-80534017D01*
X129635958Y-80534019D01*
X129485237Y-80671418D01*
X129362327Y-80834178D01*
X129271422Y-81016739D01*
X129271417Y-81016752D01*
X129215602Y-81212917D01*
X129196785Y-81415999D01*
X121247215Y-81415999D01*
X121228397Y-81212917D01*
X121172582Y-81016750D01*
X121081673Y-80834179D01*
X120958764Y-80671421D01*
X120958762Y-80671418D01*
X120808041Y-80534019D01*
X120808039Y-80534017D01*
X120634642Y-80426655D01*
X120634635Y-80426651D01*
X120492378Y-80371541D01*
X120444456Y-80352976D01*
X120243976Y-80315500D01*
X120040024Y-80315500D01*
X119839544Y-80352976D01*
X119839541Y-80352976D01*
X119839541Y-80352977D01*
X119649364Y-80426651D01*
X119649357Y-80426655D01*
X119475960Y-80534017D01*
X119475958Y-80534019D01*
X119325237Y-80671418D01*
X119202327Y-80834178D01*
X119111422Y-81016739D01*
X119111417Y-81016752D01*
X119055602Y-81212917D01*
X119036785Y-81415999D01*
X116752500Y-81415999D01*
X116752500Y-80141567D01*
X116752500Y-80141565D01*
X116726910Y-80046062D01*
X116702192Y-80003250D01*
X116702192Y-80003249D01*
X116702190Y-80003247D01*
X116677475Y-79960437D01*
X116677474Y-79960436D01*
X116677471Y-79960432D01*
X116121709Y-79404672D01*
X116088224Y-79343349D01*
X116092666Y-79281234D01*
X116091013Y-79280764D01*
X116148397Y-79079082D01*
X116167215Y-78876000D01*
X116167215Y-78875999D01*
X116496785Y-78875999D01*
X116496785Y-78876000D01*
X116515602Y-79079082D01*
X116571417Y-79275247D01*
X116571422Y-79275260D01*
X116662327Y-79457821D01*
X116785237Y-79620581D01*
X116935958Y-79757980D01*
X116935960Y-79757982D01*
X117035141Y-79819392D01*
X117109363Y-79865348D01*
X117299544Y-79939024D01*
X117500024Y-79976500D01*
X117500026Y-79976500D01*
X117703974Y-79976500D01*
X117703976Y-79976500D01*
X117904456Y-79939024D01*
X118094637Y-79865348D01*
X118268041Y-79757981D01*
X118418764Y-79620579D01*
X118541673Y-79457821D01*
X118632582Y-79275250D01*
X118688397Y-79079083D01*
X118707215Y-78876000D01*
X118707215Y-78875999D01*
X119036785Y-78875999D01*
X119036785Y-78876000D01*
X119055602Y-79079082D01*
X119111417Y-79275247D01*
X119111422Y-79275260D01*
X119202327Y-79457821D01*
X119325237Y-79620581D01*
X119475958Y-79757980D01*
X119475960Y-79757982D01*
X119575141Y-79819392D01*
X119649363Y-79865348D01*
X119839544Y-79939024D01*
X120040024Y-79976500D01*
X120040026Y-79976500D01*
X120243974Y-79976500D01*
X120243976Y-79976500D01*
X120444456Y-79939024D01*
X120634637Y-79865348D01*
X120808041Y-79757981D01*
X120958764Y-79620579D01*
X121081673Y-79457821D01*
X121172582Y-79275250D01*
X121228397Y-79079083D01*
X121247215Y-78876000D01*
X121247215Y-78875999D01*
X121576785Y-78875999D01*
X121576785Y-78876000D01*
X121595602Y-79079082D01*
X121651417Y-79275247D01*
X121651422Y-79275260D01*
X121742327Y-79457821D01*
X121865237Y-79620581D01*
X122015958Y-79757980D01*
X122015960Y-79757982D01*
X122115141Y-79819392D01*
X122189363Y-79865348D01*
X122379544Y-79939024D01*
X122580024Y-79976500D01*
X122580026Y-79976500D01*
X122783974Y-79976500D01*
X122783976Y-79976500D01*
X122984456Y-79939024D01*
X123174637Y-79865348D01*
X123348041Y-79757981D01*
X123498764Y-79620579D01*
X123621673Y-79457821D01*
X123712582Y-79275250D01*
X123768397Y-79079083D01*
X123787215Y-78876000D01*
X123787215Y-78875999D01*
X124116785Y-78875999D01*
X124116785Y-78876000D01*
X124135602Y-79079082D01*
X124191417Y-79275247D01*
X124191422Y-79275260D01*
X124282327Y-79457821D01*
X124405237Y-79620581D01*
X124555958Y-79757980D01*
X124555960Y-79757982D01*
X124655141Y-79819392D01*
X124729363Y-79865348D01*
X124919544Y-79939024D01*
X125120024Y-79976500D01*
X125120026Y-79976500D01*
X125323974Y-79976500D01*
X125323976Y-79976500D01*
X125524456Y-79939024D01*
X125714637Y-79865348D01*
X125888041Y-79757981D01*
X126038764Y-79620579D01*
X126161673Y-79457821D01*
X126252582Y-79275250D01*
X126308397Y-79079083D01*
X126327215Y-78876000D01*
X126327215Y-78875999D01*
X126656785Y-78875999D01*
X126656785Y-78876000D01*
X126675602Y-79079082D01*
X126731417Y-79275247D01*
X126731422Y-79275260D01*
X126822327Y-79457821D01*
X126945237Y-79620581D01*
X127095958Y-79757980D01*
X127095960Y-79757982D01*
X127195141Y-79819392D01*
X127269363Y-79865348D01*
X127459544Y-79939024D01*
X127660024Y-79976500D01*
X127660026Y-79976500D01*
X127863974Y-79976500D01*
X127863976Y-79976500D01*
X128064456Y-79939024D01*
X128254637Y-79865348D01*
X128428041Y-79757981D01*
X128578764Y-79620579D01*
X128701673Y-79457821D01*
X128792582Y-79275250D01*
X128848397Y-79079083D01*
X128867215Y-78876000D01*
X128867215Y-78875999D01*
X131736785Y-78875999D01*
X131736785Y-78876000D01*
X131755602Y-79079082D01*
X131811417Y-79275247D01*
X131811422Y-79275260D01*
X131902327Y-79457821D01*
X132025237Y-79620581D01*
X132175958Y-79757980D01*
X132175960Y-79757982D01*
X132275141Y-79819392D01*
X132349363Y-79865348D01*
X132539544Y-79939024D01*
X132740024Y-79976500D01*
X132740026Y-79976500D01*
X132943974Y-79976500D01*
X132943976Y-79976500D01*
X133144456Y-79939024D01*
X133334637Y-79865348D01*
X133508041Y-79757981D01*
X133658764Y-79620579D01*
X133781673Y-79457821D01*
X133872582Y-79275250D01*
X133928397Y-79079083D01*
X133947215Y-78876000D01*
X133947215Y-78875999D01*
X134276785Y-78875999D01*
X134276785Y-78876000D01*
X134295602Y-79079082D01*
X134351417Y-79275247D01*
X134351422Y-79275260D01*
X134442327Y-79457821D01*
X134565237Y-79620581D01*
X134715958Y-79757980D01*
X134715960Y-79757982D01*
X134815141Y-79819392D01*
X134889363Y-79865348D01*
X135079544Y-79939024D01*
X135280024Y-79976500D01*
X135280026Y-79976500D01*
X135483974Y-79976500D01*
X135483976Y-79976500D01*
X135684456Y-79939024D01*
X135874637Y-79865348D01*
X136048041Y-79757981D01*
X136198764Y-79620579D01*
X136321673Y-79457821D01*
X136412582Y-79275250D01*
X136468397Y-79079083D01*
X136487215Y-78876000D01*
X136487215Y-78875999D01*
X136816785Y-78875999D01*
X136816785Y-78876000D01*
X136835602Y-79079082D01*
X136891417Y-79275247D01*
X136891422Y-79275260D01*
X136982327Y-79457821D01*
X137105237Y-79620581D01*
X137255958Y-79757980D01*
X137255960Y-79757982D01*
X137355141Y-79819392D01*
X137429363Y-79865348D01*
X137619544Y-79939024D01*
X137820024Y-79976500D01*
X137820026Y-79976500D01*
X138023974Y-79976500D01*
X138023976Y-79976500D01*
X138224456Y-79939024D01*
X138414637Y-79865348D01*
X138588041Y-79757981D01*
X138738764Y-79620579D01*
X138861673Y-79457821D01*
X138952582Y-79275250D01*
X139008397Y-79079083D01*
X139027215Y-78876000D01*
X139027215Y-78875999D01*
X139356785Y-78875999D01*
X139356785Y-78876000D01*
X139375602Y-79079082D01*
X139431417Y-79275247D01*
X139431422Y-79275260D01*
X139522327Y-79457821D01*
X139645237Y-79620581D01*
X139795958Y-79757980D01*
X139795960Y-79757982D01*
X139895141Y-79819392D01*
X139969363Y-79865348D01*
X140159544Y-79939024D01*
X140360024Y-79976500D01*
X140360026Y-79976500D01*
X140563974Y-79976500D01*
X140563976Y-79976500D01*
X140764456Y-79939024D01*
X140954637Y-79865348D01*
X141128041Y-79757981D01*
X141278764Y-79620579D01*
X141401673Y-79457821D01*
X141492582Y-79275250D01*
X141548397Y-79079083D01*
X141567215Y-78876000D01*
X141567215Y-78875999D01*
X141896785Y-78875999D01*
X141896785Y-78876000D01*
X141915602Y-79079082D01*
X141971417Y-79275247D01*
X141971422Y-79275260D01*
X142062327Y-79457821D01*
X142185237Y-79620581D01*
X142335958Y-79757980D01*
X142335960Y-79757982D01*
X142435141Y-79819392D01*
X142509363Y-79865348D01*
X142699544Y-79939024D01*
X142900024Y-79976500D01*
X142900026Y-79976500D01*
X143103974Y-79976500D01*
X143103976Y-79976500D01*
X143304456Y-79939024D01*
X143494637Y-79865348D01*
X143668041Y-79757981D01*
X143818764Y-79620579D01*
X143941673Y-79457821D01*
X144032582Y-79275250D01*
X144088397Y-79079083D01*
X144107215Y-78876000D01*
X144107215Y-78875999D01*
X144436785Y-78875999D01*
X144436785Y-78876000D01*
X144455602Y-79079082D01*
X144511417Y-79275247D01*
X144511422Y-79275260D01*
X144602327Y-79457821D01*
X144725237Y-79620581D01*
X144875958Y-79757980D01*
X144875960Y-79757982D01*
X144975141Y-79819392D01*
X145049363Y-79865348D01*
X145239544Y-79939024D01*
X145440024Y-79976500D01*
X145440026Y-79976500D01*
X145643974Y-79976500D01*
X145643976Y-79976500D01*
X145844456Y-79939024D01*
X146034637Y-79865348D01*
X146208041Y-79757981D01*
X146358764Y-79620579D01*
X146481673Y-79457821D01*
X146572582Y-79275250D01*
X146628397Y-79079083D01*
X146647215Y-78876000D01*
X146647215Y-78875999D01*
X146976785Y-78875999D01*
X146976785Y-78876000D01*
X146995602Y-79079082D01*
X147051417Y-79275247D01*
X147051422Y-79275260D01*
X147142327Y-79457821D01*
X147265237Y-79620581D01*
X147415958Y-79757980D01*
X147415960Y-79757982D01*
X147515141Y-79819392D01*
X147589363Y-79865348D01*
X147779544Y-79939024D01*
X147980024Y-79976500D01*
X147980026Y-79976500D01*
X148183974Y-79976500D01*
X148183976Y-79976500D01*
X148384456Y-79939024D01*
X148574637Y-79865348D01*
X148748041Y-79757981D01*
X148898764Y-79620579D01*
X149021673Y-79457821D01*
X149112582Y-79275250D01*
X149168397Y-79079083D01*
X149187215Y-78876000D01*
X149168397Y-78672917D01*
X149112582Y-78476750D01*
X149021673Y-78294179D01*
X148971799Y-78228135D01*
X152061500Y-78228135D01*
X152061500Y-79523870D01*
X152061501Y-79523876D01*
X152067908Y-79583483D01*
X152118202Y-79718328D01*
X152118206Y-79718335D01*
X152204452Y-79833544D01*
X152204455Y-79833547D01*
X152319664Y-79919793D01*
X152319671Y-79919797D01*
X152454517Y-79970091D01*
X152454516Y-79970091D01*
X152461444Y-79970835D01*
X152514127Y-79976500D01*
X153809872Y-79976499D01*
X153869483Y-79970091D01*
X154004331Y-79919796D01*
X154119546Y-79833546D01*
X154205796Y-79718331D01*
X154256091Y-79583483D01*
X154262500Y-79523873D01*
X154262499Y-78228128D01*
X154256091Y-78168517D01*
X154205796Y-78033669D01*
X154205795Y-78033668D01*
X154205793Y-78033664D01*
X154119547Y-77918455D01*
X154119544Y-77918452D01*
X154004335Y-77832206D01*
X154004328Y-77832202D01*
X153869482Y-77781908D01*
X153869483Y-77781908D01*
X153809883Y-77775501D01*
X153809881Y-77775500D01*
X153809873Y-77775500D01*
X153809864Y-77775500D01*
X152514129Y-77775500D01*
X152514123Y-77775501D01*
X152454516Y-77781908D01*
X152319671Y-77832202D01*
X152319664Y-77832206D01*
X152204455Y-77918452D01*
X152204452Y-77918455D01*
X152118206Y-78033664D01*
X152118202Y-78033671D01*
X152067908Y-78168517D01*
X152061501Y-78228116D01*
X152061501Y-78228123D01*
X152061500Y-78228135D01*
X148971799Y-78228135D01*
X148898764Y-78131421D01*
X148898762Y-78131418D01*
X148748041Y-77994019D01*
X148748039Y-77994017D01*
X148574642Y-77886655D01*
X148574635Y-77886651D01*
X148479546Y-77849814D01*
X148384456Y-77812976D01*
X148183976Y-77775500D01*
X147980024Y-77775500D01*
X147779544Y-77812976D01*
X147779541Y-77812976D01*
X147779541Y-77812977D01*
X147589364Y-77886651D01*
X147589357Y-77886655D01*
X147415960Y-77994017D01*
X147415958Y-77994019D01*
X147265237Y-78131418D01*
X147142327Y-78294178D01*
X147051422Y-78476739D01*
X147051417Y-78476752D01*
X146995602Y-78672917D01*
X146976785Y-78875999D01*
X146647215Y-78875999D01*
X146628397Y-78672917D01*
X146572582Y-78476750D01*
X146481673Y-78294179D01*
X146358764Y-78131421D01*
X146358762Y-78131418D01*
X146208041Y-77994019D01*
X146208039Y-77994017D01*
X146034642Y-77886655D01*
X146034635Y-77886651D01*
X145939546Y-77849814D01*
X145844456Y-77812976D01*
X145643976Y-77775500D01*
X145440024Y-77775500D01*
X145239544Y-77812976D01*
X145239541Y-77812976D01*
X145239541Y-77812977D01*
X145049364Y-77886651D01*
X145049357Y-77886655D01*
X144875960Y-77994017D01*
X144875958Y-77994019D01*
X144725237Y-78131418D01*
X144602327Y-78294178D01*
X144511422Y-78476739D01*
X144511417Y-78476752D01*
X144455602Y-78672917D01*
X144436785Y-78875999D01*
X144107215Y-78875999D01*
X144088397Y-78672917D01*
X144032582Y-78476750D01*
X143941673Y-78294179D01*
X143818764Y-78131421D01*
X143818762Y-78131418D01*
X143668041Y-77994019D01*
X143668039Y-77994017D01*
X143494642Y-77886655D01*
X143494635Y-77886651D01*
X143399546Y-77849814D01*
X143304456Y-77812976D01*
X143103976Y-77775500D01*
X142900024Y-77775500D01*
X142699544Y-77812976D01*
X142699541Y-77812976D01*
X142699541Y-77812977D01*
X142509364Y-77886651D01*
X142509357Y-77886655D01*
X142335960Y-77994017D01*
X142335958Y-77994019D01*
X142185237Y-78131418D01*
X142062327Y-78294178D01*
X141971422Y-78476739D01*
X141971417Y-78476752D01*
X141915602Y-78672917D01*
X141896785Y-78875999D01*
X141567215Y-78875999D01*
X141548397Y-78672917D01*
X141492582Y-78476750D01*
X141401673Y-78294179D01*
X141278764Y-78131421D01*
X141278762Y-78131418D01*
X141128041Y-77994019D01*
X141128039Y-77994017D01*
X140954642Y-77886655D01*
X140954635Y-77886651D01*
X140859546Y-77849814D01*
X140764456Y-77812976D01*
X140563976Y-77775500D01*
X140360024Y-77775500D01*
X140159544Y-77812976D01*
X140159541Y-77812976D01*
X140159541Y-77812977D01*
X139969364Y-77886651D01*
X139969357Y-77886655D01*
X139795960Y-77994017D01*
X139795958Y-77994019D01*
X139645237Y-78131418D01*
X139522327Y-78294178D01*
X139431422Y-78476739D01*
X139431417Y-78476752D01*
X139375602Y-78672917D01*
X139356785Y-78875999D01*
X139027215Y-78875999D01*
X139008397Y-78672917D01*
X138952582Y-78476750D01*
X138861673Y-78294179D01*
X138738764Y-78131421D01*
X138738762Y-78131418D01*
X138588041Y-77994019D01*
X138588039Y-77994017D01*
X138414642Y-77886655D01*
X138414635Y-77886651D01*
X138319546Y-77849814D01*
X138224456Y-77812976D01*
X138023976Y-77775500D01*
X137820024Y-77775500D01*
X137619544Y-77812976D01*
X137619541Y-77812976D01*
X137619541Y-77812977D01*
X137429364Y-77886651D01*
X137429357Y-77886655D01*
X137255960Y-77994017D01*
X137255958Y-77994019D01*
X137105237Y-78131418D01*
X136982327Y-78294178D01*
X136891422Y-78476739D01*
X136891417Y-78476752D01*
X136835602Y-78672917D01*
X136816785Y-78875999D01*
X136487215Y-78875999D01*
X136468397Y-78672917D01*
X136412582Y-78476750D01*
X136321673Y-78294179D01*
X136198764Y-78131421D01*
X136198762Y-78131418D01*
X136048041Y-77994019D01*
X136048039Y-77994017D01*
X135874642Y-77886655D01*
X135874635Y-77886651D01*
X135779546Y-77849814D01*
X135684456Y-77812976D01*
X135483976Y-77775500D01*
X135280024Y-77775500D01*
X135079544Y-77812976D01*
X135079541Y-77812976D01*
X135079541Y-77812977D01*
X134889364Y-77886651D01*
X134889357Y-77886655D01*
X134715960Y-77994017D01*
X134715958Y-77994019D01*
X134565237Y-78131418D01*
X134442327Y-78294178D01*
X134351422Y-78476739D01*
X134351417Y-78476752D01*
X134295602Y-78672917D01*
X134276785Y-78875999D01*
X133947215Y-78875999D01*
X133928397Y-78672917D01*
X133872582Y-78476750D01*
X133781673Y-78294179D01*
X133658764Y-78131421D01*
X133658762Y-78131418D01*
X133508041Y-77994019D01*
X133508039Y-77994017D01*
X133334642Y-77886655D01*
X133334635Y-77886651D01*
X133239546Y-77849814D01*
X133144456Y-77812976D01*
X132943976Y-77775500D01*
X132740024Y-77775500D01*
X132539544Y-77812976D01*
X132539541Y-77812976D01*
X132539541Y-77812977D01*
X132349364Y-77886651D01*
X132349357Y-77886655D01*
X132175960Y-77994017D01*
X132175958Y-77994019D01*
X132025237Y-78131418D01*
X131902327Y-78294178D01*
X131811422Y-78476739D01*
X131811417Y-78476752D01*
X131755602Y-78672917D01*
X131736785Y-78875999D01*
X128867215Y-78875999D01*
X128848397Y-78672917D01*
X128792582Y-78476750D01*
X128701673Y-78294179D01*
X128578764Y-78131421D01*
X128578762Y-78131418D01*
X128428041Y-77994019D01*
X128428039Y-77994017D01*
X128254642Y-77886655D01*
X128254635Y-77886651D01*
X128159546Y-77849814D01*
X128064456Y-77812976D01*
X127863976Y-77775500D01*
X127660024Y-77775500D01*
X127459544Y-77812976D01*
X127459541Y-77812976D01*
X127459541Y-77812977D01*
X127269364Y-77886651D01*
X127269357Y-77886655D01*
X127095960Y-77994017D01*
X127095958Y-77994019D01*
X126945237Y-78131418D01*
X126822327Y-78294178D01*
X126731422Y-78476739D01*
X126731417Y-78476752D01*
X126675602Y-78672917D01*
X126656785Y-78875999D01*
X126327215Y-78875999D01*
X126308397Y-78672917D01*
X126252582Y-78476750D01*
X126161673Y-78294179D01*
X126038764Y-78131421D01*
X126038762Y-78131418D01*
X125888041Y-77994019D01*
X125888039Y-77994017D01*
X125714642Y-77886655D01*
X125714635Y-77886651D01*
X125619546Y-77849814D01*
X125524456Y-77812976D01*
X125323976Y-77775500D01*
X125120024Y-77775500D01*
X124919544Y-77812976D01*
X124919541Y-77812976D01*
X124919541Y-77812977D01*
X124729364Y-77886651D01*
X124729357Y-77886655D01*
X124555960Y-77994017D01*
X124555958Y-77994019D01*
X124405237Y-78131418D01*
X124282327Y-78294178D01*
X124191422Y-78476739D01*
X124191417Y-78476752D01*
X124135602Y-78672917D01*
X124116785Y-78875999D01*
X123787215Y-78875999D01*
X123768397Y-78672917D01*
X123712582Y-78476750D01*
X123621673Y-78294179D01*
X123498764Y-78131421D01*
X123498762Y-78131418D01*
X123348041Y-77994019D01*
X123348039Y-77994017D01*
X123174642Y-77886655D01*
X123174635Y-77886651D01*
X123079546Y-77849814D01*
X122984456Y-77812976D01*
X122783976Y-77775500D01*
X122580024Y-77775500D01*
X122379544Y-77812976D01*
X122379541Y-77812976D01*
X122379541Y-77812977D01*
X122189364Y-77886651D01*
X122189357Y-77886655D01*
X122015960Y-77994017D01*
X122015958Y-77994019D01*
X121865237Y-78131418D01*
X121742327Y-78294178D01*
X121651422Y-78476739D01*
X121651417Y-78476752D01*
X121595602Y-78672917D01*
X121576785Y-78875999D01*
X121247215Y-78875999D01*
X121228397Y-78672917D01*
X121172582Y-78476750D01*
X121081673Y-78294179D01*
X120958764Y-78131421D01*
X120958762Y-78131418D01*
X120808041Y-77994019D01*
X120808039Y-77994017D01*
X120634642Y-77886655D01*
X120634635Y-77886651D01*
X120539546Y-77849814D01*
X120444456Y-77812976D01*
X120243976Y-77775500D01*
X120040024Y-77775500D01*
X119839544Y-77812976D01*
X119839541Y-77812976D01*
X119839541Y-77812977D01*
X119649364Y-77886651D01*
X119649357Y-77886655D01*
X119475960Y-77994017D01*
X119475958Y-77994019D01*
X119325237Y-78131418D01*
X119202327Y-78294178D01*
X119111422Y-78476739D01*
X119111417Y-78476752D01*
X119055602Y-78672917D01*
X119036785Y-78875999D01*
X118707215Y-78875999D01*
X118688397Y-78672917D01*
X118632582Y-78476750D01*
X118541673Y-78294179D01*
X118418764Y-78131421D01*
X118418762Y-78131418D01*
X118268041Y-77994019D01*
X118268039Y-77994017D01*
X118094642Y-77886655D01*
X118094635Y-77886651D01*
X117999546Y-77849814D01*
X117904456Y-77812976D01*
X117703976Y-77775500D01*
X117500024Y-77775500D01*
X117299544Y-77812976D01*
X117299541Y-77812976D01*
X117299541Y-77812977D01*
X117109364Y-77886651D01*
X117109357Y-77886655D01*
X116935960Y-77994017D01*
X116935958Y-77994019D01*
X116785237Y-78131418D01*
X116662327Y-78294178D01*
X116571422Y-78476739D01*
X116571417Y-78476752D01*
X116515602Y-78672917D01*
X116496785Y-78875999D01*
X116167215Y-78875999D01*
X116148397Y-78672917D01*
X116092582Y-78476750D01*
X116001673Y-78294179D01*
X115878764Y-78131421D01*
X115878762Y-78131418D01*
X115728041Y-77994019D01*
X115728039Y-77994017D01*
X115554642Y-77886655D01*
X115554635Y-77886651D01*
X115459546Y-77849814D01*
X115364456Y-77812976D01*
X115163976Y-77775500D01*
X114960024Y-77775500D01*
X114759544Y-77812976D01*
X114759541Y-77812976D01*
X114759541Y-77812977D01*
X114569364Y-77886651D01*
X114569357Y-77886655D01*
X114395960Y-77994017D01*
X114395958Y-77994019D01*
X114245237Y-78131418D01*
X114122327Y-78294178D01*
X114031422Y-78476739D01*
X114031417Y-78476752D01*
X113975602Y-78672917D01*
X113956785Y-78875999D01*
X113627215Y-78875999D01*
X113608397Y-78672917D01*
X113552582Y-78476750D01*
X113461673Y-78294179D01*
X113338764Y-78131421D01*
X113338762Y-78131418D01*
X113188041Y-77994019D01*
X113188039Y-77994017D01*
X113014642Y-77886655D01*
X113014635Y-77886651D01*
X112919546Y-77849814D01*
X112824456Y-77812976D01*
X112623976Y-77775500D01*
X112420024Y-77775500D01*
X112219544Y-77812976D01*
X112219541Y-77812976D01*
X112219541Y-77812977D01*
X112029364Y-77886651D01*
X112029357Y-77886655D01*
X111855960Y-77994017D01*
X111855958Y-77994019D01*
X111705237Y-78131418D01*
X111582327Y-78294178D01*
X111491422Y-78476739D01*
X111491417Y-78476752D01*
X111435602Y-78672917D01*
X111416785Y-78875999D01*
X111087215Y-78875999D01*
X111068397Y-78672917D01*
X111012582Y-78476750D01*
X110921673Y-78294179D01*
X110798764Y-78131421D01*
X110798762Y-78131418D01*
X110648041Y-77994019D01*
X110648039Y-77994017D01*
X110474642Y-77886655D01*
X110474635Y-77886651D01*
X110379546Y-77849814D01*
X110284456Y-77812976D01*
X110083976Y-77775500D01*
X109880024Y-77775500D01*
X109679544Y-77812976D01*
X109679541Y-77812976D01*
X109679541Y-77812977D01*
X109489364Y-77886651D01*
X109489357Y-77886655D01*
X109315960Y-77994017D01*
X109315958Y-77994019D01*
X109165237Y-78131418D01*
X109042327Y-78294178D01*
X108951422Y-78476739D01*
X108951417Y-78476752D01*
X108895602Y-78672917D01*
X108876785Y-78875999D01*
X108547215Y-78875999D01*
X108528397Y-78672917D01*
X108472582Y-78476750D01*
X108381673Y-78294179D01*
X108258764Y-78131421D01*
X108258762Y-78131418D01*
X108108041Y-77994019D01*
X108108039Y-77994017D01*
X107934642Y-77886655D01*
X107934635Y-77886651D01*
X107839546Y-77849814D01*
X107744456Y-77812976D01*
X107543976Y-77775500D01*
X107340024Y-77775500D01*
X107139544Y-77812976D01*
X107139541Y-77812976D01*
X107139541Y-77812977D01*
X106949364Y-77886651D01*
X106949357Y-77886655D01*
X106775960Y-77994017D01*
X106775958Y-77994019D01*
X106625237Y-78131418D01*
X106502327Y-78294178D01*
X106411422Y-78476739D01*
X106411417Y-78476752D01*
X106355602Y-78672917D01*
X106336785Y-78875999D01*
X106007215Y-78875999D01*
X105988397Y-78672917D01*
X105932582Y-78476750D01*
X105841673Y-78294179D01*
X105718764Y-78131421D01*
X105718762Y-78131418D01*
X105568041Y-77994019D01*
X105568039Y-77994017D01*
X105394642Y-77886655D01*
X105394635Y-77886651D01*
X105299546Y-77849814D01*
X105204456Y-77812976D01*
X105003976Y-77775500D01*
X104800024Y-77775500D01*
X104599544Y-77812976D01*
X104599541Y-77812976D01*
X104599541Y-77812977D01*
X104409364Y-77886651D01*
X104409357Y-77886655D01*
X104235960Y-77994017D01*
X104235958Y-77994019D01*
X104085237Y-78131418D01*
X103962327Y-78294178D01*
X103871422Y-78476739D01*
X103871417Y-78476752D01*
X103815602Y-78672917D01*
X103796785Y-78875999D01*
X96266000Y-78875999D01*
X96266000Y-69731999D01*
X106336785Y-69731999D01*
X106336785Y-69732000D01*
X106355602Y-69935082D01*
X106411417Y-70131247D01*
X106411422Y-70131260D01*
X106502327Y-70313821D01*
X106625237Y-70476581D01*
X106775958Y-70613980D01*
X106775960Y-70613982D01*
X106875141Y-70675392D01*
X106949363Y-70721348D01*
X107139544Y-70795024D01*
X107340024Y-70832500D01*
X107340026Y-70832500D01*
X107543974Y-70832500D01*
X107543976Y-70832500D01*
X107744456Y-70795024D01*
X107934637Y-70721348D01*
X108108041Y-70613981D01*
X108258764Y-70476579D01*
X108381673Y-70313821D01*
X108472582Y-70131250D01*
X108528397Y-69935083D01*
X108547215Y-69732000D01*
X108547215Y-69731999D01*
X108876785Y-69731999D01*
X108876785Y-69732000D01*
X108895602Y-69935082D01*
X108951417Y-70131247D01*
X108951422Y-70131260D01*
X109042327Y-70313821D01*
X109165237Y-70476581D01*
X109315958Y-70613980D01*
X109315960Y-70613982D01*
X109415141Y-70675392D01*
X109489363Y-70721348D01*
X109679544Y-70795024D01*
X109880024Y-70832500D01*
X109880026Y-70832500D01*
X110083974Y-70832500D01*
X110083976Y-70832500D01*
X110284456Y-70795024D01*
X110474637Y-70721348D01*
X110648041Y-70613981D01*
X110798764Y-70476579D01*
X110921673Y-70313821D01*
X111012582Y-70131250D01*
X111068397Y-69935083D01*
X111087215Y-69732000D01*
X111087215Y-69731999D01*
X111416785Y-69731999D01*
X111416785Y-69732000D01*
X111435602Y-69935082D01*
X111491417Y-70131247D01*
X111491422Y-70131260D01*
X111582327Y-70313821D01*
X111705237Y-70476581D01*
X111855958Y-70613980D01*
X111855960Y-70613982D01*
X111955141Y-70675392D01*
X112029363Y-70721348D01*
X112219544Y-70795024D01*
X112420024Y-70832500D01*
X112420026Y-70832500D01*
X112623974Y-70832500D01*
X112623976Y-70832500D01*
X112824456Y-70795024D01*
X113014637Y-70721348D01*
X113188041Y-70613981D01*
X113338764Y-70476579D01*
X113461673Y-70313821D01*
X113552582Y-70131250D01*
X113608397Y-69935083D01*
X113627215Y-69732000D01*
X113627215Y-69731999D01*
X113956785Y-69731999D01*
X113956785Y-69732000D01*
X113975602Y-69935082D01*
X114031417Y-70131247D01*
X114031422Y-70131260D01*
X114122327Y-70313821D01*
X114245237Y-70476581D01*
X114395958Y-70613980D01*
X114395960Y-70613982D01*
X114495141Y-70675392D01*
X114569363Y-70721348D01*
X114759544Y-70795024D01*
X114960024Y-70832500D01*
X114960026Y-70832500D01*
X115163974Y-70832500D01*
X115163976Y-70832500D01*
X115364456Y-70795024D01*
X115554637Y-70721348D01*
X115728041Y-70613981D01*
X115878764Y-70476579D01*
X116001673Y-70313821D01*
X116092582Y-70131250D01*
X116148397Y-69935083D01*
X116167215Y-69732000D01*
X116167215Y-69731999D01*
X119036785Y-69731999D01*
X119036785Y-69732000D01*
X119055602Y-69935082D01*
X119111417Y-70131247D01*
X119111422Y-70131260D01*
X119202327Y-70313821D01*
X119325237Y-70476581D01*
X119475958Y-70613980D01*
X119475960Y-70613982D01*
X119575141Y-70675392D01*
X119649363Y-70721348D01*
X119839544Y-70795024D01*
X120040024Y-70832500D01*
X120040026Y-70832500D01*
X120243974Y-70832500D01*
X120243976Y-70832500D01*
X120444456Y-70795024D01*
X120634637Y-70721348D01*
X120808041Y-70613981D01*
X120958764Y-70476579D01*
X121081673Y-70313821D01*
X121172582Y-70131250D01*
X121228397Y-69935083D01*
X121247215Y-69732000D01*
X121247215Y-69731999D01*
X129196785Y-69731999D01*
X129196785Y-69732000D01*
X129215602Y-69935082D01*
X129271417Y-70131247D01*
X129271422Y-70131260D01*
X129362327Y-70313821D01*
X129485237Y-70476581D01*
X129635958Y-70613980D01*
X129635960Y-70613982D01*
X129735141Y-70675392D01*
X129809363Y-70721348D01*
X129999544Y-70795024D01*
X130200024Y-70832500D01*
X130200026Y-70832500D01*
X130403974Y-70832500D01*
X130403976Y-70832500D01*
X130604456Y-70795024D01*
X130794637Y-70721348D01*
X130968041Y-70613981D01*
X131118764Y-70476579D01*
X131241673Y-70313821D01*
X131332582Y-70131250D01*
X131388397Y-69935083D01*
X131407215Y-69732000D01*
X131407215Y-69731999D01*
X131736785Y-69731999D01*
X131736785Y-69732000D01*
X131755602Y-69935082D01*
X131811417Y-70131247D01*
X131811422Y-70131260D01*
X131902327Y-70313821D01*
X132025237Y-70476581D01*
X132175958Y-70613980D01*
X132175960Y-70613982D01*
X132275141Y-70675392D01*
X132349363Y-70721348D01*
X132539544Y-70795024D01*
X132740024Y-70832500D01*
X132740026Y-70832500D01*
X132943974Y-70832500D01*
X132943976Y-70832500D01*
X133144456Y-70795024D01*
X133334637Y-70721348D01*
X133508041Y-70613981D01*
X133658764Y-70476579D01*
X133781673Y-70313821D01*
X133872582Y-70131250D01*
X133928397Y-69935083D01*
X133947215Y-69732000D01*
X133947215Y-69731999D01*
X134276785Y-69731999D01*
X134276785Y-69732000D01*
X134295602Y-69935082D01*
X134351417Y-70131247D01*
X134351422Y-70131260D01*
X134442327Y-70313821D01*
X134565237Y-70476581D01*
X134715958Y-70613980D01*
X134715960Y-70613982D01*
X134815141Y-70675392D01*
X134889363Y-70721348D01*
X135079544Y-70795024D01*
X135280024Y-70832500D01*
X135280026Y-70832500D01*
X135483974Y-70832500D01*
X135483976Y-70832500D01*
X135684456Y-70795024D01*
X135874637Y-70721348D01*
X136048041Y-70613981D01*
X136198764Y-70476579D01*
X136321673Y-70313821D01*
X136412582Y-70131250D01*
X136468397Y-69935083D01*
X136487215Y-69732000D01*
X136487215Y-69731999D01*
X136816785Y-69731999D01*
X136816785Y-69732000D01*
X136835602Y-69935082D01*
X136891417Y-70131247D01*
X136891422Y-70131260D01*
X136982327Y-70313821D01*
X137105237Y-70476581D01*
X137255958Y-70613980D01*
X137255960Y-70613982D01*
X137355141Y-70675392D01*
X137429363Y-70721348D01*
X137619544Y-70795024D01*
X137820024Y-70832500D01*
X137820026Y-70832500D01*
X138023974Y-70832500D01*
X138023976Y-70832500D01*
X138224456Y-70795024D01*
X138414637Y-70721348D01*
X138588041Y-70613981D01*
X138738764Y-70476579D01*
X138861673Y-70313821D01*
X138952582Y-70131250D01*
X139008397Y-69935083D01*
X139027215Y-69732000D01*
X139027215Y-69731999D01*
X139356785Y-69731999D01*
X139356785Y-69732000D01*
X139375602Y-69935082D01*
X139431417Y-70131247D01*
X139431422Y-70131260D01*
X139522327Y-70313821D01*
X139645237Y-70476581D01*
X139795958Y-70613980D01*
X139795960Y-70613982D01*
X139895141Y-70675392D01*
X139969363Y-70721348D01*
X140159544Y-70795024D01*
X140360024Y-70832500D01*
X140360026Y-70832500D01*
X140563974Y-70832500D01*
X140563976Y-70832500D01*
X140764456Y-70795024D01*
X140954637Y-70721348D01*
X141128041Y-70613981D01*
X141278764Y-70476579D01*
X141401673Y-70313821D01*
X141492582Y-70131250D01*
X141548397Y-69935083D01*
X141567215Y-69732000D01*
X141567215Y-69731999D01*
X141896785Y-69731999D01*
X141896785Y-69732000D01*
X141915602Y-69935082D01*
X141971417Y-70131247D01*
X141971422Y-70131260D01*
X142062327Y-70313821D01*
X142185237Y-70476581D01*
X142335958Y-70613980D01*
X142335960Y-70613982D01*
X142435141Y-70675392D01*
X142509363Y-70721348D01*
X142699544Y-70795024D01*
X142900024Y-70832500D01*
X142900026Y-70832500D01*
X143103974Y-70832500D01*
X143103976Y-70832500D01*
X143304456Y-70795024D01*
X143494637Y-70721348D01*
X143668041Y-70613981D01*
X143818764Y-70476579D01*
X143941673Y-70313821D01*
X144032582Y-70131250D01*
X144088397Y-69935083D01*
X144107215Y-69732000D01*
X144107215Y-69731999D01*
X144436785Y-69731999D01*
X144436785Y-69732000D01*
X144455602Y-69935082D01*
X144511417Y-70131247D01*
X144511422Y-70131260D01*
X144602327Y-70313821D01*
X144725237Y-70476581D01*
X144875958Y-70613980D01*
X144875960Y-70613982D01*
X144975141Y-70675392D01*
X145049363Y-70721348D01*
X145239544Y-70795024D01*
X145440024Y-70832500D01*
X145440026Y-70832500D01*
X145643974Y-70832500D01*
X145643976Y-70832500D01*
X145844456Y-70795024D01*
X146034637Y-70721348D01*
X146208041Y-70613981D01*
X146358764Y-70476579D01*
X146481673Y-70313821D01*
X146572582Y-70131250D01*
X146628397Y-69935083D01*
X146647215Y-69732000D01*
X146647215Y-69731999D01*
X146976785Y-69731999D01*
X146976785Y-69732000D01*
X146995602Y-69935082D01*
X147051417Y-70131247D01*
X147051422Y-70131260D01*
X147142327Y-70313821D01*
X147265237Y-70476581D01*
X147415958Y-70613980D01*
X147415960Y-70613982D01*
X147515141Y-70675392D01*
X147589363Y-70721348D01*
X147779544Y-70795024D01*
X147980024Y-70832500D01*
X147980026Y-70832500D01*
X148183974Y-70832500D01*
X148183976Y-70832500D01*
X148384456Y-70795024D01*
X148574637Y-70721348D01*
X148748041Y-70613981D01*
X148898764Y-70476579D01*
X149021673Y-70313821D01*
X149112582Y-70131250D01*
X149168397Y-69935083D01*
X149187215Y-69732000D01*
X149187215Y-69731999D01*
X149516785Y-69731999D01*
X149516785Y-69732000D01*
X149535602Y-69935082D01*
X149591417Y-70131247D01*
X149591422Y-70131260D01*
X149682327Y-70313821D01*
X149805237Y-70476581D01*
X149955958Y-70613980D01*
X149955960Y-70613982D01*
X150055141Y-70675392D01*
X150129363Y-70721348D01*
X150319544Y-70795024D01*
X150520024Y-70832500D01*
X150520026Y-70832500D01*
X150723974Y-70832500D01*
X150723976Y-70832500D01*
X150924456Y-70795024D01*
X151114637Y-70721348D01*
X151288041Y-70613981D01*
X151438764Y-70476579D01*
X151561673Y-70313821D01*
X151652582Y-70131250D01*
X151708397Y-69935083D01*
X151727215Y-69732000D01*
X151708397Y-69528917D01*
X151652582Y-69332750D01*
X151561673Y-69150179D01*
X151438764Y-68987421D01*
X151438762Y-68987418D01*
X151288041Y-68850019D01*
X151288039Y-68850017D01*
X151114642Y-68742655D01*
X151114635Y-68742651D01*
X151019546Y-68705814D01*
X150924456Y-68668976D01*
X150723976Y-68631500D01*
X150520024Y-68631500D01*
X150319544Y-68668976D01*
X150319541Y-68668976D01*
X150319541Y-68668977D01*
X150129364Y-68742651D01*
X150129357Y-68742655D01*
X149955960Y-68850017D01*
X149955958Y-68850019D01*
X149805237Y-68987418D01*
X149682327Y-69150178D01*
X149591422Y-69332739D01*
X149591417Y-69332752D01*
X149535602Y-69528917D01*
X149516785Y-69731999D01*
X149187215Y-69731999D01*
X149168397Y-69528917D01*
X149112582Y-69332750D01*
X149021673Y-69150179D01*
X148898764Y-68987421D01*
X148898762Y-68987418D01*
X148748041Y-68850019D01*
X148748039Y-68850017D01*
X148574642Y-68742655D01*
X148574635Y-68742651D01*
X148479546Y-68705814D01*
X148384456Y-68668976D01*
X148183976Y-68631500D01*
X147980024Y-68631500D01*
X147779544Y-68668976D01*
X147779541Y-68668976D01*
X147779541Y-68668977D01*
X147589364Y-68742651D01*
X147589357Y-68742655D01*
X147415960Y-68850017D01*
X147415958Y-68850019D01*
X147265237Y-68987418D01*
X147142327Y-69150178D01*
X147051422Y-69332739D01*
X147051417Y-69332752D01*
X146995602Y-69528917D01*
X146976785Y-69731999D01*
X146647215Y-69731999D01*
X146628397Y-69528917D01*
X146572582Y-69332750D01*
X146481673Y-69150179D01*
X146358764Y-68987421D01*
X146358762Y-68987418D01*
X146208041Y-68850019D01*
X146208039Y-68850017D01*
X146034642Y-68742655D01*
X146034635Y-68742651D01*
X145939546Y-68705814D01*
X145844456Y-68668976D01*
X145643976Y-68631500D01*
X145440024Y-68631500D01*
X145239544Y-68668976D01*
X145239541Y-68668976D01*
X145239541Y-68668977D01*
X145049364Y-68742651D01*
X145049357Y-68742655D01*
X144875960Y-68850017D01*
X144875958Y-68850019D01*
X144725237Y-68987418D01*
X144602327Y-69150178D01*
X144511422Y-69332739D01*
X144511417Y-69332752D01*
X144455602Y-69528917D01*
X144436785Y-69731999D01*
X144107215Y-69731999D01*
X144088397Y-69528917D01*
X144032582Y-69332750D01*
X143941673Y-69150179D01*
X143818764Y-68987421D01*
X143818762Y-68987418D01*
X143668041Y-68850019D01*
X143668039Y-68850017D01*
X143494642Y-68742655D01*
X143494635Y-68742651D01*
X143399546Y-68705814D01*
X143304456Y-68668976D01*
X143103976Y-68631500D01*
X142900024Y-68631500D01*
X142699544Y-68668976D01*
X142699541Y-68668976D01*
X142699541Y-68668977D01*
X142509364Y-68742651D01*
X142509357Y-68742655D01*
X142335960Y-68850017D01*
X142335958Y-68850019D01*
X142185237Y-68987418D01*
X142062327Y-69150178D01*
X141971422Y-69332739D01*
X141971417Y-69332752D01*
X141915602Y-69528917D01*
X141896785Y-69731999D01*
X141567215Y-69731999D01*
X141548397Y-69528917D01*
X141492582Y-69332750D01*
X141401673Y-69150179D01*
X141278764Y-68987421D01*
X141278762Y-68987418D01*
X141128041Y-68850019D01*
X141128039Y-68850017D01*
X140954642Y-68742655D01*
X140954635Y-68742651D01*
X140859546Y-68705814D01*
X140764456Y-68668976D01*
X140563976Y-68631500D01*
X140360024Y-68631500D01*
X140159544Y-68668976D01*
X140159541Y-68668976D01*
X140159541Y-68668977D01*
X139969364Y-68742651D01*
X139969357Y-68742655D01*
X139795960Y-68850017D01*
X139795958Y-68850019D01*
X139645237Y-68987418D01*
X139522327Y-69150178D01*
X139431422Y-69332739D01*
X139431417Y-69332752D01*
X139375602Y-69528917D01*
X139356785Y-69731999D01*
X139027215Y-69731999D01*
X139008397Y-69528917D01*
X138952582Y-69332750D01*
X138861673Y-69150179D01*
X138738764Y-68987421D01*
X138738762Y-68987418D01*
X138588041Y-68850019D01*
X138588039Y-68850017D01*
X138414642Y-68742655D01*
X138414635Y-68742651D01*
X138319546Y-68705814D01*
X138224456Y-68668976D01*
X138023976Y-68631500D01*
X137820024Y-68631500D01*
X137619544Y-68668976D01*
X137619541Y-68668976D01*
X137619541Y-68668977D01*
X137429364Y-68742651D01*
X137429357Y-68742655D01*
X137255960Y-68850017D01*
X137255958Y-68850019D01*
X137105237Y-68987418D01*
X136982327Y-69150178D01*
X136891422Y-69332739D01*
X136891417Y-69332752D01*
X136835602Y-69528917D01*
X136816785Y-69731999D01*
X136487215Y-69731999D01*
X136468397Y-69528917D01*
X136412582Y-69332750D01*
X136321673Y-69150179D01*
X136198764Y-68987421D01*
X136198762Y-68987418D01*
X136048041Y-68850019D01*
X136048039Y-68850017D01*
X135874642Y-68742655D01*
X135874635Y-68742651D01*
X135779546Y-68705814D01*
X135684456Y-68668976D01*
X135483976Y-68631500D01*
X135280024Y-68631500D01*
X135079544Y-68668976D01*
X135079541Y-68668976D01*
X135079541Y-68668977D01*
X134889364Y-68742651D01*
X134889357Y-68742655D01*
X134715960Y-68850017D01*
X134715958Y-68850019D01*
X134565237Y-68987418D01*
X134442327Y-69150178D01*
X134351422Y-69332739D01*
X134351417Y-69332752D01*
X134295602Y-69528917D01*
X134276785Y-69731999D01*
X133947215Y-69731999D01*
X133928397Y-69528917D01*
X133872582Y-69332750D01*
X133781673Y-69150179D01*
X133658764Y-68987421D01*
X133658762Y-68987418D01*
X133508041Y-68850019D01*
X133508039Y-68850017D01*
X133334642Y-68742655D01*
X133334635Y-68742651D01*
X133239546Y-68705814D01*
X133144456Y-68668976D01*
X132943976Y-68631500D01*
X132740024Y-68631500D01*
X132539544Y-68668976D01*
X132539541Y-68668976D01*
X132539541Y-68668977D01*
X132349364Y-68742651D01*
X132349357Y-68742655D01*
X132175960Y-68850017D01*
X132175958Y-68850019D01*
X132025237Y-68987418D01*
X131902327Y-69150178D01*
X131811422Y-69332739D01*
X131811417Y-69332752D01*
X131755602Y-69528917D01*
X131736785Y-69731999D01*
X131407215Y-69731999D01*
X131388397Y-69528917D01*
X131332582Y-69332750D01*
X131241673Y-69150179D01*
X131118764Y-68987421D01*
X131118762Y-68987418D01*
X130968041Y-68850019D01*
X130968039Y-68850017D01*
X130794642Y-68742655D01*
X130794635Y-68742651D01*
X130699546Y-68705814D01*
X130604456Y-68668976D01*
X130403976Y-68631500D01*
X130200024Y-68631500D01*
X129999544Y-68668976D01*
X129999541Y-68668976D01*
X129999541Y-68668977D01*
X129809364Y-68742651D01*
X129809357Y-68742655D01*
X129635960Y-68850017D01*
X129635958Y-68850019D01*
X129485237Y-68987418D01*
X129362327Y-69150178D01*
X129271422Y-69332739D01*
X129271417Y-69332752D01*
X129215602Y-69528917D01*
X129196785Y-69731999D01*
X121247215Y-69731999D01*
X121228397Y-69528917D01*
X121172582Y-69332750D01*
X121081673Y-69150179D01*
X120958764Y-68987421D01*
X120958762Y-68987418D01*
X120808041Y-68850019D01*
X120808039Y-68850017D01*
X120634642Y-68742655D01*
X120634635Y-68742651D01*
X120539546Y-68705814D01*
X120444456Y-68668976D01*
X120243976Y-68631500D01*
X120040024Y-68631500D01*
X119839544Y-68668976D01*
X119839541Y-68668976D01*
X119839541Y-68668977D01*
X119649364Y-68742651D01*
X119649357Y-68742655D01*
X119475960Y-68850017D01*
X119475958Y-68850019D01*
X119325237Y-68987418D01*
X119202327Y-69150178D01*
X119111422Y-69332739D01*
X119111417Y-69332752D01*
X119055602Y-69528917D01*
X119036785Y-69731999D01*
X116167215Y-69731999D01*
X116148397Y-69528917D01*
X116092582Y-69332750D01*
X116001673Y-69150179D01*
X115878764Y-68987421D01*
X115878762Y-68987418D01*
X115728041Y-68850019D01*
X115728039Y-68850017D01*
X115554642Y-68742655D01*
X115554635Y-68742651D01*
X115459546Y-68705814D01*
X115364456Y-68668976D01*
X115163976Y-68631500D01*
X114960024Y-68631500D01*
X114759544Y-68668976D01*
X114759541Y-68668976D01*
X114759541Y-68668977D01*
X114569364Y-68742651D01*
X114569357Y-68742655D01*
X114395960Y-68850017D01*
X114395958Y-68850019D01*
X114245237Y-68987418D01*
X114122327Y-69150178D01*
X114031422Y-69332739D01*
X114031417Y-69332752D01*
X113975602Y-69528917D01*
X113956785Y-69731999D01*
X113627215Y-69731999D01*
X113608397Y-69528917D01*
X113552582Y-69332750D01*
X113461673Y-69150179D01*
X113338764Y-68987421D01*
X113338762Y-68987418D01*
X113188041Y-68850019D01*
X113188039Y-68850017D01*
X113014642Y-68742655D01*
X113014635Y-68742651D01*
X112919546Y-68705814D01*
X112824456Y-68668976D01*
X112623976Y-68631500D01*
X112420024Y-68631500D01*
X112219544Y-68668976D01*
X112219541Y-68668976D01*
X112219541Y-68668977D01*
X112029364Y-68742651D01*
X112029357Y-68742655D01*
X111855960Y-68850017D01*
X111855958Y-68850019D01*
X111705237Y-68987418D01*
X111582327Y-69150178D01*
X111491422Y-69332739D01*
X111491417Y-69332752D01*
X111435602Y-69528917D01*
X111416785Y-69731999D01*
X111087215Y-69731999D01*
X111068397Y-69528917D01*
X111012582Y-69332750D01*
X110921673Y-69150179D01*
X110798764Y-68987421D01*
X110798762Y-68987418D01*
X110648041Y-68850019D01*
X110648039Y-68850017D01*
X110474642Y-68742655D01*
X110474635Y-68742651D01*
X110379546Y-68705814D01*
X110284456Y-68668976D01*
X110083976Y-68631500D01*
X109880024Y-68631500D01*
X109679544Y-68668976D01*
X109679541Y-68668976D01*
X109679541Y-68668977D01*
X109489364Y-68742651D01*
X109489357Y-68742655D01*
X109315960Y-68850017D01*
X109315958Y-68850019D01*
X109165237Y-68987418D01*
X109042327Y-69150178D01*
X108951422Y-69332739D01*
X108951417Y-69332752D01*
X108895602Y-69528917D01*
X108876785Y-69731999D01*
X108547215Y-69731999D01*
X108528397Y-69528917D01*
X108472582Y-69332750D01*
X108381673Y-69150179D01*
X108258764Y-68987421D01*
X108258762Y-68987418D01*
X108108041Y-68850019D01*
X108108039Y-68850017D01*
X107934642Y-68742655D01*
X107934635Y-68742651D01*
X107839546Y-68705814D01*
X107744456Y-68668976D01*
X107543976Y-68631500D01*
X107340024Y-68631500D01*
X107139544Y-68668976D01*
X107139541Y-68668976D01*
X107139541Y-68668977D01*
X106949364Y-68742651D01*
X106949357Y-68742655D01*
X106775960Y-68850017D01*
X106775958Y-68850019D01*
X106625237Y-68987418D01*
X106502327Y-69150178D01*
X106411422Y-69332739D01*
X106411417Y-69332752D01*
X106355602Y-69528917D01*
X106336785Y-69731999D01*
X96266000Y-69731999D01*
X96266000Y-67191999D01*
X103796785Y-67191999D01*
X103796785Y-67192000D01*
X103815602Y-67395082D01*
X103871417Y-67591247D01*
X103871422Y-67591260D01*
X103962327Y-67773821D01*
X104085237Y-67936581D01*
X104235958Y-68073980D01*
X104235960Y-68073982D01*
X104335141Y-68135392D01*
X104409363Y-68181348D01*
X104599544Y-68255024D01*
X104800024Y-68292500D01*
X104800026Y-68292500D01*
X105003974Y-68292500D01*
X105003976Y-68292500D01*
X105204456Y-68255024D01*
X105394637Y-68181348D01*
X105568041Y-68073981D01*
X105718764Y-67936579D01*
X105841673Y-67773821D01*
X105932582Y-67591250D01*
X105988397Y-67395083D01*
X106007215Y-67192000D01*
X106007215Y-67191999D01*
X106336785Y-67191999D01*
X106336785Y-67192000D01*
X106355602Y-67395082D01*
X106411417Y-67591247D01*
X106411422Y-67591260D01*
X106502327Y-67773821D01*
X106625237Y-67936581D01*
X106775958Y-68073980D01*
X106775960Y-68073982D01*
X106875141Y-68135392D01*
X106949363Y-68181348D01*
X107139544Y-68255024D01*
X107340024Y-68292500D01*
X107340026Y-68292500D01*
X107543974Y-68292500D01*
X107543976Y-68292500D01*
X107744456Y-68255024D01*
X107934637Y-68181348D01*
X108108041Y-68073981D01*
X108258764Y-67936579D01*
X108381673Y-67773821D01*
X108472582Y-67591250D01*
X108528397Y-67395083D01*
X108547215Y-67192000D01*
X108547215Y-67191999D01*
X108876785Y-67191999D01*
X108876785Y-67192000D01*
X108895602Y-67395082D01*
X108951417Y-67591247D01*
X108951422Y-67591260D01*
X109042327Y-67773821D01*
X109165237Y-67936581D01*
X109315958Y-68073980D01*
X109315960Y-68073982D01*
X109415141Y-68135392D01*
X109489363Y-68181348D01*
X109679544Y-68255024D01*
X109880024Y-68292500D01*
X109880026Y-68292500D01*
X110083974Y-68292500D01*
X110083976Y-68292500D01*
X110284456Y-68255024D01*
X110474637Y-68181348D01*
X110648041Y-68073981D01*
X110798764Y-67936579D01*
X110921673Y-67773821D01*
X111012582Y-67591250D01*
X111068397Y-67395083D01*
X111087215Y-67192000D01*
X111087215Y-67191999D01*
X111416785Y-67191999D01*
X111416785Y-67192000D01*
X111435602Y-67395082D01*
X111491417Y-67591247D01*
X111491422Y-67591260D01*
X111582327Y-67773821D01*
X111705237Y-67936581D01*
X111855958Y-68073980D01*
X111855960Y-68073982D01*
X111955141Y-68135392D01*
X112029363Y-68181348D01*
X112219544Y-68255024D01*
X112420024Y-68292500D01*
X112420026Y-68292500D01*
X112623974Y-68292500D01*
X112623976Y-68292500D01*
X112824456Y-68255024D01*
X113014637Y-68181348D01*
X113188041Y-68073981D01*
X113338764Y-67936579D01*
X113461673Y-67773821D01*
X113552582Y-67591250D01*
X113608397Y-67395083D01*
X113627215Y-67192000D01*
X113627215Y-67191999D01*
X113956785Y-67191999D01*
X113956785Y-67192000D01*
X113975602Y-67395082D01*
X114031417Y-67591247D01*
X114031422Y-67591260D01*
X114122327Y-67773821D01*
X114245237Y-67936581D01*
X114395958Y-68073980D01*
X114395960Y-68073982D01*
X114495141Y-68135392D01*
X114569363Y-68181348D01*
X114759544Y-68255024D01*
X114960024Y-68292500D01*
X114960026Y-68292500D01*
X115163974Y-68292500D01*
X115163976Y-68292500D01*
X115364456Y-68255024D01*
X115554637Y-68181348D01*
X115728041Y-68073981D01*
X115878764Y-67936579D01*
X116001673Y-67773821D01*
X116092582Y-67591250D01*
X116148397Y-67395083D01*
X116167215Y-67192000D01*
X116167215Y-67191999D01*
X116496785Y-67191999D01*
X116496785Y-67192000D01*
X116515602Y-67395082D01*
X116571417Y-67591247D01*
X116571422Y-67591260D01*
X116662327Y-67773821D01*
X116785237Y-67936581D01*
X116935958Y-68073980D01*
X116935960Y-68073982D01*
X117035141Y-68135392D01*
X117109363Y-68181348D01*
X117299544Y-68255024D01*
X117500024Y-68292500D01*
X117500026Y-68292500D01*
X117703974Y-68292500D01*
X117703976Y-68292500D01*
X117904456Y-68255024D01*
X118094637Y-68181348D01*
X118268041Y-68073981D01*
X118418764Y-67936579D01*
X118541673Y-67773821D01*
X118632582Y-67591250D01*
X118688397Y-67395083D01*
X118707215Y-67192000D01*
X118707215Y-67191999D01*
X119036785Y-67191999D01*
X119036785Y-67192000D01*
X119055602Y-67395082D01*
X119111417Y-67591247D01*
X119111422Y-67591260D01*
X119202327Y-67773821D01*
X119325237Y-67936581D01*
X119475958Y-68073980D01*
X119475960Y-68073982D01*
X119575141Y-68135392D01*
X119649363Y-68181348D01*
X119839544Y-68255024D01*
X120040024Y-68292500D01*
X120040026Y-68292500D01*
X120243974Y-68292500D01*
X120243976Y-68292500D01*
X120444456Y-68255024D01*
X120634637Y-68181348D01*
X120808041Y-68073981D01*
X120958764Y-67936579D01*
X121081673Y-67773821D01*
X121172582Y-67591250D01*
X121228397Y-67395083D01*
X121247215Y-67192000D01*
X121247215Y-67191999D01*
X121576785Y-67191999D01*
X121576785Y-67192000D01*
X121595602Y-67395082D01*
X121651417Y-67591247D01*
X121651422Y-67591260D01*
X121742327Y-67773821D01*
X121865237Y-67936581D01*
X122015958Y-68073980D01*
X122015960Y-68073982D01*
X122115141Y-68135392D01*
X122189363Y-68181348D01*
X122379544Y-68255024D01*
X122580024Y-68292500D01*
X122580026Y-68292500D01*
X122783974Y-68292500D01*
X122783976Y-68292500D01*
X122984456Y-68255024D01*
X123174637Y-68181348D01*
X123348041Y-68073981D01*
X123498764Y-67936579D01*
X123621673Y-67773821D01*
X123712582Y-67591250D01*
X123768397Y-67395083D01*
X123787215Y-67192000D01*
X123787215Y-67191999D01*
X124116785Y-67191999D01*
X124116785Y-67192000D01*
X124135602Y-67395082D01*
X124191417Y-67591247D01*
X124191422Y-67591260D01*
X124282327Y-67773821D01*
X124405237Y-67936581D01*
X124555958Y-68073980D01*
X124555960Y-68073982D01*
X124655141Y-68135392D01*
X124729363Y-68181348D01*
X124919544Y-68255024D01*
X125120024Y-68292500D01*
X125120026Y-68292500D01*
X125323974Y-68292500D01*
X125323976Y-68292500D01*
X125524456Y-68255024D01*
X125714637Y-68181348D01*
X125888041Y-68073981D01*
X126038764Y-67936579D01*
X126161673Y-67773821D01*
X126252582Y-67591250D01*
X126308397Y-67395083D01*
X126327215Y-67192000D01*
X126327215Y-67191999D01*
X126656785Y-67191999D01*
X126656785Y-67192000D01*
X126675602Y-67395082D01*
X126731417Y-67591247D01*
X126731422Y-67591260D01*
X126822327Y-67773821D01*
X126945237Y-67936581D01*
X127095958Y-68073980D01*
X127095960Y-68073982D01*
X127195141Y-68135392D01*
X127269363Y-68181348D01*
X127459544Y-68255024D01*
X127660024Y-68292500D01*
X127660026Y-68292500D01*
X127863974Y-68292500D01*
X127863976Y-68292500D01*
X128064456Y-68255024D01*
X128254637Y-68181348D01*
X128428041Y-68073981D01*
X128578764Y-67936579D01*
X128701673Y-67773821D01*
X128792582Y-67591250D01*
X128848397Y-67395083D01*
X128867215Y-67192000D01*
X128867215Y-67191999D01*
X131736785Y-67191999D01*
X131736785Y-67192000D01*
X131755602Y-67395082D01*
X131811417Y-67591247D01*
X131811422Y-67591260D01*
X131902327Y-67773821D01*
X132025237Y-67936581D01*
X132175958Y-68073980D01*
X132175960Y-68073982D01*
X132275141Y-68135392D01*
X132349363Y-68181348D01*
X132539544Y-68255024D01*
X132740024Y-68292500D01*
X132740026Y-68292500D01*
X132943974Y-68292500D01*
X132943976Y-68292500D01*
X133144456Y-68255024D01*
X133334637Y-68181348D01*
X133508041Y-68073981D01*
X133658764Y-67936579D01*
X133781673Y-67773821D01*
X133872582Y-67591250D01*
X133928397Y-67395083D01*
X133947215Y-67192000D01*
X133947215Y-67191999D01*
X134276785Y-67191999D01*
X134276785Y-67192000D01*
X134295602Y-67395082D01*
X134351417Y-67591247D01*
X134351422Y-67591260D01*
X134442327Y-67773821D01*
X134565237Y-67936581D01*
X134715958Y-68073980D01*
X134715960Y-68073982D01*
X134815141Y-68135392D01*
X134889363Y-68181348D01*
X135079544Y-68255024D01*
X135280024Y-68292500D01*
X135280026Y-68292500D01*
X135483974Y-68292500D01*
X135483976Y-68292500D01*
X135684456Y-68255024D01*
X135874637Y-68181348D01*
X136048041Y-68073981D01*
X136198764Y-67936579D01*
X136321673Y-67773821D01*
X136412582Y-67591250D01*
X136468397Y-67395083D01*
X136487215Y-67192000D01*
X136487215Y-67191999D01*
X136816785Y-67191999D01*
X136816785Y-67192000D01*
X136835602Y-67395082D01*
X136891417Y-67591247D01*
X136891422Y-67591260D01*
X136982327Y-67773821D01*
X137105237Y-67936581D01*
X137255958Y-68073980D01*
X137255960Y-68073982D01*
X137355141Y-68135392D01*
X137429363Y-68181348D01*
X137619544Y-68255024D01*
X137820024Y-68292500D01*
X137820026Y-68292500D01*
X138023974Y-68292500D01*
X138023976Y-68292500D01*
X138224456Y-68255024D01*
X138414637Y-68181348D01*
X138588041Y-68073981D01*
X138738764Y-67936579D01*
X138861673Y-67773821D01*
X138952582Y-67591250D01*
X139008397Y-67395083D01*
X139027215Y-67192000D01*
X139027215Y-67191999D01*
X139356785Y-67191999D01*
X139356785Y-67192000D01*
X139375602Y-67395082D01*
X139431417Y-67591247D01*
X139431422Y-67591260D01*
X139522327Y-67773821D01*
X139645237Y-67936581D01*
X139795958Y-68073980D01*
X139795960Y-68073982D01*
X139895141Y-68135392D01*
X139969363Y-68181348D01*
X140159544Y-68255024D01*
X140360024Y-68292500D01*
X140360026Y-68292500D01*
X140563974Y-68292500D01*
X140563976Y-68292500D01*
X140764456Y-68255024D01*
X140954637Y-68181348D01*
X141128041Y-68073981D01*
X141278764Y-67936579D01*
X141401673Y-67773821D01*
X141492582Y-67591250D01*
X141548397Y-67395083D01*
X141567215Y-67192000D01*
X141567215Y-67191999D01*
X141896785Y-67191999D01*
X141896785Y-67192000D01*
X141915602Y-67395082D01*
X141971417Y-67591247D01*
X141971422Y-67591260D01*
X142062327Y-67773821D01*
X142185237Y-67936581D01*
X142335958Y-68073980D01*
X142335960Y-68073982D01*
X142435141Y-68135392D01*
X142509363Y-68181348D01*
X142699544Y-68255024D01*
X142900024Y-68292500D01*
X142900026Y-68292500D01*
X143103974Y-68292500D01*
X143103976Y-68292500D01*
X143304456Y-68255024D01*
X143494637Y-68181348D01*
X143668041Y-68073981D01*
X143818764Y-67936579D01*
X143941673Y-67773821D01*
X144032582Y-67591250D01*
X144088397Y-67395083D01*
X144107215Y-67192000D01*
X144107215Y-67191999D01*
X144436785Y-67191999D01*
X144436785Y-67192000D01*
X144455602Y-67395082D01*
X144511417Y-67591247D01*
X144511422Y-67591260D01*
X144602327Y-67773821D01*
X144725237Y-67936581D01*
X144875958Y-68073980D01*
X144875960Y-68073982D01*
X144975141Y-68135392D01*
X145049363Y-68181348D01*
X145239544Y-68255024D01*
X145440024Y-68292500D01*
X145440026Y-68292500D01*
X145643974Y-68292500D01*
X145643976Y-68292500D01*
X145844456Y-68255024D01*
X146034637Y-68181348D01*
X146208041Y-68073981D01*
X146358764Y-67936579D01*
X146481673Y-67773821D01*
X146572582Y-67591250D01*
X146628397Y-67395083D01*
X146647215Y-67192000D01*
X146647215Y-67191999D01*
X146976785Y-67191999D01*
X146976785Y-67192000D01*
X146995602Y-67395082D01*
X147051417Y-67591247D01*
X147051422Y-67591260D01*
X147142327Y-67773821D01*
X147265237Y-67936581D01*
X147415958Y-68073980D01*
X147415960Y-68073982D01*
X147515141Y-68135392D01*
X147589363Y-68181348D01*
X147779544Y-68255024D01*
X147980024Y-68292500D01*
X147980026Y-68292500D01*
X148183974Y-68292500D01*
X148183976Y-68292500D01*
X148384456Y-68255024D01*
X148574637Y-68181348D01*
X148748041Y-68073981D01*
X148898764Y-67936579D01*
X149021673Y-67773821D01*
X149112582Y-67591250D01*
X149168397Y-67395083D01*
X149187215Y-67192000D01*
X149168397Y-66988917D01*
X149112582Y-66792750D01*
X149021673Y-66610179D01*
X148971799Y-66544135D01*
X152061500Y-66544135D01*
X152061500Y-67839870D01*
X152061501Y-67839876D01*
X152067908Y-67899483D01*
X152118202Y-68034328D01*
X152118206Y-68034335D01*
X152204452Y-68149544D01*
X152204455Y-68149547D01*
X152319664Y-68235793D01*
X152319671Y-68235797D01*
X152454517Y-68286091D01*
X152454516Y-68286091D01*
X152461444Y-68286835D01*
X152514127Y-68292500D01*
X153809872Y-68292499D01*
X153869483Y-68286091D01*
X154004331Y-68235796D01*
X154119546Y-68149546D01*
X154205796Y-68034331D01*
X154256091Y-67899483D01*
X154262500Y-67839873D01*
X154262499Y-66544128D01*
X154256091Y-66484517D01*
X154205796Y-66349669D01*
X154205795Y-66349668D01*
X154205793Y-66349664D01*
X154119547Y-66234455D01*
X154119544Y-66234452D01*
X154004335Y-66148206D01*
X154004328Y-66148202D01*
X153869482Y-66097908D01*
X153869483Y-66097908D01*
X153809883Y-66091501D01*
X153809881Y-66091500D01*
X153809873Y-66091500D01*
X153809864Y-66091500D01*
X152514129Y-66091500D01*
X152514123Y-66091501D01*
X152454516Y-66097908D01*
X152319671Y-66148202D01*
X152319664Y-66148206D01*
X152204455Y-66234452D01*
X152204452Y-66234455D01*
X152118206Y-66349664D01*
X152118202Y-66349671D01*
X152067908Y-66484517D01*
X152061501Y-66544116D01*
X152061501Y-66544123D01*
X152061500Y-66544135D01*
X148971799Y-66544135D01*
X148898764Y-66447421D01*
X148898762Y-66447418D01*
X148748041Y-66310019D01*
X148748039Y-66310017D01*
X148574642Y-66202655D01*
X148574635Y-66202651D01*
X148479546Y-66165814D01*
X148384456Y-66128976D01*
X148183976Y-66091500D01*
X147980024Y-66091500D01*
X147779544Y-66128976D01*
X147779541Y-66128976D01*
X147779541Y-66128977D01*
X147589364Y-66202651D01*
X147589357Y-66202655D01*
X147415960Y-66310017D01*
X147415958Y-66310019D01*
X147265237Y-66447418D01*
X147142327Y-66610178D01*
X147051422Y-66792739D01*
X147051417Y-66792752D01*
X146995602Y-66988917D01*
X146976785Y-67191999D01*
X146647215Y-67191999D01*
X146628397Y-66988917D01*
X146572582Y-66792750D01*
X146481673Y-66610179D01*
X146358764Y-66447421D01*
X146358762Y-66447418D01*
X146208041Y-66310019D01*
X146208039Y-66310017D01*
X146034642Y-66202655D01*
X146034635Y-66202651D01*
X145939546Y-66165814D01*
X145844456Y-66128976D01*
X145643976Y-66091500D01*
X145440024Y-66091500D01*
X145239544Y-66128976D01*
X145239541Y-66128976D01*
X145239541Y-66128977D01*
X145049364Y-66202651D01*
X145049357Y-66202655D01*
X144875960Y-66310017D01*
X144875958Y-66310019D01*
X144725237Y-66447418D01*
X144602327Y-66610178D01*
X144511422Y-66792739D01*
X144511417Y-66792752D01*
X144455602Y-66988917D01*
X144436785Y-67191999D01*
X144107215Y-67191999D01*
X144088397Y-66988917D01*
X144032582Y-66792750D01*
X143941673Y-66610179D01*
X143818764Y-66447421D01*
X143818762Y-66447418D01*
X143668041Y-66310019D01*
X143668039Y-66310017D01*
X143494642Y-66202655D01*
X143494635Y-66202651D01*
X143399546Y-66165814D01*
X143304456Y-66128976D01*
X143103976Y-66091500D01*
X142900024Y-66091500D01*
X142699544Y-66128976D01*
X142699541Y-66128976D01*
X142699541Y-66128977D01*
X142509364Y-66202651D01*
X142509357Y-66202655D01*
X142335960Y-66310017D01*
X142335958Y-66310019D01*
X142185237Y-66447418D01*
X142062327Y-66610178D01*
X141971422Y-66792739D01*
X141971417Y-66792752D01*
X141915602Y-66988917D01*
X141896785Y-67191999D01*
X141567215Y-67191999D01*
X141548397Y-66988917D01*
X141492582Y-66792750D01*
X141401673Y-66610179D01*
X141278764Y-66447421D01*
X141278762Y-66447418D01*
X141128041Y-66310019D01*
X141128039Y-66310017D01*
X140954642Y-66202655D01*
X140954635Y-66202651D01*
X140859546Y-66165814D01*
X140764456Y-66128976D01*
X140563976Y-66091500D01*
X140360024Y-66091500D01*
X140159544Y-66128976D01*
X140159541Y-66128976D01*
X140159541Y-66128977D01*
X139969364Y-66202651D01*
X139969357Y-66202655D01*
X139795960Y-66310017D01*
X139795958Y-66310019D01*
X139645237Y-66447418D01*
X139522327Y-66610178D01*
X139431422Y-66792739D01*
X139431417Y-66792752D01*
X139375602Y-66988917D01*
X139356785Y-67191999D01*
X139027215Y-67191999D01*
X139008397Y-66988917D01*
X138952582Y-66792750D01*
X138861673Y-66610179D01*
X138738764Y-66447421D01*
X138738762Y-66447418D01*
X138588041Y-66310019D01*
X138588039Y-66310017D01*
X138414642Y-66202655D01*
X138414635Y-66202651D01*
X138319546Y-66165814D01*
X138224456Y-66128976D01*
X138023976Y-66091500D01*
X137820024Y-66091500D01*
X137619544Y-66128976D01*
X137619541Y-66128976D01*
X137619541Y-66128977D01*
X137429364Y-66202651D01*
X137429357Y-66202655D01*
X137255960Y-66310017D01*
X137255958Y-66310019D01*
X137105237Y-66447418D01*
X136982327Y-66610178D01*
X136891422Y-66792739D01*
X136891417Y-66792752D01*
X136835602Y-66988917D01*
X136816785Y-67191999D01*
X136487215Y-67191999D01*
X136468397Y-66988917D01*
X136412582Y-66792750D01*
X136321673Y-66610179D01*
X136198764Y-66447421D01*
X136198762Y-66447418D01*
X136048041Y-66310019D01*
X136048039Y-66310017D01*
X135874642Y-66202655D01*
X135874635Y-66202651D01*
X135779546Y-66165814D01*
X135684456Y-66128976D01*
X135483976Y-66091500D01*
X135280024Y-66091500D01*
X135079544Y-66128976D01*
X135079541Y-66128976D01*
X135079541Y-66128977D01*
X134889364Y-66202651D01*
X134889357Y-66202655D01*
X134715960Y-66310017D01*
X134715958Y-66310019D01*
X134565237Y-66447418D01*
X134442327Y-66610178D01*
X134351422Y-66792739D01*
X134351417Y-66792752D01*
X134295602Y-66988917D01*
X134276785Y-67191999D01*
X133947215Y-67191999D01*
X133928397Y-66988917D01*
X133872582Y-66792750D01*
X133781673Y-66610179D01*
X133658764Y-66447421D01*
X133658762Y-66447418D01*
X133508041Y-66310019D01*
X133508039Y-66310017D01*
X133334642Y-66202655D01*
X133334635Y-66202651D01*
X133239546Y-66165814D01*
X133144456Y-66128976D01*
X132943976Y-66091500D01*
X132740024Y-66091500D01*
X132539544Y-66128976D01*
X132539541Y-66128976D01*
X132539541Y-66128977D01*
X132349364Y-66202651D01*
X132349357Y-66202655D01*
X132175960Y-66310017D01*
X132175958Y-66310019D01*
X132025237Y-66447418D01*
X131902327Y-66610178D01*
X131811422Y-66792739D01*
X131811417Y-66792752D01*
X131755602Y-66988917D01*
X131736785Y-67191999D01*
X128867215Y-67191999D01*
X128848397Y-66988917D01*
X128792582Y-66792750D01*
X128701673Y-66610179D01*
X128578764Y-66447421D01*
X128578762Y-66447418D01*
X128428041Y-66310019D01*
X128428039Y-66310017D01*
X128254642Y-66202655D01*
X128254635Y-66202651D01*
X128159546Y-66165814D01*
X128064456Y-66128976D01*
X127863976Y-66091500D01*
X127660024Y-66091500D01*
X127459544Y-66128976D01*
X127459541Y-66128976D01*
X127459541Y-66128977D01*
X127269364Y-66202651D01*
X127269357Y-66202655D01*
X127095960Y-66310017D01*
X127095958Y-66310019D01*
X126945237Y-66447418D01*
X126822327Y-66610178D01*
X126731422Y-66792739D01*
X126731417Y-66792752D01*
X126675602Y-66988917D01*
X126656785Y-67191999D01*
X126327215Y-67191999D01*
X126308397Y-66988917D01*
X126252582Y-66792750D01*
X126161673Y-66610179D01*
X126038764Y-66447421D01*
X126038762Y-66447418D01*
X125888041Y-66310019D01*
X125888039Y-66310017D01*
X125714642Y-66202655D01*
X125714635Y-66202651D01*
X125619546Y-66165814D01*
X125524456Y-66128976D01*
X125323976Y-66091500D01*
X125120024Y-66091500D01*
X124919544Y-66128976D01*
X124919541Y-66128976D01*
X124919541Y-66128977D01*
X124729364Y-66202651D01*
X124729357Y-66202655D01*
X124555960Y-66310017D01*
X124555958Y-66310019D01*
X124405237Y-66447418D01*
X124282327Y-66610178D01*
X124191422Y-66792739D01*
X124191417Y-66792752D01*
X124135602Y-66988917D01*
X124116785Y-67191999D01*
X123787215Y-67191999D01*
X123768397Y-66988917D01*
X123712582Y-66792750D01*
X123621673Y-66610179D01*
X123498764Y-66447421D01*
X123498762Y-66447418D01*
X123348041Y-66310019D01*
X123348039Y-66310017D01*
X123174642Y-66202655D01*
X123174635Y-66202651D01*
X123079546Y-66165814D01*
X122984456Y-66128976D01*
X122783976Y-66091500D01*
X122580024Y-66091500D01*
X122379544Y-66128976D01*
X122379541Y-66128976D01*
X122379541Y-66128977D01*
X122189364Y-66202651D01*
X122189357Y-66202655D01*
X122015960Y-66310017D01*
X122015958Y-66310019D01*
X121865237Y-66447418D01*
X121742327Y-66610178D01*
X121651422Y-66792739D01*
X121651417Y-66792752D01*
X121595602Y-66988917D01*
X121576785Y-67191999D01*
X121247215Y-67191999D01*
X121228397Y-66988917D01*
X121172582Y-66792750D01*
X121081673Y-66610179D01*
X120958764Y-66447421D01*
X120958762Y-66447418D01*
X120808041Y-66310019D01*
X120808039Y-66310017D01*
X120634642Y-66202655D01*
X120634635Y-66202651D01*
X120539546Y-66165814D01*
X120444456Y-66128976D01*
X120243976Y-66091500D01*
X120040024Y-66091500D01*
X119839544Y-66128976D01*
X119839541Y-66128976D01*
X119839541Y-66128977D01*
X119649364Y-66202651D01*
X119649357Y-66202655D01*
X119475960Y-66310017D01*
X119475958Y-66310019D01*
X119325237Y-66447418D01*
X119202327Y-66610178D01*
X119111422Y-66792739D01*
X119111417Y-66792752D01*
X119055602Y-66988917D01*
X119036785Y-67191999D01*
X118707215Y-67191999D01*
X118688397Y-66988917D01*
X118632582Y-66792750D01*
X118541673Y-66610179D01*
X118418764Y-66447421D01*
X118418762Y-66447418D01*
X118268041Y-66310019D01*
X118268039Y-66310017D01*
X118094642Y-66202655D01*
X118094635Y-66202651D01*
X117999546Y-66165814D01*
X117904456Y-66128976D01*
X117703976Y-66091500D01*
X117500024Y-66091500D01*
X117299544Y-66128976D01*
X117299541Y-66128976D01*
X117299541Y-66128977D01*
X117109364Y-66202651D01*
X117109357Y-66202655D01*
X116935960Y-66310017D01*
X116935958Y-66310019D01*
X116785237Y-66447418D01*
X116662327Y-66610178D01*
X116571422Y-66792739D01*
X116571417Y-66792752D01*
X116515602Y-66988917D01*
X116496785Y-67191999D01*
X116167215Y-67191999D01*
X116148397Y-66988917D01*
X116092582Y-66792750D01*
X116001673Y-66610179D01*
X115878764Y-66447421D01*
X115878762Y-66447418D01*
X115728041Y-66310019D01*
X115728039Y-66310017D01*
X115554642Y-66202655D01*
X115554635Y-66202651D01*
X115459546Y-66165814D01*
X115364456Y-66128976D01*
X115163976Y-66091500D01*
X114960024Y-66091500D01*
X114759544Y-66128976D01*
X114759541Y-66128976D01*
X114759541Y-66128977D01*
X114569364Y-66202651D01*
X114569357Y-66202655D01*
X114395960Y-66310017D01*
X114395958Y-66310019D01*
X114245237Y-66447418D01*
X114122327Y-66610178D01*
X114031422Y-66792739D01*
X114031417Y-66792752D01*
X113975602Y-66988917D01*
X113956785Y-67191999D01*
X113627215Y-67191999D01*
X113608397Y-66988917D01*
X113552582Y-66792750D01*
X113461673Y-66610179D01*
X113338764Y-66447421D01*
X113338762Y-66447418D01*
X113188041Y-66310019D01*
X113188039Y-66310017D01*
X113014642Y-66202655D01*
X113014635Y-66202651D01*
X112919546Y-66165814D01*
X112824456Y-66128976D01*
X112623976Y-66091500D01*
X112420024Y-66091500D01*
X112219544Y-66128976D01*
X112219541Y-66128976D01*
X112219541Y-66128977D01*
X112029364Y-66202651D01*
X112029357Y-66202655D01*
X111855960Y-66310017D01*
X111855958Y-66310019D01*
X111705237Y-66447418D01*
X111582327Y-66610178D01*
X111491422Y-66792739D01*
X111491417Y-66792752D01*
X111435602Y-66988917D01*
X111416785Y-67191999D01*
X111087215Y-67191999D01*
X111068397Y-66988917D01*
X111012582Y-66792750D01*
X110921673Y-66610179D01*
X110798764Y-66447421D01*
X110798762Y-66447418D01*
X110648041Y-66310019D01*
X110648039Y-66310017D01*
X110474642Y-66202655D01*
X110474635Y-66202651D01*
X110379546Y-66165814D01*
X110284456Y-66128976D01*
X110083976Y-66091500D01*
X109880024Y-66091500D01*
X109679544Y-66128976D01*
X109679541Y-66128976D01*
X109679541Y-66128977D01*
X109489364Y-66202651D01*
X109489357Y-66202655D01*
X109315960Y-66310017D01*
X109315958Y-66310019D01*
X109165237Y-66447418D01*
X109042327Y-66610178D01*
X108951422Y-66792739D01*
X108951417Y-66792752D01*
X108895602Y-66988917D01*
X108876785Y-67191999D01*
X108547215Y-67191999D01*
X108528397Y-66988917D01*
X108472582Y-66792750D01*
X108381673Y-66610179D01*
X108258764Y-66447421D01*
X108258762Y-66447418D01*
X108108041Y-66310019D01*
X108108039Y-66310017D01*
X107934642Y-66202655D01*
X107934635Y-66202651D01*
X107839546Y-66165814D01*
X107744456Y-66128976D01*
X107543976Y-66091500D01*
X107340024Y-66091500D01*
X107139544Y-66128976D01*
X107139541Y-66128976D01*
X107139541Y-66128977D01*
X106949364Y-66202651D01*
X106949357Y-66202655D01*
X106775960Y-66310017D01*
X106775958Y-66310019D01*
X106625237Y-66447418D01*
X106502327Y-66610178D01*
X106411422Y-66792739D01*
X106411417Y-66792752D01*
X106355602Y-66988917D01*
X106336785Y-67191999D01*
X106007215Y-67191999D01*
X105988397Y-66988917D01*
X105932582Y-66792750D01*
X105841673Y-66610179D01*
X105718764Y-66447421D01*
X105718762Y-66447418D01*
X105568041Y-66310019D01*
X105568039Y-66310017D01*
X105394642Y-66202655D01*
X105394635Y-66202651D01*
X105299546Y-66165814D01*
X105204456Y-66128976D01*
X105003976Y-66091500D01*
X104800024Y-66091500D01*
X104599544Y-66128976D01*
X104599541Y-66128976D01*
X104599541Y-66128977D01*
X104409364Y-66202651D01*
X104409357Y-66202655D01*
X104235960Y-66310017D01*
X104235958Y-66310019D01*
X104085237Y-66447418D01*
X103962327Y-66610178D01*
X103871422Y-66792739D01*
X103871417Y-66792752D01*
X103815602Y-66988917D01*
X103796785Y-67191999D01*
X96266000Y-67191999D01*
X96266000Y-62354000D01*
X96285685Y-62286961D01*
X96338489Y-62241206D01*
X96390000Y-62230000D01*
X159896000Y-62230000D01*
X159963039Y-62249685D01*
G37*
G04 #@! TD.AperFunction*
D15*
X92710000Y-58848000D02*
G75*
G02*
X97710000Y-53848000I5000000J0D01*
G01*
X158830000Y-53848000D02*
G75*
G02*
X163830000Y-58848000I0J-5000000D01*
G01*
X97710000Y-112522000D02*
G75*
G02*
X92710000Y-107522000I0J5000000D01*
G01*
X163830000Y-107522000D02*
G75*
G02*
X158830000Y-112522000I-5000000J0D01*
G01*
X97710000Y-53848000D02*
X158830000Y-53848000D01*
X92710000Y-107522000D02*
X92710000Y-58848000D01*
X163830000Y-58848000D02*
X163830000Y-107522000D01*
X158830000Y-112522000D02*
X97710000Y-112522000D01*
M02*
