G04 #@! TF.GenerationSoftware,KiCad,Pcbnew,8.0.4*
G04 #@! TF.CreationDate,2024-09-28T14:18:14+10:00*
G04 #@! TF.ProjectId,Amiga_4000_4IDE,416d6967-615f-4343-9030-305f34494445,rev?*
G04 #@! TF.SameCoordinates,Original*
G04 #@! TF.FileFunction,Legend,Top*
G04 #@! TF.FilePolarity,Positive*
%FSLAX46Y46*%
G04 Gerber Fmt 4.6, Leading zero omitted, Abs format (unit mm)*
G04 Created by KiCad (PCBNEW 8.0.4) date 2024-09-28 14:18:14*
%MOMM*%
%LPD*%
G01*
G04 APERTURE LIST*
G04 Aperture macros list*
%AMRoundRect*
0 Rectangle with rounded corners*
0 $1 Rounding radius*
0 $2 $3 $4 $5 $6 $7 $8 $9 X,Y pos of 4 corners*
0 Add a 4 corners polygon primitive as box body*
4,1,4,$2,$3,$4,$5,$6,$7,$8,$9,$2,$3,0*
0 Add four circle primitives for the rounded corners*
1,1,$1+$1,$2,$3*
1,1,$1+$1,$4,$5*
1,1,$1+$1,$6,$7*
1,1,$1+$1,$8,$9*
0 Add four rect primitives between the rounded corners*
20,1,$1+$1,$2,$3,$4,$5,0*
20,1,$1+$1,$4,$5,$6,$7,0*
20,1,$1+$1,$6,$7,$8,$9,0*
20,1,$1+$1,$8,$9,$2,$3,0*%
G04 Aperture macros list end*
%ADD10C,0.150000*%
%ADD11C,1.400000*%
%ADD12C,0.100000*%
%ADD13C,0.120000*%
%ADD14C,3.200000*%
%ADD15R,2.000000X2.000000*%
%ADD16O,2.000000X2.000000*%
%ADD17RoundRect,0.250000X-0.600000X0.600000X-0.600000X-0.600000X0.600000X-0.600000X0.600000X0.600000X0*%
%ADD18C,1.700000*%
G04 #@! TA.AperFunction,Profile*
%ADD19C,0.050000*%
G04 #@! TD*
G04 APERTURE END LIST*
D10*
X95101580Y-71627619D02*
X95149200Y-71675238D01*
X95149200Y-71675238D02*
X95196819Y-71818095D01*
X95196819Y-71818095D02*
X95196819Y-71913333D01*
X95196819Y-71913333D02*
X95149200Y-72056190D01*
X95149200Y-72056190D02*
X95053961Y-72151428D01*
X95053961Y-72151428D02*
X94958723Y-72199047D01*
X94958723Y-72199047D02*
X94768247Y-72246666D01*
X94768247Y-72246666D02*
X94625390Y-72246666D01*
X94625390Y-72246666D02*
X94434914Y-72199047D01*
X94434914Y-72199047D02*
X94339676Y-72151428D01*
X94339676Y-72151428D02*
X94244438Y-72056190D01*
X94244438Y-72056190D02*
X94196819Y-71913333D01*
X94196819Y-71913333D02*
X94196819Y-71818095D01*
X94196819Y-71818095D02*
X94244438Y-71675238D01*
X94244438Y-71675238D02*
X94292057Y-71627619D01*
X95196819Y-71199047D02*
X94196819Y-71199047D01*
X95196819Y-70770476D02*
X94673009Y-70770476D01*
X94673009Y-70770476D02*
X94577771Y-70818095D01*
X94577771Y-70818095D02*
X94530152Y-70913333D01*
X94530152Y-70913333D02*
X94530152Y-71056190D01*
X94530152Y-71056190D02*
X94577771Y-71151428D01*
X94577771Y-71151428D02*
X94625390Y-71199047D01*
X95196819Y-69865714D02*
X94673009Y-69865714D01*
X94673009Y-69865714D02*
X94577771Y-69913333D01*
X94577771Y-69913333D02*
X94530152Y-70008571D01*
X94530152Y-70008571D02*
X94530152Y-70199047D01*
X94530152Y-70199047D02*
X94577771Y-70294285D01*
X95149200Y-69865714D02*
X95196819Y-69960952D01*
X95196819Y-69960952D02*
X95196819Y-70199047D01*
X95196819Y-70199047D02*
X95149200Y-70294285D01*
X95149200Y-70294285D02*
X95053961Y-70341904D01*
X95053961Y-70341904D02*
X94958723Y-70341904D01*
X94958723Y-70341904D02*
X94863485Y-70294285D01*
X94863485Y-70294285D02*
X94815866Y-70199047D01*
X94815866Y-70199047D02*
X94815866Y-69960952D01*
X94815866Y-69960952D02*
X94768247Y-69865714D01*
X94530152Y-69389523D02*
X95196819Y-69389523D01*
X94625390Y-69389523D02*
X94577771Y-69341904D01*
X94577771Y-69341904D02*
X94530152Y-69246666D01*
X94530152Y-69246666D02*
X94530152Y-69103809D01*
X94530152Y-69103809D02*
X94577771Y-69008571D01*
X94577771Y-69008571D02*
X94673009Y-68960952D01*
X94673009Y-68960952D02*
X95196819Y-68960952D01*
X94530152Y-68484761D02*
X95196819Y-68484761D01*
X94625390Y-68484761D02*
X94577771Y-68437142D01*
X94577771Y-68437142D02*
X94530152Y-68341904D01*
X94530152Y-68341904D02*
X94530152Y-68199047D01*
X94530152Y-68199047D02*
X94577771Y-68103809D01*
X94577771Y-68103809D02*
X94673009Y-68056190D01*
X94673009Y-68056190D02*
X95196819Y-68056190D01*
X95149200Y-67199047D02*
X95196819Y-67294285D01*
X95196819Y-67294285D02*
X95196819Y-67484761D01*
X95196819Y-67484761D02*
X95149200Y-67579999D01*
X95149200Y-67579999D02*
X95053961Y-67627618D01*
X95053961Y-67627618D02*
X94673009Y-67627618D01*
X94673009Y-67627618D02*
X94577771Y-67579999D01*
X94577771Y-67579999D02*
X94530152Y-67484761D01*
X94530152Y-67484761D02*
X94530152Y-67294285D01*
X94530152Y-67294285D02*
X94577771Y-67199047D01*
X94577771Y-67199047D02*
X94673009Y-67151428D01*
X94673009Y-67151428D02*
X94768247Y-67151428D01*
X94768247Y-67151428D02*
X94863485Y-67627618D01*
X95196819Y-66579999D02*
X95149200Y-66675237D01*
X95149200Y-66675237D02*
X95053961Y-66722856D01*
X95053961Y-66722856D02*
X94196819Y-66722856D01*
X95196819Y-64913332D02*
X95196819Y-65484760D01*
X95196819Y-65199046D02*
X94196819Y-65199046D01*
X94196819Y-65199046D02*
X94339676Y-65294284D01*
X94339676Y-65294284D02*
X94434914Y-65389522D01*
X94434914Y-65389522D02*
X94482533Y-65484760D01*
X95101580Y-82549619D02*
X95149200Y-82597238D01*
X95149200Y-82597238D02*
X95196819Y-82740095D01*
X95196819Y-82740095D02*
X95196819Y-82835333D01*
X95196819Y-82835333D02*
X95149200Y-82978190D01*
X95149200Y-82978190D02*
X95053961Y-83073428D01*
X95053961Y-83073428D02*
X94958723Y-83121047D01*
X94958723Y-83121047D02*
X94768247Y-83168666D01*
X94768247Y-83168666D02*
X94625390Y-83168666D01*
X94625390Y-83168666D02*
X94434914Y-83121047D01*
X94434914Y-83121047D02*
X94339676Y-83073428D01*
X94339676Y-83073428D02*
X94244438Y-82978190D01*
X94244438Y-82978190D02*
X94196819Y-82835333D01*
X94196819Y-82835333D02*
X94196819Y-82740095D01*
X94196819Y-82740095D02*
X94244438Y-82597238D01*
X94244438Y-82597238D02*
X94292057Y-82549619D01*
X95196819Y-82121047D02*
X94196819Y-82121047D01*
X95196819Y-81692476D02*
X94673009Y-81692476D01*
X94673009Y-81692476D02*
X94577771Y-81740095D01*
X94577771Y-81740095D02*
X94530152Y-81835333D01*
X94530152Y-81835333D02*
X94530152Y-81978190D01*
X94530152Y-81978190D02*
X94577771Y-82073428D01*
X94577771Y-82073428D02*
X94625390Y-82121047D01*
X95196819Y-80787714D02*
X94673009Y-80787714D01*
X94673009Y-80787714D02*
X94577771Y-80835333D01*
X94577771Y-80835333D02*
X94530152Y-80930571D01*
X94530152Y-80930571D02*
X94530152Y-81121047D01*
X94530152Y-81121047D02*
X94577771Y-81216285D01*
X95149200Y-80787714D02*
X95196819Y-80882952D01*
X95196819Y-80882952D02*
X95196819Y-81121047D01*
X95196819Y-81121047D02*
X95149200Y-81216285D01*
X95149200Y-81216285D02*
X95053961Y-81263904D01*
X95053961Y-81263904D02*
X94958723Y-81263904D01*
X94958723Y-81263904D02*
X94863485Y-81216285D01*
X94863485Y-81216285D02*
X94815866Y-81121047D01*
X94815866Y-81121047D02*
X94815866Y-80882952D01*
X94815866Y-80882952D02*
X94768247Y-80787714D01*
X94530152Y-80311523D02*
X95196819Y-80311523D01*
X94625390Y-80311523D02*
X94577771Y-80263904D01*
X94577771Y-80263904D02*
X94530152Y-80168666D01*
X94530152Y-80168666D02*
X94530152Y-80025809D01*
X94530152Y-80025809D02*
X94577771Y-79930571D01*
X94577771Y-79930571D02*
X94673009Y-79882952D01*
X94673009Y-79882952D02*
X95196819Y-79882952D01*
X94530152Y-79406761D02*
X95196819Y-79406761D01*
X94625390Y-79406761D02*
X94577771Y-79359142D01*
X94577771Y-79359142D02*
X94530152Y-79263904D01*
X94530152Y-79263904D02*
X94530152Y-79121047D01*
X94530152Y-79121047D02*
X94577771Y-79025809D01*
X94577771Y-79025809D02*
X94673009Y-78978190D01*
X94673009Y-78978190D02*
X95196819Y-78978190D01*
X95149200Y-78121047D02*
X95196819Y-78216285D01*
X95196819Y-78216285D02*
X95196819Y-78406761D01*
X95196819Y-78406761D02*
X95149200Y-78501999D01*
X95149200Y-78501999D02*
X95053961Y-78549618D01*
X95053961Y-78549618D02*
X94673009Y-78549618D01*
X94673009Y-78549618D02*
X94577771Y-78501999D01*
X94577771Y-78501999D02*
X94530152Y-78406761D01*
X94530152Y-78406761D02*
X94530152Y-78216285D01*
X94530152Y-78216285D02*
X94577771Y-78121047D01*
X94577771Y-78121047D02*
X94673009Y-78073428D01*
X94673009Y-78073428D02*
X94768247Y-78073428D01*
X94768247Y-78073428D02*
X94863485Y-78549618D01*
X95196819Y-77501999D02*
X95149200Y-77597237D01*
X95149200Y-77597237D02*
X95053961Y-77644856D01*
X95053961Y-77644856D02*
X94196819Y-77644856D01*
X94196819Y-76168665D02*
X94196819Y-76073427D01*
X94196819Y-76073427D02*
X94244438Y-75978189D01*
X94244438Y-75978189D02*
X94292057Y-75930570D01*
X94292057Y-75930570D02*
X94387295Y-75882951D01*
X94387295Y-75882951D02*
X94577771Y-75835332D01*
X94577771Y-75835332D02*
X94815866Y-75835332D01*
X94815866Y-75835332D02*
X95006342Y-75882951D01*
X95006342Y-75882951D02*
X95101580Y-75930570D01*
X95101580Y-75930570D02*
X95149200Y-75978189D01*
X95149200Y-75978189D02*
X95196819Y-76073427D01*
X95196819Y-76073427D02*
X95196819Y-76168665D01*
X95196819Y-76168665D02*
X95149200Y-76263903D01*
X95149200Y-76263903D02*
X95101580Y-76311522D01*
X95101580Y-76311522D02*
X95006342Y-76359141D01*
X95006342Y-76359141D02*
X94815866Y-76406760D01*
X94815866Y-76406760D02*
X94577771Y-76406760D01*
X94577771Y-76406760D02*
X94387295Y-76359141D01*
X94387295Y-76359141D02*
X94292057Y-76311522D01*
X94292057Y-76311522D02*
X94244438Y-76263903D01*
X94244438Y-76263903D02*
X94196819Y-76168665D01*
X94911104Y-102377332D02*
X94911104Y-101901142D01*
X95196819Y-102472570D02*
X94196819Y-102139237D01*
X94196819Y-102139237D02*
X95196819Y-101805904D01*
X95196819Y-101472570D02*
X94530152Y-101472570D01*
X94625390Y-101472570D02*
X94577771Y-101424951D01*
X94577771Y-101424951D02*
X94530152Y-101329713D01*
X94530152Y-101329713D02*
X94530152Y-101186856D01*
X94530152Y-101186856D02*
X94577771Y-101091618D01*
X94577771Y-101091618D02*
X94673009Y-101043999D01*
X94673009Y-101043999D02*
X95196819Y-101043999D01*
X94673009Y-101043999D02*
X94577771Y-100996380D01*
X94577771Y-100996380D02*
X94530152Y-100901142D01*
X94530152Y-100901142D02*
X94530152Y-100758285D01*
X94530152Y-100758285D02*
X94577771Y-100663046D01*
X94577771Y-100663046D02*
X94673009Y-100615427D01*
X94673009Y-100615427D02*
X95196819Y-100615427D01*
X95196819Y-100139237D02*
X94530152Y-100139237D01*
X94196819Y-100139237D02*
X94244438Y-100186856D01*
X94244438Y-100186856D02*
X94292057Y-100139237D01*
X94292057Y-100139237D02*
X94244438Y-100091618D01*
X94244438Y-100091618D02*
X94196819Y-100139237D01*
X94196819Y-100139237D02*
X94292057Y-100139237D01*
X94530152Y-99234476D02*
X95339676Y-99234476D01*
X95339676Y-99234476D02*
X95434914Y-99282095D01*
X95434914Y-99282095D02*
X95482533Y-99329714D01*
X95482533Y-99329714D02*
X95530152Y-99424952D01*
X95530152Y-99424952D02*
X95530152Y-99567809D01*
X95530152Y-99567809D02*
X95482533Y-99663047D01*
X95149200Y-99234476D02*
X95196819Y-99329714D01*
X95196819Y-99329714D02*
X95196819Y-99520190D01*
X95196819Y-99520190D02*
X95149200Y-99615428D01*
X95149200Y-99615428D02*
X95101580Y-99663047D01*
X95101580Y-99663047D02*
X95006342Y-99710666D01*
X95006342Y-99710666D02*
X94720628Y-99710666D01*
X94720628Y-99710666D02*
X94625390Y-99663047D01*
X94625390Y-99663047D02*
X94577771Y-99615428D01*
X94577771Y-99615428D02*
X94530152Y-99520190D01*
X94530152Y-99520190D02*
X94530152Y-99329714D01*
X94530152Y-99329714D02*
X94577771Y-99234476D01*
X95196819Y-98329714D02*
X94673009Y-98329714D01*
X94673009Y-98329714D02*
X94577771Y-98377333D01*
X94577771Y-98377333D02*
X94530152Y-98472571D01*
X94530152Y-98472571D02*
X94530152Y-98663047D01*
X94530152Y-98663047D02*
X94577771Y-98758285D01*
X95149200Y-98329714D02*
X95196819Y-98424952D01*
X95196819Y-98424952D02*
X95196819Y-98663047D01*
X95196819Y-98663047D02*
X95149200Y-98758285D01*
X95149200Y-98758285D02*
X95053961Y-98805904D01*
X95053961Y-98805904D02*
X94958723Y-98805904D01*
X94958723Y-98805904D02*
X94863485Y-98758285D01*
X94863485Y-98758285D02*
X94815866Y-98663047D01*
X94815866Y-98663047D02*
X94815866Y-98424952D01*
X94815866Y-98424952D02*
X94768247Y-98329714D01*
X94530152Y-96663047D02*
X95196819Y-96663047D01*
X94149200Y-96901142D02*
X94863485Y-97139237D01*
X94863485Y-97139237D02*
X94863485Y-96520190D01*
X94196819Y-95948761D02*
X94196819Y-95853523D01*
X94196819Y-95853523D02*
X94244438Y-95758285D01*
X94244438Y-95758285D02*
X94292057Y-95710666D01*
X94292057Y-95710666D02*
X94387295Y-95663047D01*
X94387295Y-95663047D02*
X94577771Y-95615428D01*
X94577771Y-95615428D02*
X94815866Y-95615428D01*
X94815866Y-95615428D02*
X95006342Y-95663047D01*
X95006342Y-95663047D02*
X95101580Y-95710666D01*
X95101580Y-95710666D02*
X95149200Y-95758285D01*
X95149200Y-95758285D02*
X95196819Y-95853523D01*
X95196819Y-95853523D02*
X95196819Y-95948761D01*
X95196819Y-95948761D02*
X95149200Y-96043999D01*
X95149200Y-96043999D02*
X95101580Y-96091618D01*
X95101580Y-96091618D02*
X95006342Y-96139237D01*
X95006342Y-96139237D02*
X94815866Y-96186856D01*
X94815866Y-96186856D02*
X94577771Y-96186856D01*
X94577771Y-96186856D02*
X94387295Y-96139237D01*
X94387295Y-96139237D02*
X94292057Y-96091618D01*
X94292057Y-96091618D02*
X94244438Y-96043999D01*
X94244438Y-96043999D02*
X94196819Y-95948761D01*
X94196819Y-94996380D02*
X94196819Y-94901142D01*
X94196819Y-94901142D02*
X94244438Y-94805904D01*
X94244438Y-94805904D02*
X94292057Y-94758285D01*
X94292057Y-94758285D02*
X94387295Y-94710666D01*
X94387295Y-94710666D02*
X94577771Y-94663047D01*
X94577771Y-94663047D02*
X94815866Y-94663047D01*
X94815866Y-94663047D02*
X95006342Y-94710666D01*
X95006342Y-94710666D02*
X95101580Y-94758285D01*
X95101580Y-94758285D02*
X95149200Y-94805904D01*
X95149200Y-94805904D02*
X95196819Y-94901142D01*
X95196819Y-94901142D02*
X95196819Y-94996380D01*
X95196819Y-94996380D02*
X95149200Y-95091618D01*
X95149200Y-95091618D02*
X95101580Y-95139237D01*
X95101580Y-95139237D02*
X95006342Y-95186856D01*
X95006342Y-95186856D02*
X94815866Y-95234475D01*
X94815866Y-95234475D02*
X94577771Y-95234475D01*
X94577771Y-95234475D02*
X94387295Y-95186856D01*
X94387295Y-95186856D02*
X94292057Y-95139237D01*
X94292057Y-95139237D02*
X94244438Y-95091618D01*
X94244438Y-95091618D02*
X94196819Y-94996380D01*
X94196819Y-94043999D02*
X94196819Y-93948761D01*
X94196819Y-93948761D02*
X94244438Y-93853523D01*
X94244438Y-93853523D02*
X94292057Y-93805904D01*
X94292057Y-93805904D02*
X94387295Y-93758285D01*
X94387295Y-93758285D02*
X94577771Y-93710666D01*
X94577771Y-93710666D02*
X94815866Y-93710666D01*
X94815866Y-93710666D02*
X95006342Y-93758285D01*
X95006342Y-93758285D02*
X95101580Y-93805904D01*
X95101580Y-93805904D02*
X95149200Y-93853523D01*
X95149200Y-93853523D02*
X95196819Y-93948761D01*
X95196819Y-93948761D02*
X95196819Y-94043999D01*
X95196819Y-94043999D02*
X95149200Y-94139237D01*
X95149200Y-94139237D02*
X95101580Y-94186856D01*
X95101580Y-94186856D02*
X95006342Y-94234475D01*
X95006342Y-94234475D02*
X94815866Y-94282094D01*
X94815866Y-94282094D02*
X94577771Y-94282094D01*
X94577771Y-94282094D02*
X94387295Y-94234475D01*
X94387295Y-94234475D02*
X94292057Y-94186856D01*
X94292057Y-94186856D02*
X94244438Y-94139237D01*
X94244438Y-94139237D02*
X94196819Y-94043999D01*
D11*
G36*
X116957654Y-55321981D02*
G01*
X117209558Y-55574309D01*
X117212694Y-55847725D01*
X117212102Y-56219542D01*
X117208653Y-56667708D01*
X117203217Y-57170170D01*
X117198920Y-57524419D01*
X117194385Y-57886464D01*
X117189870Y-58249772D01*
X117185633Y-58607807D01*
X117181932Y-58954037D01*
X117177949Y-59436952D01*
X117176623Y-59856550D01*
X117180494Y-60279403D01*
X117182999Y-60522141D01*
X117240764Y-60899283D01*
X117532692Y-61077833D01*
X117643392Y-61098977D01*
X117924213Y-61313772D01*
X117860642Y-61471888D01*
X117522434Y-61548001D01*
X117319598Y-61543388D01*
X116962721Y-61529194D01*
X116595108Y-61516264D01*
X116219642Y-61510387D01*
X116037863Y-61511317D01*
X115675786Y-61519111D01*
X115317969Y-61534421D01*
X114954464Y-61548001D01*
X114874034Y-61546648D01*
X114592008Y-61342837D01*
X114720521Y-61149056D01*
X115072434Y-61098349D01*
X115289886Y-61063835D01*
X115528547Y-60798304D01*
X115571666Y-60428147D01*
X115576211Y-60096356D01*
X115574052Y-59726095D01*
X115571666Y-59359585D01*
X113701254Y-59359585D01*
X113543962Y-59429682D01*
X113331845Y-59712604D01*
X113131619Y-59995435D01*
X112926760Y-60289661D01*
X112822143Y-60452214D01*
X112701080Y-60788894D01*
X112785019Y-60983880D01*
X113121666Y-61098349D01*
X113186675Y-61109957D01*
X113446509Y-61332578D01*
X113397518Y-61464287D01*
X113053278Y-61548001D01*
X112740463Y-61539277D01*
X112394497Y-61520665D01*
X112044555Y-61510387D01*
X111872842Y-61513858D01*
X111505242Y-61534421D01*
X111162350Y-61548001D01*
X110868281Y-61342837D01*
X110922001Y-61210690D01*
X111240996Y-61077833D01*
X111498226Y-60965474D01*
X111771268Y-60737191D01*
X112023751Y-60453295D01*
X112270235Y-60149466D01*
X112490693Y-59874636D01*
X112711067Y-59599514D01*
X112931517Y-59323965D01*
X113152200Y-59047858D01*
X113310151Y-58850094D01*
X113964548Y-58850094D01*
X115592182Y-58850094D01*
X115610989Y-56803583D01*
X115592182Y-56793325D01*
X115491181Y-56922944D01*
X115238438Y-57245407D01*
X114985226Y-57566266D01*
X114731387Y-57886343D01*
X114476765Y-58206458D01*
X114221204Y-58527435D01*
X113964548Y-58850094D01*
X113310151Y-58850094D01*
X113373274Y-58771060D01*
X113594896Y-58493438D01*
X113817224Y-58214859D01*
X114040416Y-57935191D01*
X114264630Y-57654300D01*
X114490024Y-57372055D01*
X114716755Y-57088322D01*
X114944981Y-56802969D01*
X115174860Y-56515862D01*
X115406550Y-56226870D01*
X115640208Y-55935859D01*
X115875993Y-55642697D01*
X116103126Y-55439685D01*
X116433710Y-55331808D01*
X116787263Y-55311015D01*
X116957654Y-55321981D01*
G37*
G36*
X119845916Y-55656375D02*
G01*
X120122510Y-55860186D01*
X120179307Y-55861539D01*
X120521160Y-55947933D01*
X120599893Y-56126542D01*
X120512372Y-56462060D01*
X120492182Y-56516354D01*
X120370483Y-56854400D01*
X120247804Y-57192489D01*
X120124245Y-57530663D01*
X119999909Y-57868963D01*
X119874897Y-58207433D01*
X119749309Y-58546113D01*
X119623249Y-58885048D01*
X119496816Y-59224278D01*
X119370113Y-59563846D01*
X119243242Y-59903795D01*
X119158616Y-60130659D01*
X119028283Y-60478230D01*
X118868482Y-60804938D01*
X118587058Y-61047832D01*
X118315734Y-61108608D01*
X117975573Y-61204923D01*
X117913955Y-61363353D01*
X118209881Y-61547154D01*
X118247346Y-61548001D01*
X118601682Y-61529194D01*
X118954387Y-61512003D01*
X119081680Y-61510387D01*
X119432623Y-61519111D01*
X119796013Y-61539277D01*
X120001498Y-61548001D01*
X120327542Y-61433670D01*
X120355406Y-61324030D01*
X120077083Y-61115971D01*
X120011757Y-61108608D01*
X119712342Y-60941189D01*
X119668107Y-60727345D01*
X119724363Y-60351190D01*
X119824816Y-59983728D01*
X119941739Y-59624841D01*
X120022015Y-59398908D01*
X120150757Y-59051231D01*
X120280340Y-58704396D01*
X120410484Y-58358281D01*
X120540909Y-58012768D01*
X120671334Y-57667736D01*
X120801478Y-57323065D01*
X120931061Y-56978634D01*
X121059803Y-56634323D01*
X121080319Y-56634323D01*
X121093641Y-56989378D01*
X121103143Y-57342179D01*
X121116026Y-57696482D01*
X121119642Y-57767854D01*
X121130542Y-58168495D01*
X121141441Y-58567753D01*
X121152340Y-58965689D01*
X121163240Y-59362363D01*
X121174139Y-59757834D01*
X121185038Y-60152164D01*
X121195938Y-60545412D01*
X121206837Y-60937638D01*
X121229135Y-61297288D01*
X121491354Y-61543290D01*
X121579551Y-61548001D01*
X121912980Y-61450508D01*
X122080494Y-61243674D01*
X122273572Y-60955579D01*
X122466826Y-60667659D01*
X122660230Y-60379889D01*
X122853759Y-60092244D01*
X123047388Y-59804700D01*
X123241093Y-59517231D01*
X123434847Y-59229812D01*
X123628627Y-58942418D01*
X123822406Y-58655024D01*
X124016161Y-58367605D01*
X124209866Y-58080135D01*
X124403495Y-57792591D01*
X124597024Y-57504947D01*
X124790428Y-57217177D01*
X124983682Y-56929257D01*
X125176760Y-56641162D01*
X125205825Y-56649710D01*
X125117787Y-56997313D01*
X125029675Y-57345674D01*
X124941507Y-57694649D01*
X124853300Y-58044094D01*
X124765070Y-58393866D01*
X124676834Y-58743822D01*
X124588610Y-59093817D01*
X124500414Y-59443707D01*
X124412262Y-59793350D01*
X124324173Y-60142601D01*
X124265490Y-60375146D01*
X124163075Y-60704361D01*
X123956392Y-60980871D01*
X123585177Y-61093364D01*
X123480738Y-61098349D01*
X123165514Y-61251952D01*
X123147346Y-61342837D01*
X123443202Y-61543436D01*
X123608965Y-61548001D01*
X123970839Y-61534421D01*
X124330048Y-61519111D01*
X124691636Y-61510810D01*
X124785239Y-61510387D01*
X125147558Y-61513858D01*
X125531439Y-61523966D01*
X125904895Y-61537722D01*
X126248692Y-61547893D01*
X126274387Y-61548001D01*
X126608808Y-61468554D01*
X126676167Y-61303513D01*
X126391808Y-61111676D01*
X126294904Y-61108608D01*
X125956479Y-61006889D01*
X125882866Y-60835056D01*
X125939847Y-60497497D01*
X125970061Y-60364888D01*
X126060865Y-60010508D01*
X126150666Y-59656178D01*
X126239634Y-59301950D01*
X126327936Y-58947874D01*
X126415742Y-58594001D01*
X126503222Y-58240381D01*
X126590544Y-57887066D01*
X126677877Y-57534106D01*
X126765390Y-57181551D01*
X126853253Y-56829453D01*
X126912106Y-56595000D01*
X127010170Y-56262091D01*
X127210804Y-55960765D01*
X127558263Y-55873930D01*
X127597695Y-55871797D01*
X127915527Y-55742424D01*
X127949893Y-55627310D01*
X127658153Y-55423715D01*
X127568630Y-55420436D01*
X127209704Y-55430173D01*
X126842713Y-55444073D01*
X126489810Y-55451211D01*
X126125973Y-55444073D01*
X125763721Y-55425244D01*
X125578540Y-55420436D01*
X125265050Y-55571821D01*
X125087856Y-55832474D01*
X124875546Y-56138032D01*
X124662797Y-56443991D01*
X124449709Y-56750299D01*
X124236385Y-57056906D01*
X124022926Y-57363761D01*
X123809433Y-57670813D01*
X123596007Y-57978011D01*
X123382751Y-58285305D01*
X123169765Y-58592645D01*
X122957151Y-58899978D01*
X122815665Y-59104839D01*
X122795148Y-59104839D01*
X122784245Y-58698375D01*
X122773323Y-58292011D01*
X122762360Y-57885847D01*
X122751337Y-57479983D01*
X122740234Y-57074521D01*
X122729031Y-56669559D01*
X122717707Y-56265198D01*
X122706244Y-55861539D01*
X122688292Y-55516607D01*
X122501080Y-55420436D01*
X122125681Y-55431546D01*
X121744606Y-55445277D01*
X121364129Y-55451211D01*
X121019438Y-55446402D01*
X120663575Y-55432953D01*
X120300876Y-55420524D01*
X120276760Y-55420436D01*
X119933816Y-55484218D01*
X119845916Y-55646116D01*
X119845916Y-55656375D01*
G37*
G36*
X129741659Y-60766668D02*
G01*
X129807487Y-60411065D01*
X129880145Y-60151176D01*
X130917933Y-56624065D01*
X131027968Y-56283006D01*
X131213307Y-55992361D01*
X131574457Y-55892313D01*
X131926133Y-55839034D01*
X132083948Y-55627310D01*
X131810528Y-55421800D01*
X131750556Y-55420436D01*
X131381717Y-55429556D01*
X131002964Y-55445563D01*
X130653268Y-55456130D01*
X130300731Y-55459759D01*
X129935356Y-55454937D01*
X129587070Y-55441938D01*
X129227231Y-55425258D01*
X129006488Y-55420436D01*
X128660048Y-55460704D01*
X128496997Y-55666633D01*
X128767243Y-55883565D01*
X128830389Y-55882055D01*
X129185894Y-55926854D01*
X129310815Y-56126542D01*
X129243941Y-56471649D01*
X129213362Y-56576193D01*
X128134541Y-60219564D01*
X128027413Y-60565770D01*
X127869264Y-60882597D01*
X127547975Y-61051571D01*
X127478016Y-61059026D01*
X127131381Y-61096593D01*
X126900138Y-61332578D01*
X127182671Y-61542424D01*
X127283110Y-61548001D01*
X127625211Y-61539277D01*
X127987357Y-61523966D01*
X128338045Y-61512855D01*
X128565385Y-61510387D01*
X128955387Y-61513858D01*
X129339777Y-61523966D01*
X129693328Y-61537722D01*
X130045986Y-61548001D01*
X130401720Y-61494677D01*
X130526411Y-61293255D01*
X130244160Y-61088913D01*
X130193020Y-61088091D01*
X129855664Y-61004952D01*
X129741659Y-60775216D01*
X129741659Y-60766668D01*
G37*
G36*
X131600103Y-59294616D02*
G01*
X131637022Y-59683733D01*
X131734642Y-60051323D01*
X131880865Y-60379658D01*
X132100671Y-60706882D01*
X132338700Y-60954554D01*
X132639600Y-61178705D01*
X132944503Y-61339066D01*
X133284995Y-61467668D01*
X133659524Y-61563767D01*
X134066532Y-61626620D01*
X134429395Y-61653064D01*
X134657046Y-61657421D01*
X135049316Y-61644011D01*
X135433464Y-61613398D01*
X135825651Y-61569439D01*
X136197099Y-61516216D01*
X136342810Y-61491580D01*
X136703836Y-61421700D01*
X137019713Y-61270041D01*
X137069433Y-61178705D01*
X137519084Y-59597233D01*
X137635841Y-59263070D01*
X137896594Y-59034977D01*
X138049091Y-59002257D01*
X138399579Y-58928954D01*
X138529517Y-58738964D01*
X138247490Y-58535152D01*
X138167060Y-58533800D01*
X137819392Y-58546881D01*
X137470137Y-58564388D01*
X137118168Y-58577253D01*
X136794171Y-58581671D01*
X136440948Y-58572441D01*
X136081919Y-58553271D01*
X135725070Y-58536941D01*
X135530703Y-58533800D01*
X135187509Y-58611628D01*
X135079342Y-58807352D01*
X135363962Y-59005109D01*
X135470863Y-59012516D01*
X135799151Y-59110359D01*
X135882901Y-59313423D01*
X135824771Y-59636556D01*
X135549510Y-60582020D01*
X135425126Y-60909769D01*
X135344346Y-61012864D01*
X135018747Y-61138510D01*
X134874178Y-61147931D01*
X134505914Y-61099084D01*
X134177659Y-60951499D01*
X133895360Y-60703611D01*
X133844939Y-60641860D01*
X133656203Y-60352738D01*
X133514886Y-60010188D01*
X133435136Y-59635434D01*
X133422643Y-59421134D01*
X133445373Y-59047140D01*
X133510559Y-58686951D01*
X133613692Y-58342670D01*
X133750264Y-58016402D01*
X133915768Y-57710248D01*
X134156464Y-57359050D01*
X134426518Y-57046677D01*
X134540787Y-56933520D01*
X134826367Y-56672290D01*
X135127374Y-56445241D01*
X135437277Y-56252572D01*
X135749545Y-56094485D01*
X136133253Y-55945811D01*
X136497693Y-55851876D01*
X136891624Y-55811957D01*
X137245807Y-55873029D01*
X137382308Y-56123123D01*
X137353243Y-56477672D01*
X137324345Y-56829204D01*
X137324178Y-56846326D01*
X137450040Y-57167160D01*
X137618247Y-57215621D01*
X137913413Y-57031797D01*
X138009768Y-56825809D01*
X138148344Y-56490835D01*
X138281959Y-56149428D01*
X138372224Y-55899152D01*
X138450870Y-55635858D01*
X138188583Y-55413921D01*
X138175609Y-55410178D01*
X137830184Y-55339041D01*
X137486009Y-55315043D01*
X137146369Y-55311015D01*
X136782798Y-55320736D01*
X136420210Y-55349468D01*
X136060219Y-55396571D01*
X135704441Y-55461402D01*
X135354490Y-55543318D01*
X135011979Y-55641677D01*
X134678524Y-55755836D01*
X134355738Y-55885154D01*
X134045237Y-56028987D01*
X133653135Y-56242235D01*
X133559419Y-56299222D01*
X133248365Y-56506890D01*
X132956410Y-56733669D01*
X132686066Y-56978114D01*
X132439843Y-57238779D01*
X132220250Y-57514219D01*
X132029799Y-57802988D01*
X131825534Y-58206251D01*
X131683489Y-58627216D01*
X131609616Y-59062455D01*
X131600103Y-59284358D01*
X131600103Y-59294616D01*
G37*
G36*
X143929880Y-55321981D02*
G01*
X144181785Y-55574309D01*
X144184920Y-55847725D01*
X144184328Y-56219542D01*
X144180879Y-56667708D01*
X144175443Y-57170170D01*
X144171146Y-57524419D01*
X144166611Y-57886464D01*
X144162096Y-58249772D01*
X144157859Y-58607807D01*
X144154158Y-58954037D01*
X144150175Y-59436952D01*
X144148849Y-59856550D01*
X144152720Y-60279403D01*
X144155225Y-60522141D01*
X144212990Y-60899283D01*
X144504918Y-61077833D01*
X144615618Y-61098977D01*
X144896439Y-61313772D01*
X144832868Y-61471888D01*
X144494660Y-61548001D01*
X144291824Y-61543388D01*
X143934947Y-61529194D01*
X143567334Y-61516264D01*
X143191868Y-61510387D01*
X143010089Y-61511317D01*
X142648012Y-61519111D01*
X142290195Y-61534421D01*
X141926690Y-61548001D01*
X141846260Y-61546648D01*
X141564234Y-61342837D01*
X141692747Y-61149056D01*
X142044660Y-61098349D01*
X142262112Y-61063835D01*
X142500773Y-60798304D01*
X142543892Y-60428147D01*
X142548438Y-60096356D01*
X142546278Y-59726095D01*
X142543892Y-59359585D01*
X140673480Y-59359585D01*
X140516188Y-59429682D01*
X140304072Y-59712604D01*
X140103846Y-59995435D01*
X139898986Y-60289661D01*
X139794369Y-60452214D01*
X139673306Y-60788894D01*
X139757245Y-60983880D01*
X140093892Y-61098349D01*
X140158901Y-61109957D01*
X140418735Y-61332578D01*
X140369744Y-61464287D01*
X140025504Y-61548001D01*
X139712689Y-61539277D01*
X139366724Y-61520665D01*
X139016781Y-61510387D01*
X138845068Y-61513858D01*
X138477468Y-61534421D01*
X138134576Y-61548001D01*
X137840508Y-61342837D01*
X137894227Y-61210690D01*
X138213222Y-61077833D01*
X138470452Y-60965474D01*
X138743494Y-60737191D01*
X138995977Y-60453295D01*
X139242461Y-60149466D01*
X139462919Y-59874636D01*
X139683294Y-59599514D01*
X139903743Y-59323965D01*
X140124426Y-59047858D01*
X140282377Y-58850094D01*
X140936774Y-58850094D01*
X142564408Y-58850094D01*
X142583215Y-56803583D01*
X142564408Y-56793325D01*
X142463408Y-56922944D01*
X142210664Y-57245407D01*
X141957452Y-57566266D01*
X141703613Y-57886343D01*
X141448991Y-58206458D01*
X141193430Y-58527435D01*
X140936774Y-58850094D01*
X140282377Y-58850094D01*
X140345500Y-58771060D01*
X140567122Y-58493438D01*
X140789450Y-58214859D01*
X141012642Y-57935191D01*
X141236856Y-57654300D01*
X141462250Y-57372055D01*
X141688981Y-57088322D01*
X141917207Y-56802969D01*
X142147086Y-56515862D01*
X142378776Y-56226870D01*
X142612434Y-55935859D01*
X142848219Y-55642697D01*
X143075352Y-55439685D01*
X143405936Y-55331808D01*
X143759489Y-55311015D01*
X143929880Y-55321981D01*
G37*
D12*
X120135312Y-106806419D02*
X119659122Y-106806419D01*
X119659122Y-106806419D02*
X119659122Y-105806419D01*
X120468646Y-106806419D02*
X120468646Y-106139752D01*
X120468646Y-105806419D02*
X120421027Y-105854038D01*
X120421027Y-105854038D02*
X120468646Y-105901657D01*
X120468646Y-105901657D02*
X120516265Y-105854038D01*
X120516265Y-105854038D02*
X120468646Y-105806419D01*
X120468646Y-105806419D02*
X120468646Y-105901657D01*
X121373407Y-106758800D02*
X121278169Y-106806419D01*
X121278169Y-106806419D02*
X121087693Y-106806419D01*
X121087693Y-106806419D02*
X120992455Y-106758800D01*
X120992455Y-106758800D02*
X120944836Y-106711180D01*
X120944836Y-106711180D02*
X120897217Y-106615942D01*
X120897217Y-106615942D02*
X120897217Y-106330228D01*
X120897217Y-106330228D02*
X120944836Y-106234990D01*
X120944836Y-106234990D02*
X120992455Y-106187371D01*
X120992455Y-106187371D02*
X121087693Y-106139752D01*
X121087693Y-106139752D02*
X121278169Y-106139752D01*
X121278169Y-106139752D02*
X121373407Y-106187371D01*
X122182931Y-106758800D02*
X122087693Y-106806419D01*
X122087693Y-106806419D02*
X121897217Y-106806419D01*
X121897217Y-106806419D02*
X121801979Y-106758800D01*
X121801979Y-106758800D02*
X121754360Y-106663561D01*
X121754360Y-106663561D02*
X121754360Y-106282609D01*
X121754360Y-106282609D02*
X121801979Y-106187371D01*
X121801979Y-106187371D02*
X121897217Y-106139752D01*
X121897217Y-106139752D02*
X122087693Y-106139752D01*
X122087693Y-106139752D02*
X122182931Y-106187371D01*
X122182931Y-106187371D02*
X122230550Y-106282609D01*
X122230550Y-106282609D02*
X122230550Y-106377847D01*
X122230550Y-106377847D02*
X121754360Y-106473085D01*
X122659122Y-106139752D02*
X122659122Y-106806419D01*
X122659122Y-106234990D02*
X122706741Y-106187371D01*
X122706741Y-106187371D02*
X122801979Y-106139752D01*
X122801979Y-106139752D02*
X122944836Y-106139752D01*
X122944836Y-106139752D02*
X123040074Y-106187371D01*
X123040074Y-106187371D02*
X123087693Y-106282609D01*
X123087693Y-106282609D02*
X123087693Y-106806419D01*
X123516265Y-106758800D02*
X123611503Y-106806419D01*
X123611503Y-106806419D02*
X123801979Y-106806419D01*
X123801979Y-106806419D02*
X123897217Y-106758800D01*
X123897217Y-106758800D02*
X123944836Y-106663561D01*
X123944836Y-106663561D02*
X123944836Y-106615942D01*
X123944836Y-106615942D02*
X123897217Y-106520704D01*
X123897217Y-106520704D02*
X123801979Y-106473085D01*
X123801979Y-106473085D02*
X123659122Y-106473085D01*
X123659122Y-106473085D02*
X123563884Y-106425466D01*
X123563884Y-106425466D02*
X123516265Y-106330228D01*
X123516265Y-106330228D02*
X123516265Y-106282609D01*
X123516265Y-106282609D02*
X123563884Y-106187371D01*
X123563884Y-106187371D02*
X123659122Y-106139752D01*
X123659122Y-106139752D02*
X123801979Y-106139752D01*
X123801979Y-106139752D02*
X123897217Y-106187371D01*
X124754360Y-106758800D02*
X124659122Y-106806419D01*
X124659122Y-106806419D02*
X124468646Y-106806419D01*
X124468646Y-106806419D02*
X124373408Y-106758800D01*
X124373408Y-106758800D02*
X124325789Y-106663561D01*
X124325789Y-106663561D02*
X124325789Y-106282609D01*
X124325789Y-106282609D02*
X124373408Y-106187371D01*
X124373408Y-106187371D02*
X124468646Y-106139752D01*
X124468646Y-106139752D02*
X124659122Y-106139752D01*
X124659122Y-106139752D02*
X124754360Y-106187371D01*
X124754360Y-106187371D02*
X124801979Y-106282609D01*
X124801979Y-106282609D02*
X124801979Y-106377847D01*
X124801979Y-106377847D02*
X124325789Y-106473085D01*
X125230551Y-106711180D02*
X125278170Y-106758800D01*
X125278170Y-106758800D02*
X125230551Y-106806419D01*
X125230551Y-106806419D02*
X125182932Y-106758800D01*
X125182932Y-106758800D02*
X125230551Y-106711180D01*
X125230551Y-106711180D02*
X125230551Y-106806419D01*
X125230551Y-106187371D02*
X125278170Y-106234990D01*
X125278170Y-106234990D02*
X125230551Y-106282609D01*
X125230551Y-106282609D02*
X125182932Y-106234990D01*
X125182932Y-106234990D02*
X125230551Y-106187371D01*
X125230551Y-106187371D02*
X125230551Y-106282609D01*
X127040074Y-106711180D02*
X126992455Y-106758800D01*
X126992455Y-106758800D02*
X126849598Y-106806419D01*
X126849598Y-106806419D02*
X126754360Y-106806419D01*
X126754360Y-106806419D02*
X126611503Y-106758800D01*
X126611503Y-106758800D02*
X126516265Y-106663561D01*
X126516265Y-106663561D02*
X126468646Y-106568323D01*
X126468646Y-106568323D02*
X126421027Y-106377847D01*
X126421027Y-106377847D02*
X126421027Y-106234990D01*
X126421027Y-106234990D02*
X126468646Y-106044514D01*
X126468646Y-106044514D02*
X126516265Y-105949276D01*
X126516265Y-105949276D02*
X126611503Y-105854038D01*
X126611503Y-105854038D02*
X126754360Y-105806419D01*
X126754360Y-105806419D02*
X126849598Y-105806419D01*
X126849598Y-105806419D02*
X126992455Y-105854038D01*
X126992455Y-105854038D02*
X127040074Y-105901657D01*
X128040074Y-106711180D02*
X127992455Y-106758800D01*
X127992455Y-106758800D02*
X127849598Y-106806419D01*
X127849598Y-106806419D02*
X127754360Y-106806419D01*
X127754360Y-106806419D02*
X127611503Y-106758800D01*
X127611503Y-106758800D02*
X127516265Y-106663561D01*
X127516265Y-106663561D02*
X127468646Y-106568323D01*
X127468646Y-106568323D02*
X127421027Y-106377847D01*
X127421027Y-106377847D02*
X127421027Y-106234990D01*
X127421027Y-106234990D02*
X127468646Y-106044514D01*
X127468646Y-106044514D02*
X127516265Y-105949276D01*
X127516265Y-105949276D02*
X127611503Y-105854038D01*
X127611503Y-105854038D02*
X127754360Y-105806419D01*
X127754360Y-105806419D02*
X127849598Y-105806419D01*
X127849598Y-105806419D02*
X127992455Y-105854038D01*
X127992455Y-105854038D02*
X128040074Y-105901657D01*
X129563884Y-106282609D02*
X129706741Y-106330228D01*
X129706741Y-106330228D02*
X129754360Y-106377847D01*
X129754360Y-106377847D02*
X129801979Y-106473085D01*
X129801979Y-106473085D02*
X129801979Y-106615942D01*
X129801979Y-106615942D02*
X129754360Y-106711180D01*
X129754360Y-106711180D02*
X129706741Y-106758800D01*
X129706741Y-106758800D02*
X129611503Y-106806419D01*
X129611503Y-106806419D02*
X129230551Y-106806419D01*
X129230551Y-106806419D02*
X129230551Y-105806419D01*
X129230551Y-105806419D02*
X129563884Y-105806419D01*
X129563884Y-105806419D02*
X129659122Y-105854038D01*
X129659122Y-105854038D02*
X129706741Y-105901657D01*
X129706741Y-105901657D02*
X129754360Y-105996895D01*
X129754360Y-105996895D02*
X129754360Y-106092133D01*
X129754360Y-106092133D02*
X129706741Y-106187371D01*
X129706741Y-106187371D02*
X129659122Y-106234990D01*
X129659122Y-106234990D02*
X129563884Y-106282609D01*
X129563884Y-106282609D02*
X129230551Y-106282609D01*
X130421027Y-106330228D02*
X130421027Y-106806419D01*
X130087694Y-105806419D02*
X130421027Y-106330228D01*
X130421027Y-106330228D02*
X130754360Y-105806419D01*
X131087694Y-106425466D02*
X131849599Y-106425466D01*
X132325789Y-106806419D02*
X132325789Y-105806419D01*
X132325789Y-105806419D02*
X132897217Y-106806419D01*
X132897217Y-106806419D02*
X132897217Y-105806419D01*
X133944836Y-106711180D02*
X133897217Y-106758800D01*
X133897217Y-106758800D02*
X133754360Y-106806419D01*
X133754360Y-106806419D02*
X133659122Y-106806419D01*
X133659122Y-106806419D02*
X133516265Y-106758800D01*
X133516265Y-106758800D02*
X133421027Y-106663561D01*
X133421027Y-106663561D02*
X133373408Y-106568323D01*
X133373408Y-106568323D02*
X133325789Y-106377847D01*
X133325789Y-106377847D02*
X133325789Y-106234990D01*
X133325789Y-106234990D02*
X133373408Y-106044514D01*
X133373408Y-106044514D02*
X133421027Y-105949276D01*
X133421027Y-105949276D02*
X133516265Y-105854038D01*
X133516265Y-105854038D02*
X133659122Y-105806419D01*
X133659122Y-105806419D02*
X133754360Y-105806419D01*
X133754360Y-105806419D02*
X133897217Y-105854038D01*
X133897217Y-105854038D02*
X133944836Y-105901657D01*
X134373408Y-106425466D02*
X135135313Y-106425466D01*
X135563884Y-106758800D02*
X135706741Y-106806419D01*
X135706741Y-106806419D02*
X135944836Y-106806419D01*
X135944836Y-106806419D02*
X136040074Y-106758800D01*
X136040074Y-106758800D02*
X136087693Y-106711180D01*
X136087693Y-106711180D02*
X136135312Y-106615942D01*
X136135312Y-106615942D02*
X136135312Y-106520704D01*
X136135312Y-106520704D02*
X136087693Y-106425466D01*
X136087693Y-106425466D02*
X136040074Y-106377847D01*
X136040074Y-106377847D02*
X135944836Y-106330228D01*
X135944836Y-106330228D02*
X135754360Y-106282609D01*
X135754360Y-106282609D02*
X135659122Y-106234990D01*
X135659122Y-106234990D02*
X135611503Y-106187371D01*
X135611503Y-106187371D02*
X135563884Y-106092133D01*
X135563884Y-106092133D02*
X135563884Y-105996895D01*
X135563884Y-105996895D02*
X135611503Y-105901657D01*
X135611503Y-105901657D02*
X135659122Y-105854038D01*
X135659122Y-105854038D02*
X135754360Y-105806419D01*
X135754360Y-105806419D02*
X135992455Y-105806419D01*
X135992455Y-105806419D02*
X136135312Y-105854038D01*
X136516265Y-106520704D02*
X136992455Y-106520704D01*
X136421027Y-106806419D02*
X136754360Y-105806419D01*
X136754360Y-105806419D02*
X137087693Y-106806419D01*
X138611503Y-106139752D02*
X138611503Y-106806419D01*
X138373408Y-105758800D02*
X138135313Y-106473085D01*
X138135313Y-106473085D02*
X138754360Y-106473085D01*
X139135313Y-106711180D02*
X139182932Y-106758800D01*
X139182932Y-106758800D02*
X139135313Y-106806419D01*
X139135313Y-106806419D02*
X139087694Y-106758800D01*
X139087694Y-106758800D02*
X139135313Y-106711180D01*
X139135313Y-106711180D02*
X139135313Y-106806419D01*
X139801979Y-105806419D02*
X139897217Y-105806419D01*
X139897217Y-105806419D02*
X139992455Y-105854038D01*
X139992455Y-105854038D02*
X140040074Y-105901657D01*
X140040074Y-105901657D02*
X140087693Y-105996895D01*
X140087693Y-105996895D02*
X140135312Y-106187371D01*
X140135312Y-106187371D02*
X140135312Y-106425466D01*
X140135312Y-106425466D02*
X140087693Y-106615942D01*
X140087693Y-106615942D02*
X140040074Y-106711180D01*
X140040074Y-106711180D02*
X139992455Y-106758800D01*
X139992455Y-106758800D02*
X139897217Y-106806419D01*
X139897217Y-106806419D02*
X139801979Y-106806419D01*
X139801979Y-106806419D02*
X139706741Y-106758800D01*
X139706741Y-106758800D02*
X139659122Y-106711180D01*
X139659122Y-106711180D02*
X139611503Y-106615942D01*
X139611503Y-106615942D02*
X139563884Y-106425466D01*
X139563884Y-106425466D02*
X139563884Y-106187371D01*
X139563884Y-106187371D02*
X139611503Y-105996895D01*
X139611503Y-105996895D02*
X139659122Y-105901657D01*
X139659122Y-105901657D02*
X139706741Y-105854038D01*
X139706741Y-105854038D02*
X139801979Y-105806419D01*
D10*
X161343180Y-92758285D02*
X162343180Y-92758285D01*
X162343180Y-92758285D02*
X162343180Y-93139237D01*
X162343180Y-93139237D02*
X162295561Y-93234475D01*
X162295561Y-93234475D02*
X162247942Y-93282094D01*
X162247942Y-93282094D02*
X162152704Y-93329713D01*
X162152704Y-93329713D02*
X162009847Y-93329713D01*
X162009847Y-93329713D02*
X161914609Y-93282094D01*
X161914609Y-93282094D02*
X161866990Y-93234475D01*
X161866990Y-93234475D02*
X161819371Y-93139237D01*
X161819371Y-93139237D02*
X161819371Y-92758285D01*
X161343180Y-93758285D02*
X162009847Y-93758285D01*
X162343180Y-93758285D02*
X162295561Y-93710666D01*
X162295561Y-93710666D02*
X162247942Y-93758285D01*
X162247942Y-93758285D02*
X162295561Y-93805904D01*
X162295561Y-93805904D02*
X162343180Y-93758285D01*
X162343180Y-93758285D02*
X162247942Y-93758285D01*
X162009847Y-94234475D02*
X161343180Y-94234475D01*
X161914609Y-94234475D02*
X161962228Y-94282094D01*
X161962228Y-94282094D02*
X162009847Y-94377332D01*
X162009847Y-94377332D02*
X162009847Y-94520189D01*
X162009847Y-94520189D02*
X161962228Y-94615427D01*
X161962228Y-94615427D02*
X161866990Y-94663046D01*
X161866990Y-94663046D02*
X161343180Y-94663046D01*
X161343180Y-96424951D02*
X161343180Y-95853523D01*
X161343180Y-96139237D02*
X162343180Y-96139237D01*
X162343180Y-96139237D02*
X162200323Y-96043999D01*
X162200323Y-96043999D02*
X162105085Y-95948761D01*
X162105085Y-95948761D02*
X162057466Y-95853523D01*
X162390800Y-98329713D02*
X161105085Y-97472571D01*
X161390800Y-99377333D02*
X161343180Y-99520190D01*
X161343180Y-99520190D02*
X161343180Y-99758285D01*
X161343180Y-99758285D02*
X161390800Y-99853523D01*
X161390800Y-99853523D02*
X161438419Y-99901142D01*
X161438419Y-99901142D02*
X161533657Y-99948761D01*
X161533657Y-99948761D02*
X161628895Y-99948761D01*
X161628895Y-99948761D02*
X161724133Y-99901142D01*
X161724133Y-99901142D02*
X161771752Y-99853523D01*
X161771752Y-99853523D02*
X161819371Y-99758285D01*
X161819371Y-99758285D02*
X161866990Y-99567809D01*
X161866990Y-99567809D02*
X161914609Y-99472571D01*
X161914609Y-99472571D02*
X161962228Y-99424952D01*
X161962228Y-99424952D02*
X162057466Y-99377333D01*
X162057466Y-99377333D02*
X162152704Y-99377333D01*
X162152704Y-99377333D02*
X162247942Y-99424952D01*
X162247942Y-99424952D02*
X162295561Y-99472571D01*
X162295561Y-99472571D02*
X162343180Y-99567809D01*
X162343180Y-99567809D02*
X162343180Y-99805904D01*
X162343180Y-99805904D02*
X162295561Y-99948761D01*
X162009847Y-100234476D02*
X162009847Y-100615428D01*
X162343180Y-100377333D02*
X161486038Y-100377333D01*
X161486038Y-100377333D02*
X161390800Y-100424952D01*
X161390800Y-100424952D02*
X161343180Y-100520190D01*
X161343180Y-100520190D02*
X161343180Y-100615428D01*
X161343180Y-100948762D02*
X162009847Y-100948762D01*
X161819371Y-100948762D02*
X161914609Y-100996381D01*
X161914609Y-100996381D02*
X161962228Y-101044000D01*
X161962228Y-101044000D02*
X162009847Y-101139238D01*
X162009847Y-101139238D02*
X162009847Y-101234476D01*
X161343180Y-101567810D02*
X162009847Y-101567810D01*
X162343180Y-101567810D02*
X162295561Y-101520191D01*
X162295561Y-101520191D02*
X162247942Y-101567810D01*
X162247942Y-101567810D02*
X162295561Y-101615429D01*
X162295561Y-101615429D02*
X162343180Y-101567810D01*
X162343180Y-101567810D02*
X162247942Y-101567810D01*
X162009847Y-102044000D02*
X161009847Y-102044000D01*
X161962228Y-102044000D02*
X162009847Y-102139238D01*
X162009847Y-102139238D02*
X162009847Y-102329714D01*
X162009847Y-102329714D02*
X161962228Y-102424952D01*
X161962228Y-102424952D02*
X161914609Y-102472571D01*
X161914609Y-102472571D02*
X161819371Y-102520190D01*
X161819371Y-102520190D02*
X161533657Y-102520190D01*
X161533657Y-102520190D02*
X161438419Y-102472571D01*
X161438419Y-102472571D02*
X161390800Y-102424952D01*
X161390800Y-102424952D02*
X161343180Y-102329714D01*
X161343180Y-102329714D02*
X161343180Y-102139238D01*
X161343180Y-102139238D02*
X161390800Y-102044000D01*
X161390800Y-103329714D02*
X161343180Y-103234476D01*
X161343180Y-103234476D02*
X161343180Y-103044000D01*
X161343180Y-103044000D02*
X161390800Y-102948762D01*
X161390800Y-102948762D02*
X161486038Y-102901143D01*
X161486038Y-102901143D02*
X161866990Y-102901143D01*
X161866990Y-102901143D02*
X161962228Y-102948762D01*
X161962228Y-102948762D02*
X162009847Y-103044000D01*
X162009847Y-103044000D02*
X162009847Y-103234476D01*
X162009847Y-103234476D02*
X161962228Y-103329714D01*
X161962228Y-103329714D02*
X161866990Y-103377333D01*
X161866990Y-103377333D02*
X161771752Y-103377333D01*
X161771752Y-103377333D02*
X161676514Y-102901143D01*
D12*
X125682932Y-110124419D02*
X126016265Y-111124419D01*
X126016265Y-111124419D02*
X126349598Y-110124419D01*
X127063884Y-111076800D02*
X126968646Y-111124419D01*
X126968646Y-111124419D02*
X126778170Y-111124419D01*
X126778170Y-111124419D02*
X126682932Y-111076800D01*
X126682932Y-111076800D02*
X126635313Y-110981561D01*
X126635313Y-110981561D02*
X126635313Y-110600609D01*
X126635313Y-110600609D02*
X126682932Y-110505371D01*
X126682932Y-110505371D02*
X126778170Y-110457752D01*
X126778170Y-110457752D02*
X126968646Y-110457752D01*
X126968646Y-110457752D02*
X127063884Y-110505371D01*
X127063884Y-110505371D02*
X127111503Y-110600609D01*
X127111503Y-110600609D02*
X127111503Y-110695847D01*
X127111503Y-110695847D02*
X126635313Y-110791085D01*
X127540075Y-111124419D02*
X127540075Y-110457752D01*
X127540075Y-110648228D02*
X127587694Y-110552990D01*
X127587694Y-110552990D02*
X127635313Y-110505371D01*
X127635313Y-110505371D02*
X127730551Y-110457752D01*
X127730551Y-110457752D02*
X127825789Y-110457752D01*
X128111504Y-111076800D02*
X128206742Y-111124419D01*
X128206742Y-111124419D02*
X128397218Y-111124419D01*
X128397218Y-111124419D02*
X128492456Y-111076800D01*
X128492456Y-111076800D02*
X128540075Y-110981561D01*
X128540075Y-110981561D02*
X128540075Y-110933942D01*
X128540075Y-110933942D02*
X128492456Y-110838704D01*
X128492456Y-110838704D02*
X128397218Y-110791085D01*
X128397218Y-110791085D02*
X128254361Y-110791085D01*
X128254361Y-110791085D02*
X128159123Y-110743466D01*
X128159123Y-110743466D02*
X128111504Y-110648228D01*
X128111504Y-110648228D02*
X128111504Y-110600609D01*
X128111504Y-110600609D02*
X128159123Y-110505371D01*
X128159123Y-110505371D02*
X128254361Y-110457752D01*
X128254361Y-110457752D02*
X128397218Y-110457752D01*
X128397218Y-110457752D02*
X128492456Y-110505371D01*
X128968647Y-111124419D02*
X128968647Y-110457752D01*
X128968647Y-110124419D02*
X128921028Y-110172038D01*
X128921028Y-110172038D02*
X128968647Y-110219657D01*
X128968647Y-110219657D02*
X129016266Y-110172038D01*
X129016266Y-110172038D02*
X128968647Y-110124419D01*
X128968647Y-110124419D02*
X128968647Y-110219657D01*
X129587694Y-111124419D02*
X129492456Y-111076800D01*
X129492456Y-111076800D02*
X129444837Y-111029180D01*
X129444837Y-111029180D02*
X129397218Y-110933942D01*
X129397218Y-110933942D02*
X129397218Y-110648228D01*
X129397218Y-110648228D02*
X129444837Y-110552990D01*
X129444837Y-110552990D02*
X129492456Y-110505371D01*
X129492456Y-110505371D02*
X129587694Y-110457752D01*
X129587694Y-110457752D02*
X129730551Y-110457752D01*
X129730551Y-110457752D02*
X129825789Y-110505371D01*
X129825789Y-110505371D02*
X129873408Y-110552990D01*
X129873408Y-110552990D02*
X129921027Y-110648228D01*
X129921027Y-110648228D02*
X129921027Y-110933942D01*
X129921027Y-110933942D02*
X129873408Y-111029180D01*
X129873408Y-111029180D02*
X129825789Y-111076800D01*
X129825789Y-111076800D02*
X129730551Y-111124419D01*
X129730551Y-111124419D02*
X129587694Y-111124419D01*
X130349599Y-110457752D02*
X130349599Y-111124419D01*
X130349599Y-110552990D02*
X130397218Y-110505371D01*
X130397218Y-110505371D02*
X130492456Y-110457752D01*
X130492456Y-110457752D02*
X130635313Y-110457752D01*
X130635313Y-110457752D02*
X130730551Y-110505371D01*
X130730551Y-110505371D02*
X130778170Y-110600609D01*
X130778170Y-110600609D02*
X130778170Y-111124419D01*
X132206742Y-110124419D02*
X132301980Y-110124419D01*
X132301980Y-110124419D02*
X132397218Y-110172038D01*
X132397218Y-110172038D02*
X132444837Y-110219657D01*
X132444837Y-110219657D02*
X132492456Y-110314895D01*
X132492456Y-110314895D02*
X132540075Y-110505371D01*
X132540075Y-110505371D02*
X132540075Y-110743466D01*
X132540075Y-110743466D02*
X132492456Y-110933942D01*
X132492456Y-110933942D02*
X132444837Y-111029180D01*
X132444837Y-111029180D02*
X132397218Y-111076800D01*
X132397218Y-111076800D02*
X132301980Y-111124419D01*
X132301980Y-111124419D02*
X132206742Y-111124419D01*
X132206742Y-111124419D02*
X132111504Y-111076800D01*
X132111504Y-111076800D02*
X132063885Y-111029180D01*
X132063885Y-111029180D02*
X132016266Y-110933942D01*
X132016266Y-110933942D02*
X131968647Y-110743466D01*
X131968647Y-110743466D02*
X131968647Y-110505371D01*
X131968647Y-110505371D02*
X132016266Y-110314895D01*
X132016266Y-110314895D02*
X132063885Y-110219657D01*
X132063885Y-110219657D02*
X132111504Y-110172038D01*
X132111504Y-110172038D02*
X132206742Y-110124419D01*
X132968647Y-111029180D02*
X133016266Y-111076800D01*
X133016266Y-111076800D02*
X132968647Y-111124419D01*
X132968647Y-111124419D02*
X132921028Y-111076800D01*
X132921028Y-111076800D02*
X132968647Y-111029180D01*
X132968647Y-111029180D02*
X132968647Y-111124419D01*
X133397218Y-110219657D02*
X133444837Y-110172038D01*
X133444837Y-110172038D02*
X133540075Y-110124419D01*
X133540075Y-110124419D02*
X133778170Y-110124419D01*
X133778170Y-110124419D02*
X133873408Y-110172038D01*
X133873408Y-110172038D02*
X133921027Y-110219657D01*
X133921027Y-110219657D02*
X133968646Y-110314895D01*
X133968646Y-110314895D02*
X133968646Y-110410133D01*
X133968646Y-110410133D02*
X133921027Y-110552990D01*
X133921027Y-110552990D02*
X133349599Y-111124419D01*
X133349599Y-111124419D02*
X133968646Y-111124419D01*
X112063884Y-108838419D02*
X112063884Y-107838419D01*
X112492455Y-108838419D02*
X112492455Y-108314609D01*
X112492455Y-108314609D02*
X112444836Y-108219371D01*
X112444836Y-108219371D02*
X112349598Y-108171752D01*
X112349598Y-108171752D02*
X112206741Y-108171752D01*
X112206741Y-108171752D02*
X112111503Y-108219371D01*
X112111503Y-108219371D02*
X112063884Y-108266990D01*
X112825789Y-108171752D02*
X113206741Y-108171752D01*
X112968646Y-107838419D02*
X112968646Y-108695561D01*
X112968646Y-108695561D02*
X113016265Y-108790800D01*
X113016265Y-108790800D02*
X113111503Y-108838419D01*
X113111503Y-108838419D02*
X113206741Y-108838419D01*
X113397218Y-108171752D02*
X113778170Y-108171752D01*
X113540075Y-107838419D02*
X113540075Y-108695561D01*
X113540075Y-108695561D02*
X113587694Y-108790800D01*
X113587694Y-108790800D02*
X113682932Y-108838419D01*
X113682932Y-108838419D02*
X113778170Y-108838419D01*
X114111504Y-108171752D02*
X114111504Y-109171752D01*
X114111504Y-108219371D02*
X114206742Y-108171752D01*
X114206742Y-108171752D02*
X114397218Y-108171752D01*
X114397218Y-108171752D02*
X114492456Y-108219371D01*
X114492456Y-108219371D02*
X114540075Y-108266990D01*
X114540075Y-108266990D02*
X114587694Y-108362228D01*
X114587694Y-108362228D02*
X114587694Y-108647942D01*
X114587694Y-108647942D02*
X114540075Y-108743180D01*
X114540075Y-108743180D02*
X114492456Y-108790800D01*
X114492456Y-108790800D02*
X114397218Y-108838419D01*
X114397218Y-108838419D02*
X114206742Y-108838419D01*
X114206742Y-108838419D02*
X114111504Y-108790800D01*
X114968647Y-108790800D02*
X115063885Y-108838419D01*
X115063885Y-108838419D02*
X115254361Y-108838419D01*
X115254361Y-108838419D02*
X115349599Y-108790800D01*
X115349599Y-108790800D02*
X115397218Y-108695561D01*
X115397218Y-108695561D02*
X115397218Y-108647942D01*
X115397218Y-108647942D02*
X115349599Y-108552704D01*
X115349599Y-108552704D02*
X115254361Y-108505085D01*
X115254361Y-108505085D02*
X115111504Y-108505085D01*
X115111504Y-108505085D02*
X115016266Y-108457466D01*
X115016266Y-108457466D02*
X114968647Y-108362228D01*
X114968647Y-108362228D02*
X114968647Y-108314609D01*
X114968647Y-108314609D02*
X115016266Y-108219371D01*
X115016266Y-108219371D02*
X115111504Y-108171752D01*
X115111504Y-108171752D02*
X115254361Y-108171752D01*
X115254361Y-108171752D02*
X115349599Y-108219371D01*
X115825790Y-108743180D02*
X115873409Y-108790800D01*
X115873409Y-108790800D02*
X115825790Y-108838419D01*
X115825790Y-108838419D02*
X115778171Y-108790800D01*
X115778171Y-108790800D02*
X115825790Y-108743180D01*
X115825790Y-108743180D02*
X115825790Y-108838419D01*
X115825790Y-108219371D02*
X115873409Y-108266990D01*
X115873409Y-108266990D02*
X115825790Y-108314609D01*
X115825790Y-108314609D02*
X115778171Y-108266990D01*
X115778171Y-108266990D02*
X115825790Y-108219371D01*
X115825790Y-108219371D02*
X115825790Y-108314609D01*
X117016265Y-107790800D02*
X116159123Y-109076514D01*
X118063884Y-107790800D02*
X117206742Y-109076514D01*
X118825789Y-108171752D02*
X118825789Y-108981276D01*
X118825789Y-108981276D02*
X118778170Y-109076514D01*
X118778170Y-109076514D02*
X118730551Y-109124133D01*
X118730551Y-109124133D02*
X118635313Y-109171752D01*
X118635313Y-109171752D02*
X118492456Y-109171752D01*
X118492456Y-109171752D02*
X118397218Y-109124133D01*
X118825789Y-108790800D02*
X118730551Y-108838419D01*
X118730551Y-108838419D02*
X118540075Y-108838419D01*
X118540075Y-108838419D02*
X118444837Y-108790800D01*
X118444837Y-108790800D02*
X118397218Y-108743180D01*
X118397218Y-108743180D02*
X118349599Y-108647942D01*
X118349599Y-108647942D02*
X118349599Y-108362228D01*
X118349599Y-108362228D02*
X118397218Y-108266990D01*
X118397218Y-108266990D02*
X118444837Y-108219371D01*
X118444837Y-108219371D02*
X118540075Y-108171752D01*
X118540075Y-108171752D02*
X118730551Y-108171752D01*
X118730551Y-108171752D02*
X118825789Y-108219371D01*
X119301980Y-108838419D02*
X119301980Y-108171752D01*
X119301980Y-107838419D02*
X119254361Y-107886038D01*
X119254361Y-107886038D02*
X119301980Y-107933657D01*
X119301980Y-107933657D02*
X119349599Y-107886038D01*
X119349599Y-107886038D02*
X119301980Y-107838419D01*
X119301980Y-107838419D02*
X119301980Y-107933657D01*
X119635313Y-108171752D02*
X120016265Y-108171752D01*
X119778170Y-107838419D02*
X119778170Y-108695561D01*
X119778170Y-108695561D02*
X119825789Y-108790800D01*
X119825789Y-108790800D02*
X119921027Y-108838419D01*
X119921027Y-108838419D02*
X120016265Y-108838419D01*
X120349599Y-108838419D02*
X120349599Y-107838419D01*
X120778170Y-108838419D02*
X120778170Y-108314609D01*
X120778170Y-108314609D02*
X120730551Y-108219371D01*
X120730551Y-108219371D02*
X120635313Y-108171752D01*
X120635313Y-108171752D02*
X120492456Y-108171752D01*
X120492456Y-108171752D02*
X120397218Y-108219371D01*
X120397218Y-108219371D02*
X120349599Y-108266990D01*
X121682932Y-108171752D02*
X121682932Y-108838419D01*
X121254361Y-108171752D02*
X121254361Y-108695561D01*
X121254361Y-108695561D02*
X121301980Y-108790800D01*
X121301980Y-108790800D02*
X121397218Y-108838419D01*
X121397218Y-108838419D02*
X121540075Y-108838419D01*
X121540075Y-108838419D02*
X121635313Y-108790800D01*
X121635313Y-108790800D02*
X121682932Y-108743180D01*
X122159123Y-108838419D02*
X122159123Y-107838419D01*
X122159123Y-108219371D02*
X122254361Y-108171752D01*
X122254361Y-108171752D02*
X122444837Y-108171752D01*
X122444837Y-108171752D02*
X122540075Y-108219371D01*
X122540075Y-108219371D02*
X122587694Y-108266990D01*
X122587694Y-108266990D02*
X122635313Y-108362228D01*
X122635313Y-108362228D02*
X122635313Y-108647942D01*
X122635313Y-108647942D02*
X122587694Y-108743180D01*
X122587694Y-108743180D02*
X122540075Y-108790800D01*
X122540075Y-108790800D02*
X122444837Y-108838419D01*
X122444837Y-108838419D02*
X122254361Y-108838419D01*
X122254361Y-108838419D02*
X122159123Y-108790800D01*
X123063885Y-108743180D02*
X123111504Y-108790800D01*
X123111504Y-108790800D02*
X123063885Y-108838419D01*
X123063885Y-108838419D02*
X123016266Y-108790800D01*
X123016266Y-108790800D02*
X123063885Y-108743180D01*
X123063885Y-108743180D02*
X123063885Y-108838419D01*
X123968646Y-108790800D02*
X123873408Y-108838419D01*
X123873408Y-108838419D02*
X123682932Y-108838419D01*
X123682932Y-108838419D02*
X123587694Y-108790800D01*
X123587694Y-108790800D02*
X123540075Y-108743180D01*
X123540075Y-108743180D02*
X123492456Y-108647942D01*
X123492456Y-108647942D02*
X123492456Y-108362228D01*
X123492456Y-108362228D02*
X123540075Y-108266990D01*
X123540075Y-108266990D02*
X123587694Y-108219371D01*
X123587694Y-108219371D02*
X123682932Y-108171752D01*
X123682932Y-108171752D02*
X123873408Y-108171752D01*
X123873408Y-108171752D02*
X123968646Y-108219371D01*
X124540075Y-108838419D02*
X124444837Y-108790800D01*
X124444837Y-108790800D02*
X124397218Y-108743180D01*
X124397218Y-108743180D02*
X124349599Y-108647942D01*
X124349599Y-108647942D02*
X124349599Y-108362228D01*
X124349599Y-108362228D02*
X124397218Y-108266990D01*
X124397218Y-108266990D02*
X124444837Y-108219371D01*
X124444837Y-108219371D02*
X124540075Y-108171752D01*
X124540075Y-108171752D02*
X124682932Y-108171752D01*
X124682932Y-108171752D02*
X124778170Y-108219371D01*
X124778170Y-108219371D02*
X124825789Y-108266990D01*
X124825789Y-108266990D02*
X124873408Y-108362228D01*
X124873408Y-108362228D02*
X124873408Y-108647942D01*
X124873408Y-108647942D02*
X124825789Y-108743180D01*
X124825789Y-108743180D02*
X124778170Y-108790800D01*
X124778170Y-108790800D02*
X124682932Y-108838419D01*
X124682932Y-108838419D02*
X124540075Y-108838419D01*
X125301980Y-108838419D02*
X125301980Y-108171752D01*
X125301980Y-108266990D02*
X125349599Y-108219371D01*
X125349599Y-108219371D02*
X125444837Y-108171752D01*
X125444837Y-108171752D02*
X125587694Y-108171752D01*
X125587694Y-108171752D02*
X125682932Y-108219371D01*
X125682932Y-108219371D02*
X125730551Y-108314609D01*
X125730551Y-108314609D02*
X125730551Y-108838419D01*
X125730551Y-108314609D02*
X125778170Y-108219371D01*
X125778170Y-108219371D02*
X125873408Y-108171752D01*
X125873408Y-108171752D02*
X126016265Y-108171752D01*
X126016265Y-108171752D02*
X126111504Y-108219371D01*
X126111504Y-108219371D02*
X126159123Y-108314609D01*
X126159123Y-108314609D02*
X126159123Y-108838419D01*
X127349598Y-107790800D02*
X126492456Y-109076514D01*
X128111503Y-108838419D02*
X128111503Y-107838419D01*
X128111503Y-108790800D02*
X128016265Y-108838419D01*
X128016265Y-108838419D02*
X127825789Y-108838419D01*
X127825789Y-108838419D02*
X127730551Y-108790800D01*
X127730551Y-108790800D02*
X127682932Y-108743180D01*
X127682932Y-108743180D02*
X127635313Y-108647942D01*
X127635313Y-108647942D02*
X127635313Y-108362228D01*
X127635313Y-108362228D02*
X127682932Y-108266990D01*
X127682932Y-108266990D02*
X127730551Y-108219371D01*
X127730551Y-108219371D02*
X127825789Y-108171752D01*
X127825789Y-108171752D02*
X128016265Y-108171752D01*
X128016265Y-108171752D02*
X128111503Y-108219371D01*
X129016265Y-108838419D02*
X129016265Y-108314609D01*
X129016265Y-108314609D02*
X128968646Y-108219371D01*
X128968646Y-108219371D02*
X128873408Y-108171752D01*
X128873408Y-108171752D02*
X128682932Y-108171752D01*
X128682932Y-108171752D02*
X128587694Y-108219371D01*
X129016265Y-108790800D02*
X128921027Y-108838419D01*
X128921027Y-108838419D02*
X128682932Y-108838419D01*
X128682932Y-108838419D02*
X128587694Y-108790800D01*
X128587694Y-108790800D02*
X128540075Y-108695561D01*
X128540075Y-108695561D02*
X128540075Y-108600323D01*
X128540075Y-108600323D02*
X128587694Y-108505085D01*
X128587694Y-108505085D02*
X128682932Y-108457466D01*
X128682932Y-108457466D02*
X128921027Y-108457466D01*
X128921027Y-108457466D02*
X129016265Y-108409847D01*
X129635313Y-108838419D02*
X129540075Y-108790800D01*
X129540075Y-108790800D02*
X129492456Y-108695561D01*
X129492456Y-108695561D02*
X129492456Y-107838419D01*
X130397218Y-108790800D02*
X130301980Y-108838419D01*
X130301980Y-108838419D02*
X130111504Y-108838419D01*
X130111504Y-108838419D02*
X130016266Y-108790800D01*
X130016266Y-108790800D02*
X129968647Y-108695561D01*
X129968647Y-108695561D02*
X129968647Y-108314609D01*
X129968647Y-108314609D02*
X130016266Y-108219371D01*
X130016266Y-108219371D02*
X130111504Y-108171752D01*
X130111504Y-108171752D02*
X130301980Y-108171752D01*
X130301980Y-108171752D02*
X130397218Y-108219371D01*
X130397218Y-108219371D02*
X130444837Y-108314609D01*
X130444837Y-108314609D02*
X130444837Y-108409847D01*
X130444837Y-108409847D02*
X129968647Y-108505085D01*
X130873409Y-108838419D02*
X130873409Y-107838419D01*
X130968647Y-108457466D02*
X131254361Y-108838419D01*
X131254361Y-108171752D02*
X130873409Y-108552704D01*
X131682933Y-108838419D02*
X131682933Y-108171752D01*
X131682933Y-107838419D02*
X131635314Y-107886038D01*
X131635314Y-107886038D02*
X131682933Y-107933657D01*
X131682933Y-107933657D02*
X131730552Y-107886038D01*
X131730552Y-107886038D02*
X131682933Y-107838419D01*
X131682933Y-107838419D02*
X131682933Y-107933657D01*
X132159123Y-108171752D02*
X132159123Y-108838419D01*
X132159123Y-108266990D02*
X132206742Y-108219371D01*
X132206742Y-108219371D02*
X132301980Y-108171752D01*
X132301980Y-108171752D02*
X132444837Y-108171752D01*
X132444837Y-108171752D02*
X132540075Y-108219371D01*
X132540075Y-108219371D02*
X132587694Y-108314609D01*
X132587694Y-108314609D02*
X132587694Y-108838419D01*
X133492456Y-108171752D02*
X133492456Y-108981276D01*
X133492456Y-108981276D02*
X133444837Y-109076514D01*
X133444837Y-109076514D02*
X133397218Y-109124133D01*
X133397218Y-109124133D02*
X133301980Y-109171752D01*
X133301980Y-109171752D02*
X133159123Y-109171752D01*
X133159123Y-109171752D02*
X133063885Y-109124133D01*
X133492456Y-108790800D02*
X133397218Y-108838419D01*
X133397218Y-108838419D02*
X133206742Y-108838419D01*
X133206742Y-108838419D02*
X133111504Y-108790800D01*
X133111504Y-108790800D02*
X133063885Y-108743180D01*
X133063885Y-108743180D02*
X133016266Y-108647942D01*
X133016266Y-108647942D02*
X133016266Y-108362228D01*
X133016266Y-108362228D02*
X133063885Y-108266990D01*
X133063885Y-108266990D02*
X133111504Y-108219371D01*
X133111504Y-108219371D02*
X133206742Y-108171752D01*
X133206742Y-108171752D02*
X133397218Y-108171752D01*
X133397218Y-108171752D02*
X133492456Y-108219371D01*
X134682932Y-107790800D02*
X133825790Y-109076514D01*
X134968647Y-108552704D02*
X135444837Y-108552704D01*
X134873409Y-108838419D02*
X135206742Y-107838419D01*
X135206742Y-107838419D02*
X135540075Y-108838419D01*
X135873409Y-108838419D02*
X135873409Y-108171752D01*
X135873409Y-108266990D02*
X135921028Y-108219371D01*
X135921028Y-108219371D02*
X136016266Y-108171752D01*
X136016266Y-108171752D02*
X136159123Y-108171752D01*
X136159123Y-108171752D02*
X136254361Y-108219371D01*
X136254361Y-108219371D02*
X136301980Y-108314609D01*
X136301980Y-108314609D02*
X136301980Y-108838419D01*
X136301980Y-108314609D02*
X136349599Y-108219371D01*
X136349599Y-108219371D02*
X136444837Y-108171752D01*
X136444837Y-108171752D02*
X136587694Y-108171752D01*
X136587694Y-108171752D02*
X136682933Y-108219371D01*
X136682933Y-108219371D02*
X136730552Y-108314609D01*
X136730552Y-108314609D02*
X136730552Y-108838419D01*
X137206742Y-108838419D02*
X137206742Y-108171752D01*
X137206742Y-107838419D02*
X137159123Y-107886038D01*
X137159123Y-107886038D02*
X137206742Y-107933657D01*
X137206742Y-107933657D02*
X137254361Y-107886038D01*
X137254361Y-107886038D02*
X137206742Y-107838419D01*
X137206742Y-107838419D02*
X137206742Y-107933657D01*
X138111503Y-108171752D02*
X138111503Y-108981276D01*
X138111503Y-108981276D02*
X138063884Y-109076514D01*
X138063884Y-109076514D02*
X138016265Y-109124133D01*
X138016265Y-109124133D02*
X137921027Y-109171752D01*
X137921027Y-109171752D02*
X137778170Y-109171752D01*
X137778170Y-109171752D02*
X137682932Y-109124133D01*
X138111503Y-108790800D02*
X138016265Y-108838419D01*
X138016265Y-108838419D02*
X137825789Y-108838419D01*
X137825789Y-108838419D02*
X137730551Y-108790800D01*
X137730551Y-108790800D02*
X137682932Y-108743180D01*
X137682932Y-108743180D02*
X137635313Y-108647942D01*
X137635313Y-108647942D02*
X137635313Y-108362228D01*
X137635313Y-108362228D02*
X137682932Y-108266990D01*
X137682932Y-108266990D02*
X137730551Y-108219371D01*
X137730551Y-108219371D02*
X137825789Y-108171752D01*
X137825789Y-108171752D02*
X138016265Y-108171752D01*
X138016265Y-108171752D02*
X138111503Y-108219371D01*
X139016265Y-108838419D02*
X139016265Y-108314609D01*
X139016265Y-108314609D02*
X138968646Y-108219371D01*
X138968646Y-108219371D02*
X138873408Y-108171752D01*
X138873408Y-108171752D02*
X138682932Y-108171752D01*
X138682932Y-108171752D02*
X138587694Y-108219371D01*
X139016265Y-108790800D02*
X138921027Y-108838419D01*
X138921027Y-108838419D02*
X138682932Y-108838419D01*
X138682932Y-108838419D02*
X138587694Y-108790800D01*
X138587694Y-108790800D02*
X138540075Y-108695561D01*
X138540075Y-108695561D02*
X138540075Y-108600323D01*
X138540075Y-108600323D02*
X138587694Y-108505085D01*
X138587694Y-108505085D02*
X138682932Y-108457466D01*
X138682932Y-108457466D02*
X138921027Y-108457466D01*
X138921027Y-108457466D02*
X139016265Y-108409847D01*
X139254361Y-108933657D02*
X140016265Y-108933657D01*
X140682932Y-108171752D02*
X140682932Y-108838419D01*
X140444837Y-107790800D02*
X140206742Y-108505085D01*
X140206742Y-108505085D02*
X140825789Y-108505085D01*
X141397218Y-107838419D02*
X141492456Y-107838419D01*
X141492456Y-107838419D02*
X141587694Y-107886038D01*
X141587694Y-107886038D02*
X141635313Y-107933657D01*
X141635313Y-107933657D02*
X141682932Y-108028895D01*
X141682932Y-108028895D02*
X141730551Y-108219371D01*
X141730551Y-108219371D02*
X141730551Y-108457466D01*
X141730551Y-108457466D02*
X141682932Y-108647942D01*
X141682932Y-108647942D02*
X141635313Y-108743180D01*
X141635313Y-108743180D02*
X141587694Y-108790800D01*
X141587694Y-108790800D02*
X141492456Y-108838419D01*
X141492456Y-108838419D02*
X141397218Y-108838419D01*
X141397218Y-108838419D02*
X141301980Y-108790800D01*
X141301980Y-108790800D02*
X141254361Y-108743180D01*
X141254361Y-108743180D02*
X141206742Y-108647942D01*
X141206742Y-108647942D02*
X141159123Y-108457466D01*
X141159123Y-108457466D02*
X141159123Y-108219371D01*
X141159123Y-108219371D02*
X141206742Y-108028895D01*
X141206742Y-108028895D02*
X141254361Y-107933657D01*
X141254361Y-107933657D02*
X141301980Y-107886038D01*
X141301980Y-107886038D02*
X141397218Y-107838419D01*
X142349599Y-107838419D02*
X142444837Y-107838419D01*
X142444837Y-107838419D02*
X142540075Y-107886038D01*
X142540075Y-107886038D02*
X142587694Y-107933657D01*
X142587694Y-107933657D02*
X142635313Y-108028895D01*
X142635313Y-108028895D02*
X142682932Y-108219371D01*
X142682932Y-108219371D02*
X142682932Y-108457466D01*
X142682932Y-108457466D02*
X142635313Y-108647942D01*
X142635313Y-108647942D02*
X142587694Y-108743180D01*
X142587694Y-108743180D02*
X142540075Y-108790800D01*
X142540075Y-108790800D02*
X142444837Y-108838419D01*
X142444837Y-108838419D02*
X142349599Y-108838419D01*
X142349599Y-108838419D02*
X142254361Y-108790800D01*
X142254361Y-108790800D02*
X142206742Y-108743180D01*
X142206742Y-108743180D02*
X142159123Y-108647942D01*
X142159123Y-108647942D02*
X142111504Y-108457466D01*
X142111504Y-108457466D02*
X142111504Y-108219371D01*
X142111504Y-108219371D02*
X142159123Y-108028895D01*
X142159123Y-108028895D02*
X142206742Y-107933657D01*
X142206742Y-107933657D02*
X142254361Y-107886038D01*
X142254361Y-107886038D02*
X142349599Y-107838419D01*
X143301980Y-107838419D02*
X143397218Y-107838419D01*
X143397218Y-107838419D02*
X143492456Y-107886038D01*
X143492456Y-107886038D02*
X143540075Y-107933657D01*
X143540075Y-107933657D02*
X143587694Y-108028895D01*
X143587694Y-108028895D02*
X143635313Y-108219371D01*
X143635313Y-108219371D02*
X143635313Y-108457466D01*
X143635313Y-108457466D02*
X143587694Y-108647942D01*
X143587694Y-108647942D02*
X143540075Y-108743180D01*
X143540075Y-108743180D02*
X143492456Y-108790800D01*
X143492456Y-108790800D02*
X143397218Y-108838419D01*
X143397218Y-108838419D02*
X143301980Y-108838419D01*
X143301980Y-108838419D02*
X143206742Y-108790800D01*
X143206742Y-108790800D02*
X143159123Y-108743180D01*
X143159123Y-108743180D02*
X143111504Y-108647942D01*
X143111504Y-108647942D02*
X143063885Y-108457466D01*
X143063885Y-108457466D02*
X143063885Y-108219371D01*
X143063885Y-108219371D02*
X143111504Y-108028895D01*
X143111504Y-108028895D02*
X143159123Y-107933657D01*
X143159123Y-107933657D02*
X143206742Y-107886038D01*
X143206742Y-107886038D02*
X143301980Y-107838419D01*
X143825790Y-108933657D02*
X144587694Y-108933657D01*
X145254361Y-108171752D02*
X145254361Y-108838419D01*
X145016266Y-107790800D02*
X144778171Y-108505085D01*
X144778171Y-108505085D02*
X145397218Y-108505085D01*
X145778171Y-108838419D02*
X145778171Y-107838419D01*
X146254361Y-108838419D02*
X146254361Y-107838419D01*
X146254361Y-107838419D02*
X146492456Y-107838419D01*
X146492456Y-107838419D02*
X146635313Y-107886038D01*
X146635313Y-107886038D02*
X146730551Y-107981276D01*
X146730551Y-107981276D02*
X146778170Y-108076514D01*
X146778170Y-108076514D02*
X146825789Y-108266990D01*
X146825789Y-108266990D02*
X146825789Y-108409847D01*
X146825789Y-108409847D02*
X146778170Y-108600323D01*
X146778170Y-108600323D02*
X146730551Y-108695561D01*
X146730551Y-108695561D02*
X146635313Y-108790800D01*
X146635313Y-108790800D02*
X146492456Y-108838419D01*
X146492456Y-108838419D02*
X146254361Y-108838419D01*
X147254361Y-108314609D02*
X147587694Y-108314609D01*
X147730551Y-108838419D02*
X147254361Y-108838419D01*
X147254361Y-108838419D02*
X147254361Y-107838419D01*
X147254361Y-107838419D02*
X147730551Y-107838419D01*
D10*
X107388819Y-90028094D02*
X106388819Y-90028094D01*
X106388819Y-90028094D02*
X106388819Y-89789999D01*
X106388819Y-89789999D02*
X106436438Y-89647142D01*
X106436438Y-89647142D02*
X106531676Y-89551904D01*
X106531676Y-89551904D02*
X106626914Y-89504285D01*
X106626914Y-89504285D02*
X106817390Y-89456666D01*
X106817390Y-89456666D02*
X106960247Y-89456666D01*
X106960247Y-89456666D02*
X107150723Y-89504285D01*
X107150723Y-89504285D02*
X107245961Y-89551904D01*
X107245961Y-89551904D02*
X107341200Y-89647142D01*
X107341200Y-89647142D02*
X107388819Y-89789999D01*
X107388819Y-89789999D02*
X107388819Y-90028094D01*
X106388819Y-89123332D02*
X106388819Y-88504285D01*
X106388819Y-88504285D02*
X106769771Y-88837618D01*
X106769771Y-88837618D02*
X106769771Y-88694761D01*
X106769771Y-88694761D02*
X106817390Y-88599523D01*
X106817390Y-88599523D02*
X106865009Y-88551904D01*
X106865009Y-88551904D02*
X106960247Y-88504285D01*
X106960247Y-88504285D02*
X107198342Y-88504285D01*
X107198342Y-88504285D02*
X107293580Y-88551904D01*
X107293580Y-88551904D02*
X107341200Y-88599523D01*
X107341200Y-88599523D02*
X107388819Y-88694761D01*
X107388819Y-88694761D02*
X107388819Y-88980475D01*
X107388819Y-88980475D02*
X107341200Y-89075713D01*
X107341200Y-89075713D02*
X107293580Y-89123332D01*
X104086819Y-90028094D02*
X103086819Y-90028094D01*
X103086819Y-90028094D02*
X103086819Y-89789999D01*
X103086819Y-89789999D02*
X103134438Y-89647142D01*
X103134438Y-89647142D02*
X103229676Y-89551904D01*
X103229676Y-89551904D02*
X103324914Y-89504285D01*
X103324914Y-89504285D02*
X103515390Y-89456666D01*
X103515390Y-89456666D02*
X103658247Y-89456666D01*
X103658247Y-89456666D02*
X103848723Y-89504285D01*
X103848723Y-89504285D02*
X103943961Y-89551904D01*
X103943961Y-89551904D02*
X104039200Y-89647142D01*
X104039200Y-89647142D02*
X104086819Y-89789999D01*
X104086819Y-89789999D02*
X104086819Y-90028094D01*
X103420152Y-88599523D02*
X104086819Y-88599523D01*
X103039200Y-88837618D02*
X103753485Y-89075713D01*
X103753485Y-89075713D02*
X103753485Y-88456666D01*
X118056819Y-90028094D02*
X117056819Y-90028094D01*
X117056819Y-90028094D02*
X117056819Y-89789999D01*
X117056819Y-89789999D02*
X117104438Y-89647142D01*
X117104438Y-89647142D02*
X117199676Y-89551904D01*
X117199676Y-89551904D02*
X117294914Y-89504285D01*
X117294914Y-89504285D02*
X117485390Y-89456666D01*
X117485390Y-89456666D02*
X117628247Y-89456666D01*
X117628247Y-89456666D02*
X117818723Y-89504285D01*
X117818723Y-89504285D02*
X117913961Y-89551904D01*
X117913961Y-89551904D02*
X118009200Y-89647142D01*
X118009200Y-89647142D02*
X118056819Y-89789999D01*
X118056819Y-89789999D02*
X118056819Y-90028094D01*
X118056819Y-88504285D02*
X118056819Y-89075713D01*
X118056819Y-88789999D02*
X117056819Y-88789999D01*
X117056819Y-88789999D02*
X117199676Y-88885237D01*
X117199676Y-88885237D02*
X117294914Y-88980475D01*
X117294914Y-88980475D02*
X117342533Y-89075713D01*
X155436219Y-79962333D02*
X156150504Y-79962333D01*
X156150504Y-79962333D02*
X156293361Y-80009952D01*
X156293361Y-80009952D02*
X156388600Y-80105190D01*
X156388600Y-80105190D02*
X156436219Y-80248047D01*
X156436219Y-80248047D02*
X156436219Y-80343285D01*
X155531457Y-79533761D02*
X155483838Y-79486142D01*
X155483838Y-79486142D02*
X155436219Y-79390904D01*
X155436219Y-79390904D02*
X155436219Y-79152809D01*
X155436219Y-79152809D02*
X155483838Y-79057571D01*
X155483838Y-79057571D02*
X155531457Y-79009952D01*
X155531457Y-79009952D02*
X155626695Y-78962333D01*
X155626695Y-78962333D02*
X155721933Y-78962333D01*
X155721933Y-78962333D02*
X155864790Y-79009952D01*
X155864790Y-79009952D02*
X156436219Y-79581380D01*
X156436219Y-79581380D02*
X156436219Y-78962333D01*
X155156819Y-98529733D02*
X155871104Y-98529733D01*
X155871104Y-98529733D02*
X156013961Y-98577352D01*
X156013961Y-98577352D02*
X156109200Y-98672590D01*
X156109200Y-98672590D02*
X156156819Y-98815447D01*
X156156819Y-98815447D02*
X156156819Y-98910685D01*
X156156819Y-97529733D02*
X156156819Y-98101161D01*
X156156819Y-97815447D02*
X155156819Y-97815447D01*
X155156819Y-97815447D02*
X155299676Y-97910685D01*
X155299676Y-97910685D02*
X155394914Y-98005923D01*
X155394914Y-98005923D02*
X155442533Y-98101161D01*
X155156819Y-68506933D02*
X155871104Y-68506933D01*
X155871104Y-68506933D02*
X156013961Y-68554552D01*
X156013961Y-68554552D02*
X156109200Y-68649790D01*
X156109200Y-68649790D02*
X156156819Y-68792647D01*
X156156819Y-68792647D02*
X156156819Y-68887885D01*
X155156819Y-68125980D02*
X155156819Y-67506933D01*
X155156819Y-67506933D02*
X155537771Y-67840266D01*
X155537771Y-67840266D02*
X155537771Y-67697409D01*
X155537771Y-67697409D02*
X155585390Y-67602171D01*
X155585390Y-67602171D02*
X155633009Y-67554552D01*
X155633009Y-67554552D02*
X155728247Y-67506933D01*
X155728247Y-67506933D02*
X155966342Y-67506933D01*
X155966342Y-67506933D02*
X156061580Y-67554552D01*
X156061580Y-67554552D02*
X156109200Y-67602171D01*
X156109200Y-67602171D02*
X156156819Y-67697409D01*
X156156819Y-67697409D02*
X156156819Y-67983123D01*
X156156819Y-67983123D02*
X156109200Y-68078361D01*
X156109200Y-68078361D02*
X156061580Y-68125980D01*
X114754819Y-90028094D02*
X113754819Y-90028094D01*
X113754819Y-90028094D02*
X113754819Y-89789999D01*
X113754819Y-89789999D02*
X113802438Y-89647142D01*
X113802438Y-89647142D02*
X113897676Y-89551904D01*
X113897676Y-89551904D02*
X113992914Y-89504285D01*
X113992914Y-89504285D02*
X114183390Y-89456666D01*
X114183390Y-89456666D02*
X114326247Y-89456666D01*
X114326247Y-89456666D02*
X114516723Y-89504285D01*
X114516723Y-89504285D02*
X114611961Y-89551904D01*
X114611961Y-89551904D02*
X114707200Y-89647142D01*
X114707200Y-89647142D02*
X114754819Y-89789999D01*
X114754819Y-89789999D02*
X114754819Y-90028094D01*
X113850057Y-89075713D02*
X113802438Y-89028094D01*
X113802438Y-89028094D02*
X113754819Y-88932856D01*
X113754819Y-88932856D02*
X113754819Y-88694761D01*
X113754819Y-88694761D02*
X113802438Y-88599523D01*
X113802438Y-88599523D02*
X113850057Y-88551904D01*
X113850057Y-88551904D02*
X113945295Y-88504285D01*
X113945295Y-88504285D02*
X114040533Y-88504285D01*
X114040533Y-88504285D02*
X114183390Y-88551904D01*
X114183390Y-88551904D02*
X114754819Y-89123332D01*
X114754819Y-89123332D02*
X114754819Y-88504285D01*
D13*
X105514000Y-87570000D02*
X105514000Y-91010000D01*
X105514000Y-91010000D02*
X105694000Y-91010000D01*
X105694000Y-87570000D02*
X105514000Y-87570000D01*
X108174000Y-87570000D02*
X108354000Y-87570000D01*
X108354000Y-87570000D02*
X108354000Y-91010000D01*
X108354000Y-88050000D02*
X105514000Y-88050000D01*
X108354000Y-88170000D02*
X105514000Y-88170000D01*
X108354000Y-88290000D02*
X105514000Y-88290000D01*
X108354000Y-91010000D02*
X108174000Y-91010000D01*
X102212000Y-87570000D02*
X102212000Y-91010000D01*
X102212000Y-91010000D02*
X102392000Y-91010000D01*
X102392000Y-87570000D02*
X102212000Y-87570000D01*
X104872000Y-87570000D02*
X105052000Y-87570000D01*
X105052000Y-87570000D02*
X105052000Y-91010000D01*
X105052000Y-88050000D02*
X102212000Y-88050000D01*
X105052000Y-88170000D02*
X102212000Y-88170000D01*
X105052000Y-88290000D02*
X102212000Y-88290000D01*
X105052000Y-91010000D02*
X104872000Y-91010000D01*
X116182000Y-87570000D02*
X116362000Y-87570000D01*
X116182000Y-90290000D02*
X119022000Y-90290000D01*
X116182000Y-90410000D02*
X119022000Y-90410000D01*
X116182000Y-90530000D02*
X119022000Y-90530000D01*
X116182000Y-91010000D02*
X116182000Y-87570000D01*
X116362000Y-91010000D02*
X116182000Y-91010000D01*
X118842000Y-91010000D02*
X119022000Y-91010000D01*
X119022000Y-87570000D02*
X118842000Y-87570000D01*
X119022000Y-91010000D02*
X119022000Y-87570000D01*
X99692000Y-75586000D02*
X158372000Y-75586000D01*
X99692000Y-84706000D02*
X99692000Y-75586000D01*
X100992000Y-76896000D02*
X126982000Y-76896000D01*
X100992000Y-83396000D02*
X100992000Y-76896000D01*
X126982000Y-76896000D02*
X126982000Y-75586000D01*
X126982000Y-76896000D02*
X126982000Y-76896000D01*
X131082000Y-75586000D02*
X131082000Y-76896000D01*
X131082000Y-76896000D02*
X157072000Y-76896000D01*
X152662000Y-74196000D02*
X153162000Y-75196000D01*
X153162000Y-75196000D02*
X153662000Y-74196000D01*
X153662000Y-74196000D02*
X152662000Y-74196000D01*
X157072000Y-76896000D02*
X157072000Y-83396000D01*
X157072000Y-83396000D02*
X100992000Y-83396000D01*
X158372000Y-75586000D02*
X158372000Y-84706000D01*
X158372000Y-84706000D02*
X99692000Y-84706000D01*
X99692000Y-93780000D02*
X158372000Y-93780000D01*
X99692000Y-102900000D02*
X99692000Y-93780000D01*
X100992000Y-95090000D02*
X126982000Y-95090000D01*
X100992000Y-101590000D02*
X100992000Y-95090000D01*
X126982000Y-95090000D02*
X126982000Y-93780000D01*
X126982000Y-95090000D02*
X126982000Y-95090000D01*
X131082000Y-93780000D02*
X131082000Y-95090000D01*
X131082000Y-95090000D02*
X157072000Y-95090000D01*
X152662000Y-92390000D02*
X153162000Y-93390000D01*
X153162000Y-93390000D02*
X153662000Y-92390000D01*
X153662000Y-92390000D02*
X152662000Y-92390000D01*
X157072000Y-95090000D02*
X157072000Y-101590000D01*
X157072000Y-101590000D02*
X100992000Y-101590000D01*
X158372000Y-93780000D02*
X158372000Y-102900000D01*
X158372000Y-102900000D02*
X99692000Y-102900000D01*
X99692000Y-63902000D02*
X158372000Y-63902000D01*
X99692000Y-73022000D02*
X99692000Y-63902000D01*
X100992000Y-65212000D02*
X126982000Y-65212000D01*
X100992000Y-71712000D02*
X100992000Y-65212000D01*
X126982000Y-65212000D02*
X126982000Y-63902000D01*
X126982000Y-65212000D02*
X126982000Y-65212000D01*
X131082000Y-63902000D02*
X131082000Y-65212000D01*
X131082000Y-65212000D02*
X157072000Y-65212000D01*
X152662000Y-62512000D02*
X153162000Y-63512000D01*
X153162000Y-63512000D02*
X153662000Y-62512000D01*
X153662000Y-62512000D02*
X152662000Y-62512000D01*
X157072000Y-65212000D02*
X157072000Y-71712000D01*
X157072000Y-71712000D02*
X100992000Y-71712000D01*
X158372000Y-63902000D02*
X158372000Y-73022000D01*
X158372000Y-73022000D02*
X99692000Y-73022000D01*
X112880000Y-87570000D02*
X113060000Y-87570000D01*
X112880000Y-90290000D02*
X115720000Y-90290000D01*
X112880000Y-90410000D02*
X115720000Y-90410000D01*
X112880000Y-90530000D02*
X115720000Y-90530000D01*
X112880000Y-91010000D02*
X112880000Y-87570000D01*
X113060000Y-91010000D02*
X112880000Y-91010000D01*
X115540000Y-91010000D02*
X115720000Y-91010000D01*
X115720000Y-87570000D02*
X115540000Y-87570000D01*
X115720000Y-91010000D02*
X115720000Y-87570000D01*
%LPC*%
D14*
X159258000Y-58450000D03*
X97536000Y-58450000D03*
D15*
X106934000Y-86750000D03*
D16*
X106934000Y-91830000D03*
D14*
X159258000Y-107950000D03*
D15*
X103632000Y-86750000D03*
D16*
X103632000Y-91830000D03*
D15*
X117602000Y-91830000D03*
D16*
X117602000Y-86750000D03*
D14*
X97538000Y-107950000D03*
D17*
X153162000Y-78876000D03*
D18*
X153162000Y-81416000D03*
X150622000Y-78876000D03*
X150622000Y-81416000D03*
X148082000Y-78876000D03*
X148082000Y-81416000D03*
X145542000Y-78876000D03*
X145542000Y-81416000D03*
X143002000Y-78876000D03*
X143002000Y-81416000D03*
X140462000Y-78876000D03*
X140462000Y-81416000D03*
X137922000Y-78876000D03*
X137922000Y-81416000D03*
X135382000Y-78876000D03*
X135382000Y-81416000D03*
X132842000Y-78876000D03*
X132842000Y-81416000D03*
X130302000Y-78876000D03*
X130302000Y-81416000D03*
X127762000Y-78876000D03*
X127762000Y-81416000D03*
X125222000Y-78876000D03*
X125222000Y-81416000D03*
X122682000Y-78876000D03*
X122682000Y-81416000D03*
X120142000Y-78876000D03*
X120142000Y-81416000D03*
X117602000Y-78876000D03*
X117602000Y-81416000D03*
X115062000Y-78876000D03*
X115062000Y-81416000D03*
X112522000Y-78876000D03*
X112522000Y-81416000D03*
X109982000Y-78876000D03*
X109982000Y-81416000D03*
X107442000Y-78876000D03*
X107442000Y-81416000D03*
X104902000Y-78876000D03*
X104902000Y-81416000D03*
D17*
X153162000Y-97070000D03*
D18*
X153162000Y-99610000D03*
X150622000Y-97070000D03*
X150622000Y-99610000D03*
X148082000Y-97070000D03*
X148082000Y-99610000D03*
X145542000Y-97070000D03*
X145542000Y-99610000D03*
X143002000Y-97070000D03*
X143002000Y-99610000D03*
X140462000Y-97070000D03*
X140462000Y-99610000D03*
X137922000Y-97070000D03*
X137922000Y-99610000D03*
X135382000Y-97070000D03*
X135382000Y-99610000D03*
X132842000Y-97070000D03*
X132842000Y-99610000D03*
X130302000Y-97070000D03*
X130302000Y-99610000D03*
X127762000Y-97070000D03*
X127762000Y-99610000D03*
X125222000Y-97070000D03*
X125222000Y-99610000D03*
X122682000Y-97070000D03*
X122682000Y-99610000D03*
X120142000Y-97070000D03*
X120142000Y-99610000D03*
X117602000Y-97070000D03*
X117602000Y-99610000D03*
X115062000Y-97070000D03*
X115062000Y-99610000D03*
X112522000Y-97070000D03*
X112522000Y-99610000D03*
X109982000Y-97070000D03*
X109982000Y-99610000D03*
X107442000Y-97070000D03*
X107442000Y-99610000D03*
X104902000Y-97070000D03*
X104902000Y-99610000D03*
D17*
X153162000Y-67192000D03*
D18*
X153162000Y-69732000D03*
X150622000Y-67192000D03*
X150622000Y-69732000D03*
X148082000Y-67192000D03*
X148082000Y-69732000D03*
X145542000Y-67192000D03*
X145542000Y-69732000D03*
X143002000Y-67192000D03*
X143002000Y-69732000D03*
X140462000Y-67192000D03*
X140462000Y-69732000D03*
X137922000Y-67192000D03*
X137922000Y-69732000D03*
X135382000Y-67192000D03*
X135382000Y-69732000D03*
X132842000Y-67192000D03*
X132842000Y-69732000D03*
X130302000Y-67192000D03*
X130302000Y-69732000D03*
X127762000Y-67192000D03*
X127762000Y-69732000D03*
X125222000Y-67192000D03*
X125222000Y-69732000D03*
X122682000Y-67192000D03*
X122682000Y-69732000D03*
X120142000Y-67192000D03*
X120142000Y-69732000D03*
X117602000Y-67192000D03*
X117602000Y-69732000D03*
X115062000Y-67192000D03*
X115062000Y-69732000D03*
X112522000Y-67192000D03*
X112522000Y-69732000D03*
X109982000Y-67192000D03*
X109982000Y-69732000D03*
X107442000Y-67192000D03*
X107442000Y-69732000D03*
X104902000Y-67192000D03*
X104902000Y-69732000D03*
D15*
X114300000Y-91830000D03*
D16*
X114300000Y-86750000D03*
%LPD*%
D19*
X97710000Y-53848000D02*
X158830000Y-53848000D01*
X163830000Y-107522000D02*
G75*
G02*
X158830000Y-112522000I-5000000J0D01*
G01*
X92710000Y-107522000D02*
X92710000Y-58848000D01*
X92710000Y-58848000D02*
G75*
G02*
X97710000Y-53848000I5000000J0D01*
G01*
X158830000Y-112522000D02*
X97710000Y-112522000D01*
X163830000Y-58848000D02*
X163830000Y-107522000D01*
X97710000Y-112522000D02*
G75*
G02*
X92710000Y-107522000I0J5000000D01*
G01*
X158830000Y-53848000D02*
G75*
G02*
X163830000Y-58848000I0J-5000000D01*
G01*
M02*
