G04 #@! TF.GenerationSoftware,KiCad,Pcbnew,8.0.4*
G04 #@! TF.CreationDate,2024-09-01T00:03:10+10:00*
G04 #@! TF.ProjectId,Amiga_4000_4IDE,416d6967-615f-4343-9030-305f34494445,rev?*
G04 #@! TF.SameCoordinates,Original*
G04 #@! TF.FileFunction,Copper,L1,Top*
G04 #@! TF.FilePolarity,Positive*
%FSLAX46Y46*%
G04 Gerber Fmt 4.6, Leading zero omitted, Abs format (unit mm)*
G04 Created by KiCad (PCBNEW 8.0.4) date 2024-09-01 00:03:10*
%MOMM*%
%LPD*%
G01*
G04 APERTURE LIST*
G04 Aperture macros list*
%AMRoundRect*
0 Rectangle with rounded corners*
0 $1 Rounding radius*
0 $2 $3 $4 $5 $6 $7 $8 $9 X,Y pos of 4 corners*
0 Add a 4 corners polygon primitive as box body*
4,1,4,$2,$3,$4,$5,$6,$7,$8,$9,$2,$3,0*
0 Add four circle primitives for the rounded corners*
1,1,$1+$1,$2,$3*
1,1,$1+$1,$4,$5*
1,1,$1+$1,$6,$7*
1,1,$1+$1,$8,$9*
0 Add four rect primitives between the rounded corners*
20,1,$1+$1,$2,$3,$4,$5,0*
20,1,$1+$1,$4,$5,$6,$7,0*
20,1,$1+$1,$6,$7,$8,$9,0*
20,1,$1+$1,$8,$9,$2,$3,0*%
G04 Aperture macros list end*
G04 #@! TA.AperFunction,Conductor*
%ADD10C,0.200000*%
G04 #@! TD*
G04 #@! TA.AperFunction,ComponentPad*
%ADD11R,2.000000X2.000000*%
G04 #@! TD*
G04 #@! TA.AperFunction,ComponentPad*
%ADD12O,2.000000X2.000000*%
G04 #@! TD*
G04 #@! TA.AperFunction,ComponentPad*
%ADD13RoundRect,0.250000X-0.600000X0.600000X-0.600000X-0.600000X0.600000X-0.600000X0.600000X0.600000X0*%
G04 #@! TD*
G04 #@! TA.AperFunction,ComponentPad*
%ADD14C,1.700000*%
G04 #@! TD*
G04 #@! TA.AperFunction,Conductor*
%ADD15C,0.250000*%
G04 #@! TD*
G04 #@! TA.AperFunction,Profile*
%ADD16C,0.050000*%
G04 #@! TD*
G04 APERTURE END LIST*
D10*
X114300000Y-91830000D02*
X117881400Y-91821000D01*
D11*
X106934000Y-86750000D03*
D12*
X106934000Y-91830000D03*
D11*
X103632000Y-86750000D03*
D12*
X103632000Y-91830000D03*
D11*
X117602000Y-91830000D03*
D12*
X117602000Y-86750000D03*
D13*
X153162000Y-78876000D03*
D14*
X153162000Y-81416000D03*
X150622000Y-78876000D03*
X150622000Y-81416000D03*
X148082000Y-78876000D03*
X148082000Y-81416000D03*
X145542000Y-78876000D03*
X145542000Y-81416000D03*
X143002000Y-78876000D03*
X143002000Y-81416000D03*
X140462000Y-78876000D03*
X140462000Y-81416000D03*
X137922000Y-78876000D03*
X137922000Y-81416000D03*
X135382000Y-78876000D03*
X135382000Y-81416000D03*
X132842000Y-78876000D03*
X132842000Y-81416000D03*
X130302000Y-78876000D03*
X130302000Y-81416000D03*
X127762000Y-78876000D03*
X127762000Y-81416000D03*
X125222000Y-78876000D03*
X125222000Y-81416000D03*
X122682000Y-78876000D03*
X122682000Y-81416000D03*
X120142000Y-78876000D03*
X120142000Y-81416000D03*
X117602000Y-78876000D03*
X117602000Y-81416000D03*
X115062000Y-78876000D03*
X115062000Y-81416000D03*
X112522000Y-78876000D03*
X112522000Y-81416000D03*
X109982000Y-78876000D03*
X109982000Y-81416000D03*
X107442000Y-78876000D03*
X107442000Y-81416000D03*
X104902000Y-78876000D03*
X104902000Y-81416000D03*
D13*
X153162000Y-97070000D03*
D14*
X153162000Y-99610000D03*
X150622000Y-97070000D03*
X150622000Y-99610000D03*
X148082000Y-97070000D03*
X148082000Y-99610000D03*
X145542000Y-97070000D03*
X145542000Y-99610000D03*
X143002000Y-97070000D03*
X143002000Y-99610000D03*
X140462000Y-97070000D03*
X140462000Y-99610000D03*
X137922000Y-97070000D03*
X137922000Y-99610000D03*
X135382000Y-97070000D03*
X135382000Y-99610000D03*
X132842000Y-97070000D03*
X132842000Y-99610000D03*
X130302000Y-97070000D03*
X130302000Y-99610000D03*
X127762000Y-97070000D03*
X127762000Y-99610000D03*
X125222000Y-97070000D03*
X125222000Y-99610000D03*
X122682000Y-97070000D03*
X122682000Y-99610000D03*
X120142000Y-97070000D03*
X120142000Y-99610000D03*
X117602000Y-97070000D03*
X117602000Y-99610000D03*
X115062000Y-97070000D03*
X115062000Y-99610000D03*
X112522000Y-97070000D03*
X112522000Y-99610000D03*
X109982000Y-97070000D03*
X109982000Y-99610000D03*
X107442000Y-97070000D03*
X107442000Y-99610000D03*
X104902000Y-97070000D03*
X104902000Y-99610000D03*
D13*
X153162000Y-67192000D03*
D14*
X153162000Y-69732000D03*
X150622000Y-67192000D03*
X150622000Y-69732000D03*
X148082000Y-67192000D03*
X148082000Y-69732000D03*
X145542000Y-67192000D03*
X145542000Y-69732000D03*
X143002000Y-67192000D03*
X143002000Y-69732000D03*
X140462000Y-67192000D03*
X140462000Y-69732000D03*
X137922000Y-67192000D03*
X137922000Y-69732000D03*
X135382000Y-67192000D03*
X135382000Y-69732000D03*
X132842000Y-67192000D03*
X132842000Y-69732000D03*
X130302000Y-67192000D03*
X130302000Y-69732000D03*
X127762000Y-67192000D03*
X127762000Y-69732000D03*
X125222000Y-67192000D03*
X125222000Y-69732000D03*
X122682000Y-67192000D03*
X122682000Y-69732000D03*
X120142000Y-67192000D03*
X120142000Y-69732000D03*
X117602000Y-67192000D03*
X117602000Y-69732000D03*
X115062000Y-67192000D03*
X115062000Y-69732000D03*
X112522000Y-67192000D03*
X112522000Y-69732000D03*
X109982000Y-67192000D03*
X109982000Y-69732000D03*
X107442000Y-67192000D03*
X107442000Y-69732000D03*
X104902000Y-67192000D03*
X104902000Y-69732000D03*
D11*
X114300000Y-91830000D03*
D12*
X114300000Y-86750000D03*
D15*
X118827000Y-80101000D02*
X117602000Y-78876000D01*
X118827000Y-84328000D02*
X118827000Y-80101000D01*
X119126000Y-84627000D02*
X118827000Y-84328000D01*
X119126000Y-95546000D02*
X119126000Y-84627000D01*
X117602000Y-97070000D02*
X119126000Y-95546000D01*
X140462000Y-80708894D02*
X140462000Y-81416000D01*
X139237000Y-78060000D02*
X139237000Y-79483894D01*
X140462000Y-76835000D02*
X139237000Y-78060000D01*
X139237000Y-79483894D02*
X140462000Y-80708894D01*
X140462000Y-69732000D02*
X140462000Y-76835000D01*
X137922000Y-80708894D02*
X137922000Y-81416000D01*
X136697000Y-71837000D02*
X136697000Y-79483894D01*
X137922000Y-70612000D02*
X136697000Y-71837000D01*
X136697000Y-79483894D02*
X137922000Y-80708894D01*
X137922000Y-69732000D02*
X137922000Y-70612000D01*
X128987000Y-76499000D02*
X128987000Y-68417000D01*
X128016000Y-77470000D02*
X128987000Y-76499000D01*
X128987000Y-68417000D02*
X127762000Y-67192000D01*
X128016000Y-78622000D02*
X128016000Y-77470000D01*
X127762000Y-78876000D02*
X128016000Y-78622000D01*
X108305600Y-95732600D02*
X108305600Y-93954600D01*
X109474000Y-92786200D02*
X109474000Y-81924000D01*
X109474000Y-81924000D02*
X109982000Y-81416000D01*
X108712000Y-96139000D02*
X108305600Y-95732600D01*
X108305600Y-93954600D02*
X109474000Y-92786200D01*
X108712000Y-98340000D02*
X108712000Y-96139000D01*
X109982000Y-99610000D02*
X108712000Y-98340000D01*
X111207000Y-81923412D02*
X111207000Y-80101000D01*
X110236000Y-82894412D02*
X111207000Y-81923412D01*
X110236000Y-96816000D02*
X110236000Y-82894412D01*
X109982000Y-97070000D02*
X110236000Y-96816000D01*
X111207000Y-80101000D02*
X109982000Y-78876000D01*
X112268000Y-83502894D02*
X112268000Y-96816000D01*
X113747000Y-82023894D02*
X112268000Y-83502894D01*
X113747000Y-80101000D02*
X113747000Y-82023894D01*
X112522000Y-78876000D02*
X113747000Y-80101000D01*
X112268000Y-96816000D02*
X112522000Y-97070000D01*
X112522000Y-97070000D02*
X112014000Y-96562000D01*
X115189000Y-92719000D02*
X115189000Y-96943000D01*
X115189000Y-96943000D02*
X115062000Y-97070000D01*
X114300000Y-91830000D02*
X115189000Y-92719000D01*
X116287000Y-84763000D02*
X116287000Y-68417000D01*
X116287000Y-68417000D02*
X115062000Y-67192000D01*
X114300000Y-86750000D02*
X116287000Y-84763000D01*
X104902000Y-97070000D02*
X104902000Y-93100000D01*
X104902000Y-93100000D02*
X103632000Y-91830000D01*
X103632000Y-91830000D02*
X106934000Y-91830000D01*
X106217000Y-86033000D02*
X106934000Y-86750000D01*
X106217000Y-80191000D02*
X106217000Y-86033000D01*
X104902000Y-78876000D02*
X106217000Y-80191000D01*
X104902000Y-67192000D02*
X102870000Y-69224000D01*
X102870000Y-85988000D02*
X103632000Y-86750000D01*
X102870000Y-69224000D02*
X102870000Y-85988000D01*
X137922000Y-99610000D02*
X136697000Y-98385000D01*
X136697000Y-98385000D02*
X136697000Y-96562588D01*
X135991600Y-95857188D02*
X135991600Y-83346400D01*
X136697000Y-96562588D02*
X135991600Y-95857188D01*
X135991600Y-83346400D02*
X137922000Y-81416000D01*
X124561600Y-83808812D02*
X126447000Y-81923412D01*
X126447000Y-80101000D02*
X125222000Y-78876000D01*
X124561600Y-96409600D02*
X124561600Y-83808812D01*
X126447000Y-68417000D02*
X125222000Y-67192000D01*
X125222000Y-97070000D02*
X124561600Y-96409600D01*
X126447000Y-77651000D02*
X126447000Y-68417000D01*
X125222000Y-78876000D02*
X126447000Y-77651000D01*
X126447000Y-81923412D02*
X126447000Y-80101000D01*
X138836400Y-83041600D02*
X140462000Y-81416000D01*
X139237000Y-98385000D02*
X139237000Y-96462106D01*
X139237000Y-96462106D02*
X138836400Y-96061506D01*
X138836400Y-96061506D02*
X138836400Y-83041600D01*
X140462000Y-99610000D02*
X139237000Y-98385000D01*
X153162000Y-97070000D02*
X154533600Y-95698400D01*
X151937000Y-68417000D02*
X153162000Y-67192000D01*
X107442000Y-80698412D02*
X106172000Y-79428412D01*
X106172000Y-79428412D02*
X106172000Y-71002000D01*
X108667000Y-68507000D02*
X107442000Y-69732000D01*
X151638000Y-65668000D02*
X108966000Y-65668000D01*
X152781000Y-71083412D02*
X151937000Y-70239412D01*
X107442000Y-81416000D02*
X107442000Y-80698412D01*
X106172000Y-71002000D02*
X107442000Y-69732000D01*
X154533600Y-80247600D02*
X153162000Y-78876000D01*
X108966000Y-65668000D02*
X108667000Y-65967000D01*
X151937000Y-70239412D02*
X151937000Y-68417000D01*
X152781000Y-78495000D02*
X152781000Y-71083412D01*
X153162000Y-78876000D02*
X152781000Y-78495000D01*
X108667000Y-65967000D02*
X108667000Y-68507000D01*
X154533600Y-95698400D02*
X154533600Y-80247600D01*
X153162000Y-67192000D02*
X151638000Y-65668000D01*
X145542000Y-78876000D02*
X146812000Y-77606000D01*
X145542000Y-97070000D02*
X146050000Y-96562000D01*
X146050000Y-96562000D02*
X146050000Y-82730412D01*
X146812000Y-77606000D02*
X146812000Y-68462000D01*
X146857000Y-81923412D02*
X146857000Y-80191000D01*
X146812000Y-68462000D02*
X145542000Y-67192000D01*
X146857000Y-80191000D02*
X145542000Y-78876000D01*
X146050000Y-82730412D02*
X146857000Y-81923412D01*
X138506200Y-71043800D02*
X139192000Y-70358000D01*
X137439400Y-96587400D02*
X137439400Y-83631012D01*
X139147000Y-81923412D02*
X139147000Y-80101000D01*
X139192000Y-70358000D02*
X139192000Y-68462000D01*
X137922000Y-78876000D02*
X138506200Y-78291800D01*
X138506200Y-78291800D02*
X138506200Y-71043800D01*
X139147000Y-80101000D02*
X137922000Y-78876000D01*
X137439400Y-83631012D02*
X139147000Y-81923412D01*
X137922000Y-97070000D02*
X137439400Y-96587400D01*
X139192000Y-68462000D02*
X137922000Y-67192000D01*
X141687000Y-80101000D02*
X140462000Y-78876000D01*
X141732000Y-68462000D02*
X140462000Y-67192000D01*
X141249400Y-70916800D02*
X141732000Y-70434200D01*
X140208000Y-83402412D02*
X141687000Y-81923412D01*
X141732000Y-70434200D02*
X141732000Y-68462000D01*
X140462000Y-78876000D02*
X140462000Y-78622000D01*
X140462000Y-97070000D02*
X140208000Y-96816000D01*
X141687000Y-81923412D02*
X141687000Y-80101000D01*
X141249400Y-77834600D02*
X141249400Y-70916800D01*
X140208000Y-96816000D02*
X140208000Y-83402412D01*
X140462000Y-78622000D02*
X141249400Y-77834600D01*
X118917000Y-96462106D02*
X120523000Y-94856106D01*
X120142000Y-99610000D02*
X118917000Y-98385000D01*
X118917000Y-98385000D02*
X118917000Y-96462106D01*
X120523000Y-81797000D02*
X120142000Y-81416000D01*
X120523000Y-94856106D02*
X120523000Y-81797000D01*
X109982000Y-78876000D02*
X111297000Y-77561000D01*
X111297000Y-68507000D02*
X109982000Y-67192000D01*
X111297000Y-77561000D02*
X111297000Y-68507000D01*
X106592000Y-94546605D02*
X108643800Y-92494805D01*
X108643800Y-92494805D02*
X108643800Y-82047093D01*
X108643800Y-82047093D02*
X108667000Y-82023894D01*
X107442000Y-97070000D02*
X106592000Y-96220000D01*
X106592000Y-96220000D02*
X106592000Y-94546605D01*
X108667000Y-82023894D02*
X108667000Y-80101000D01*
X108667000Y-80101000D02*
X107442000Y-78876000D01*
X145389600Y-77250400D02*
X144227000Y-78413000D01*
X144576800Y-82381200D02*
X145542000Y-81416000D01*
X144317000Y-97577412D02*
X144317000Y-95459000D01*
X144576800Y-95199200D02*
X144576800Y-82381200D01*
X145389600Y-69884400D02*
X145389600Y-77250400D01*
X145542000Y-98802412D02*
X144317000Y-97577412D01*
X144317000Y-95459000D02*
X144576800Y-95199200D01*
X145542000Y-69732000D02*
X145389600Y-69884400D01*
X144227000Y-78413000D02*
X144227000Y-79393893D01*
X145542000Y-80708893D02*
X145542000Y-81416000D01*
X144227000Y-79393893D02*
X145542000Y-80708893D01*
X145542000Y-99610000D02*
X145542000Y-98802412D01*
X136677400Y-70281800D02*
X136677400Y-68487400D01*
X135382000Y-78876000D02*
X135763000Y-78495000D01*
X136607000Y-81923412D02*
X136607000Y-80101000D01*
X135382000Y-97070000D02*
X134594600Y-96282600D01*
X134594600Y-96282600D02*
X134594600Y-83935812D01*
X135763000Y-71196200D02*
X136677400Y-70281800D01*
X135763000Y-78495000D02*
X135763000Y-71196200D01*
X134594600Y-83935812D02*
X136607000Y-81923412D01*
X136607000Y-80101000D02*
X135382000Y-78876000D01*
X136677400Y-68487400D02*
X135382000Y-67192000D01*
X122682000Y-78876000D02*
X123907000Y-77651000D01*
X123113800Y-96638200D02*
X123113800Y-82716612D01*
X123907000Y-68417000D02*
X122682000Y-67192000D01*
X122682000Y-97070000D02*
X123113800Y-96638200D01*
X123907000Y-77651000D02*
X123907000Y-68417000D01*
X123907000Y-81923412D02*
X123907000Y-80101000D01*
X123113800Y-82716612D02*
X123907000Y-81923412D01*
X123907000Y-80101000D02*
X122682000Y-78876000D01*
X113284000Y-78114000D02*
X113284000Y-70702412D01*
X112522000Y-78876000D02*
X113284000Y-78114000D01*
X113284000Y-70702412D02*
X113747000Y-70239412D01*
X113747000Y-68417000D02*
X112522000Y-67192000D01*
X113747000Y-70239412D02*
X113747000Y-68417000D01*
X117602000Y-78876000D02*
X118827000Y-77651000D01*
X118827000Y-77651000D02*
X118827000Y-68417000D01*
X118827000Y-68417000D02*
X117602000Y-67192000D01*
X130302000Y-69732000D02*
X130302000Y-77143588D01*
X129077000Y-78368588D02*
X129077000Y-79383412D01*
X130302000Y-99610000D02*
X128987000Y-98295000D01*
X128987000Y-96552106D02*
X127736600Y-95301706D01*
X127736600Y-83981400D02*
X130302000Y-81416000D01*
X130302000Y-77143588D02*
X129077000Y-78368588D01*
X130302000Y-80608412D02*
X130302000Y-81416000D01*
X127736600Y-95301706D02*
X127736600Y-83981400D01*
X129077000Y-79383412D02*
X130302000Y-80608412D01*
X128987000Y-98295000D02*
X128987000Y-96552106D01*
X108757000Y-79483894D02*
X109982000Y-80708894D01*
X108757000Y-70957000D02*
X108757000Y-79483894D01*
X109982000Y-69732000D02*
X108757000Y-70957000D01*
X109982000Y-80708894D02*
X109982000Y-81416000D01*
X148082000Y-78876000D02*
X149834600Y-77123400D01*
X149834600Y-70677012D02*
X149397000Y-70239412D01*
X149397000Y-70239412D02*
X149397000Y-68507000D01*
X149397000Y-80191000D02*
X148082000Y-78876000D01*
X148082000Y-97070000D02*
X149397000Y-95755000D01*
X149397000Y-95755000D02*
X149397000Y-80191000D01*
X149834600Y-77123400D02*
X149834600Y-70677012D01*
X149397000Y-68507000D02*
X148082000Y-67192000D01*
X126314200Y-84596212D02*
X128987000Y-81923412D01*
X126314200Y-95622200D02*
X126314200Y-84596212D01*
X128987000Y-81923412D02*
X128987000Y-80101000D01*
X127762000Y-97070000D02*
X126314200Y-95622200D01*
X128987000Y-80101000D02*
X127762000Y-78876000D01*
X121457000Y-81923412D02*
X121457000Y-80908588D01*
X121815794Y-80549794D02*
X120142000Y-78876000D01*
X121894600Y-95317400D02*
X121894600Y-82361012D01*
X121457000Y-80908588D02*
X121815794Y-80549794D01*
X120142000Y-97070000D02*
X121894600Y-95317400D01*
X121894600Y-82361012D02*
X121457000Y-81923412D01*
X121367000Y-77651000D02*
X121367000Y-68417000D01*
X120142000Y-78876000D02*
X121367000Y-77651000D01*
X121367000Y-68417000D02*
X120142000Y-67192000D01*
X148082000Y-80654000D02*
X148082000Y-81416000D01*
X146857000Y-78368588D02*
X146857000Y-79429000D01*
X147726400Y-95487600D02*
X147726400Y-81771600D01*
X148082000Y-99610000D02*
X146812000Y-98340000D01*
X148437600Y-76787988D02*
X146857000Y-78368588D01*
X148082000Y-69732000D02*
X148437600Y-70087600D01*
X148437600Y-70087600D02*
X148437600Y-76787988D01*
X146812000Y-98340000D02*
X146812000Y-96402000D01*
X146857000Y-79429000D02*
X148082000Y-80654000D01*
X147726400Y-81771600D02*
X148082000Y-81416000D01*
X146812000Y-96402000D02*
X147726400Y-95487600D01*
X107442000Y-99610000D02*
X106127000Y-98295000D01*
X104255000Y-98295000D02*
X102257000Y-96297000D01*
X106172000Y-65922000D02*
X107442000Y-67192000D01*
X106127000Y-98295000D02*
X104255000Y-98295000D01*
X102257000Y-68104588D02*
X104439588Y-65922000D01*
X102257000Y-96297000D02*
X102257000Y-68104588D01*
X104439588Y-65922000D02*
X106172000Y-65922000D01*
X135382000Y-69732000D02*
X134391400Y-70722600D01*
X134067000Y-97577412D02*
X134067000Y-96562588D01*
X134157000Y-77552000D02*
X134157000Y-79383412D01*
X134067000Y-96562588D02*
X133197600Y-95693188D01*
X134391400Y-70722600D02*
X134391400Y-77317600D01*
X133708206Y-97936206D02*
X134067000Y-97577412D01*
X133197600Y-95693188D02*
X133197600Y-83600400D01*
X134391400Y-77317600D02*
X134157000Y-77552000D01*
X133197600Y-83600400D02*
X135382000Y-81416000D01*
X135382000Y-80608412D02*
X135382000Y-81416000D01*
X135382000Y-99610000D02*
X133708206Y-97936206D01*
X134157000Y-79383412D02*
X135382000Y-80608412D01*
X111125000Y-96480588D02*
X111277400Y-96632988D01*
X111277400Y-96632988D02*
X111277400Y-98365400D01*
X111125000Y-82813000D02*
X111125000Y-96480588D01*
X112522000Y-81416000D02*
X111125000Y-82813000D01*
X111277400Y-98365400D02*
X112522000Y-99610000D01*
X130378200Y-83879800D02*
X132842000Y-81416000D01*
X131617000Y-70957000D02*
X131617000Y-80191000D01*
X132842000Y-69732000D02*
X131617000Y-70957000D01*
X131527000Y-98295000D02*
X131527000Y-96462107D01*
X132842000Y-99610000D02*
X131527000Y-98295000D01*
X130378200Y-95313307D02*
X130378200Y-83879800D01*
X131617000Y-80191000D02*
X132842000Y-81416000D01*
X131527000Y-96462107D02*
X130378200Y-95313307D01*
X134112000Y-70194412D02*
X134112000Y-68199000D01*
X134112000Y-68199000D02*
X133105000Y-67192000D01*
X133019800Y-78698200D02*
X133019800Y-71272400D01*
X133105000Y-67192000D02*
X132842000Y-67192000D01*
X132842000Y-97070000D02*
X131826000Y-96054000D01*
X131826000Y-96054000D02*
X131826000Y-84164412D01*
X134067000Y-80101000D02*
X132842000Y-78876000D01*
X132842000Y-78876000D02*
X133019800Y-78698200D01*
X134067000Y-81923412D02*
X134067000Y-80101000D01*
X133237212Y-71069200D02*
X134112000Y-70194412D01*
X131826000Y-84164412D02*
X134067000Y-81923412D01*
X133019800Y-71272400D02*
X133223000Y-71069200D01*
X133223000Y-71069200D02*
X133237212Y-71069200D01*
X143002000Y-80708894D02*
X143002000Y-81416000D01*
X141777000Y-82641000D02*
X143002000Y-81416000D01*
X143002000Y-99610000D02*
X141777000Y-98385000D01*
X142621000Y-77524588D02*
X141777000Y-78368588D01*
X141777000Y-78368588D02*
X141777000Y-79483894D01*
X141777000Y-98385000D02*
X141777000Y-82641000D01*
X141777000Y-79483894D02*
X143002000Y-80708894D01*
X143002000Y-69732000D02*
X142621000Y-70113000D01*
X142621000Y-70113000D02*
X142621000Y-77524588D01*
X113792000Y-79438894D02*
X115062000Y-80708894D01*
X114808000Y-69986000D02*
X114808000Y-77397588D01*
X115062000Y-81416000D02*
X112925000Y-83553000D01*
X112925000Y-83553000D02*
X112925000Y-93205000D01*
X114808000Y-77397588D02*
X113792000Y-78413588D01*
X115062000Y-80708894D02*
X115062000Y-81416000D01*
X113837000Y-94117000D02*
X113837000Y-98385000D01*
X113837000Y-98385000D02*
X115062000Y-99610000D01*
X115062000Y-69732000D02*
X114808000Y-69986000D01*
X113792000Y-78413588D02*
X113792000Y-79438894D01*
X112925000Y-93205000D02*
X113837000Y-94117000D01*
X150622000Y-69732000D02*
X151206200Y-70316200D01*
X149397000Y-79483894D02*
X150622000Y-80708894D01*
X150622000Y-99610000D02*
X151847000Y-98385000D01*
X150622000Y-95069190D02*
X150622000Y-81416000D01*
X151206200Y-70316200D02*
X151206200Y-76559388D01*
X150622000Y-80708894D02*
X150622000Y-81416000D01*
X151847000Y-98385000D02*
X151847000Y-96294190D01*
X151206200Y-76559388D02*
X149397000Y-78368588D01*
X151847000Y-96294190D02*
X150622000Y-95069190D01*
X149397000Y-78368588D02*
X149397000Y-79483894D01*
X144227000Y-81923412D02*
X143179800Y-82970612D01*
X143002000Y-78876000D02*
X144227000Y-80101000D01*
X144018000Y-77860000D02*
X143002000Y-78876000D01*
X143179800Y-82970612D02*
X143179800Y-96892200D01*
X144227000Y-80101000D02*
X144227000Y-81923412D01*
X144018000Y-70840600D02*
X144018000Y-77860000D01*
X143179800Y-96892200D02*
X143002000Y-97070000D01*
X144297400Y-70561200D02*
X144018000Y-70840600D01*
X144297400Y-68487400D02*
X144297400Y-70561200D01*
X143002000Y-67192000D02*
X144297400Y-68487400D01*
G04 #@! TA.AperFunction,Conductor*
G36*
X151786903Y-70620798D02*
G01*
X151793381Y-70626830D01*
X152369181Y-71202630D01*
X152402666Y-71263953D01*
X152405500Y-71290311D01*
X152405500Y-77714095D01*
X152385815Y-77781134D01*
X152333011Y-77826889D01*
X152324837Y-77830275D01*
X152319676Y-77832199D01*
X152319664Y-77832206D01*
X152204455Y-77918452D01*
X152204452Y-77918455D01*
X152118206Y-78033664D01*
X152118202Y-78033671D01*
X152067908Y-78168517D01*
X152061981Y-78223650D01*
X152061501Y-78228123D01*
X152061500Y-78228135D01*
X152061500Y-79523870D01*
X152061501Y-79523876D01*
X152067908Y-79583483D01*
X152118202Y-79718328D01*
X152118206Y-79718335D01*
X152204452Y-79833544D01*
X152204455Y-79833547D01*
X152319664Y-79919793D01*
X152319671Y-79919797D01*
X152454517Y-79970091D01*
X152454516Y-79970091D01*
X152461444Y-79970835D01*
X152514127Y-79976500D01*
X153680100Y-79976499D01*
X153747139Y-79996184D01*
X153767781Y-80012818D01*
X154121781Y-80366818D01*
X154155266Y-80428141D01*
X154158100Y-80454499D01*
X154158100Y-95491500D01*
X154138415Y-95558539D01*
X154121781Y-95579181D01*
X153767781Y-95933181D01*
X153706458Y-95966666D01*
X153680100Y-95969500D01*
X152514129Y-95969500D01*
X152514123Y-95969501D01*
X152454516Y-95975908D01*
X152319671Y-96026202D01*
X152319669Y-96026203D01*
X152285805Y-96051554D01*
X152220340Y-96075970D01*
X152152067Y-96061118D01*
X152123814Y-96039967D01*
X151033819Y-94949972D01*
X151000334Y-94888649D01*
X150997500Y-94862291D01*
X150997500Y-82535668D01*
X151017185Y-82468629D01*
X151069989Y-82422874D01*
X151076679Y-82420052D01*
X151114637Y-82405348D01*
X151288041Y-82297981D01*
X151438764Y-82160579D01*
X151561673Y-81997821D01*
X151652582Y-81815250D01*
X151708397Y-81619083D01*
X151727215Y-81416000D01*
X151708397Y-81212917D01*
X151652582Y-81016750D01*
X151649836Y-81011236D01*
X151588137Y-80887326D01*
X151561673Y-80834179D01*
X151471500Y-80714770D01*
X151438762Y-80671418D01*
X151288041Y-80534019D01*
X151288039Y-80534017D01*
X151114642Y-80426655D01*
X151114635Y-80426651D01*
X150924454Y-80352975D01*
X150805585Y-80330754D01*
X150743304Y-80299086D01*
X150740690Y-80296547D01*
X149808819Y-79364676D01*
X149775334Y-79303353D01*
X149772500Y-79276995D01*
X149772500Y-78575487D01*
X149792185Y-78508448D01*
X149808819Y-78487806D01*
X151506674Y-76789951D01*
X151509206Y-76785565D01*
X151509207Y-76785564D01*
X151556110Y-76704326D01*
X151581700Y-76608823D01*
X151581700Y-70714511D01*
X151601385Y-70647472D01*
X151654189Y-70601717D01*
X151723347Y-70591773D01*
X151786903Y-70620798D01*
G37*
G04 #@! TD.AperFunction*
G04 #@! TA.AperFunction,Conductor*
G36*
X116867703Y-79695810D02*
G01*
X116869993Y-79697845D01*
X116935959Y-79757981D01*
X116935961Y-79757982D01*
X116935962Y-79757983D01*
X116986901Y-79789523D01*
X117109363Y-79865348D01*
X117299544Y-79939024D01*
X117500024Y-79976500D01*
X117500026Y-79976500D01*
X117703974Y-79976500D01*
X117703976Y-79976500D01*
X117904456Y-79939024D01*
X117994556Y-79904118D01*
X118064174Y-79898256D01*
X118125914Y-79930965D01*
X118127027Y-79932064D01*
X118415181Y-80220218D01*
X118448666Y-80281541D01*
X118451500Y-80307899D01*
X118451500Y-84377435D01*
X118456591Y-84396433D01*
X118456592Y-84396437D01*
X118477090Y-84472939D01*
X118477091Y-84472940D01*
X118519721Y-84546777D01*
X118526526Y-84558563D01*
X118526528Y-84558566D01*
X118714181Y-84746218D01*
X118747666Y-84807541D01*
X118750500Y-84833899D01*
X118750500Y-85830662D01*
X118730815Y-85897701D01*
X118678011Y-85943456D01*
X118608853Y-85953400D01*
X118545297Y-85924375D01*
X118538819Y-85918344D01*
X118518176Y-85897701D01*
X118408877Y-85788402D01*
X118270978Y-85691844D01*
X118229638Y-85662897D01*
X118102135Y-85603442D01*
X118031330Y-85570425D01*
X118031326Y-85570424D01*
X118031322Y-85570422D01*
X117819977Y-85513793D01*
X117602002Y-85494723D01*
X117601998Y-85494723D01*
X117459966Y-85507149D01*
X117384023Y-85513793D01*
X117384020Y-85513793D01*
X117172677Y-85570422D01*
X117172668Y-85570426D01*
X116974361Y-85662898D01*
X116974357Y-85662900D01*
X116795121Y-85788402D01*
X116640402Y-85943121D01*
X116514900Y-86122357D01*
X116514898Y-86122361D01*
X116422426Y-86320668D01*
X116422422Y-86320677D01*
X116365793Y-86532020D01*
X116365793Y-86532024D01*
X116346723Y-86749997D01*
X116346723Y-86750002D01*
X116365793Y-86967975D01*
X116365793Y-86967979D01*
X116422422Y-87179322D01*
X116422424Y-87179326D01*
X116422425Y-87179330D01*
X116453500Y-87245970D01*
X116514897Y-87377638D01*
X116514898Y-87377639D01*
X116640402Y-87556877D01*
X116795123Y-87711598D01*
X116974361Y-87837102D01*
X117172670Y-87929575D01*
X117384023Y-87986207D01*
X117566926Y-88002208D01*
X117601998Y-88005277D01*
X117602000Y-88005277D01*
X117602002Y-88005277D01*
X117630254Y-88002805D01*
X117819977Y-87986207D01*
X118031330Y-87929575D01*
X118229639Y-87837102D01*
X118408877Y-87711598D01*
X118538819Y-87581656D01*
X118600142Y-87548171D01*
X118669834Y-87553155D01*
X118725767Y-87595027D01*
X118750184Y-87660491D01*
X118750500Y-87669337D01*
X118750500Y-90455500D01*
X118730815Y-90522539D01*
X118678011Y-90568294D01*
X118626500Y-90579500D01*
X116577323Y-90579500D01*
X116504264Y-90594032D01*
X116504260Y-90594033D01*
X116421399Y-90649399D01*
X116366033Y-90732260D01*
X116366032Y-90732264D01*
X116351500Y-90805321D01*
X116351500Y-91350653D01*
X116331815Y-91417692D01*
X116279011Y-91463447D01*
X116227812Y-91474653D01*
X115674812Y-91476043D01*
X115607723Y-91456527D01*
X115561835Y-91403838D01*
X115550500Y-91352043D01*
X115550500Y-90805323D01*
X115550499Y-90805321D01*
X115535967Y-90732264D01*
X115535966Y-90732260D01*
X115480601Y-90649399D01*
X115397740Y-90594034D01*
X115397739Y-90594033D01*
X115397735Y-90594032D01*
X115324677Y-90579500D01*
X115324674Y-90579500D01*
X113424500Y-90579500D01*
X113357461Y-90559815D01*
X113311706Y-90507011D01*
X113300500Y-90455500D01*
X113300500Y-87814922D01*
X113320185Y-87747883D01*
X113372989Y-87702128D01*
X113442147Y-87692184D01*
X113495619Y-87713346D01*
X113672361Y-87837102D01*
X113870670Y-87929575D01*
X114082023Y-87986207D01*
X114264926Y-88002208D01*
X114299998Y-88005277D01*
X114300000Y-88005277D01*
X114300002Y-88005277D01*
X114328254Y-88002805D01*
X114517977Y-87986207D01*
X114729330Y-87929575D01*
X114927639Y-87837102D01*
X115106877Y-87711598D01*
X115261598Y-87556877D01*
X115387102Y-87377639D01*
X115479575Y-87179330D01*
X115536207Y-86967977D01*
X115555277Y-86750000D01*
X115536207Y-86532023D01*
X115479575Y-86320670D01*
X115446557Y-86249863D01*
X115436065Y-86180785D01*
X115464585Y-86117001D01*
X115471245Y-86109790D01*
X116587474Y-84993563D01*
X116625630Y-84927475D01*
X116636910Y-84907938D01*
X116662500Y-84812435D01*
X116662500Y-79789523D01*
X116682185Y-79722484D01*
X116734989Y-79676729D01*
X116804147Y-79666785D01*
X116867703Y-79695810D01*
G37*
G04 #@! TD.AperFunction*
G04 #@! TA.AperFunction,Conductor*
G36*
X106032140Y-66317185D02*
G01*
X106052782Y-66333819D01*
X106382289Y-66663326D01*
X106415774Y-66724649D01*
X106411331Y-66786765D01*
X106412986Y-66787236D01*
X106355603Y-66988915D01*
X106355602Y-66988917D01*
X106336785Y-67191999D01*
X106336785Y-67192000D01*
X106355602Y-67395082D01*
X106411417Y-67591247D01*
X106411422Y-67591260D01*
X106502327Y-67773821D01*
X106625237Y-67936581D01*
X106775958Y-68073980D01*
X106775960Y-68073982D01*
X106826901Y-68105523D01*
X106949363Y-68181348D01*
X107139544Y-68255024D01*
X107340024Y-68292500D01*
X107340026Y-68292500D01*
X107543974Y-68292500D01*
X107543976Y-68292500D01*
X107744456Y-68255024D01*
X107934637Y-68181348D01*
X108102224Y-68077582D01*
X108169583Y-68059027D01*
X108236282Y-68079835D01*
X108281144Y-68133401D01*
X108291500Y-68183010D01*
X108291500Y-68300100D01*
X108271815Y-68367139D01*
X108255181Y-68387781D01*
X107967028Y-68675933D01*
X107905705Y-68709418D01*
X107836013Y-68704434D01*
X107834554Y-68703879D01*
X107744461Y-68668977D01*
X107710010Y-68662537D01*
X107543976Y-68631500D01*
X107340024Y-68631500D01*
X107139544Y-68668976D01*
X107139541Y-68668976D01*
X107139541Y-68668977D01*
X106949364Y-68742651D01*
X106949357Y-68742655D01*
X106775960Y-68850017D01*
X106775958Y-68850019D01*
X106625237Y-68987418D01*
X106502327Y-69150178D01*
X106411422Y-69332739D01*
X106411417Y-69332752D01*
X106355602Y-69528917D01*
X106336785Y-69731999D01*
X106336785Y-69732000D01*
X106355602Y-69935082D01*
X106390824Y-70058871D01*
X106411417Y-70131247D01*
X106412987Y-70136763D01*
X106411003Y-70137327D01*
X106416098Y-70197816D01*
X106383390Y-70259557D01*
X106382290Y-70260671D01*
X105941438Y-70701525D01*
X105871527Y-70771435D01*
X105822089Y-70857062D01*
X105822087Y-70857067D01*
X105819282Y-70867534D01*
X105819283Y-70867535D01*
X105800277Y-70938470D01*
X105800276Y-70938475D01*
X105796500Y-70952565D01*
X105796500Y-77921453D01*
X105776815Y-77988492D01*
X105724011Y-78034247D01*
X105654853Y-78044191D01*
X105591297Y-78015166D01*
X105588963Y-78013091D01*
X105568041Y-77994019D01*
X105568039Y-77994017D01*
X105394642Y-77886655D01*
X105394635Y-77886651D01*
X105266095Y-77836855D01*
X105204456Y-77812976D01*
X105003976Y-77775500D01*
X104800024Y-77775500D01*
X104599544Y-77812976D01*
X104599541Y-77812976D01*
X104599541Y-77812977D01*
X104409364Y-77886651D01*
X104409357Y-77886655D01*
X104235960Y-77994017D01*
X104235958Y-77994019D01*
X104085237Y-78131418D01*
X103962327Y-78294178D01*
X103871422Y-78476739D01*
X103871417Y-78476752D01*
X103815602Y-78672917D01*
X103796785Y-78875999D01*
X103796785Y-78876000D01*
X103815602Y-79079082D01*
X103871417Y-79275247D01*
X103871422Y-79275260D01*
X103962327Y-79457821D01*
X104085237Y-79620581D01*
X104235958Y-79757980D01*
X104235960Y-79757982D01*
X104286901Y-79789523D01*
X104409363Y-79865348D01*
X104599544Y-79939024D01*
X104800024Y-79976500D01*
X104800026Y-79976500D01*
X105003974Y-79976500D01*
X105003976Y-79976500D01*
X105204456Y-79939024D01*
X105294556Y-79904118D01*
X105364174Y-79898256D01*
X105425914Y-79930965D01*
X105427027Y-79932064D01*
X105805181Y-80310218D01*
X105838666Y-80371541D01*
X105841500Y-80397899D01*
X105841500Y-85444253D01*
X105821815Y-85511292D01*
X105786390Y-85547355D01*
X105753400Y-85569397D01*
X105698033Y-85652260D01*
X105698032Y-85652264D01*
X105683500Y-85725321D01*
X105683500Y-87774678D01*
X105698032Y-87847735D01*
X105698033Y-87847739D01*
X105698034Y-87847740D01*
X105753399Y-87930601D01*
X105836259Y-87985965D01*
X105836260Y-87985966D01*
X105836264Y-87985967D01*
X105909321Y-88000499D01*
X105909324Y-88000500D01*
X105909326Y-88000500D01*
X107958676Y-88000500D01*
X107958677Y-88000499D01*
X108031740Y-87985966D01*
X108075411Y-87956786D01*
X108142086Y-87935909D01*
X108209466Y-87954393D01*
X108256157Y-88006372D01*
X108268300Y-88059889D01*
X108268300Y-91173152D01*
X108248615Y-91240191D01*
X108195811Y-91285946D01*
X108126653Y-91295890D01*
X108063097Y-91266865D01*
X108031919Y-91225559D01*
X108021102Y-91202362D01*
X108021099Y-91202357D01*
X107895599Y-91023124D01*
X107895596Y-91023121D01*
X107740877Y-90868402D01*
X107602978Y-90771844D01*
X107561638Y-90742897D01*
X107462484Y-90696661D01*
X107363330Y-90650425D01*
X107363326Y-90650424D01*
X107363322Y-90650422D01*
X107151977Y-90593793D01*
X106934002Y-90574723D01*
X106933998Y-90574723D01*
X106788682Y-90587436D01*
X106716023Y-90593793D01*
X106716020Y-90593793D01*
X106504677Y-90650422D01*
X106504668Y-90650426D01*
X106306361Y-90742898D01*
X106306357Y-90742900D01*
X106127121Y-90868402D01*
X105972402Y-91023121D01*
X105846900Y-91202357D01*
X105846898Y-91202361D01*
X105762709Y-91382905D01*
X105716536Y-91435344D01*
X105650327Y-91454500D01*
X104915673Y-91454500D01*
X104848634Y-91434815D01*
X104803291Y-91382905D01*
X104788900Y-91352043D01*
X104719102Y-91202362D01*
X104719099Y-91202358D01*
X104719099Y-91202357D01*
X104593599Y-91023124D01*
X104593596Y-91023121D01*
X104438877Y-90868402D01*
X104300978Y-90771844D01*
X104259638Y-90742897D01*
X104160484Y-90696661D01*
X104061330Y-90650425D01*
X104061326Y-90650424D01*
X104061322Y-90650422D01*
X103849977Y-90593793D01*
X103632002Y-90574723D01*
X103631998Y-90574723D01*
X103486682Y-90587436D01*
X103414023Y-90593793D01*
X103414020Y-90593793D01*
X103202677Y-90650422D01*
X103202668Y-90650426D01*
X103004361Y-90742898D01*
X103004357Y-90742900D01*
X102827623Y-90866651D01*
X102761417Y-90888978D01*
X102693650Y-90871968D01*
X102645837Y-90821020D01*
X102632500Y-90765076D01*
X102632500Y-88124500D01*
X102652185Y-88057461D01*
X102704989Y-88011706D01*
X102756500Y-88000500D01*
X104656676Y-88000500D01*
X104656677Y-88000499D01*
X104729740Y-87985966D01*
X104812601Y-87930601D01*
X104867966Y-87847740D01*
X104882500Y-87774674D01*
X104882500Y-85725326D01*
X104882500Y-85725323D01*
X104882499Y-85725321D01*
X104867967Y-85652264D01*
X104867966Y-85652260D01*
X104859865Y-85640136D01*
X104812601Y-85569399D01*
X104729740Y-85514034D01*
X104729739Y-85514033D01*
X104729735Y-85514032D01*
X104656677Y-85499500D01*
X104656674Y-85499500D01*
X103369500Y-85499500D01*
X103302461Y-85479815D01*
X103256706Y-85427011D01*
X103245500Y-85375500D01*
X103245500Y-69430898D01*
X103265185Y-69363859D01*
X103281814Y-69343221D01*
X104376972Y-68248063D01*
X104438293Y-68214580D01*
X104507985Y-68219564D01*
X104509444Y-68220119D01*
X104599544Y-68255024D01*
X104800024Y-68292500D01*
X104800026Y-68292500D01*
X105003974Y-68292500D01*
X105003976Y-68292500D01*
X105204456Y-68255024D01*
X105394637Y-68181348D01*
X105568041Y-68073981D01*
X105718764Y-67936579D01*
X105841673Y-67773821D01*
X105932582Y-67591250D01*
X105988397Y-67395083D01*
X106007215Y-67192000D01*
X105988397Y-66988917D01*
X105932582Y-66792750D01*
X105929836Y-66787236D01*
X105888272Y-66703764D01*
X105841673Y-66610179D01*
X105755619Y-66496225D01*
X105730928Y-66430866D01*
X105745493Y-66362531D01*
X105794690Y-66312919D01*
X105854574Y-66297500D01*
X105965101Y-66297500D01*
X106032140Y-66317185D01*
G37*
G04 #@! TD.AperFunction*
G04 #@! TA.AperFunction,Conductor*
G36*
X116997626Y-66063185D02*
G01*
X117043381Y-66115989D01*
X117053325Y-66185147D01*
X117024300Y-66248703D01*
X116995864Y-66272927D01*
X116935960Y-66310017D01*
X116935958Y-66310019D01*
X116785237Y-66447418D01*
X116662327Y-66610178D01*
X116571422Y-66792739D01*
X116571417Y-66792752D01*
X116515602Y-66988917D01*
X116496785Y-67191999D01*
X116496785Y-67192000D01*
X116515602Y-67395082D01*
X116571417Y-67591247D01*
X116571422Y-67591260D01*
X116662327Y-67773821D01*
X116785237Y-67936581D01*
X116935958Y-68073980D01*
X116935960Y-68073982D01*
X116986901Y-68105523D01*
X117109363Y-68181348D01*
X117299544Y-68255024D01*
X117500024Y-68292500D01*
X117500026Y-68292500D01*
X117703974Y-68292500D01*
X117703976Y-68292500D01*
X117904456Y-68255024D01*
X117994556Y-68220118D01*
X118064174Y-68214256D01*
X118125914Y-68246965D01*
X118127027Y-68248064D01*
X118415181Y-68536218D01*
X118448666Y-68597541D01*
X118451500Y-68623899D01*
X118451500Y-77444100D01*
X118431815Y-77511139D01*
X118415181Y-77531781D01*
X118127028Y-77819933D01*
X118065705Y-77853418D01*
X117996013Y-77848434D01*
X117994554Y-77847879D01*
X117904461Y-77812977D01*
X117904456Y-77812976D01*
X117703976Y-77775500D01*
X117500024Y-77775500D01*
X117299544Y-77812976D01*
X117299541Y-77812976D01*
X117299541Y-77812977D01*
X117109364Y-77886651D01*
X117109357Y-77886655D01*
X116935960Y-77994017D01*
X116935957Y-77994019D01*
X116870038Y-78054113D01*
X116807234Y-78084730D01*
X116737847Y-78076532D01*
X116683907Y-78032122D01*
X116662539Y-77965600D01*
X116662500Y-77962476D01*
X116662500Y-68367562D01*
X116661027Y-68362065D01*
X116661027Y-68362066D01*
X116652118Y-68328818D01*
X116636911Y-68272063D01*
X116587475Y-68186438D01*
X116121708Y-67720671D01*
X116088224Y-67659349D01*
X116092666Y-67597234D01*
X116091013Y-67596764D01*
X116131409Y-67454789D01*
X116148397Y-67395083D01*
X116167215Y-67192000D01*
X116148397Y-66988917D01*
X116092582Y-66792750D01*
X116089836Y-66787236D01*
X116048272Y-66703764D01*
X116001673Y-66610179D01*
X115878764Y-66447421D01*
X115878762Y-66447418D01*
X115728041Y-66310019D01*
X115728039Y-66310017D01*
X115668136Y-66272927D01*
X115621500Y-66220899D01*
X115610396Y-66151917D01*
X115638349Y-66087883D01*
X115696484Y-66049127D01*
X115733413Y-66043500D01*
X116930587Y-66043500D01*
X116997626Y-66063185D01*
G37*
G04 #@! TD.AperFunction*
G04 #@! TA.AperFunction,Conductor*
G36*
X151498140Y-66063185D02*
G01*
X151518782Y-66079819D01*
X152025181Y-66586218D01*
X152058666Y-66647541D01*
X152061500Y-66673899D01*
X152061500Y-67710100D01*
X152041815Y-67777139D01*
X152025181Y-67797781D01*
X151706438Y-68116525D01*
X151636526Y-68186436D01*
X151587091Y-68272059D01*
X151587088Y-68272066D01*
X151583330Y-68286090D01*
X151583331Y-68286091D01*
X151564992Y-68354537D01*
X151562978Y-68362052D01*
X151562974Y-68362065D01*
X151561501Y-68367559D01*
X151561500Y-68367568D01*
X151561500Y-68818476D01*
X151541815Y-68885515D01*
X151489011Y-68931270D01*
X151419853Y-68941214D01*
X151356297Y-68912189D01*
X151353962Y-68910113D01*
X151288042Y-68850019D01*
X151288039Y-68850017D01*
X151114642Y-68742655D01*
X151114635Y-68742651D01*
X151014552Y-68703879D01*
X150924456Y-68668976D01*
X150723976Y-68631500D01*
X150520024Y-68631500D01*
X150319544Y-68668976D01*
X150319541Y-68668976D01*
X150319541Y-68668977D01*
X150129364Y-68742651D01*
X150129357Y-68742655D01*
X149961777Y-68846416D01*
X149894417Y-68864971D01*
X149827717Y-68844163D01*
X149782856Y-68790598D01*
X149772500Y-68740989D01*
X149772500Y-68457567D01*
X149772500Y-68457565D01*
X149746910Y-68362062D01*
X149746908Y-68362059D01*
X149746908Y-68362057D01*
X149720930Y-68317063D01*
X149720928Y-68317061D01*
X149720928Y-68317060D01*
X149697475Y-68276437D01*
X149141708Y-67720671D01*
X149108224Y-67659349D01*
X149112666Y-67597234D01*
X149111013Y-67596764D01*
X149151409Y-67454789D01*
X149168397Y-67395083D01*
X149187215Y-67192000D01*
X149168397Y-66988917D01*
X149112582Y-66792750D01*
X149109836Y-66787236D01*
X149068272Y-66703764D01*
X149021673Y-66610179D01*
X148898764Y-66447421D01*
X148898762Y-66447418D01*
X148748041Y-66310019D01*
X148748039Y-66310017D01*
X148688136Y-66272927D01*
X148641500Y-66220899D01*
X148630396Y-66151917D01*
X148658349Y-66087883D01*
X148716484Y-66049127D01*
X148753413Y-66043500D01*
X151431101Y-66043500D01*
X151498140Y-66063185D01*
G37*
G04 #@! TD.AperFunction*
G04 #@! TA.AperFunction,Conductor*
G36*
X159963039Y-62249685D02*
G01*
X160008794Y-62302489D01*
X160020000Y-62354000D01*
X160020000Y-104016263D01*
X160000315Y-104083302D01*
X159947511Y-104129057D01*
X159896265Y-104140263D01*
X96390265Y-104275734D01*
X96323183Y-104256192D01*
X96277316Y-104203486D01*
X96266000Y-104151734D01*
X96266000Y-68055153D01*
X101881500Y-68055153D01*
X101881500Y-96247564D01*
X101881500Y-96346436D01*
X101886458Y-96364938D01*
X101907090Y-96441938D01*
X101956525Y-96527562D01*
X101956526Y-96527563D01*
X104024437Y-98595475D01*
X104024438Y-98595476D01*
X104024440Y-98595477D01*
X104059232Y-98615564D01*
X104110063Y-98644911D01*
X104205564Y-98670500D01*
X104205565Y-98670500D01*
X105920101Y-98670500D01*
X105987140Y-98690185D01*
X106007782Y-98706819D01*
X106382289Y-99081326D01*
X106415774Y-99142649D01*
X106411331Y-99204765D01*
X106412986Y-99205236D01*
X106355603Y-99406915D01*
X106355602Y-99406917D01*
X106336785Y-99609999D01*
X106336785Y-99610000D01*
X106355602Y-99813082D01*
X106411417Y-100009247D01*
X106411422Y-100009260D01*
X106502327Y-100191821D01*
X106625237Y-100354581D01*
X106775958Y-100491980D01*
X106775960Y-100491982D01*
X106875141Y-100553392D01*
X106949363Y-100599348D01*
X107139544Y-100673024D01*
X107340024Y-100710500D01*
X107340026Y-100710500D01*
X107543974Y-100710500D01*
X107543976Y-100710500D01*
X107744456Y-100673024D01*
X107934637Y-100599348D01*
X108108041Y-100491981D01*
X108258764Y-100354579D01*
X108381673Y-100191821D01*
X108472582Y-100009250D01*
X108528397Y-99813083D01*
X108547215Y-99610000D01*
X108528397Y-99406917D01*
X108472582Y-99210750D01*
X108469836Y-99205236D01*
X108408137Y-99081326D01*
X108381673Y-99028179D01*
X108258764Y-98865421D01*
X108258762Y-98865418D01*
X108108041Y-98728019D01*
X108108039Y-98728017D01*
X107934642Y-98620655D01*
X107934635Y-98620651D01*
X107805331Y-98570559D01*
X107744456Y-98546976D01*
X107543976Y-98509500D01*
X107340024Y-98509500D01*
X107254099Y-98525562D01*
X107139536Y-98546977D01*
X107049443Y-98581879D01*
X106979820Y-98587740D01*
X106918080Y-98555030D01*
X106916970Y-98553933D01*
X106357563Y-97994526D01*
X106357562Y-97994525D01*
X106278213Y-97948713D01*
X106271940Y-97945091D01*
X106271939Y-97945090D01*
X106205627Y-97927322D01*
X106176436Y-97919500D01*
X106176435Y-97919500D01*
X106176434Y-97919500D01*
X105888557Y-97919500D01*
X105821518Y-97899815D01*
X105775763Y-97847011D01*
X105765819Y-97777853D01*
X105789603Y-97720773D01*
X105796501Y-97711639D01*
X105841673Y-97651821D01*
X105932582Y-97469250D01*
X105988397Y-97273083D01*
X106007215Y-97070000D01*
X105988397Y-96866917D01*
X105932582Y-96670750D01*
X105929836Y-96665236D01*
X105874716Y-96554538D01*
X105841673Y-96488179D01*
X105760182Y-96380267D01*
X105718762Y-96325418D01*
X105568041Y-96188019D01*
X105568039Y-96188017D01*
X105394640Y-96080653D01*
X105394628Y-96080647D01*
X105356705Y-96065956D01*
X105301304Y-96023383D01*
X105277714Y-95957616D01*
X105277500Y-95950330D01*
X105277500Y-93050566D01*
X105272538Y-93032049D01*
X105269169Y-93019475D01*
X105264705Y-93002813D01*
X105251910Y-92955062D01*
X105202475Y-92869438D01*
X105132562Y-92799525D01*
X104803258Y-92470221D01*
X104769773Y-92408898D01*
X104774757Y-92339206D01*
X104778558Y-92330134D01*
X104803292Y-92277094D01*
X104849465Y-92224655D01*
X104915673Y-92205500D01*
X105650327Y-92205500D01*
X105717366Y-92225185D01*
X105762709Y-92277095D01*
X105846897Y-92457638D01*
X105846898Y-92457639D01*
X105972402Y-92636877D01*
X106127123Y-92791598D01*
X106306361Y-92917102D01*
X106504670Y-93009575D01*
X106716023Y-93066207D01*
X106898926Y-93082208D01*
X106933998Y-93085277D01*
X106934000Y-93085277D01*
X106934002Y-93085277D01*
X106962254Y-93082805D01*
X107151977Y-93066207D01*
X107236880Y-93043457D01*
X107306729Y-93045120D01*
X107364592Y-93084282D01*
X107392096Y-93148511D01*
X107380510Y-93217413D01*
X107356654Y-93250913D01*
X106361438Y-94246130D01*
X106291526Y-94316041D01*
X106242091Y-94401664D01*
X106242091Y-94401665D01*
X106242090Y-94401667D01*
X106216500Y-94497170D01*
X106216500Y-96170564D01*
X106216500Y-96269436D01*
X106222565Y-96292069D01*
X106237133Y-96346436D01*
X106242090Y-96364937D01*
X106242091Y-96364940D01*
X106286546Y-96441938D01*
X106291523Y-96450559D01*
X106291528Y-96450565D01*
X106382289Y-96541326D01*
X106415774Y-96602649D01*
X106411331Y-96664765D01*
X106412986Y-96665236D01*
X106355603Y-96866915D01*
X106355602Y-96866917D01*
X106336785Y-97069999D01*
X106336785Y-97070000D01*
X106355602Y-97273082D01*
X106411417Y-97469247D01*
X106411422Y-97469260D01*
X106502327Y-97651821D01*
X106625237Y-97814581D01*
X106775958Y-97951980D01*
X106775960Y-97951982D01*
X106850712Y-97998266D01*
X106949363Y-98059348D01*
X107139544Y-98133024D01*
X107340024Y-98170500D01*
X107340026Y-98170500D01*
X107543974Y-98170500D01*
X107543976Y-98170500D01*
X107744456Y-98133024D01*
X107934637Y-98059348D01*
X108108041Y-97951981D01*
X108128961Y-97932910D01*
X108191765Y-97902292D01*
X108261152Y-97910489D01*
X108315093Y-97954899D01*
X108336461Y-98021421D01*
X108336500Y-98024546D01*
X108336500Y-98389435D01*
X108350033Y-98439939D01*
X108362091Y-98484942D01*
X108362092Y-98484943D01*
X108378666Y-98513649D01*
X108388071Y-98529938D01*
X108411525Y-98570562D01*
X108411527Y-98570564D01*
X108922289Y-99081326D01*
X108955774Y-99142649D01*
X108951331Y-99204765D01*
X108952986Y-99205236D01*
X108895603Y-99406915D01*
X108895602Y-99406917D01*
X108876785Y-99609999D01*
X108876785Y-99610000D01*
X108895602Y-99813082D01*
X108951417Y-100009247D01*
X108951422Y-100009260D01*
X109042327Y-100191821D01*
X109165237Y-100354581D01*
X109315958Y-100491980D01*
X109315960Y-100491982D01*
X109415141Y-100553392D01*
X109489363Y-100599348D01*
X109679544Y-100673024D01*
X109880024Y-100710500D01*
X109880026Y-100710500D01*
X110083974Y-100710500D01*
X110083976Y-100710500D01*
X110284456Y-100673024D01*
X110474637Y-100599348D01*
X110648041Y-100491981D01*
X110798764Y-100354579D01*
X110921673Y-100191821D01*
X111012582Y-100009250D01*
X111068397Y-99813083D01*
X111087215Y-99610000D01*
X111068397Y-99406917D01*
X111012582Y-99210750D01*
X111009836Y-99205236D01*
X110948137Y-99081326D01*
X110921673Y-99028179D01*
X110798764Y-98865421D01*
X110798762Y-98865418D01*
X110648041Y-98728019D01*
X110648039Y-98728017D01*
X110474642Y-98620655D01*
X110474635Y-98620651D01*
X110345331Y-98570559D01*
X110284456Y-98546976D01*
X110083976Y-98509500D01*
X109880024Y-98509500D01*
X109794099Y-98525562D01*
X109679536Y-98546977D01*
X109589443Y-98581879D01*
X109519820Y-98587740D01*
X109458080Y-98555030D01*
X109456970Y-98553933D01*
X109123819Y-98220782D01*
X109090334Y-98159459D01*
X109087500Y-98133101D01*
X109087500Y-98024546D01*
X109107185Y-97957507D01*
X109159989Y-97911752D01*
X109229147Y-97901808D01*
X109292703Y-97930833D01*
X109295039Y-97932910D01*
X109315957Y-97951980D01*
X109315960Y-97951982D01*
X109390712Y-97998266D01*
X109489363Y-98059348D01*
X109679544Y-98133024D01*
X109880024Y-98170500D01*
X109880026Y-98170500D01*
X110083974Y-98170500D01*
X110083976Y-98170500D01*
X110284456Y-98133024D01*
X110474637Y-98059348D01*
X110648041Y-97951981D01*
X110694362Y-97909754D01*
X110757166Y-97879137D01*
X110826553Y-97887334D01*
X110880493Y-97931744D01*
X110901861Y-97998266D01*
X110901900Y-98001391D01*
X110901900Y-98414835D01*
X110927490Y-98510338D01*
X110927491Y-98510341D01*
X110962260Y-98570562D01*
X110976927Y-98595965D01*
X111462289Y-99081326D01*
X111495774Y-99142649D01*
X111491331Y-99204765D01*
X111492986Y-99205236D01*
X111435603Y-99406915D01*
X111435602Y-99406917D01*
X111416785Y-99609999D01*
X111416785Y-99610000D01*
X111435602Y-99813082D01*
X111491417Y-100009247D01*
X111491422Y-100009260D01*
X111582327Y-100191821D01*
X111705237Y-100354581D01*
X111855958Y-100491980D01*
X111855960Y-100491982D01*
X111955141Y-100553392D01*
X112029363Y-100599348D01*
X112219544Y-100673024D01*
X112420024Y-100710500D01*
X112420026Y-100710500D01*
X112623974Y-100710500D01*
X112623976Y-100710500D01*
X112824456Y-100673024D01*
X113014637Y-100599348D01*
X113188041Y-100491981D01*
X113338764Y-100354579D01*
X113461673Y-100191821D01*
X113552582Y-100009250D01*
X113608397Y-99813083D01*
X113627215Y-99610000D01*
X113608397Y-99406917D01*
X113552582Y-99210750D01*
X113549836Y-99205236D01*
X113488137Y-99081326D01*
X113461673Y-99028179D01*
X113338764Y-98865421D01*
X113338762Y-98865418D01*
X113188041Y-98728019D01*
X113188039Y-98728017D01*
X113014642Y-98620655D01*
X113014635Y-98620651D01*
X112885331Y-98570559D01*
X112824456Y-98546976D01*
X112623976Y-98509500D01*
X112420024Y-98509500D01*
X112334099Y-98525562D01*
X112219536Y-98546977D01*
X112129443Y-98581879D01*
X112059820Y-98587740D01*
X111998080Y-98555030D01*
X111996970Y-98553933D01*
X111689219Y-98246182D01*
X111655734Y-98184859D01*
X111652900Y-98158501D01*
X111652900Y-98047663D01*
X111672585Y-97980624D01*
X111725389Y-97934869D01*
X111794547Y-97924925D01*
X111851632Y-97948713D01*
X111855962Y-97951983D01*
X111873051Y-97962564D01*
X112029363Y-98059348D01*
X112219544Y-98133024D01*
X112420024Y-98170500D01*
X112420026Y-98170500D01*
X112623974Y-98170500D01*
X112623976Y-98170500D01*
X112824456Y-98133024D01*
X113014637Y-98059348D01*
X113188041Y-97951981D01*
X113253963Y-97891884D01*
X113316765Y-97861269D01*
X113386153Y-97869466D01*
X113440093Y-97913876D01*
X113461461Y-97980398D01*
X113461500Y-97983523D01*
X113461500Y-98335564D01*
X113461500Y-98434436D01*
X113462975Y-98439939D01*
X113466341Y-98452501D01*
X113466341Y-98452502D01*
X113487091Y-98529942D01*
X113487092Y-98529943D01*
X113510544Y-98570562D01*
X113510545Y-98570563D01*
X113536526Y-98615563D01*
X113536527Y-98615564D01*
X113536528Y-98615565D01*
X114002289Y-99081326D01*
X114035774Y-99142649D01*
X114031331Y-99204765D01*
X114032986Y-99205236D01*
X113975603Y-99406915D01*
X113975602Y-99406917D01*
X113956785Y-99609999D01*
X113956785Y-99610000D01*
X113975602Y-99813082D01*
X114031417Y-100009247D01*
X114031422Y-100009260D01*
X114122327Y-100191821D01*
X114245237Y-100354581D01*
X114395958Y-100491980D01*
X114395960Y-100491982D01*
X114495141Y-100553392D01*
X114569363Y-100599348D01*
X114759544Y-100673024D01*
X114960024Y-100710500D01*
X114960026Y-100710500D01*
X115163974Y-100710500D01*
X115163976Y-100710500D01*
X115364456Y-100673024D01*
X115554637Y-100599348D01*
X115728041Y-100491981D01*
X115878764Y-100354579D01*
X116001673Y-100191821D01*
X116092582Y-100009250D01*
X116148397Y-99813083D01*
X116167215Y-99610000D01*
X116148397Y-99406917D01*
X116092582Y-99210750D01*
X116089836Y-99205236D01*
X116028137Y-99081326D01*
X116001673Y-99028179D01*
X115878764Y-98865421D01*
X115878762Y-98865418D01*
X115728041Y-98728019D01*
X115728039Y-98728017D01*
X115554642Y-98620655D01*
X115554635Y-98620651D01*
X115425331Y-98570559D01*
X115364456Y-98546976D01*
X115163976Y-98509500D01*
X114960024Y-98509500D01*
X114874099Y-98525562D01*
X114759536Y-98546977D01*
X114669443Y-98581879D01*
X114599820Y-98587740D01*
X114538080Y-98555030D01*
X114536970Y-98553933D01*
X114248819Y-98265782D01*
X114215334Y-98204459D01*
X114212500Y-98178101D01*
X114212500Y-98061010D01*
X114232185Y-97993971D01*
X114284989Y-97948216D01*
X114354147Y-97938272D01*
X114401774Y-97955581D01*
X114569363Y-98059348D01*
X114759544Y-98133024D01*
X114960024Y-98170500D01*
X114960026Y-98170500D01*
X115163974Y-98170500D01*
X115163976Y-98170500D01*
X115364456Y-98133024D01*
X115554637Y-98059348D01*
X115728041Y-97951981D01*
X115878764Y-97814579D01*
X116001673Y-97651821D01*
X116092582Y-97469250D01*
X116148397Y-97273083D01*
X116167215Y-97070000D01*
X116148397Y-96866917D01*
X116092582Y-96670750D01*
X116089836Y-96665236D01*
X116034716Y-96554538D01*
X116001673Y-96488179D01*
X115920182Y-96380267D01*
X115878762Y-96325418D01*
X115728042Y-96188020D01*
X115728041Y-96188019D01*
X115674019Y-96154570D01*
X115623222Y-96123117D01*
X115576587Y-96071088D01*
X115564500Y-96017690D01*
X115564500Y-92669565D01*
X115556917Y-92641266D01*
X115556917Y-92641260D01*
X115556916Y-92641261D01*
X115554724Y-92633079D01*
X115550500Y-92600990D01*
X115550500Y-92301047D01*
X115570185Y-92234008D01*
X115622989Y-92188253D01*
X115674187Y-92177047D01*
X116227189Y-92175657D01*
X116294277Y-92195173D01*
X116340165Y-92247862D01*
X116351500Y-92299657D01*
X116351500Y-92854678D01*
X116366032Y-92927735D01*
X116366033Y-92927739D01*
X116366034Y-92927740D01*
X116421399Y-93010601D01*
X116481212Y-93050566D01*
X116504260Y-93065966D01*
X116504264Y-93065967D01*
X116577321Y-93080499D01*
X116577324Y-93080500D01*
X118626500Y-93080500D01*
X118693539Y-93100185D01*
X118739294Y-93152989D01*
X118750500Y-93204500D01*
X118750500Y-95339100D01*
X118730815Y-95406139D01*
X118714181Y-95426781D01*
X118127028Y-96013933D01*
X118065705Y-96047418D01*
X117996013Y-96042434D01*
X117994554Y-96041879D01*
X117904461Y-96006977D01*
X117904456Y-96006976D01*
X117703976Y-95969500D01*
X117500024Y-95969500D01*
X117299544Y-96006976D01*
X117299541Y-96006976D01*
X117299541Y-96006977D01*
X117109364Y-96080651D01*
X117109357Y-96080655D01*
X116935960Y-96188017D01*
X116935958Y-96188019D01*
X116785237Y-96325418D01*
X116662327Y-96488178D01*
X116571422Y-96670739D01*
X116571417Y-96670752D01*
X116515602Y-96866917D01*
X116496785Y-97069999D01*
X116496785Y-97070000D01*
X116515602Y-97273082D01*
X116571417Y-97469247D01*
X116571422Y-97469260D01*
X116662327Y-97651821D01*
X116785237Y-97814581D01*
X116935958Y-97951980D01*
X116935960Y-97951982D01*
X117010712Y-97998266D01*
X117109363Y-98059348D01*
X117299544Y-98133024D01*
X117500024Y-98170500D01*
X117500026Y-98170500D01*
X117703974Y-98170500D01*
X117703976Y-98170500D01*
X117904456Y-98133024D01*
X118094637Y-98059348D01*
X118268041Y-97951981D01*
X118333963Y-97891884D01*
X118396765Y-97861269D01*
X118466153Y-97869466D01*
X118520093Y-97913876D01*
X118541461Y-97980398D01*
X118541500Y-97983523D01*
X118541500Y-98335564D01*
X118541500Y-98434436D01*
X118542975Y-98439939D01*
X118546341Y-98452501D01*
X118546341Y-98452502D01*
X118567091Y-98529942D01*
X118567092Y-98529943D01*
X118590544Y-98570562D01*
X118590545Y-98570563D01*
X118616526Y-98615563D01*
X118616527Y-98615564D01*
X118616528Y-98615565D01*
X119082289Y-99081326D01*
X119115774Y-99142649D01*
X119111331Y-99204765D01*
X119112986Y-99205236D01*
X119055603Y-99406915D01*
X119055602Y-99406917D01*
X119036785Y-99609999D01*
X119036785Y-99610000D01*
X119055602Y-99813082D01*
X119111417Y-100009247D01*
X119111422Y-100009260D01*
X119202327Y-100191821D01*
X119325237Y-100354581D01*
X119475958Y-100491980D01*
X119475960Y-100491982D01*
X119575141Y-100553392D01*
X119649363Y-100599348D01*
X119839544Y-100673024D01*
X120040024Y-100710500D01*
X120040026Y-100710500D01*
X120243974Y-100710500D01*
X120243976Y-100710500D01*
X120444456Y-100673024D01*
X120634637Y-100599348D01*
X120808041Y-100491981D01*
X120958764Y-100354579D01*
X121081673Y-100191821D01*
X121172582Y-100009250D01*
X121228397Y-99813083D01*
X121247215Y-99610000D01*
X121228397Y-99406917D01*
X121172582Y-99210750D01*
X121169836Y-99205236D01*
X121108137Y-99081326D01*
X121081673Y-99028179D01*
X120958764Y-98865421D01*
X120958762Y-98865418D01*
X120808041Y-98728019D01*
X120808039Y-98728017D01*
X120634642Y-98620655D01*
X120634635Y-98620651D01*
X120505331Y-98570559D01*
X120444456Y-98546976D01*
X120243976Y-98509500D01*
X120040024Y-98509500D01*
X119954099Y-98525562D01*
X119839536Y-98546977D01*
X119749443Y-98581879D01*
X119679820Y-98587740D01*
X119618080Y-98555030D01*
X119616970Y-98553933D01*
X119328819Y-98265782D01*
X119295334Y-98204459D01*
X119292500Y-98178101D01*
X119292500Y-98061010D01*
X119312185Y-97993971D01*
X119364989Y-97948216D01*
X119434147Y-97938272D01*
X119481774Y-97955581D01*
X119649363Y-98059348D01*
X119839544Y-98133024D01*
X120040024Y-98170500D01*
X120040026Y-98170500D01*
X120243974Y-98170500D01*
X120243976Y-98170500D01*
X120444456Y-98133024D01*
X120634637Y-98059348D01*
X120808041Y-97951981D01*
X120958764Y-97814579D01*
X121081673Y-97651821D01*
X121172582Y-97469250D01*
X121228397Y-97273083D01*
X121247215Y-97070000D01*
X121228397Y-96866917D01*
X121172582Y-96670750D01*
X121172580Y-96670746D01*
X121171013Y-96665237D01*
X121172994Y-96664673D01*
X121167902Y-96604174D01*
X121200614Y-96542435D01*
X121201621Y-96541414D01*
X122195075Y-95547963D01*
X122244511Y-95462337D01*
X122270100Y-95366836D01*
X122270100Y-95267964D01*
X122270100Y-82311577D01*
X122266706Y-82298912D01*
X122254794Y-82254456D01*
X122245246Y-82218824D01*
X122244509Y-82216070D01*
X122217235Y-82168832D01*
X122217233Y-82168830D01*
X122212471Y-82160581D01*
X122195075Y-82130449D01*
X122195073Y-82130447D01*
X122195072Y-82130445D01*
X121868819Y-81804192D01*
X121835334Y-81742869D01*
X121832500Y-81716511D01*
X121832500Y-81115487D01*
X121852185Y-81048448D01*
X121868819Y-81027806D01*
X121947976Y-80948649D01*
X122116268Y-80780357D01*
X122165704Y-80694731D01*
X122191294Y-80599230D01*
X122191294Y-80500358D01*
X122165704Y-80404857D01*
X122133463Y-80349013D01*
X122116270Y-80319234D01*
X122116266Y-80319229D01*
X121201709Y-79404672D01*
X121168224Y-79343349D01*
X121172666Y-79281234D01*
X121171013Y-79280764D01*
X121175728Y-79264194D01*
X121228397Y-79079083D01*
X121247215Y-78876000D01*
X121228397Y-78672917D01*
X121172582Y-78476750D01*
X121172581Y-78476748D01*
X121171013Y-78471237D01*
X121172994Y-78470673D01*
X121167902Y-78410174D01*
X121200614Y-78348435D01*
X121201621Y-78347414D01*
X121667475Y-77881562D01*
X121716911Y-77795937D01*
X121742500Y-77700436D01*
X121742500Y-77601564D01*
X121742500Y-68367565D01*
X121742500Y-68367562D01*
X121741027Y-68362065D01*
X121741027Y-68362066D01*
X121732118Y-68328818D01*
X121716911Y-68272063D01*
X121667475Y-68186438D01*
X121201708Y-67720671D01*
X121168224Y-67659349D01*
X121172666Y-67597234D01*
X121171013Y-67596764D01*
X121211409Y-67454789D01*
X121228397Y-67395083D01*
X121247215Y-67192000D01*
X121228397Y-66988917D01*
X121172582Y-66792750D01*
X121169836Y-66787236D01*
X121128272Y-66703764D01*
X121081673Y-66610179D01*
X120958764Y-66447421D01*
X120958762Y-66447418D01*
X120808041Y-66310019D01*
X120808039Y-66310017D01*
X120748136Y-66272927D01*
X120701500Y-66220899D01*
X120690396Y-66151917D01*
X120718349Y-66087883D01*
X120776484Y-66049127D01*
X120813413Y-66043500D01*
X122010587Y-66043500D01*
X122077626Y-66063185D01*
X122123381Y-66115989D01*
X122133325Y-66185147D01*
X122104300Y-66248703D01*
X122075864Y-66272927D01*
X122015960Y-66310017D01*
X122015958Y-66310019D01*
X121865237Y-66447418D01*
X121742327Y-66610178D01*
X121651422Y-66792739D01*
X121651417Y-66792752D01*
X121595602Y-66988917D01*
X121576785Y-67191999D01*
X121576785Y-67192000D01*
X121595602Y-67395082D01*
X121651417Y-67591247D01*
X121651422Y-67591260D01*
X121742327Y-67773821D01*
X121865237Y-67936581D01*
X122015958Y-68073980D01*
X122015960Y-68073982D01*
X122066901Y-68105523D01*
X122189363Y-68181348D01*
X122379544Y-68255024D01*
X122580024Y-68292500D01*
X122580026Y-68292500D01*
X122783974Y-68292500D01*
X122783976Y-68292500D01*
X122984456Y-68255024D01*
X123074556Y-68220118D01*
X123144174Y-68214256D01*
X123205914Y-68246965D01*
X123207027Y-68248064D01*
X123495181Y-68536218D01*
X123528666Y-68597541D01*
X123531500Y-68623899D01*
X123531500Y-77444100D01*
X123511815Y-77511139D01*
X123495181Y-77531781D01*
X123207028Y-77819933D01*
X123145705Y-77853418D01*
X123076013Y-77848434D01*
X123074554Y-77847879D01*
X122984461Y-77812977D01*
X122984456Y-77812976D01*
X122783976Y-77775500D01*
X122580024Y-77775500D01*
X122379544Y-77812976D01*
X122379541Y-77812976D01*
X122379541Y-77812977D01*
X122189364Y-77886651D01*
X122189357Y-77886655D01*
X122015960Y-77994017D01*
X122015958Y-77994019D01*
X121865237Y-78131418D01*
X121742327Y-78294178D01*
X121651422Y-78476739D01*
X121651417Y-78476752D01*
X121595602Y-78672917D01*
X121576785Y-78875999D01*
X121576785Y-78876000D01*
X121595602Y-79079082D01*
X121651417Y-79275247D01*
X121651422Y-79275260D01*
X121742327Y-79457821D01*
X121865237Y-79620581D01*
X122015958Y-79757980D01*
X122015960Y-79757982D01*
X122066901Y-79789523D01*
X122189363Y-79865348D01*
X122379544Y-79939024D01*
X122580024Y-79976500D01*
X122580026Y-79976500D01*
X122783974Y-79976500D01*
X122783976Y-79976500D01*
X122984456Y-79939024D01*
X123074556Y-79904118D01*
X123144174Y-79898256D01*
X123205914Y-79930965D01*
X123207027Y-79932064D01*
X123495181Y-80220218D01*
X123528666Y-80281541D01*
X123531500Y-80307899D01*
X123531500Y-81716513D01*
X123511815Y-81783552D01*
X123495181Y-81804194D01*
X122813327Y-82486047D01*
X122763889Y-82571674D01*
X122763889Y-82571675D01*
X122758559Y-82591567D01*
X122757050Y-82597200D01*
X122738589Y-82666100D01*
X122738345Y-82667008D01*
X122738300Y-82667177D01*
X122738300Y-95845500D01*
X122718615Y-95912539D01*
X122665811Y-95958294D01*
X122614300Y-95969500D01*
X122580024Y-95969500D01*
X122379544Y-96006976D01*
X122379541Y-96006976D01*
X122379541Y-96006977D01*
X122189364Y-96080651D01*
X122189357Y-96080655D01*
X122015960Y-96188017D01*
X122015958Y-96188019D01*
X121865237Y-96325418D01*
X121742327Y-96488178D01*
X121651422Y-96670739D01*
X121651417Y-96670752D01*
X121595602Y-96866917D01*
X121576785Y-97069999D01*
X121576785Y-97070000D01*
X121595602Y-97273082D01*
X121651417Y-97469247D01*
X121651422Y-97469260D01*
X121742327Y-97651821D01*
X121865237Y-97814581D01*
X122015958Y-97951980D01*
X122015960Y-97951982D01*
X122090712Y-97998266D01*
X122189363Y-98059348D01*
X122379544Y-98133024D01*
X122580024Y-98170500D01*
X122580026Y-98170500D01*
X122783974Y-98170500D01*
X122783976Y-98170500D01*
X122984456Y-98133024D01*
X123174637Y-98059348D01*
X123348041Y-97951981D01*
X123498764Y-97814579D01*
X123621673Y-97651821D01*
X123712582Y-97469250D01*
X123768397Y-97273083D01*
X123787215Y-97070000D01*
X123768397Y-96866917D01*
X123712582Y-96670750D01*
X123709836Y-96665236D01*
X123621671Y-96488175D01*
X123514346Y-96346053D01*
X123489654Y-96280692D01*
X123489300Y-96271327D01*
X123489300Y-82923511D01*
X123508985Y-82856472D01*
X123525619Y-82835830D01*
X123865388Y-82496061D01*
X124207474Y-82153975D01*
X124209401Y-82150638D01*
X124256910Y-82068350D01*
X124264406Y-82040374D01*
X124274646Y-82002162D01*
X124278572Y-81987505D01*
X124282500Y-81972848D01*
X124282500Y-81873976D01*
X124282500Y-80051565D01*
X124282500Y-80051562D01*
X124281027Y-80046065D01*
X124281027Y-80046066D01*
X124271486Y-80010459D01*
X124256911Y-79956063D01*
X124207475Y-79870438D01*
X123741709Y-79404672D01*
X123708224Y-79343349D01*
X123712666Y-79281234D01*
X123711013Y-79280764D01*
X123715728Y-79264194D01*
X123768397Y-79079083D01*
X123787215Y-78876000D01*
X123768397Y-78672917D01*
X123712582Y-78476750D01*
X123712581Y-78476748D01*
X123711013Y-78471237D01*
X123712994Y-78470673D01*
X123707902Y-78410174D01*
X123740614Y-78348435D01*
X123741621Y-78347414D01*
X124207475Y-77881562D01*
X124256911Y-77795937D01*
X124282500Y-77700436D01*
X124282500Y-77601564D01*
X124282500Y-68367565D01*
X124282500Y-68367562D01*
X124281027Y-68362065D01*
X124281027Y-68362066D01*
X124272118Y-68328818D01*
X124256911Y-68272063D01*
X124207475Y-68186438D01*
X123741708Y-67720671D01*
X123708224Y-67659349D01*
X123712666Y-67597234D01*
X123711013Y-67596764D01*
X123751409Y-67454789D01*
X123768397Y-67395083D01*
X123787215Y-67192000D01*
X123768397Y-66988917D01*
X123712582Y-66792750D01*
X123709836Y-66787236D01*
X123668272Y-66703764D01*
X123621673Y-66610179D01*
X123498764Y-66447421D01*
X123498762Y-66447418D01*
X123348041Y-66310019D01*
X123348039Y-66310017D01*
X123288136Y-66272927D01*
X123241500Y-66220899D01*
X123230396Y-66151917D01*
X123258349Y-66087883D01*
X123316484Y-66049127D01*
X123353413Y-66043500D01*
X124550587Y-66043500D01*
X124617626Y-66063185D01*
X124663381Y-66115989D01*
X124673325Y-66185147D01*
X124644300Y-66248703D01*
X124615864Y-66272927D01*
X124555960Y-66310017D01*
X124555958Y-66310019D01*
X124405237Y-66447418D01*
X124282327Y-66610178D01*
X124191422Y-66792739D01*
X124191417Y-66792752D01*
X124135602Y-66988917D01*
X124116785Y-67191999D01*
X124116785Y-67192000D01*
X124135602Y-67395082D01*
X124191417Y-67591247D01*
X124191422Y-67591260D01*
X124282327Y-67773821D01*
X124405237Y-67936581D01*
X124555958Y-68073980D01*
X124555960Y-68073982D01*
X124606901Y-68105523D01*
X124729363Y-68181348D01*
X124919544Y-68255024D01*
X125120024Y-68292500D01*
X125120026Y-68292500D01*
X125323974Y-68292500D01*
X125323976Y-68292500D01*
X125524456Y-68255024D01*
X125614556Y-68220118D01*
X125684174Y-68214256D01*
X125745914Y-68246965D01*
X125747027Y-68248064D01*
X126035181Y-68536218D01*
X126068666Y-68597541D01*
X126071500Y-68623899D01*
X126071500Y-77444100D01*
X126051815Y-77511139D01*
X126035181Y-77531781D01*
X125747028Y-77819933D01*
X125685705Y-77853418D01*
X125616013Y-77848434D01*
X125614554Y-77847879D01*
X125524461Y-77812977D01*
X125524456Y-77812976D01*
X125323976Y-77775500D01*
X125120024Y-77775500D01*
X124919544Y-77812976D01*
X124919541Y-77812976D01*
X124919541Y-77812977D01*
X124729364Y-77886651D01*
X124729357Y-77886655D01*
X124555960Y-77994017D01*
X124555958Y-77994019D01*
X124405237Y-78131418D01*
X124282327Y-78294178D01*
X124191422Y-78476739D01*
X124191417Y-78476752D01*
X124135602Y-78672917D01*
X124116785Y-78875999D01*
X124116785Y-78876000D01*
X124135602Y-79079082D01*
X124191417Y-79275247D01*
X124191422Y-79275260D01*
X124282327Y-79457821D01*
X124405237Y-79620581D01*
X124555958Y-79757980D01*
X124555960Y-79757982D01*
X124606901Y-79789523D01*
X124729363Y-79865348D01*
X124919544Y-79939024D01*
X125120024Y-79976500D01*
X125120026Y-79976500D01*
X125323974Y-79976500D01*
X125323976Y-79976500D01*
X125524456Y-79939024D01*
X125614556Y-79904118D01*
X125684174Y-79898256D01*
X125745914Y-79930965D01*
X125747027Y-79932064D01*
X126035181Y-80220218D01*
X126068666Y-80281541D01*
X126071500Y-80307899D01*
X126071500Y-81716513D01*
X126051815Y-81783552D01*
X126035181Y-81804194D01*
X124261127Y-83578247D01*
X124261125Y-83578249D01*
X124261125Y-83578250D01*
X124259204Y-83581577D01*
X124211691Y-83663872D01*
X124211690Y-83663875D01*
X124192670Y-83734860D01*
X124192669Y-83734863D01*
X124186100Y-83759376D01*
X124186100Y-96459038D01*
X124193874Y-96488048D01*
X124193874Y-96488050D01*
X124193875Y-96488050D01*
X124193875Y-96488051D01*
X124211690Y-96554538D01*
X124211691Y-96554539D01*
X124212693Y-96558279D01*
X124211030Y-96628129D01*
X124203919Y-96645642D01*
X124191420Y-96670743D01*
X124191419Y-96670746D01*
X124135602Y-96866917D01*
X124116785Y-97069999D01*
X124116785Y-97070000D01*
X124135602Y-97273082D01*
X124191417Y-97469247D01*
X124191422Y-97469260D01*
X124282327Y-97651821D01*
X124405237Y-97814581D01*
X124555958Y-97951980D01*
X124555960Y-97951982D01*
X124630712Y-97998266D01*
X124729363Y-98059348D01*
X124919544Y-98133024D01*
X125120024Y-98170500D01*
X125120026Y-98170500D01*
X125323974Y-98170500D01*
X125323976Y-98170500D01*
X125524456Y-98133024D01*
X125714637Y-98059348D01*
X125888041Y-97951981D01*
X126038764Y-97814579D01*
X126161673Y-97651821D01*
X126252582Y-97469250D01*
X126308397Y-97273083D01*
X126327215Y-97070000D01*
X126308397Y-96866917D01*
X126252582Y-96670750D01*
X126249836Y-96665236D01*
X126194716Y-96554538D01*
X126161673Y-96488179D01*
X126080182Y-96380267D01*
X126038762Y-96325418D01*
X125888041Y-96188019D01*
X125888039Y-96188017D01*
X125714642Y-96080655D01*
X125714639Y-96080653D01*
X125714637Y-96080652D01*
X125714636Y-96080651D01*
X125714635Y-96080651D01*
X125594474Y-96034101D01*
X125524456Y-96006976D01*
X125323976Y-95969500D01*
X125120024Y-95969500D01*
X125120020Y-95969500D01*
X125083882Y-95976255D01*
X125014367Y-95969223D01*
X124959690Y-95925724D01*
X124937209Y-95859569D01*
X124937100Y-95854366D01*
X124937100Y-84015711D01*
X124956785Y-83948672D01*
X124973419Y-83928030D01*
X125851500Y-83049949D01*
X126747474Y-82153975D01*
X126749401Y-82150638D01*
X126796910Y-82068350D01*
X126804406Y-82040374D01*
X126814646Y-82002162D01*
X126818572Y-81987505D01*
X126822500Y-81972848D01*
X126822500Y-81873976D01*
X126822500Y-80051565D01*
X126822500Y-80051562D01*
X126821027Y-80046065D01*
X126821027Y-80046066D01*
X126811486Y-80010459D01*
X126796911Y-79956063D01*
X126747475Y-79870438D01*
X126281709Y-79404672D01*
X126248224Y-79343349D01*
X126252666Y-79281234D01*
X126251013Y-79280764D01*
X126255728Y-79264194D01*
X126308397Y-79079083D01*
X126327215Y-78876000D01*
X126308397Y-78672917D01*
X126252582Y-78476750D01*
X126252581Y-78476748D01*
X126251013Y-78471237D01*
X126252994Y-78470673D01*
X126247902Y-78410174D01*
X126280614Y-78348435D01*
X126281621Y-78347414D01*
X126747475Y-77881562D01*
X126796911Y-77795937D01*
X126822500Y-77700436D01*
X126822500Y-77601564D01*
X126822500Y-68367565D01*
X126822500Y-68367562D01*
X126821027Y-68362065D01*
X126821027Y-68362066D01*
X126812118Y-68328818D01*
X126796911Y-68272063D01*
X126747475Y-68186438D01*
X126281708Y-67720671D01*
X126248224Y-67659349D01*
X126252666Y-67597234D01*
X126251013Y-67596764D01*
X126291409Y-67454789D01*
X126308397Y-67395083D01*
X126327215Y-67192000D01*
X126308397Y-66988917D01*
X126252582Y-66792750D01*
X126249836Y-66787236D01*
X126208272Y-66703764D01*
X126161673Y-66610179D01*
X126038764Y-66447421D01*
X126038762Y-66447418D01*
X125888041Y-66310019D01*
X125888039Y-66310017D01*
X125828136Y-66272927D01*
X125781500Y-66220899D01*
X125770396Y-66151917D01*
X125798349Y-66087883D01*
X125856484Y-66049127D01*
X125893413Y-66043500D01*
X127090587Y-66043500D01*
X127157626Y-66063185D01*
X127203381Y-66115989D01*
X127213325Y-66185147D01*
X127184300Y-66248703D01*
X127155864Y-66272927D01*
X127095960Y-66310017D01*
X127095958Y-66310019D01*
X126945237Y-66447418D01*
X126822327Y-66610178D01*
X126731422Y-66792739D01*
X126731417Y-66792752D01*
X126675602Y-66988917D01*
X126656785Y-67191999D01*
X126656785Y-67192000D01*
X126675602Y-67395082D01*
X126731417Y-67591247D01*
X126731422Y-67591260D01*
X126822327Y-67773821D01*
X126945237Y-67936581D01*
X127095958Y-68073980D01*
X127095960Y-68073982D01*
X127146901Y-68105523D01*
X127269363Y-68181348D01*
X127459544Y-68255024D01*
X127660024Y-68292500D01*
X127660026Y-68292500D01*
X127863974Y-68292500D01*
X127863976Y-68292500D01*
X128064456Y-68255024D01*
X128154556Y-68220118D01*
X128224174Y-68214256D01*
X128285914Y-68246965D01*
X128287027Y-68248064D01*
X128575181Y-68536218D01*
X128608666Y-68597541D01*
X128611500Y-68623899D01*
X128611500Y-76292101D01*
X128591815Y-76359140D01*
X128575181Y-76379782D01*
X127715527Y-77239435D01*
X127715525Y-77239437D01*
X127715525Y-77239438D01*
X127668183Y-77321437D01*
X127666089Y-77325064D01*
X127661865Y-77340829D01*
X127647261Y-77395334D01*
X127647260Y-77395338D01*
X127640500Y-77420564D01*
X127640500Y-77676180D01*
X127620815Y-77743219D01*
X127568011Y-77788974D01*
X127539287Y-77798068D01*
X127459544Y-77812975D01*
X127269364Y-77886651D01*
X127269357Y-77886655D01*
X127095960Y-77994017D01*
X127095958Y-77994019D01*
X126945237Y-78131418D01*
X126822327Y-78294178D01*
X126731422Y-78476739D01*
X126731417Y-78476752D01*
X126675602Y-78672917D01*
X126656785Y-78875999D01*
X126656785Y-78876000D01*
X126675602Y-79079082D01*
X126731417Y-79275247D01*
X126731422Y-79275260D01*
X126822327Y-79457821D01*
X126945237Y-79620581D01*
X127095958Y-79757980D01*
X127095960Y-79757982D01*
X127146901Y-79789523D01*
X127269363Y-79865348D01*
X127459544Y-79939024D01*
X127660024Y-79976500D01*
X127660026Y-79976500D01*
X127863974Y-79976500D01*
X127863976Y-79976500D01*
X128064456Y-79939024D01*
X128154556Y-79904118D01*
X128224174Y-79898256D01*
X128285914Y-79930965D01*
X128287027Y-79932064D01*
X128575181Y-80220218D01*
X128608666Y-80281541D01*
X128611500Y-80307899D01*
X128611500Y-81716513D01*
X128591815Y-81783552D01*
X128575181Y-81804194D01*
X126013726Y-84365648D01*
X125964291Y-84451271D01*
X125964291Y-84451272D01*
X125964290Y-84451274D01*
X125938700Y-84546777D01*
X125938700Y-84546778D01*
X125938700Y-95671636D01*
X125949582Y-95712250D01*
X125964288Y-95767133D01*
X125964290Y-95767138D01*
X126009532Y-95845500D01*
X126013726Y-95852763D01*
X126702289Y-96541326D01*
X126735774Y-96602649D01*
X126731331Y-96664765D01*
X126732986Y-96665236D01*
X126675603Y-96866915D01*
X126675602Y-96866917D01*
X126656785Y-97069999D01*
X126656785Y-97070000D01*
X126675602Y-97273082D01*
X126731417Y-97469247D01*
X126731422Y-97469260D01*
X126822327Y-97651821D01*
X126945237Y-97814581D01*
X127095958Y-97951980D01*
X127095960Y-97951982D01*
X127170712Y-97998266D01*
X127269363Y-98059348D01*
X127459544Y-98133024D01*
X127660024Y-98170500D01*
X127660026Y-98170500D01*
X127863974Y-98170500D01*
X127863976Y-98170500D01*
X128064456Y-98133024D01*
X128254637Y-98059348D01*
X128422224Y-97955582D01*
X128489583Y-97937027D01*
X128556282Y-97957835D01*
X128601144Y-98011401D01*
X128611500Y-98061010D01*
X128611500Y-98344435D01*
X128637090Y-98439938D01*
X128677735Y-98510338D01*
X128686526Y-98525563D01*
X129242289Y-99081326D01*
X129275774Y-99142649D01*
X129271331Y-99204765D01*
X129272986Y-99205236D01*
X129215603Y-99406915D01*
X129215602Y-99406917D01*
X129196785Y-99609999D01*
X129196785Y-99610000D01*
X129215602Y-99813082D01*
X129271417Y-100009247D01*
X129271422Y-100009260D01*
X129362327Y-100191821D01*
X129485237Y-100354581D01*
X129635958Y-100491980D01*
X129635960Y-100491982D01*
X129735141Y-100553392D01*
X129809363Y-100599348D01*
X129999544Y-100673024D01*
X130200024Y-100710500D01*
X130200026Y-100710500D01*
X130403974Y-100710500D01*
X130403976Y-100710500D01*
X130604456Y-100673024D01*
X130794637Y-100599348D01*
X130968041Y-100491981D01*
X131118764Y-100354579D01*
X131241673Y-100191821D01*
X131332582Y-100009250D01*
X131388397Y-99813083D01*
X131407215Y-99610000D01*
X131388397Y-99406917D01*
X131332582Y-99210750D01*
X131329836Y-99205236D01*
X131268137Y-99081326D01*
X131241673Y-99028179D01*
X131118764Y-98865421D01*
X131118762Y-98865418D01*
X130968041Y-98728019D01*
X130968039Y-98728017D01*
X130794642Y-98620655D01*
X130794635Y-98620651D01*
X130665331Y-98570559D01*
X130604456Y-98546976D01*
X130403976Y-98509500D01*
X130200024Y-98509500D01*
X130048739Y-98537779D01*
X129999538Y-98546977D01*
X129909445Y-98581879D01*
X129839821Y-98587740D01*
X129778081Y-98555030D01*
X129776971Y-98553933D01*
X129398819Y-98175781D01*
X129365334Y-98114458D01*
X129362500Y-98088100D01*
X129362500Y-96502672D01*
X129362499Y-96502668D01*
X129358583Y-96488052D01*
X129358583Y-96488051D01*
X129336911Y-96407169D01*
X129309773Y-96360164D01*
X129287477Y-96321546D01*
X129287473Y-96321541D01*
X128148419Y-95182487D01*
X128114934Y-95121164D01*
X128112100Y-95094806D01*
X128112100Y-84188298D01*
X128131785Y-84121259D01*
X128148414Y-84100622D01*
X129776972Y-82472063D01*
X129838293Y-82438580D01*
X129907985Y-82443564D01*
X129909444Y-82444119D01*
X129999544Y-82479024D01*
X130200024Y-82516500D01*
X130200026Y-82516500D01*
X130403974Y-82516500D01*
X130403976Y-82516500D01*
X130604456Y-82479024D01*
X130794637Y-82405348D01*
X130968041Y-82297981D01*
X131118764Y-82160579D01*
X131241673Y-81997821D01*
X131332582Y-81815250D01*
X131388397Y-81619083D01*
X131407215Y-81416000D01*
X131388397Y-81212917D01*
X131332582Y-81016750D01*
X131329836Y-81011236D01*
X131268137Y-80887326D01*
X131241673Y-80834179D01*
X131151500Y-80714770D01*
X131118762Y-80671418D01*
X130968041Y-80534019D01*
X130968039Y-80534017D01*
X130794642Y-80426655D01*
X130794635Y-80426651D01*
X130720416Y-80397899D01*
X130604456Y-80352976D01*
X130604453Y-80352975D01*
X130604452Y-80352975D01*
X130598938Y-80351406D01*
X130599618Y-80349013D01*
X130546846Y-80322148D01*
X130544274Y-80319649D01*
X129488819Y-79264194D01*
X129455334Y-79202871D01*
X129452500Y-79176513D01*
X129452500Y-78575487D01*
X129472185Y-78508448D01*
X129488819Y-78487806D01*
X130044485Y-77932140D01*
X130602475Y-77374150D01*
X130651911Y-77288525D01*
X130677500Y-77193024D01*
X130677500Y-77094152D01*
X130677500Y-70851668D01*
X130697185Y-70784629D01*
X130749989Y-70738874D01*
X130756679Y-70736052D01*
X130794637Y-70721348D01*
X130968041Y-70613981D01*
X131098681Y-70494887D01*
X131118762Y-70476581D01*
X131118764Y-70476579D01*
X131241673Y-70313821D01*
X131332582Y-70131250D01*
X131388397Y-69935083D01*
X131407215Y-69732000D01*
X131388397Y-69528917D01*
X131332582Y-69332750D01*
X131241673Y-69150179D01*
X131118764Y-68987421D01*
X131118762Y-68987418D01*
X130968041Y-68850019D01*
X130968039Y-68850017D01*
X130794642Y-68742655D01*
X130794635Y-68742651D01*
X130694552Y-68703879D01*
X130604456Y-68668976D01*
X130403976Y-68631500D01*
X130200024Y-68631500D01*
X129999544Y-68668976D01*
X129999541Y-68668976D01*
X129999541Y-68668977D01*
X129809364Y-68742651D01*
X129809357Y-68742655D01*
X129635960Y-68850017D01*
X129635957Y-68850019D01*
X129570038Y-68910113D01*
X129507234Y-68940730D01*
X129437847Y-68932532D01*
X129383907Y-68888122D01*
X129362539Y-68821600D01*
X129362500Y-68818476D01*
X129362500Y-68367562D01*
X129361027Y-68362065D01*
X129361027Y-68362066D01*
X129352118Y-68328818D01*
X129336911Y-68272063D01*
X129287475Y-68186438D01*
X128821708Y-67720671D01*
X128788224Y-67659349D01*
X128792666Y-67597234D01*
X128791013Y-67596764D01*
X128831409Y-67454789D01*
X128848397Y-67395083D01*
X128867215Y-67192000D01*
X128848397Y-66988917D01*
X128792582Y-66792750D01*
X128789836Y-66787236D01*
X128748272Y-66703764D01*
X128701673Y-66610179D01*
X128578764Y-66447421D01*
X128578762Y-66447418D01*
X128428041Y-66310019D01*
X128428039Y-66310017D01*
X128368136Y-66272927D01*
X128321500Y-66220899D01*
X128310396Y-66151917D01*
X128338349Y-66087883D01*
X128396484Y-66049127D01*
X128433413Y-66043500D01*
X132170587Y-66043500D01*
X132237626Y-66063185D01*
X132283381Y-66115989D01*
X132293325Y-66185147D01*
X132264300Y-66248703D01*
X132235864Y-66272927D01*
X132175960Y-66310017D01*
X132175958Y-66310019D01*
X132025237Y-66447418D01*
X131902327Y-66610178D01*
X131811422Y-66792739D01*
X131811417Y-66792752D01*
X131755602Y-66988917D01*
X131736785Y-67191999D01*
X131736785Y-67192000D01*
X131755602Y-67395082D01*
X131811417Y-67591247D01*
X131811422Y-67591260D01*
X131902327Y-67773821D01*
X132025237Y-67936581D01*
X132175958Y-68073980D01*
X132175960Y-68073982D01*
X132226901Y-68105523D01*
X132349363Y-68181348D01*
X132539544Y-68255024D01*
X132740024Y-68292500D01*
X132740026Y-68292500D01*
X132943974Y-68292500D01*
X132943976Y-68292500D01*
X133144456Y-68255024D01*
X133334637Y-68181348D01*
X133392358Y-68145607D01*
X133459715Y-68127051D01*
X133526415Y-68147858D01*
X133545316Y-68163353D01*
X133700181Y-68318218D01*
X133733666Y-68379541D01*
X133736500Y-68405899D01*
X133736500Y-68777453D01*
X133716815Y-68844492D01*
X133664011Y-68890247D01*
X133594853Y-68900191D01*
X133531297Y-68871166D01*
X133528963Y-68869091D01*
X133508041Y-68850019D01*
X133508039Y-68850017D01*
X133334642Y-68742655D01*
X133334635Y-68742651D01*
X133234552Y-68703879D01*
X133144456Y-68668976D01*
X132943976Y-68631500D01*
X132740024Y-68631500D01*
X132539544Y-68668976D01*
X132539541Y-68668976D01*
X132539541Y-68668977D01*
X132349364Y-68742651D01*
X132349357Y-68742655D01*
X132175960Y-68850017D01*
X132175958Y-68850019D01*
X132025237Y-68987418D01*
X131902327Y-69150178D01*
X131811422Y-69332739D01*
X131811417Y-69332752D01*
X131755602Y-69528917D01*
X131736785Y-69731999D01*
X131736785Y-69732000D01*
X131755602Y-69935082D01*
X131790824Y-70058871D01*
X131811417Y-70131247D01*
X131812987Y-70136763D01*
X131811003Y-70137327D01*
X131816098Y-70197816D01*
X131783390Y-70259557D01*
X131782290Y-70260671D01*
X131386438Y-70656525D01*
X131316526Y-70726436D01*
X131267089Y-70812063D01*
X131264441Y-70821947D01*
X131264441Y-70821949D01*
X131246619Y-70888461D01*
X131243833Y-70898860D01*
X131243832Y-70898864D01*
X131241500Y-70907565D01*
X131241500Y-80240436D01*
X131254277Y-80288123D01*
X131254291Y-80288173D01*
X131254295Y-80288186D01*
X131262725Y-80319649D01*
X131267091Y-80335940D01*
X131308936Y-80408419D01*
X131316521Y-80421557D01*
X131316528Y-80421566D01*
X131782289Y-80887326D01*
X131815774Y-80948649D01*
X131811331Y-81010765D01*
X131812986Y-81011236D01*
X131755603Y-81212915D01*
X131755602Y-81212917D01*
X131736785Y-81415999D01*
X131736785Y-81416000D01*
X131755602Y-81619082D01*
X131790824Y-81742869D01*
X131811417Y-81815247D01*
X131812987Y-81820763D01*
X131811003Y-81821327D01*
X131816098Y-81881816D01*
X131783390Y-81943557D01*
X131782290Y-81944671D01*
X130147638Y-83579325D01*
X130077726Y-83649236D01*
X130028291Y-83734859D01*
X130028291Y-83734860D01*
X130028290Y-83734862D01*
X130002700Y-83830365D01*
X130002700Y-83830367D01*
X130002700Y-95362743D01*
X130012967Y-95401062D01*
X130028289Y-95458243D01*
X130028291Y-95458248D01*
X130073778Y-95537033D01*
X130073780Y-95537036D01*
X130077726Y-95543870D01*
X130077729Y-95543873D01*
X131115181Y-96581325D01*
X131148666Y-96642648D01*
X131151500Y-96669006D01*
X131151500Y-98344435D01*
X131177090Y-98439938D01*
X131217735Y-98510338D01*
X131226526Y-98525563D01*
X131782289Y-99081326D01*
X131815774Y-99142649D01*
X131811331Y-99204765D01*
X131812986Y-99205236D01*
X131755603Y-99406915D01*
X131755602Y-99406917D01*
X131736785Y-99609999D01*
X131736785Y-99610000D01*
X131755602Y-99813082D01*
X131811417Y-100009247D01*
X131811422Y-100009260D01*
X131902327Y-100191821D01*
X132025237Y-100354581D01*
X132175958Y-100491980D01*
X132175960Y-100491982D01*
X132275141Y-100553392D01*
X132349363Y-100599348D01*
X132539544Y-100673024D01*
X132740024Y-100710500D01*
X132740026Y-100710500D01*
X132943974Y-100710500D01*
X132943976Y-100710500D01*
X133144456Y-100673024D01*
X133334637Y-100599348D01*
X133508041Y-100491981D01*
X133658764Y-100354579D01*
X133781673Y-100191821D01*
X133872582Y-100009250D01*
X133928397Y-99813083D01*
X133947215Y-99610000D01*
X133928397Y-99406917D01*
X133872582Y-99210750D01*
X133869836Y-99205236D01*
X133808137Y-99081326D01*
X133781673Y-99028179D01*
X133658764Y-98865421D01*
X133658762Y-98865418D01*
X133508041Y-98728019D01*
X133508039Y-98728017D01*
X133334642Y-98620655D01*
X133334635Y-98620651D01*
X133205331Y-98570559D01*
X133144456Y-98546976D01*
X132943976Y-98509500D01*
X132740024Y-98509500D01*
X132588739Y-98537779D01*
X132539538Y-98546977D01*
X132449445Y-98581879D01*
X132379821Y-98587740D01*
X132318081Y-98555030D01*
X132316971Y-98553933D01*
X131938819Y-98175781D01*
X131905334Y-98114458D01*
X131902500Y-98088100D01*
X131902500Y-97983523D01*
X131922185Y-97916484D01*
X131974989Y-97870729D01*
X132044147Y-97860785D01*
X132107703Y-97889810D01*
X132109993Y-97891845D01*
X132175959Y-97951981D01*
X132175961Y-97951982D01*
X132175962Y-97951983D01*
X132193051Y-97962564D01*
X132349363Y-98059348D01*
X132539544Y-98133024D01*
X132740024Y-98170500D01*
X132740026Y-98170500D01*
X132943974Y-98170500D01*
X132943976Y-98170500D01*
X133144456Y-98133024D01*
X133194097Y-98113793D01*
X133244625Y-98094219D01*
X133314248Y-98088356D01*
X133375988Y-98121066D01*
X133396806Y-98147846D01*
X133407727Y-98166762D01*
X133407733Y-98166770D01*
X134322289Y-99081326D01*
X134355774Y-99142649D01*
X134351331Y-99204765D01*
X134352986Y-99205236D01*
X134295603Y-99406915D01*
X134295602Y-99406917D01*
X134276785Y-99609999D01*
X134276785Y-99610000D01*
X134295602Y-99813082D01*
X134351417Y-100009247D01*
X134351422Y-100009260D01*
X134442327Y-100191821D01*
X134565237Y-100354581D01*
X134715958Y-100491980D01*
X134715960Y-100491982D01*
X134815141Y-100553392D01*
X134889363Y-100599348D01*
X135079544Y-100673024D01*
X135280024Y-100710500D01*
X135280026Y-100710500D01*
X135483974Y-100710500D01*
X135483976Y-100710500D01*
X135684456Y-100673024D01*
X135874637Y-100599348D01*
X136048041Y-100491981D01*
X136198764Y-100354579D01*
X136321673Y-100191821D01*
X136412582Y-100009250D01*
X136468397Y-99813083D01*
X136487215Y-99610000D01*
X136468397Y-99406917D01*
X136412582Y-99210750D01*
X136409836Y-99205236D01*
X136348137Y-99081326D01*
X136321673Y-99028179D01*
X136198764Y-98865421D01*
X136198762Y-98865418D01*
X136048041Y-98728019D01*
X136048039Y-98728017D01*
X135874642Y-98620655D01*
X135874635Y-98620651D01*
X135745331Y-98570559D01*
X135684456Y-98546976D01*
X135483976Y-98509500D01*
X135280024Y-98509500D01*
X135194099Y-98525562D01*
X135079536Y-98546977D01*
X134989443Y-98581879D01*
X134919820Y-98587740D01*
X134858080Y-98555030D01*
X134856970Y-98553933D01*
X134326924Y-98023887D01*
X134293439Y-97962564D01*
X134298423Y-97892872D01*
X134326925Y-97848524D01*
X134373222Y-97802228D01*
X134374784Y-97803790D01*
X134421877Y-97769393D01*
X134491623Y-97765228D01*
X134552548Y-97799431D01*
X134562798Y-97811350D01*
X134565238Y-97814581D01*
X134715958Y-97951980D01*
X134715960Y-97951982D01*
X134790712Y-97998266D01*
X134889363Y-98059348D01*
X135079544Y-98133024D01*
X135280024Y-98170500D01*
X135280026Y-98170500D01*
X135483974Y-98170500D01*
X135483976Y-98170500D01*
X135684456Y-98133024D01*
X135874637Y-98059348D01*
X136048041Y-97951981D01*
X136113963Y-97891884D01*
X136176765Y-97861269D01*
X136246153Y-97869466D01*
X136300093Y-97913876D01*
X136321461Y-97980398D01*
X136321500Y-97983523D01*
X136321500Y-98335564D01*
X136321500Y-98434436D01*
X136322975Y-98439939D01*
X136326341Y-98452501D01*
X136326341Y-98452502D01*
X136347091Y-98529942D01*
X136347092Y-98529943D01*
X136370544Y-98570562D01*
X136370545Y-98570563D01*
X136396526Y-98615563D01*
X136396527Y-98615564D01*
X136396528Y-98615565D01*
X136862289Y-99081326D01*
X136895774Y-99142649D01*
X136891331Y-99204765D01*
X136892986Y-99205236D01*
X136835603Y-99406915D01*
X136835602Y-99406917D01*
X136816785Y-99609999D01*
X136816785Y-99610000D01*
X136835602Y-99813082D01*
X136891417Y-100009247D01*
X136891422Y-100009260D01*
X136982327Y-100191821D01*
X137105237Y-100354581D01*
X137255958Y-100491980D01*
X137255960Y-100491982D01*
X137355141Y-100553392D01*
X137429363Y-100599348D01*
X137619544Y-100673024D01*
X137820024Y-100710500D01*
X137820026Y-100710500D01*
X138023974Y-100710500D01*
X138023976Y-100710500D01*
X138224456Y-100673024D01*
X138414637Y-100599348D01*
X138588041Y-100491981D01*
X138738764Y-100354579D01*
X138861673Y-100191821D01*
X138952582Y-100009250D01*
X139008397Y-99813083D01*
X139027215Y-99610000D01*
X139008397Y-99406917D01*
X138952582Y-99210750D01*
X138949836Y-99205236D01*
X138888137Y-99081326D01*
X138861673Y-99028179D01*
X138738764Y-98865421D01*
X138738762Y-98865418D01*
X138588041Y-98728019D01*
X138588039Y-98728017D01*
X138414642Y-98620655D01*
X138414635Y-98620651D01*
X138285331Y-98570559D01*
X138224456Y-98546976D01*
X138023976Y-98509500D01*
X137820024Y-98509500D01*
X137734099Y-98525562D01*
X137619536Y-98546977D01*
X137529443Y-98581879D01*
X137459820Y-98587740D01*
X137398080Y-98555030D01*
X137396970Y-98553933D01*
X137108819Y-98265782D01*
X137075334Y-98204459D01*
X137072500Y-98178101D01*
X137072500Y-98061010D01*
X137092185Y-97993971D01*
X137144989Y-97948216D01*
X137214147Y-97938272D01*
X137261774Y-97955581D01*
X137429363Y-98059348D01*
X137619544Y-98133024D01*
X137820024Y-98170500D01*
X137820026Y-98170500D01*
X138023974Y-98170500D01*
X138023976Y-98170500D01*
X138224456Y-98133024D01*
X138414637Y-98059348D01*
X138588041Y-97951981D01*
X138653963Y-97891884D01*
X138716765Y-97861269D01*
X138786153Y-97869466D01*
X138840093Y-97913876D01*
X138861461Y-97980398D01*
X138861500Y-97983523D01*
X138861500Y-98335564D01*
X138861500Y-98434436D01*
X138862975Y-98439939D01*
X138866341Y-98452501D01*
X138866341Y-98452502D01*
X138887091Y-98529942D01*
X138887092Y-98529943D01*
X138910544Y-98570562D01*
X138910545Y-98570563D01*
X138936526Y-98615563D01*
X138936527Y-98615564D01*
X138936528Y-98615565D01*
X139402289Y-99081326D01*
X139435774Y-99142649D01*
X139431331Y-99204765D01*
X139432986Y-99205236D01*
X139375603Y-99406915D01*
X139375602Y-99406917D01*
X139356785Y-99609999D01*
X139356785Y-99610000D01*
X139375602Y-99813082D01*
X139431417Y-100009247D01*
X139431422Y-100009260D01*
X139522327Y-100191821D01*
X139645237Y-100354581D01*
X139795958Y-100491980D01*
X139795960Y-100491982D01*
X139895141Y-100553392D01*
X139969363Y-100599348D01*
X140159544Y-100673024D01*
X140360024Y-100710500D01*
X140360026Y-100710500D01*
X140563974Y-100710500D01*
X140563976Y-100710500D01*
X140764456Y-100673024D01*
X140954637Y-100599348D01*
X141128041Y-100491981D01*
X141278764Y-100354579D01*
X141401673Y-100191821D01*
X141492582Y-100009250D01*
X141548397Y-99813083D01*
X141567215Y-99610000D01*
X141548397Y-99406917D01*
X141492582Y-99210750D01*
X141489836Y-99205236D01*
X141428137Y-99081326D01*
X141401673Y-99028179D01*
X141278764Y-98865421D01*
X141278762Y-98865418D01*
X141128041Y-98728019D01*
X141128039Y-98728017D01*
X140954642Y-98620655D01*
X140954635Y-98620651D01*
X140825331Y-98570559D01*
X140764456Y-98546976D01*
X140563976Y-98509500D01*
X140360024Y-98509500D01*
X140274099Y-98525562D01*
X140159536Y-98546977D01*
X140069443Y-98581879D01*
X139999820Y-98587740D01*
X139938080Y-98555030D01*
X139936970Y-98553933D01*
X139648819Y-98265782D01*
X139615334Y-98204459D01*
X139612500Y-98178101D01*
X139612500Y-98061010D01*
X139632185Y-97993971D01*
X139684989Y-97948216D01*
X139754147Y-97938272D01*
X139801774Y-97955581D01*
X139969363Y-98059348D01*
X140159544Y-98133024D01*
X140360024Y-98170500D01*
X140360026Y-98170500D01*
X140563974Y-98170500D01*
X140563976Y-98170500D01*
X140764456Y-98133024D01*
X140954637Y-98059348D01*
X141128041Y-97951981D01*
X141193963Y-97891884D01*
X141256765Y-97861269D01*
X141326153Y-97869466D01*
X141380093Y-97913876D01*
X141401461Y-97980398D01*
X141401500Y-97983523D01*
X141401500Y-98335564D01*
X141401500Y-98434436D01*
X141402975Y-98439939D01*
X141406341Y-98452501D01*
X141406341Y-98452502D01*
X141427091Y-98529942D01*
X141427092Y-98529943D01*
X141450544Y-98570562D01*
X141450545Y-98570563D01*
X141476526Y-98615563D01*
X141476527Y-98615564D01*
X141476528Y-98615565D01*
X141942289Y-99081326D01*
X141975774Y-99142649D01*
X141971331Y-99204765D01*
X141972986Y-99205236D01*
X141915603Y-99406915D01*
X141915602Y-99406917D01*
X141896785Y-99609999D01*
X141896785Y-99610000D01*
X141915602Y-99813082D01*
X141971417Y-100009247D01*
X141971422Y-100009260D01*
X142062327Y-100191821D01*
X142185237Y-100354581D01*
X142335958Y-100491980D01*
X142335960Y-100491982D01*
X142435141Y-100553392D01*
X142509363Y-100599348D01*
X142699544Y-100673024D01*
X142900024Y-100710500D01*
X142900026Y-100710500D01*
X143103974Y-100710500D01*
X143103976Y-100710500D01*
X143304456Y-100673024D01*
X143494637Y-100599348D01*
X143668041Y-100491981D01*
X143818764Y-100354579D01*
X143941673Y-100191821D01*
X144032582Y-100009250D01*
X144088397Y-99813083D01*
X144107215Y-99610000D01*
X144088397Y-99406917D01*
X144032582Y-99210750D01*
X144029836Y-99205236D01*
X143968137Y-99081326D01*
X143941673Y-99028179D01*
X143818764Y-98865421D01*
X143818762Y-98865418D01*
X143668041Y-98728019D01*
X143668039Y-98728017D01*
X143494642Y-98620655D01*
X143494635Y-98620651D01*
X143365331Y-98570559D01*
X143304456Y-98546976D01*
X143103976Y-98509500D01*
X142900024Y-98509500D01*
X142814099Y-98525562D01*
X142699536Y-98546977D01*
X142609443Y-98581879D01*
X142539820Y-98587740D01*
X142478080Y-98555030D01*
X142476970Y-98553933D01*
X142188819Y-98265782D01*
X142155334Y-98204459D01*
X142152500Y-98178101D01*
X142152500Y-98061010D01*
X142172185Y-97993971D01*
X142224989Y-97948216D01*
X142294147Y-97938272D01*
X142341774Y-97955581D01*
X142509363Y-98059348D01*
X142699544Y-98133024D01*
X142900024Y-98170500D01*
X142900026Y-98170500D01*
X143103974Y-98170500D01*
X143103976Y-98170500D01*
X143304456Y-98133024D01*
X143494637Y-98059348D01*
X143668041Y-97951981D01*
X143818764Y-97814579D01*
X143821198Y-97811355D01*
X143877301Y-97769717D01*
X143947012Y-97765019D01*
X144008197Y-97798756D01*
X144014343Y-97805793D01*
X144815836Y-98607285D01*
X144849321Y-98668608D01*
X144844337Y-98738299D01*
X144811694Y-98786602D01*
X144725238Y-98865418D01*
X144602327Y-99028178D01*
X144511422Y-99210739D01*
X144511417Y-99210752D01*
X144455602Y-99406917D01*
X144436785Y-99609999D01*
X144436785Y-99610000D01*
X144455602Y-99813082D01*
X144511417Y-100009247D01*
X144511422Y-100009260D01*
X144602327Y-100191821D01*
X144725237Y-100354581D01*
X144875958Y-100491980D01*
X144875960Y-100491982D01*
X144975141Y-100553392D01*
X145049363Y-100599348D01*
X145239544Y-100673024D01*
X145440024Y-100710500D01*
X145440026Y-100710500D01*
X145643974Y-100710500D01*
X145643976Y-100710500D01*
X145844456Y-100673024D01*
X146034637Y-100599348D01*
X146208041Y-100491981D01*
X146358764Y-100354579D01*
X146481673Y-100191821D01*
X146572582Y-100009250D01*
X146628397Y-99813083D01*
X146647215Y-99610000D01*
X146628397Y-99406917D01*
X146572582Y-99210750D01*
X146569836Y-99205236D01*
X146508137Y-99081326D01*
X146481673Y-99028179D01*
X146358764Y-98865421D01*
X146358762Y-98865418D01*
X146208041Y-98728019D01*
X146208039Y-98728017D01*
X146034642Y-98620655D01*
X146034635Y-98620651D01*
X145969642Y-98595473D01*
X145844456Y-98546976D01*
X145844453Y-98546975D01*
X145844452Y-98546975D01*
X145838938Y-98545406D01*
X145839618Y-98543013D01*
X145786846Y-98516148D01*
X145784274Y-98513649D01*
X145639415Y-98368790D01*
X145605930Y-98307467D01*
X145610914Y-98237775D01*
X145652786Y-98181842D01*
X145704306Y-98159222D01*
X145844456Y-98133024D01*
X146034637Y-98059348D01*
X146208041Y-97951981D01*
X146228961Y-97932910D01*
X146291765Y-97902292D01*
X146361152Y-97910489D01*
X146415093Y-97954899D01*
X146436461Y-98021421D01*
X146436500Y-98024546D01*
X146436500Y-98389435D01*
X146450033Y-98439939D01*
X146462091Y-98484942D01*
X146462092Y-98484943D01*
X146478666Y-98513649D01*
X146488071Y-98529938D01*
X146511525Y-98570562D01*
X146511527Y-98570564D01*
X147022289Y-99081326D01*
X147055774Y-99142649D01*
X147051331Y-99204765D01*
X147052986Y-99205236D01*
X146995603Y-99406915D01*
X146995602Y-99406917D01*
X146976785Y-99609999D01*
X146976785Y-99610000D01*
X146995602Y-99813082D01*
X147051417Y-100009247D01*
X147051422Y-100009260D01*
X147142327Y-100191821D01*
X147265237Y-100354581D01*
X147415958Y-100491980D01*
X147415960Y-100491982D01*
X147515141Y-100553392D01*
X147589363Y-100599348D01*
X147779544Y-100673024D01*
X147980024Y-100710500D01*
X147980026Y-100710500D01*
X148183974Y-100710500D01*
X148183976Y-100710500D01*
X148384456Y-100673024D01*
X148574637Y-100599348D01*
X148748041Y-100491981D01*
X148898764Y-100354579D01*
X149021673Y-100191821D01*
X149112582Y-100009250D01*
X149168397Y-99813083D01*
X149187215Y-99610000D01*
X149168397Y-99406917D01*
X149112582Y-99210750D01*
X149109836Y-99205236D01*
X149048137Y-99081326D01*
X149021673Y-99028179D01*
X148898764Y-98865421D01*
X148898762Y-98865418D01*
X148748041Y-98728019D01*
X148748039Y-98728017D01*
X148574642Y-98620655D01*
X148574635Y-98620651D01*
X148445331Y-98570559D01*
X148384456Y-98546976D01*
X148183976Y-98509500D01*
X147980024Y-98509500D01*
X147894099Y-98525562D01*
X147779536Y-98546977D01*
X147689443Y-98581879D01*
X147619820Y-98587740D01*
X147558080Y-98555030D01*
X147556970Y-98553933D01*
X147223819Y-98220782D01*
X147190334Y-98159459D01*
X147187500Y-98133101D01*
X147187500Y-98024546D01*
X147207185Y-97957507D01*
X147259989Y-97911752D01*
X147329147Y-97901808D01*
X147392703Y-97930833D01*
X147395039Y-97932910D01*
X147415957Y-97951980D01*
X147415960Y-97951982D01*
X147490712Y-97998266D01*
X147589363Y-98059348D01*
X147779544Y-98133024D01*
X147980024Y-98170500D01*
X147980026Y-98170500D01*
X148183974Y-98170500D01*
X148183976Y-98170500D01*
X148384456Y-98133024D01*
X148574637Y-98059348D01*
X148748041Y-97951981D01*
X148898764Y-97814579D01*
X149021673Y-97651821D01*
X149112582Y-97469250D01*
X149168397Y-97273083D01*
X149187215Y-97070000D01*
X149168397Y-96866917D01*
X149112582Y-96670750D01*
X149112580Y-96670746D01*
X149111013Y-96665237D01*
X149112994Y-96664673D01*
X149107902Y-96604174D01*
X149140614Y-96542435D01*
X149141615Y-96541421D01*
X149697475Y-95985563D01*
X149730153Y-95928962D01*
X149746910Y-95899938D01*
X149765397Y-95830943D01*
X149772500Y-95804436D01*
X149772500Y-95705564D01*
X149772500Y-82407010D01*
X149792185Y-82339971D01*
X149844989Y-82294216D01*
X149914147Y-82284272D01*
X149961774Y-82301581D01*
X150129363Y-82405348D01*
X150167293Y-82420042D01*
X150222694Y-82462612D01*
X150246286Y-82528378D01*
X150246500Y-82535668D01*
X150246500Y-95118625D01*
X150272090Y-95214128D01*
X150305670Y-95272290D01*
X150321526Y-95299753D01*
X150321528Y-95299755D01*
X151435181Y-96413408D01*
X151468666Y-96474731D01*
X151471500Y-96501089D01*
X151471500Y-98178100D01*
X151451815Y-98245139D01*
X151435181Y-98265781D01*
X151147028Y-98553933D01*
X151085705Y-98587418D01*
X151016013Y-98582434D01*
X151014554Y-98581879D01*
X150924461Y-98546977D01*
X150924456Y-98546976D01*
X150723976Y-98509500D01*
X150520024Y-98509500D01*
X150319544Y-98546976D01*
X150319541Y-98546976D01*
X150319541Y-98546977D01*
X150129364Y-98620651D01*
X150129357Y-98620655D01*
X149955960Y-98728017D01*
X149955958Y-98728019D01*
X149805237Y-98865418D01*
X149682327Y-99028178D01*
X149591422Y-99210739D01*
X149591417Y-99210752D01*
X149535602Y-99406917D01*
X149516785Y-99609999D01*
X149516785Y-99610000D01*
X149535602Y-99813082D01*
X149591417Y-100009247D01*
X149591422Y-100009260D01*
X149682327Y-100191821D01*
X149805237Y-100354581D01*
X149955958Y-100491980D01*
X149955960Y-100491982D01*
X150055141Y-100553392D01*
X150129363Y-100599348D01*
X150319544Y-100673024D01*
X150520024Y-100710500D01*
X150520026Y-100710500D01*
X150723974Y-100710500D01*
X150723976Y-100710500D01*
X150924456Y-100673024D01*
X151114637Y-100599348D01*
X151288041Y-100491981D01*
X151438764Y-100354579D01*
X151561673Y-100191821D01*
X151652582Y-100009250D01*
X151708397Y-99813083D01*
X151727215Y-99610000D01*
X151708397Y-99406917D01*
X151652582Y-99210750D01*
X151652581Y-99210748D01*
X151651013Y-99205237D01*
X151652994Y-99204673D01*
X151647902Y-99144174D01*
X151680614Y-99082435D01*
X151681621Y-99081414D01*
X152147475Y-98615562D01*
X152196911Y-98529937D01*
X152222500Y-98434436D01*
X152222500Y-98335564D01*
X152222500Y-98256147D01*
X152242185Y-98189108D01*
X152294989Y-98143353D01*
X152364147Y-98133409D01*
X152389826Y-98139963D01*
X152454517Y-98164091D01*
X152514127Y-98170500D01*
X153809872Y-98170499D01*
X153869483Y-98164091D01*
X154004331Y-98113796D01*
X154119546Y-98027546D01*
X154205796Y-97912331D01*
X154256091Y-97777483D01*
X154262500Y-97717873D01*
X154262499Y-96551898D01*
X154282184Y-96484860D01*
X154298818Y-96464218D01*
X154551154Y-96211883D01*
X154834074Y-95928963D01*
X154834075Y-95928962D01*
X154883510Y-95843338D01*
X154905564Y-95761032D01*
X154909100Y-95747836D01*
X154909100Y-95648964D01*
X154909100Y-80198165D01*
X154883510Y-80102662D01*
X154834075Y-80017038D01*
X154764162Y-79947125D01*
X154298818Y-79481781D01*
X154265333Y-79420458D01*
X154262499Y-79394100D01*
X154262499Y-78228129D01*
X154262498Y-78228123D01*
X154262497Y-78228116D01*
X154256091Y-78168517D01*
X154247892Y-78146535D01*
X154205797Y-78033671D01*
X154205793Y-78033664D01*
X154119547Y-77918455D01*
X154119544Y-77918452D01*
X154004335Y-77832206D01*
X154004328Y-77832202D01*
X153869482Y-77781908D01*
X153869483Y-77781908D01*
X153809883Y-77775501D01*
X153809881Y-77775500D01*
X153809873Y-77775500D01*
X153809865Y-77775500D01*
X153280500Y-77775500D01*
X153213461Y-77755815D01*
X153167706Y-77703011D01*
X153156500Y-77651500D01*
X153156500Y-71033978D01*
X153156500Y-71033977D01*
X153149120Y-71006436D01*
X153143521Y-70985537D01*
X153130910Y-70938474D01*
X153130909Y-70938473D01*
X153130909Y-70938471D01*
X153130908Y-70938470D01*
X153114073Y-70909311D01*
X153081475Y-70852850D01*
X153011562Y-70782937D01*
X152348819Y-70120194D01*
X152315334Y-70058871D01*
X152312500Y-70032513D01*
X152312500Y-68623898D01*
X152332185Y-68556859D01*
X152348815Y-68536221D01*
X152556218Y-68328817D01*
X152617541Y-68295333D01*
X152643899Y-68292499D01*
X153809871Y-68292499D01*
X153809872Y-68292499D01*
X153869483Y-68286091D01*
X154004331Y-68235796D01*
X154119546Y-68149546D01*
X154205796Y-68034331D01*
X154256091Y-67899483D01*
X154262500Y-67839873D01*
X154262499Y-66544128D01*
X154256091Y-66484517D01*
X154236080Y-66430866D01*
X154205797Y-66349671D01*
X154205793Y-66349664D01*
X154119547Y-66234455D01*
X154119544Y-66234452D01*
X154004335Y-66148206D01*
X154004328Y-66148202D01*
X153869482Y-66097908D01*
X153869483Y-66097908D01*
X153809883Y-66091501D01*
X153809881Y-66091500D01*
X153809873Y-66091500D01*
X153809865Y-66091500D01*
X152643899Y-66091500D01*
X152576860Y-66071815D01*
X152556218Y-66055181D01*
X151868563Y-65367526D01*
X151868562Y-65367525D01*
X151782938Y-65318090D01*
X151735186Y-65305295D01*
X151735184Y-65305294D01*
X151735182Y-65305293D01*
X151687436Y-65292500D01*
X151687435Y-65292500D01*
X109015436Y-65292500D01*
X108916564Y-65292500D01*
X108868812Y-65305295D01*
X108868811Y-65305294D01*
X108821066Y-65318088D01*
X108821059Y-65318091D01*
X108797126Y-65331908D01*
X108778250Y-65342807D01*
X108767546Y-65348986D01*
X108735440Y-65367522D01*
X108735435Y-65367526D01*
X108436438Y-65666525D01*
X108366527Y-65736435D01*
X108317091Y-65822060D01*
X108317090Y-65822063D01*
X108296593Y-65898560D01*
X108296592Y-65898564D01*
X108291500Y-65917565D01*
X108291500Y-66200989D01*
X108271815Y-66268028D01*
X108219011Y-66313783D01*
X108149853Y-66323727D01*
X108102223Y-66306416D01*
X107934642Y-66202655D01*
X107934635Y-66202651D01*
X107803674Y-66151917D01*
X107744456Y-66128976D01*
X107543976Y-66091500D01*
X107340024Y-66091500D01*
X107253801Y-66107617D01*
X107139536Y-66128977D01*
X107049443Y-66163879D01*
X106979820Y-66169740D01*
X106918080Y-66137030D01*
X106916970Y-66135933D01*
X106402563Y-65621526D01*
X106402562Y-65621525D01*
X106316938Y-65572090D01*
X106269186Y-65559295D01*
X106269184Y-65559294D01*
X106269182Y-65559293D01*
X106221436Y-65546500D01*
X106221435Y-65546500D01*
X104489024Y-65546500D01*
X104390152Y-65546500D01*
X104294649Y-65572089D01*
X104209026Y-65621525D01*
X104209023Y-65621527D01*
X101956526Y-67874024D01*
X101907091Y-67959647D01*
X101907091Y-67959648D01*
X101907090Y-67959650D01*
X101881500Y-68055153D01*
X96266000Y-68055153D01*
X96266000Y-62354000D01*
X96285685Y-62286961D01*
X96338489Y-62241206D01*
X96390000Y-62230000D01*
X159896000Y-62230000D01*
X159963039Y-62249685D01*
G37*
G04 #@! TD.AperFunction*
D16*
X92710000Y-58848000D02*
G75*
G02*
X97710000Y-53848000I5000000J0D01*
G01*
X158830000Y-53848000D02*
G75*
G02*
X163830000Y-58848000I0J-5000000D01*
G01*
X97710000Y-112522000D02*
G75*
G02*
X92710000Y-107522000I0J5000000D01*
G01*
X163830000Y-107522000D02*
G75*
G02*
X158830000Y-112522000I-5000000J0D01*
G01*
X97710000Y-53848000D02*
X158830000Y-53848000D01*
X92710000Y-107522000D02*
X92710000Y-58848000D01*
X163830000Y-58848000D02*
X163830000Y-107522000D01*
X158830000Y-112522000D02*
X97710000Y-112522000D01*
M02*
