M48
; DRILL file {KiCad 8.0.4} date 2024-09-01T00:03:34+1000
; FORMAT={-:-/ absolute / metric / decimal}
; #@! TF.CreationDate,2024-09-01T00:03:34+10:00
; #@! TF.GenerationSoftware,Kicad,Pcbnew,8.0.4
; #@! TF.FileFunction,Plated,1,2,PTH
FMAT,2
METRIC
; #@! TA.AperFunction,Plated,PTH,ComponentDrill
T1C1.000
%
G90
G05
T1
X103.632Y-86.75
X103.632Y-91.83
X104.902Y-67.192
X104.902Y-69.732
X104.902Y-78.876
X104.902Y-81.416
X104.902Y-97.07
X104.902Y-99.61
X106.934Y-86.75
X106.934Y-91.83
X107.442Y-67.192
X107.442Y-69.732
X107.442Y-78.876
X107.442Y-81.416
X107.442Y-97.07
X107.442Y-99.61
X109.982Y-67.192
X109.982Y-69.732
X109.982Y-78.876
X109.982Y-81.416
X109.982Y-97.07
X109.982Y-99.61
X112.522Y-67.192
X112.522Y-69.732
X112.522Y-78.876
X112.522Y-81.416
X112.522Y-97.07
X112.522Y-99.61
X114.3Y-86.75
X114.3Y-91.83
X115.062Y-67.192
X115.062Y-69.732
X115.062Y-78.876
X115.062Y-81.416
X115.062Y-97.07
X115.062Y-99.61
X117.602Y-67.192
X117.602Y-69.732
X117.602Y-78.876
X117.602Y-81.416
X117.602Y-86.75
X117.602Y-91.83
X117.602Y-97.07
X117.602Y-99.61
X120.142Y-67.192
X120.142Y-69.732
X120.142Y-78.876
X120.142Y-81.416
X120.142Y-97.07
X120.142Y-99.61
X122.682Y-67.192
X122.682Y-69.732
X122.682Y-78.876
X122.682Y-81.416
X122.682Y-97.07
X122.682Y-99.61
X125.222Y-67.192
X125.222Y-69.732
X125.222Y-78.876
X125.222Y-81.416
X125.222Y-97.07
X125.222Y-99.61
X127.762Y-67.192
X127.762Y-69.732
X127.762Y-78.876
X127.762Y-81.416
X127.762Y-97.07
X127.762Y-99.61
X130.302Y-67.192
X130.302Y-69.732
X130.302Y-78.876
X130.302Y-81.416
X130.302Y-97.07
X130.302Y-99.61
X132.842Y-67.192
X132.842Y-69.732
X132.842Y-78.876
X132.842Y-81.416
X132.842Y-97.07
X132.842Y-99.61
X135.382Y-67.192
X135.382Y-69.732
X135.382Y-78.876
X135.382Y-81.416
X135.382Y-97.07
X135.382Y-99.61
X137.922Y-67.192
X137.922Y-69.732
X137.922Y-78.876
X137.922Y-81.416
X137.922Y-97.07
X137.922Y-99.61
X140.462Y-67.192
X140.462Y-69.732
X140.462Y-78.876
X140.462Y-81.416
X140.462Y-97.07
X140.462Y-99.61
X143.002Y-67.192
X143.002Y-69.732
X143.002Y-78.876
X143.002Y-81.416
X143.002Y-97.07
X143.002Y-99.61
X145.542Y-67.192
X145.542Y-69.732
X145.542Y-78.876
X145.542Y-81.416
X145.542Y-97.07
X145.542Y-99.61
X148.082Y-67.192
X148.082Y-69.732
X148.082Y-78.876
X148.082Y-81.416
X148.082Y-97.07
X148.082Y-99.61
X150.622Y-67.192
X150.622Y-69.732
X150.622Y-78.876
X150.622Y-81.416
X150.622Y-97.07
X150.622Y-99.61
X153.162Y-67.192
X153.162Y-69.732
X153.162Y-78.876
X153.162Y-81.416
X153.162Y-97.07
X153.162Y-99.61
M30
